<svg xmlns="http://www.w3.org/2000/svg" viewBox="0 0 250 200"><defs><style>.a{fill:#f8f8f8;}.b{fill:none;stroke:#ffa900;stroke-width:5.32px;}.c{isolation:isolate;}.d{fill:#707070;}.e{fill:#8ddaf2;}.f{fill:#466eb6;}</style></defs><rect class="a" y="85.11" width="250" height="114.89" rx="12.77"/><circle class="a" cx="124.47" cy="76.6" r="54.26"/><circle class="b" cx="124.47" cy="76.6" r="51.6"/><g class="c"><g class="c"><path class="d" d="M43,170.28H40v-8c0-.86,0-1.82.11-2.87H40a15.58,15.58,0,0,1-.42,1.78l-3.14,9.12H34l-3.2-9a15.65,15.65,0,0,1-.42-1.87h-.08q.12,2,.12,3.48v7.42H27.68V156.87H32.1l2.74,7.95a10.9,10.9,0,0,1,.48,1.91h0a18.93,18.93,0,0,1,.54-1.93l2.73-7.93H43Z"/><path class="d" d="M54.32,166.33H48.07c.1,1.39,1,2.08,2.63,2.08a5.08,5.08,0,0,0,2.77-.74v2.13a7.31,7.31,0,0,1-3.45.71,4.46,4.46,0,0,1-4.88-4.87,5.1,5.1,0,0,1,1.39-3.78,4.59,4.59,0,0,1,3.4-1.39,4.17,4.17,0,0,1,3.24,1.24,4.82,4.82,0,0,1,1.15,3.38Zm-2.74-1.81c0-1.38-.56-2.06-1.67-2.06a1.61,1.61,0,0,0-1.23.59,2.74,2.74,0,0,0-.63,1.47Z"/><path class="d" d="M65.32,170.28H62.38V165c0-1.49-.53-2.23-1.59-2.23a1.59,1.59,0,0,0-1.27.59,2.24,2.24,0,0,0-.49,1.5v5.46h-3V160.7h3v1.52h0a3.37,3.37,0,0,1,3.07-1.75q3.18,0,3.18,3.94Z"/><path class="d" d="M67,170v-2.39a6.23,6.23,0,0,0,1.46.65,4.6,4.6,0,0,0,1.37.22,2.79,2.79,0,0,0,1.23-.22.68.68,0,0,0,.46-.65.61.61,0,0,0-.21-.47,2.19,2.19,0,0,0-.53-.33c-.21-.09-.45-.17-.7-.25s-.5-.16-.74-.25a7.39,7.39,0,0,1-1-.46,3.06,3.06,0,0,1-.73-.58,2.3,2.3,0,0,1-.44-.76,2.78,2.78,0,0,1-.16-1,2.68,2.68,0,0,1,.35-1.39,3,3,0,0,1,.94-.95,4.53,4.53,0,0,1,1.33-.54,7.4,7.4,0,0,1,1.57-.17,8.19,8.19,0,0,1,1.29.1,9.25,9.25,0,0,1,1.29.28v2.28a4.52,4.52,0,0,0-1.2-.49,5.06,5.06,0,0,0-1.26-.16,3.31,3.31,0,0,0-.55.05,1.49,1.49,0,0,0-.45.15.86.86,0,0,0-.31.25.61.61,0,0,0-.11.35.64.64,0,0,0,.17.45,1.35,1.35,0,0,0,.44.32,4.16,4.16,0,0,0,.6.25l.66.22a8.21,8.21,0,0,1,1.07.44,3.57,3.57,0,0,1,.81.58,2.13,2.13,0,0,1,.53.76,2.74,2.74,0,0,1,.18,1A2.67,2.67,0,0,1,74,168.8a3,3,0,0,1-1,1,4.66,4.66,0,0,1-1.41.55,8.27,8.27,0,0,1-1.66.17A8.42,8.42,0,0,1,67,170Z"/><path class="d" d="M84.05,170.28h-2.8V168.9h0a3.15,3.15,0,0,1-2.86,1.61,3,3,0,0,1-2.19-.79,2.85,2.85,0,0,1-.8-2.11q0-2.79,3.3-3.22l2.6-.34c0-1.05-.57-1.57-1.7-1.57a5.77,5.77,0,0,0-3.25,1v-2.23a7.28,7.28,0,0,1,1.68-.56,9.07,9.07,0,0,1,2-.24q4.1,0,4.1,4.08Zm-2.78-3.89v-.65l-1.74.23q-1.44.18-1.44,1.29a1.08,1.08,0,0,0,.35.83,1.33,1.33,0,0,0,1,.32,1.76,1.76,0,0,0,1.36-.57A2.06,2.06,0,0,0,81.27,166.39Z"/><path class="d" d="M89.34,170.11a5.16,5.16,0,0,1-1,3.39,3.63,3.63,0,0,1-3,1.27,4.05,4.05,0,0,1-1.41-.28v-2.32a2.33,2.33,0,0,0,1.09.35c.93,0,1.4-.73,1.4-2.19V160.7h3Zm-1.46-10.92a1.7,1.7,0,0,1-1.22-.45,1.42,1.42,0,0,1-.48-1.09,1.37,1.37,0,0,1,.48-1.08,2,2,0,0,1,2.45,0,1.36,1.36,0,0,1,.47,1.08,1.42,1.42,0,0,1-.47,1.11A1.77,1.77,0,0,1,87.88,159.19Z"/><path class="d" d="M100.43,166.33H94.18c.1,1.39,1,2.08,2.63,2.08a5.11,5.11,0,0,0,2.78-.74v2.13a7.37,7.37,0,0,1-3.45.71,4.46,4.46,0,0,1-4.88-4.87,5.14,5.14,0,0,1,1.38-3.78,4.6,4.6,0,0,1,3.4-1.39,4.17,4.17,0,0,1,3.24,1.24,4.78,4.78,0,0,1,1.15,3.38Zm-2.74-1.81c0-1.38-.55-2.06-1.66-2.06a1.58,1.58,0,0,0-1.23.59,2.6,2.6,0,0,0-.63,1.47Z"/><path class="d" d="M108.43,163.37a2.47,2.47,0,0,0-1.24-.29,1.81,1.81,0,0,0-1.51.7,3.08,3.08,0,0,0-.54,1.92v4.58h-3V160.7h3v1.78h0a2.56,2.56,0,0,1,2.52-1.95,1.75,1.75,0,0,1,.73.12Z"/><path class="d" d="M114.29,156.17l-2.93,3h-2.13l2.43-3Zm-1.53,14.11h-3V160.7h3Z"/><path class="d" d="M123.22,170.28h-2.8V168.9h0a3.12,3.12,0,0,1-2.85,1.61,3,3,0,0,1-2.19-.79,2.85,2.85,0,0,1-.8-2.11q0-2.79,3.3-3.22l2.6-.34c0-1.05-.57-1.57-1.7-1.57a5.83,5.83,0,0,0-3.26,1v-2.23a7.55,7.55,0,0,1,1.69-.56,9,9,0,0,1,2-.24q4.09,0,4.1,4.08Zm-2.78-3.89v-.65l-1.74.23q-1.44.18-1.44,1.29a1.08,1.08,0,0,0,.35.83,1.32,1.32,0,0,0,1,.32,1.77,1.77,0,0,0,1.36-.57A2.11,2.11,0,0,0,120.44,166.39Z"/></g><g class="c"><path class="d" d="M131.89,158.27a1,1,0,0,1-.7-.28,1,1,0,0,1-.29-.71,1,1,0,0,1,1-1,1,1,0,0,1,.72.28,1,1,0,0,1,.29.72,1,1,0,0,1-.29.7A1,1,0,0,1,131.89,158.27Zm.75,12h-1.53V160.7h1.53Z"/><path class="d" d="M143.69,170.28h-1.53v-5.46c0-2-.74-3-2.23-3a2.43,2.43,0,0,0-1.9.86,3.23,3.23,0,0,0-.75,2.19v5.46h-1.53V160.7h1.53v1.59h0a3.45,3.45,0,0,1,3.14-1.81,2.93,2.93,0,0,1,2.4,1,4.49,4.49,0,0,1,.83,2.93Z"/><path class="d" d="M146,169.93v-1.65a4.55,4.55,0,0,0,2.76.93c1.35,0,2-.45,2-1.35a1.23,1.23,0,0,0-.17-.65,1.9,1.9,0,0,0-.47-.47,3.73,3.73,0,0,0-.69-.37l-.86-.34c-.42-.17-.79-.34-1.12-.51a3.3,3.3,0,0,1-.8-.58,2.23,2.23,0,0,1-.49-.73,2.86,2.86,0,0,1-.16-1,2.27,2.27,0,0,1,.31-1.19,3,3,0,0,1,.82-.87,4.09,4.09,0,0,1,1.18-.53,5.51,5.51,0,0,1,1.36-.17,5.4,5.4,0,0,1,2.22.43v1.55a4.32,4.32,0,0,0-2.43-.69,3.15,3.15,0,0,0-.78.09,2,2,0,0,0-.59.28,1.3,1.3,0,0,0-.38.43,1.09,1.09,0,0,0-.14.54,1.33,1.33,0,0,0,.14.63,1.38,1.38,0,0,0,.39.45,3,3,0,0,0,.64.35c.25.11.53.23.85.35a10.45,10.45,0,0,1,1.14.5,3.5,3.5,0,0,1,.86.58,2.2,2.2,0,0,1,.55.74,2.38,2.38,0,0,1,.19,1A2.35,2.35,0,0,1,152,169a2.68,2.68,0,0,1-.84.87,3.77,3.77,0,0,1-1.21.51,6,6,0,0,1-1.43.17A5.46,5.46,0,0,1,146,169.93Z"/><path class="d" d="M159.15,170.18a3,3,0,0,1-1.43.3c-1.68,0-2.52-.93-2.52-2.8V162h-1.64V160.7h1.64v-2.34l1.54-.49v2.83h2.41V162h-2.41v5.4a2.28,2.28,0,0,0,.32,1.37,1.33,1.33,0,0,0,1.09.41,1.58,1.58,0,0,0,1-.32Z"/><path class="d" d="M168.05,170.28h-1.53v-1.5h0a3.21,3.21,0,0,1-2.95,1.72,3.14,3.14,0,0,1-2.24-.76,2.6,2.6,0,0,1-.8-2q0-2.68,3.16-3.12l2.87-.4c0-1.63-.66-2.44-2-2.44a4.69,4.69,0,0,0-3.12,1.18v-1.58a6,6,0,0,1,3.25-.89q3.38,0,3.38,3.57Zm-1.53-4.85-2.31.32a3.79,3.79,0,0,0-1.61.53,1.52,1.52,0,0,0-.54,1.34,1.45,1.45,0,0,0,.5,1.15,1.94,1.94,0,0,0,1.33.44,2.46,2.46,0,0,0,1.88-.8,2.84,2.84,0,0,0,.75-2Z"/><path class="d" d="M178.89,170.28h-1.54v-5.46c0-2-.74-3-2.22-3a2.45,2.45,0,0,0-1.91.86,3.23,3.23,0,0,0-.75,2.19v5.46h-1.53V160.7h1.53v1.59h0a3.45,3.45,0,0,1,3.14-1.81,2.93,2.93,0,0,1,2.4,1,4.49,4.49,0,0,1,.84,2.93Z"/><path class="d" d="M186.22,170.18a3,3,0,0,1-1.43.3c-1.68,0-2.52-.93-2.52-2.8V162h-1.64V160.7h1.64v-2.34l1.53-.49v2.83h2.42V162H183.8v5.4a2.2,2.2,0,0,0,.33,1.37,1.33,1.33,0,0,0,1.09.41,1.58,1.58,0,0,0,1-.32Z"/><path class="d" d="M195.12,170.28h-1.54v-1.5h0a3.21,3.21,0,0,1-3,1.72,3.14,3.14,0,0,1-2.24-.76,2.61,2.61,0,0,1-.81-2c0-1.79,1.06-2.83,3.16-3.12l2.87-.4c0-1.63-.65-2.44-2-2.44a4.69,4.69,0,0,0-3.12,1.18v-1.58a6,6,0,0,1,3.25-.89q3.38,0,3.38,3.57Zm-1.54-4.85-2.3.32a3.74,3.74,0,0,0-1.61.53,1.53,1.53,0,0,0-.55,1.34,1.48,1.48,0,0,0,.5,1.15,2,2,0,0,0,1.34.44,2.46,2.46,0,0,0,1.88-.8,2.83,2.83,0,0,0,.74-2Zm.21-9.61-2.45,3.07h-1.19l2.09-3.07Z"/><path class="d" d="M206,170.28h-1.54v-5.46c0-2-.74-3-2.22-3a2.44,2.44,0,0,0-1.91.86,3.23,3.23,0,0,0-.75,2.19v5.46H198V160.7h1.53v1.59h0a3.45,3.45,0,0,1,3.14-1.81,2.93,2.93,0,0,1,2.4,1,4.49,4.49,0,0,1,.84,2.93Z"/><path class="d" d="M216.54,165.87h-6.76a3.55,3.55,0,0,0,.86,2.47,3,3,0,0,0,2.26.87,4.74,4.74,0,0,0,3-1.07v1.44a5.6,5.6,0,0,1-3.34.92,4,4,0,0,1-3.19-1.3,5.37,5.37,0,0,1-1.16-3.67,5.24,5.24,0,0,1,1.27-3.65,4.07,4.07,0,0,1,3.14-1.4,3.58,3.58,0,0,1,2.91,1.21,5.06,5.06,0,0,1,1,3.38Zm-1.57-1.3a3.13,3.13,0,0,0-.64-2.06,2.17,2.17,0,0,0-1.76-.74,2.51,2.51,0,0,0-1.84.77,3.59,3.59,0,0,0-.93,2Z"/><path class="d" d="M225.71,170.28h-1.53v-1.5h0a3.21,3.21,0,0,1-2.94,1.72,3.1,3.1,0,0,1-2.24-.76,2.61,2.61,0,0,1-.81-2q0-2.68,3.16-3.12l2.87-.4c0-1.63-.66-2.44-2-2.44a4.7,4.7,0,0,0-3.13,1.18v-1.58a6,6,0,0,1,3.26-.89q3.38,0,3.37,3.57Zm-1.53-4.85-2.31.32a3.79,3.79,0,0,0-1.61.53,1.52,1.52,0,0,0-.54,1.34,1.45,1.45,0,0,0,.5,1.15,2,2,0,0,0,1.33.44,2.46,2.46,0,0,0,1.88-.8,2.84,2.84,0,0,0,.75-2Z"/></g></g><path class="e" d="M98,107.38c.85-3.84,1.58-7.31,2.39-10.76A2.31,2.31,0,0,0,99.56,94c-6.37-5.67-9.91-12.7-9.66-21.35S94.12,57.31,100.64,52a36.06,36.06,0,0,1,20.26-8c10.16-.86,19.38,1.59,27.32,8S160,66.7,158.83,77a24.23,24.23,0,0,1-4.62,11.6c-9.94-7.59-23.64.6-21.52,13.75a39.88,39.88,0,0,1-19.17-.74,5.56,5.56,0,0,0-4.66.42C105.42,103.87,101.87,105.5,98,107.38Zm16-32.51a5.08,5.08,0,0,0-4.84-5.31h-.31a5.38,5.38,0,0,0-5.17,5.26,5.31,5.31,0,0,0,5.26,5.3,5.08,5.08,0,0,0,5.07-5.07,1.09,1.09,0,0,0,0-.18Zm19.46-.06a5,5,0,0,0,4.75,5.29h.39a5.28,5.28,0,0,0-.09-10.55,5.09,5.09,0,0,0-5.05,5.15v.1Zm-4.73,0a5.07,5.07,0,0,0-4.89-5.27h-.29a5.3,5.3,0,0,0-5.1,5.3,5.21,5.21,0,0,0,5.16,5.26h.1a5.1,5.1,0,0,0,5-5.19v-.09Z"/><path class="f" d="M155.6,99.29A9.86,9.86,0,0,1,146,109.4a10.11,10.11,0,0,1-.33-20.22h0A9.89,9.89,0,0,1,155.61,99C155.61,99.09,155.61,99.19,155.6,99.29Zm-9.95,2.57c0,.6,0,1,0,1.3-.09,1,.36,1.29,1.33,1.29s1.39-.33,1.31-1.31c-.06-.69,0-1.26.92-1.42a8.06,8.06,0,0,0,.1-1.9c-1.29,0-1-1-1-1.75,0-1,.06-2,0-3-.05-.59-.23-1.64-.44-1.66-1-.11-2.58-.33-3,.21a41.46,41.46,0,0,0-3.92,6.57c-.57,1.16,0,1.66,1.36,1.68,1,0,2.09,0,3.32,0Z"/><path class="f" d="M145.56,96.2v3.46l-2,.14C144.25,98.58,144.82,97.55,145.56,96.2Z"/></svg>