<svg xmlns="http://www.w3.org/2000/svg" width="102" height="102" viewBox="0 0 102 102"><g transform="translate(-740 -4444)"><g transform="translate(740 4444)" fill="#f8f8f8" stroke="#ffa900" stroke-width="5"><circle cx="51" cy="51" r="51" stroke="none"/><circle cx="51" cy="51" r="48.5" fill="none"/></g><g transform="translate(-1740.546 4055.901)"><path d="M2505.184,466.872c.8-3.613,1.487-6.876,2.249-10.122a2.173,2.173,0,0,0-.8-2.431c-5.984-5.333-9.317-11.939-9.077-20.067.238-8.073,3.963-14.447,10.091-19.476a33.807,33.807,0,0,1,19.049-7.518c9.542-.815,18.213,1.487,25.677,7.523,7.447,6.023,11.1,13.844,9.97,23.539a22.658,22.658,0,0,1-4.338,10.9c-9.347-7.129-22.228.568-20.227,12.931a37.433,37.433,0,0,1-18.022-.7,5.243,5.243,0,0,0-4.38.4C2512.138,463.571,2508.8,465.1,2505.184,466.872Zm15.091-30.565a4.775,4.775,0,0,0-4.848-4.99,5.058,5.058,0,0,0-4.858,4.946,4.986,4.986,0,0,0,4.95,4.977A4.762,4.762,0,0,0,2520.275,436.307Zm18.29-.055a4.728,4.728,0,0,0,4.833,4.982,4.961,4.961,0,0,0-.083-9.919A4.8,4.8,0,0,0,2538.564,436.253Zm-4.448.017a4.777,4.777,0,0,0-4.873-4.957,4.972,4.972,0,0,0-4.792,4.976,4.9,4.9,0,0,0,4.947,4.95A4.8,4.8,0,0,0,2534.116,436.27Z" fill="#8ddaf2"/><g transform="translate(2540.737 449.759)"><path d="M2585.055,484.688a9.27,9.27,0,0,1-9.026,9.5,9.5,9.5,0,0,1-.308-19A9.275,9.275,0,0,1,2585.055,484.688Zm-9.358,2.418c0,.563.024.892-.005,1.216-.084.93.338,1.213,1.244,1.22.926.006,1.31-.317,1.233-1.231-.054-.65,0-1.186.869-1.336a7.514,7.514,0,0,0,.091-1.79c-1.21-.039-.9-.947-.917-1.64-.023-.943.048-1.891-.017-2.83-.039-.554-.216-1.545-.411-1.565-.948-.1-2.42-.308-2.8.2a38.917,38.917,0,0,0-3.682,6.172c-.541,1.094-.034,1.565,1.276,1.581C2573.558,487.115,2574.541,487.106,2575.7,487.106Z" transform="translate(-2566.478 -475.183)" fill="#466eb6"/><path d="M2579.949,485.723v3.251l-1.851.125C2578.723,487.959,2579.255,486.989,2579.949,485.723Z" transform="translate(-2570.817 -479.119)" fill="#466eb6"/></g></g></g></svg>