<svg xmlns="http://www.w3.org/2000/svg" viewBox="0 0 250 200"><defs><style>.a{fill:#f8f8f8;}.b{fill:none;stroke:#ffa900;stroke-width:5.32px;}.c,.h{isolation:isolate;}.d{fill:#707070;}.e{fill:#2ebdc2;}.f{fill:#d5d5d5;}.g{fill:#fa4441;}.h{fill:#00d1e3;opacity:0.37;}</style></defs><rect class="a" y="85.11" width="250" height="114.89" rx="12.77"/><circle class="a" cx="124.47" cy="76.6" r="54.26"/><circle class="b" cx="124.47" cy="76.6" r="51.6"/><g class="c"><g class="c"><path class="d" d="M15.08,170.21V156.8H18.9a4.16,4.16,0,0,1,2.76.86,2.73,2.73,0,0,1,1,2.21,3.26,3.26,0,0,1-.62,2,3.36,3.36,0,0,1-1.7,1.2v0a3.42,3.42,0,0,1,2.17,1,3.17,3.17,0,0,1,.81,2.25,3.51,3.51,0,0,1-1.23,2.79A4.61,4.61,0,0,1,19,170.21Zm1.58-12v4.33h1.6a3,3,0,0,0,2-.63,2.14,2.14,0,0,0,.74-1.75c0-1.3-.86-2-2.57-2Zm0,5.74v4.82h2.13a3.22,3.22,0,0,0,2.14-.65,2.26,2.26,0,0,0,.77-1.8q0-2.37-3.24-2.37Z"/><path class="d" d="M33.6,170.21H32.06V168.7h0a3.15,3.15,0,0,1-3,1.74q-3.42,0-3.42-4.08v-5.72h1.52v5.48c0,2,.78,3,2.32,3a2.35,2.35,0,0,0,1.85-.83,3.18,3.18,0,0,0,.72-2.17v-5.51H33.6Zm-1.44-14.45-2.45,3.06H28.52l2.09-3.06Z"/><path class="d" d="M36.11,169.87v-1.65a4.55,4.55,0,0,0,2.76.93c1.35,0,2-.45,2-1.35a1.21,1.21,0,0,0-.17-.65,1.75,1.75,0,0,0-.47-.47,3.73,3.73,0,0,0-.69-.37L38.7,166a11.88,11.88,0,0,1-1.11-.51,3.44,3.44,0,0,1-.81-.58,2.28,2.28,0,0,1-.49-.74,2.75,2.75,0,0,1-.16-1,2.25,2.25,0,0,1,.31-1.19,2.73,2.73,0,0,1,.82-.87,4.09,4.09,0,0,1,1.18-.53,5.13,5.13,0,0,1,1.36-.18,5.56,5.56,0,0,1,2.22.43v1.56a4.25,4.25,0,0,0-2.43-.7,3,3,0,0,0-.77.1,2,2,0,0,0-.6.28,1.37,1.37,0,0,0-.38.42,1.15,1.15,0,0,0-.14.55,1.33,1.33,0,0,0,.14.63,1.3,1.3,0,0,0,.4.45,2.66,2.66,0,0,0,.63.35l.85.35a10.45,10.45,0,0,1,1.14.5,3.5,3.5,0,0,1,.86.58,2.2,2.2,0,0,1,.55.74,2.35,2.35,0,0,1,.19,1,2.38,2.38,0,0,1-.31,1.24,2.75,2.75,0,0,1-.84.86,3.61,3.61,0,0,1-1.2.52,6.15,6.15,0,0,1-1.43.17A5.47,5.47,0,0,1,36.11,169.87Z"/><path class="d" d="M53,174.62H51.46v-6.05h0a3.45,3.45,0,0,1-3.27,1.87,3.61,3.61,0,0,1-2.9-1.29,5.25,5.25,0,0,1-1.09-3.5,5.72,5.72,0,0,1,1.2-3.81,4,4,0,0,1,3.22-1.43A3,3,0,0,1,51.42,162h0v-1.33H53Zm-1.53-8.72v-1.39a2.75,2.75,0,0,0-.78-2,2.57,2.57,0,0,0-2-.82,2.63,2.63,0,0,0-2.19,1,4.53,4.53,0,0,0-.81,2.88,4,4,0,0,0,.78,2.6,2.49,2.49,0,0,0,2,.94,2.72,2.72,0,0,0,2.15-.92A3.45,3.45,0,0,0,51.46,165.9Z"/><path class="d" d="M63.84,170.21H62.3V168.7h0a3.16,3.16,0,0,1-3,1.74q-3.42,0-3.42-4.08v-5.72h1.52v5.48c0,2,.78,3,2.32,3a2.37,2.37,0,0,0,1.85-.83,3.18,3.18,0,0,0,.72-2.17v-5.51h1.54Z"/><path class="d" d="M74.63,165.81H67.87a3.57,3.57,0,0,0,.86,2.47,3,3,0,0,0,2.26.87,4.69,4.69,0,0,0,3-1.07v1.44a5.55,5.55,0,0,1-3.34.92,4,4,0,0,1-3.18-1.31,6.13,6.13,0,0,1,.1-7.31,4.08,4.08,0,0,1,3.15-1.41,3.62,3.62,0,0,1,2.91,1.22,5.08,5.08,0,0,1,1,3.37Zm-1.57-1.3a3.11,3.11,0,0,0-.65-2.07,2.18,2.18,0,0,0-1.75-.74,2.46,2.46,0,0,0-1.84.78,3.5,3.5,0,0,0-.94,2Z"/><path class="d" d="M85.12,170.21H83.58v-1.62h0a3.86,3.86,0,0,1-6.18.56,5.25,5.25,0,0,1-1.08-3.5,5.76,5.76,0,0,1,1.2-3.81,4,4,0,0,1,3.19-1.43A3.07,3.07,0,0,1,83.55,162h0V156h1.54Zm-1.54-4.33v-1.41a2.72,2.72,0,0,0-.76-2,2.56,2.56,0,0,0-1.95-.81,2.65,2.65,0,0,0-2.2,1,4.51,4.51,0,0,0-.81,2.85,4.08,4.08,0,0,0,.77,2.61,2.53,2.53,0,0,0,2.07,1,2.6,2.6,0,0,0,2.08-.93A3.43,3.43,0,0,0,83.58,165.88Z"/><path class="d" d="M95.07,170.21H93.54v-1.49h0a3.2,3.2,0,0,1-2.94,1.72,3.16,3.16,0,0,1-2.24-.76,2.64,2.64,0,0,1-.81-2q0-2.68,3.16-3.12l2.87-.41c0-1.62-.66-2.44-2-2.44a4.72,4.72,0,0,0-3.12,1.18v-1.57a5.9,5.9,0,0,1,3.25-.9q3.38,0,3.37,3.58Zm-1.53-4.84-2.31.32a3.7,3.7,0,0,0-1.61.53,1.52,1.52,0,0,0-.54,1.34,1.46,1.46,0,0,0,.5,1.14,1.91,1.91,0,0,0,1.33.45,2.49,2.49,0,0,0,1.89-.8,2.88,2.88,0,0,0,.74-2Z"/><path class="d" d="M111.38,170.21h-1.53v-1.62h0a3.55,3.55,0,0,1-3.29,1.85,3.59,3.59,0,0,1-2.89-1.29,5.25,5.25,0,0,1-1.08-3.5,5.76,5.76,0,0,1,1.2-3.81,4,4,0,0,1,3.19-1.43,3.06,3.06,0,0,1,2.87,1.56h0V156h1.53Zm-1.53-4.33v-1.41a2.73,2.73,0,0,0-.77-2,2.56,2.56,0,0,0-1.94-.81,2.67,2.67,0,0,0-2.21,1,4.51,4.51,0,0,0-.8,2.85,4,4,0,0,0,.77,2.61,2.51,2.51,0,0,0,2.07,1,2.63,2.63,0,0,0,2.08-.93A3.48,3.48,0,0,0,109.85,165.88Z"/><path class="d" d="M122.18,165.81h-6.76a3.61,3.61,0,0,0,.86,2.47,3,3,0,0,0,2.26.87,4.74,4.74,0,0,0,3-1.07v1.44a5.57,5.57,0,0,1-3.34.92,4.05,4.05,0,0,1-3.19-1.31,5.35,5.35,0,0,1-1.16-3.67,5.21,5.21,0,0,1,1.27-3.64,4,4,0,0,1,3.14-1.41,3.59,3.59,0,0,1,2.91,1.22,5,5,0,0,1,1,3.37Zm-1.57-1.3a3.16,3.16,0,0,0-.64-2.07,2.19,2.19,0,0,0-1.75-.74,2.49,2.49,0,0,0-1.85.78,3.55,3.55,0,0,0-.93,2Z"/></g><g class="c"><path class="d" d="M131,159.12a1.72,1.72,0,0,1-1.23-.44,1.46,1.46,0,0,1-.47-1.09,1.39,1.39,0,0,1,.47-1.08,2,2,0,0,1,2.46,0,1.39,1.39,0,0,1,.47,1.08,1.42,1.42,0,0,1-.47,1.1A1.76,1.76,0,0,1,131,159.12Zm1.46,11.09h-3v-9.57h3Z"/><path class="d" d="M144.16,170.21h-2.94v-5.32q0-2.22-1.59-2.22a1.55,1.55,0,0,0-1.26.59,2.24,2.24,0,0,0-.5,1.49v5.46h-3v-9.57h3v1.51h0A3.39,3.39,0,0,1,141,160.4q3.18,0,3.18,3.95Z"/><path class="d" d="M152.75,158.3a3,3,0,0,0-1.1-.22c-1,0-1.42.51-1.42,1.54v1h2.19v2.18h-2.19v7.39h-2.94v-7.39h-1.61v-2.18h1.61v-1.19a3.46,3.46,0,0,1,1.06-2.64,4.1,4.1,0,0,1,2.9-1,5.27,5.27,0,0,1,1.5.19Z"/><path class="d" d="M158.4,170.45a5.16,5.16,0,0,1-3.76-1.34,4.89,4.89,0,0,1-1.37-3.65,4.84,4.84,0,0,1,1.42-3.71,5.35,5.35,0,0,1,3.84-1.35,5.06,5.06,0,0,1,3.74,1.35,4.72,4.72,0,0,1,1.36,3.54,5.07,5.07,0,0,1-1.4,3.77A5.18,5.18,0,0,1,158.4,170.45Zm.08-7.78a2,2,0,0,0-1.63.72,3.16,3.16,0,0,0-.58,2c0,1.83.74,2.75,2.23,2.75s2.12-.94,2.12-2.83S159.9,162.67,158.48,162.67Z"/><path class="d" d="M171.79,163.3a2.58,2.58,0,0,0-1.24-.29,1.81,1.81,0,0,0-1.51.71,3.08,3.08,0,0,0-.54,1.92v4.57h-2.95v-9.57h2.95v1.77h0a2.56,2.56,0,0,1,2.52-1.94,2,2,0,0,1,.73.11Z"/><path class="d" d="M188.43,170.21h-3v-5.46c0-1.39-.51-2.08-1.53-2.08a1.43,1.43,0,0,0-1.19.62,2.56,2.56,0,0,0-.46,1.57v5.35h-3V164.7c0-1.36-.5-2-1.51-2a1.44,1.44,0,0,0-1.21.6,2.62,2.62,0,0,0-.45,1.62v5.32h-3v-9.57h3v1.49h0a3.57,3.57,0,0,1,1.29-1.24,3.53,3.53,0,0,1,1.81-.49,2.77,2.77,0,0,1,2.78,1.79,3.54,3.54,0,0,1,3.21-1.79c2.08,0,3.13,1.29,3.13,3.86Z"/><path class="d" d="M198.73,170.21h-2.8v-1.37h0a3.15,3.15,0,0,1-2.86,1.61,3,3,0,0,1-2.19-.79,2.85,2.85,0,0,1-.8-2.11q0-2.79,3.3-3.22L196,164c0-1.05-.56-1.58-1.7-1.58a5.8,5.8,0,0,0-3.25,1v-2.22a7.28,7.28,0,0,1,1.68-.56,9.14,9.14,0,0,1,1.95-.25c2.73,0,4.1,1.37,4.1,4.09ZM196,166.32v-.64l-1.74.22c-1,.13-1.44.56-1.44,1.3a1.08,1.08,0,0,0,.35.83,1.33,1.33,0,0,0,.95.32,1.76,1.76,0,0,0,1.36-.57A2.09,2.09,0,0,0,196,166.32Z"/><path class="d" d="M208.32,169.87a5.9,5.9,0,0,1-2.89.58,4.89,4.89,0,0,1-3.57-1.34,4.61,4.61,0,0,1-1.36-3.45,5.07,5.07,0,0,1,1.46-3.85,5.39,5.39,0,0,1,3.91-1.41,5,5,0,0,1,2.45.45v2.51a3.34,3.34,0,0,0-2.06-.69,2.76,2.76,0,0,0-2,.74,2.8,2.8,0,0,0-.74,2.05,2.7,2.7,0,0,0,.71,2,2.6,2.6,0,0,0,1.95.72,3.89,3.89,0,0,0,2.16-.69Z"/><path class="d" d="M211.75,159.12a1.71,1.71,0,0,1-1.22-.44,1.43,1.43,0,0,1-.48-1.09,1.37,1.37,0,0,1,.48-1.08,1.8,1.8,0,0,1,1.22-.43,1.77,1.77,0,0,1,1.23.43,1.37,1.37,0,0,1,.48,1.08,1.4,1.4,0,0,1-.48,1.1A1.72,1.72,0,0,1,211.75,159.12Zm1.46,11.09h-3v-9.57h3Z"/><path class="d" d="M220.26,170.45a5.16,5.16,0,0,1-3.76-1.34,4.89,4.89,0,0,1-1.37-3.65,4.84,4.84,0,0,1,1.42-3.71,5.35,5.35,0,0,1,3.84-1.35,5.06,5.06,0,0,1,3.74,1.35,4.72,4.72,0,0,1,1.36,3.54,5.07,5.07,0,0,1-1.4,3.77A5.18,5.18,0,0,1,220.26,170.45Zm.08-7.78a2,2,0,0,0-1.63.72,3.16,3.16,0,0,0-.58,2c0,1.83.74,2.75,2.23,2.75s2.12-.94,2.12-2.83S221.76,162.67,220.34,162.67Zm3.17-6.57-2.93,3h-2.13l2.43-3Z"/><path class="d" d="M236.64,170.21H233.7v-5.32q0-2.22-1.59-2.22a1.55,1.55,0,0,0-1.26.59,2.24,2.24,0,0,0-.5,1.49v5.46H227.4v-9.57h2.95v1.51h0a3.39,3.39,0,0,1,3.07-1.75q3.18,0,3.18,3.95Z"/></g></g><path class="e" d="M127.5,50.55a16.6,16.6,0,1,0-3,23.27h0A16.59,16.59,0,0,0,127.5,50.55Z"/><path class="f" d="M135.8,85.31l-3.11,2.4-9.42-12.25,3.11-2.39Z"/><path class="g" d="M153.84,104.66a4.26,4.26,0,0,1-1.06,5.91h0a4.26,4.26,0,0,1-6-.47L132.22,91.17a4.26,4.26,0,0,1,1.07-5.91h0a4.25,4.25,0,0,1,6,.48Z"/><path class="f" d="M130.22,48.45a20,20,0,1,0-3.65,28.09h0A20,20,0,0,0,130.22,48.45Zm-5.75,25.36a16.59,16.59,0,1,1,3-23.27h0a16.59,16.59,0,0,1-3,23.26Z"/><path class="h" d="M127.5,50.55a16.6,16.6,0,1,0-3,23.27h0A16.59,16.59,0,0,0,127.5,50.55Z"/></svg>