<svg xmlns="http://www.w3.org/2000/svg" viewBox="0 0 250 200"><defs><style>.a{fill:#f8f8f8;}.b{fill:none;stroke:#ffa900;stroke-width:5.32px;}.c{isolation:isolate;}.d{fill:#707070;}.e{fill:#f3eee3;}.f{fill:#f4eee3;}.g{fill:#dfdbd2;}.h{fill:#fdfefe;}.i{fill:#e9eaea;}.j{fill:#e4d7c9;}.k{fill:#ecdcc9;}.l{fill:#dacbbb;}.m{fill:#c6baac;}.n{fill:#95d9eb;}.o{fill:#424d5e;}.p{fill:#e44242;}.q{fill:#fe5151;}.r{fill:#f9fafa;}.s{fill:#4f6970;}</style></defs><rect class="a" y="85.11" width="250" height="114.89" rx="12.77"/><circle class="a" cx="124.47" cy="76.6" r="54.26"/><circle class="b" cx="124.47" cy="76.6" r="51.6"/><g class="c"><g class="c"><path class="d" d="M60,169.32a9.68,9.68,0,0,1-4.88,1.13,7.06,7.06,0,0,1-5.1-1.79,6.55,6.55,0,0,1-1.87-4.94,6.89,6.89,0,0,1,2-5.15,7.43,7.43,0,0,1,5.43-2,11,11,0,0,1,3.75.59V160a7.43,7.43,0,0,0-3.79-.9,4.07,4.07,0,0,0-3.06,1.22,5.2,5.2,0,0,0-.13,6.46,3.74,3.74,0,0,0,2.87,1.13,3.92,3.92,0,0,0,1.72-.31V165H54.25v-2.42H60Z"/><path class="d" d="M66.83,170.45a5.16,5.16,0,0,1-3.76-1.34,4.89,4.89,0,0,1-1.37-3.65,4.84,4.84,0,0,1,1.42-3.71A5.35,5.35,0,0,1,67,160.4a5.06,5.06,0,0,1,3.74,1.35,4.72,4.72,0,0,1,1.36,3.54,5.07,5.07,0,0,1-1.4,3.77A5.18,5.18,0,0,1,66.83,170.45Zm.08-7.78a2,2,0,0,0-1.63.72,3.16,3.16,0,0,0-.58,2c0,1.83.74,2.75,2.23,2.75s2.12-.94,2.12-2.83S68.34,162.67,66.91,162.67Z"/><path class="d" d="M77,169.1h0v1.11H74V156h3v6h0a3.5,3.5,0,0,1,3.11-1.68,3.4,3.4,0,0,1,2.85,1.28,5.43,5.43,0,0,1,1,3.47A6,6,0,0,1,82.77,169a3.83,3.83,0,0,1-3.13,1.45A3,3,0,0,1,77,169.1Zm-.09-4v1a2.24,2.24,0,0,0,.54,1.54,1.73,1.73,0,0,0,1.36.6,1.81,1.81,0,0,0,1.57-.78,3.76,3.76,0,0,0,.55-2.21,3,3,0,0,0-.5-1.85,1.72,1.72,0,0,0-1.46-.67,1.88,1.88,0,0,0-1.47.66A2.52,2.52,0,0,0,76.88,165.06Z"/><path class="d" d="M87.35,159.12a1.72,1.72,0,0,1-1.23-.44,1.42,1.42,0,0,1-.47-1.09,1.36,1.36,0,0,1,.47-1.08,2,2,0,0,1,2.46,0,1.39,1.39,0,0,1,.47,1.08,1.42,1.42,0,0,1-.47,1.1A1.76,1.76,0,0,1,87.35,159.12Zm1.46,11.09h-3v-9.57h3Z"/><path class="d" d="M99.89,166.27H93.65c.1,1.39,1,2.08,2.63,2.08a5.08,5.08,0,0,0,2.77-.75v2.14a7.31,7.31,0,0,1-3.45.71,4.46,4.46,0,0,1-4.88-4.87,5.1,5.1,0,0,1,1.39-3.78,4.59,4.59,0,0,1,3.4-1.4,4.17,4.17,0,0,1,3.24,1.25A4.79,4.79,0,0,1,99.89,165Zm-2.73-1.82c0-1.37-.56-2-1.67-2a1.58,1.58,0,0,0-1.23.59,2.67,2.67,0,0,0-.63,1.46Z"/><path class="d" d="M107.9,163.3a2.62,2.62,0,0,0-1.25-.29,1.79,1.79,0,0,0-1.5.71,3.08,3.08,0,0,0-.54,1.92v4.57h-3v-9.57h3v1.77h0a2.56,2.56,0,0,1,2.53-1.94,2,2,0,0,1,.73.11Z"/><path class="d" d="M118.58,170.21h-3v-5.32q0-2.22-1.59-2.22a1.55,1.55,0,0,0-1.26.59,2.24,2.24,0,0,0-.5,1.49v5.46h-3v-9.57h3v1.51h0a3.41,3.41,0,0,1,3.08-1.75q3.18,0,3.18,3.95Z"/><path class="d" d="M125.48,170.45a5.19,5.19,0,0,1-3.77-1.34,5.55,5.55,0,0,1,.05-7.36,5.36,5.36,0,0,1,3.85-1.35,5.08,5.08,0,0,1,3.74,1.35,4.76,4.76,0,0,1,1.35,3.54,5.07,5.07,0,0,1-1.39,3.77A5.19,5.19,0,0,1,125.48,170.45Zm.07-7.78a2,2,0,0,0-1.63.72,3.22,3.22,0,0,0-.58,2c0,1.83.75,2.75,2.23,2.75s2.12-.94,2.12-2.83S127,162.67,125.55,162.67Z"/></g><g class="c"><path class="d" d="M145.87,165.81h-6.76a3.57,3.57,0,0,0,.86,2.47,3,3,0,0,0,2.26.87,4.74,4.74,0,0,0,3-1.07v1.44a5.6,5.6,0,0,1-3.34.92,4,4,0,0,1-3.19-1.31,5.35,5.35,0,0,1-1.16-3.67,5.21,5.21,0,0,1,1.27-3.64,4,4,0,0,1,3.14-1.41,3.6,3.6,0,0,1,2.91,1.22,5,5,0,0,1,1,3.37Zm-1.57-1.3a3.16,3.16,0,0,0-.64-2.07,2.2,2.2,0,0,0-1.76-.74,2.48,2.48,0,0,0-1.84.78,3.55,3.55,0,0,0-.93,2Z"/><path class="d" d="M156.14,170.21H154.6v-5.46c0-2-.74-3.05-2.22-3.05a2.43,2.43,0,0,0-1.91.87,3.21,3.21,0,0,0-.75,2.18v5.46h-1.53v-9.57h1.53v1.59h0a3.46,3.46,0,0,1,3.14-1.82,2.91,2.91,0,0,1,2.4,1,4.49,4.49,0,0,1,.84,2.93Z"/><path class="d" d="M165.8,170.21h-1.53V156h1.53Z"/><path class="d" d="M171.82,155.76l-2.45,3.06h-1.19l2.08-3.06Zm-1.38,14.45h-1.53v-9.57h1.53Z"/><path class="d" d="M181.49,170.21H180v-5.46c0-2-.74-3.05-2.23-3.05a2.41,2.41,0,0,0-1.9.87,3.21,3.21,0,0,0-.75,2.18v5.46h-1.53v-9.57h1.53v1.59h0a3.46,3.46,0,0,1,3.14-1.82,2.92,2.92,0,0,1,2.4,1,4.49,4.49,0,0,1,.83,2.93Z"/><path class="d" d="M192.08,165.81h-6.76a3.57,3.57,0,0,0,.86,2.47,3,3,0,0,0,2.26.87,4.69,4.69,0,0,0,3-1.07v1.44a5.54,5.54,0,0,1-3.33.92,4,4,0,0,1-3.19-1.31,6.13,6.13,0,0,1,.1-7.31,4.08,4.08,0,0,1,3.15-1.41,3.62,3.62,0,0,1,2.91,1.22,5.08,5.08,0,0,1,1,3.37Zm-1.57-1.3a3.16,3.16,0,0,0-.64-2.07,2.22,2.22,0,0,0-1.76-.74,2.48,2.48,0,0,0-1.84.78,3.49,3.49,0,0,0-.93,2Z"/><path class="d" d="M201.25,170.21h-1.53v-1.49h0a3.23,3.23,0,0,1-3,1.72,3.18,3.18,0,0,1-2.24-.76,2.63,2.63,0,0,1-.8-2q0-2.68,3.16-3.12l2.87-.41c0-1.62-.66-2.44-2-2.44a4.74,4.74,0,0,0-3.12,1.18v-1.57a5.92,5.92,0,0,1,3.25-.9q3.38,0,3.38,3.58Zm-1.53-4.84-2.31.32a3.66,3.66,0,0,0-1.61.53,1.52,1.52,0,0,0-.54,1.34,1.43,1.43,0,0,0,.5,1.14,1.9,1.9,0,0,0,1.33.45,2.46,2.46,0,0,0,1.88-.8,2.84,2.84,0,0,0,.75-2Z"/></g></g><path class="e" d="M99.48,62.13c-1.52,0-3,0-4.57,0-.55,0-.72-.16-.71-.71,0-1.64,0-3.29,0-4.93a1.09,1.09,0,0,1,.7-1.09q11.73-6.45,23.45-12.92c2-1.08,3.93-2.14,5.88-3.25a1.24,1.24,0,0,1,1.39,0Q140.27,47.29,155,55.34a1.21,1.21,0,0,1,.76,1.24c-.06,1.55-.06,3.11,0,4.66,0,.74-.24.89-.92.87-1.46,0-2.92,0-4.39,0l-10.74,0H110.24Zm1.42-2.9a1.62,1.62,0,0,0,1,.17h49.8a1.7,1.7,0,0,0,1-.16c.32-.45-.08-.57-.35-.72-2.14-1.2-4.28-2.38-6.43-3.57-6.36-3.49-12.74-7-19.08-10.5a2,2,0,0,0-2.22,0q-11,6.15-22.11,12.24l-3.21,1.79c-.21.11-.46.23-.37.53s.34.22.54.22c.45,0,.9,0,1.35,0Z"/><path class="f" d="M92.24,102.66c0-1.36,0-2.73-.06-4.09,0-.51.23-.58.65-.57.83,0,1.66,0,2.49,0h59.43c.81,0,1.62,0,2.43,0,.49,0,.69.11.67.63,0,1.35,0,2.69,0,4H92.24Z"/><path class="e" d="M95.5,91.7l4,0,10.74.06,7.31,0h1a45.5,45.5,0,0,0,6.5.07c.92,0,1.84.07,2.76,0a20,20,0,0,0,3.71-.11h8.27l10.74,0c1.22,0,2.43,0,3.65,0,.46,0,.63.15.62.62,0,1.3,0,2.61,0,3.91H95.38c0-1.43,0-2.86,0-4.29Z"/><path class="g" d="M95.38,96.2h59.3l.07,1.79H95.32Z"/><path class="g" d="M92.24,102.66H157.8c.14,1.66.14,1.66-1.49,1.66H93.63C92,104.33,92,104.33,92.24,102.66Z"/><path class="h" d="M101.74,87.42c0-.39-.08-.78-.08-1.16l0-20h.45c.92.08,1.85.12,2.78.11q0,10.47,0,20.95l-3.13.08Z"/><path class="i" d="M148.32,66.25c0,.39-.06.77-.06,1.16q0,9.9,0,19.8l-2.86.15-.33,0V66.41l.45,0a12,12,0,0,0,2.32-.11Z"/><path class="j" d="M148.32,66.25h-.49a13.82,13.82,0,0,0-2.32.11l-.46,0h-3.13a1.77,1.77,0,0,0-.31-.15c-.61-.15-1.48.36-1.8-.27a4.82,4.82,0,0,1-.06-2,.29.29,0,0,1,0-.09l10.61,0c0,.12,0,.23,0,.35C150.45,66.33,150.45,66.33,148.32,66.25Z"/><path class="k" d="M102.08,66.26h-.45c-2.2,0-2.2,0-2.12-2.19l0-.17h10.61c0,.57,0,1.13,0,1.69s-.13.68-.65.68a2.57,2.57,0,0,0-1.55.14l-.3,0a5.06,5.06,0,0,0-2.12-.07Z"/><path class="k" d="M101.74,87.42h0c.27.26.61.18.92.19,1,0,1.94,0,2.91,0a16,16,0,0,0,2.59,0c2.49,0,2-.4,2,2a1,1,0,0,1,0,.17H99.54c0-.72-.35-1.66.16-2.09S101,87.47,101.74,87.42Z"/><path class="k" d="M148.26,87.51c2.17-.07,2.17-.07,2.15,2,0,.12,0,.23,0,.35l-.12,0a2.12,2.12,0,0,0-1.14-.14h-9.37a1,1,0,0,1,0-.17c0-2.41-.45-2,2-2a34,34,0,0,0,3.64,0A20.6,20.6,0,0,0,148.26,87.51Z"/><path class="l" d="M99.54,89.74h10.6c0,.63,0,1.26.07,1.9,0,0,0,.06,0,.09l-10.74,0C99.49,91,99.51,90.39,99.54,89.74Z"/><path class="l" d="M139.77,89.74h9.36a2.11,2.11,0,0,1,1.14.14,4.6,4.6,0,0,0,.13,1.48c0,.1,0,.21,0,.31l-10.75.06v-.1Z"/><path class="m" d="M150.38,63.86l-10.61,0c0-.6-.07-1.2-.11-1.79l10.75,0Z"/><path class="m" d="M110.15,63.9H99.54l-.06-1.77,10.77,0C110.22,62.71,110.18,63.31,110.15,63.9Z"/><path class="n" d="M148.25,87.51a19.08,19.08,0,0,1-2.83.09,2,2,0,0,0,0-.24l2.86-.15Z"/><path class="n" d="M150.4,91.37a4.9,4.9,0,0,1-.13-1.48l.12,0A4.21,4.21,0,0,1,150.4,91.37Z"/><path class="n" d="M95.5,91.7l-.14.21C95.34,91.79,95.37,91.72,95.5,91.7Z"/><path class="o" d="M110.15,63.9l.1-1.79h29.42c0,.6.06,1.2.1,1.8,0,0,0,.05,0,.08a4.86,4.86,0,0,0,.07,2c.31.62,1.18.12,1.79.27a1.77,1.77,0,0,1,.31.15q0,10.31,0,20.6a1.3,1.3,0,0,0,.08.34l-.2.2c-2.48,0-2-.39-2,2l0,.17c0,.64-.05,1.27-.07,1.9h-7.25c0-4.43,0-8.85,0-13.27a7.48,7.48,0,1,0-15-.31v.31c0,4.42,0,8.84,0,13.27h-7.24c0-.64,0-1.27-.07-1.9a1.1,1.1,0,0,0,0-.18c0-2.4.46-2-2-2l-.21-.19a2,2,0,0,0,.11-1q0-9.37,0-18.75c0-.38,0-.77,0-1.16a2.68,2.68,0,0,1,1.56-.14c.51,0,.68-.18.65-.67S110.15,64.47,110.15,63.9Z"/><path class="k" d="M152.78,59.24a1.69,1.69,0,0,1-1,.16h-49.8a1.63,1.63,0,0,1-1-.17,4.78,4.78,0,0,1,1.74-1l23.53-13a1.12,1.12,0,0,1,1.24,0c1.46.82,2.94,1.6,4.4,2.4,5.31,2.92,10.63,5.82,15.92,8.77A54.75,54.75,0,0,1,152.78,59.24ZM128,49.36c0-.1,0-.22-.18-.18l-.54-.73c-1.06-1.42-3.36-1.21-4.56-.16-1.42,1.24-1.38,3.76.08,4.67,0,.33.4.43.54.69l.18.19h0a3.17,3.17,0,0,0,4.47.29,2.85,2.85,0,0,0,.41-.44c1.11-1.44.85-3.72-.4-4.33Z"/><path class="l" d="M152.78,59.24a57.16,57.16,0,0,0-5.05-2.88c-5.29-3-10.61-5.85-15.92-8.77-1.46-.8-2.94-1.58-4.4-2.4a1.14,1.14,0,0,0-1.24,0q-11.76,6.48-23.53,13a4.67,4.67,0,0,0-1.74,1.06H99.55c-.2,0-.46,0-.54-.23s.16-.42.37-.53l3.21-1.79q11.05-6.11,22.11-12.24a2,2,0,0,1,2.22,0c6.34,3.53,12.72,7,19.08,10.5,2.15,1.17,4.3,2.36,6.43,3.56C152.71,58.67,153.11,58.79,152.78,59.24Z"/><path class="p" d="M131.44,91.71a19.27,19.27,0,0,1-3.72.11c-.91,0-1.83,0-2.75,0l0-13.13c1.86,0,3.71,0,5.56,0,.76,0,.92.2.92.94C131.4,83.59,131.44,87.65,131.44,91.71Z"/><path class="q" d="M125,78.64q0,6.57,0,13.14a45.48,45.48,0,0,1-6.5-.07c0-.18,0-.36,0-.53,0-3.94,0-7.88,0-11.83,0-.58.16-.76.75-.74C121.14,78.65,123.05,78.64,125,78.64Z"/><path class="r" d="M125,78.65c-1.92,0-3.82,0-5.73-.05-.59,0-.75.17-.75.75,0,3.94,0,7.88,0,11.82,0,.18,0,.36,0,.54h-1a.07.07,0,0,0-.05-.08q0-6.63,0-13.27a7.48,7.48,0,0,1,15-.31,1.6,1.6,0,0,1,0,.31c0,4.43,0,8.85,0,13.27a.07.07,0,0,0,0,.09h-1c0-4.06,0-8.12,0-12.18,0-.74-.16-1-.92-.94C128.66,78.67,126.81,78.64,125,78.65Zm-.65-1.78.22-.13V72.21c0-.36-.16-.48-.49-.42A6.75,6.75,0,0,0,121.11,73c-.24.18-.29.31,0,.55q1.64,1.64,3.25,3.29Zm1.07-.09L129,73.2a6.08,6.08,0,0,0-3-1.39c-.25,0-.59-.14-.59.3,0,1.55,0,3.11,0,4.67Zm.87.58.15.24h4.48c.35,0,.57,0,.48-.5a7.5,7.5,0,0,0-1.22-2.86c-.22-.29-.37-.31-.63,0-1.08,1.07-2.17,2.12-3.25,3.17Zm-2.75.24.08-.24c-1-1-2.12-2.09-3.16-3.15-.29-.3-.46-.24-.68.08a7.26,7.26,0,0,0-1.2,2.85c-.06.31,0,.46.35.46Z"/><path class="m" d="M117.46,91.64a.07.07,0,0,1,.05.08l-7.31,0a.31.31,0,0,1,0-.1Z"/><path class="m" d="M132.4,91.72a.07.07,0,0,1,0-.08h7.25v.1Z"/><path class="i" d="M108,66.4c0,.39.06.78.06,1.16V86.31a2.12,2.12,0,0,1-.11,1.06h-2.36l-.72-.05,0-20.95.69-.05,2.13.06Z"/><path class="n" d="M104.84,87.33l.73,0,0,.23h-2.91c-.31,0-.65.07-.91-.19Z"/><path class="n" d="M105.55,66.32l-.69.05c-.93,0-1.86,0-2.78-.11l3.48,0Z"/><path class="h" d="M142,87.36a1.89,1.89,0,0,1-.09-.34l0-20.6h3.13v20.9Z"/><path class="m" d="M142,87.36l3.07,0,.33,0c0,.08,0,.16.05.25a34.16,34.16,0,0,1-3.65,0Z"/><path class="n" d="M145.51,66.37a13.77,13.77,0,0,1,2.32-.11A12,12,0,0,1,145.51,66.37Z"/><path class="m" d="M105.55,66.32h0a5,5,0,0,1,2.11.07Z"/><path class="m" d="M105.54,87.6l0-.23h2.36l.21.19A16,16,0,0,1,105.54,87.6Z"/><path class="e" d="M123.34,53.65c-.14-.26-.49-.36-.54-.69a61.49,61.49,0,0,1,4.48-4.51l.54.73.18.18h0c.35,1.46.36,2.82-.93,3.92a3.86,3.86,0,0,1-3.55.56h0Z"/><path class="h" d="M127.29,48.46A59.57,59.57,0,0,0,122.8,53c-1.46-.91-1.5-3.42-.07-4.67C123.92,47.24,126.22,47,127.29,48.46Z"/><path class="l" d="M123.52,53.84a3.86,3.86,0,0,0,3.55-.56c1.29-1.1,1.28-2.46.93-3.92,1.26.61,1.51,2.89.4,4.33a3.17,3.17,0,0,1-4.44.56A2.85,2.85,0,0,1,123.52,53.84Z"/><path class="l" d="M128,49.36l-.18-.18C128,49.14,128,49.26,128,49.36Z"/><path class="l" d="M123.34,53.65l.18.19Z"/><path class="s" d="M124.31,76.87q-1.62-1.65-3.25-3.29c-.24-.24-.18-.37.06-.55A6.78,6.78,0,0,1,124,71.79c.34-.06.5.06.49.42v4.53Z"/><path class="s" d="M125.38,76.78V72.1c0-.44.35-.34.59-.29a6.1,6.1,0,0,1,3,1.38Z"/><path class="s" d="M126.26,77.36l3.25-3.17c.26-.26.42-.24.63,0a7.5,7.5,0,0,1,1.22,2.86c.1.45-.13.5-.48.5H126.4Z"/><path class="s" d="M123.5,77.59h-4.61c-.32,0-.41-.15-.35-.45a7.31,7.31,0,0,1,1.2-2.86c.22-.32.38-.37.68-.07,1,1.06,2.11,2.1,3.16,3.15Z"/></svg>