<svg xmlns="http://www.w3.org/2000/svg" viewBox="0 0 250 200"><defs><style>.a{fill:#f8f8f8;}.b{fill:none;stroke:#ffa900;stroke-width:5.32px;}.c{isolation:isolate;}.d{fill:#707070;}.e{fill:#fa4441;}.f{fill:#ff9208;}.g{fill:#e6e6e5;}.h{fill:#0d458d;}</style></defs><rect class="a" y="85.11" width="250" height="114.89" rx="12.77"/><circle class="a" cx="124.47" cy="76.6" r="54.26"/><circle class="b" cx="124.47" cy="76.6" r="51.6"/><g class="c"><g class="c"><path class="d" d="M44.09,169.8a8.84,8.84,0,0,1-3.83.71,6.49,6.49,0,0,1-4.85-1.81,6.65,6.65,0,0,1-1.77-4.84,7.09,7.09,0,0,1,2-5.22,7,7,0,0,1,5.15-2,9.61,9.61,0,0,1,3.31.5v2.91a5.81,5.81,0,0,0-3.06-.81A4.07,4.07,0,0,0,38,160.43a4.41,4.41,0,0,0-1.16,3.22,4.33,4.33,0,0,0,1.09,3.1,3.86,3.86,0,0,0,3,1.15,6.27,6.27,0,0,0,3.23-.86Z"/><path class="d" d="M50.7,170.51a5.16,5.16,0,0,1-3.76-1.34,5.55,5.55,0,0,1,.05-7.36,5.4,5.4,0,0,1,3.85-1.34,5.13,5.13,0,0,1,3.74,1.34,4.78,4.78,0,0,1,1.35,3.55,5,5,0,0,1-1.4,3.77A5.2,5.2,0,0,1,50.7,170.51Zm.08-7.78a2,2,0,0,0-1.63.72,3.22,3.22,0,0,0-.58,2c0,1.84.74,2.76,2.23,2.76s2.12-.95,2.12-2.84S52.21,162.73,50.78,162.73Z"/><path class="d" d="M73.05,170.28H70.11v-5.46c0-1.39-.52-2.09-1.54-2.09a1.42,1.42,0,0,0-1.19.63,2.57,2.57,0,0,0-.45,1.56v5.36H64v-5.52c0-1.35-.5-2-1.5-2a1.43,1.43,0,0,0-1.21.6A2.59,2.59,0,0,0,60.8,165v5.32H57.85V160.7H60.8v1.5h0a3.63,3.63,0,0,1,3.09-1.73,2.75,2.75,0,0,1,2.78,1.78,3.54,3.54,0,0,1,3.22-1.78q3.12,0,3.12,3.85Z"/><path class="d" d="M84,166.33H77.74c.1,1.39,1,2.08,2.63,2.08a5.11,5.11,0,0,0,2.78-.74v2.13a7.37,7.37,0,0,1-3.45.71,4.46,4.46,0,0,1-4.88-4.87,5.14,5.14,0,0,1,1.38-3.78,4.61,4.61,0,0,1,3.41-1.39,4.2,4.2,0,0,1,3.24,1.24A4.82,4.82,0,0,1,84,165.09Zm-2.74-1.81c0-1.38-.55-2.06-1.66-2.06a1.58,1.58,0,0,0-1.23.59,2.6,2.6,0,0,0-.63,1.47Z"/><path class="d" d="M92,163.37a2.47,2.47,0,0,0-1.24-.29,1.78,1.78,0,0,0-1.5.7,3,3,0,0,0-.55,1.92v4.58h-3V160.7h3v1.78h0a2.56,2.56,0,0,1,2.53-1.95,1.73,1.73,0,0,1,.72.12Z"/><path class="d" d="M100.55,169.93a5.81,5.81,0,0,1-2.89.58,4.89,4.89,0,0,1-3.57-1.34,4.62,4.62,0,0,1-1.37-3.45,5.06,5.06,0,0,1,1.47-3.84,5.39,5.39,0,0,1,3.91-1.41,5,5,0,0,1,2.45.45v2.5a3.39,3.39,0,0,0-2.07-.69,2.73,2.73,0,0,0-2,.74,2.77,2.77,0,0,0-.74,2.06,2.69,2.69,0,0,0,.71,2,2.57,2.57,0,0,0,2,.73,3.82,3.82,0,0,0,2.16-.7Z"/><path class="d" d="M104,159.19a1.69,1.69,0,0,1-1.22-.45,1.42,1.42,0,0,1-.48-1.09,1.37,1.37,0,0,1,.48-1.08,2,2,0,0,1,2.45,0,1.36,1.36,0,0,1,.47,1.08,1.42,1.42,0,0,1-.47,1.11A1.77,1.77,0,0,1,104,159.19Zm1.46,11.09h-3V160.7h3Z"/><path class="d" d="M112.49,170.51a5.14,5.14,0,0,1-3.76-1.34,5.55,5.55,0,0,1,0-7.36,5.39,5.39,0,0,1,3.84-1.34,5.1,5.1,0,0,1,3.74,1.34,4.79,4.79,0,0,1,1.36,3.55,5.09,5.09,0,0,1-1.4,3.77A5.21,5.21,0,0,1,112.49,170.51Zm.07-7.78a2,2,0,0,0-1.62.72,3.16,3.16,0,0,0-.58,2q0,2.76,2.22,2.76c1.42,0,2.13-.95,2.13-2.84S114,162.73,112.56,162.73Z"/></g><g class="c"><path class="d" d="M132.88,165.87h-6.76a3.6,3.6,0,0,0,.86,2.47,3,3,0,0,0,2.26.87,4.74,4.74,0,0,0,3-1.07v1.44a5.57,5.57,0,0,1-3.34.92,4,4,0,0,1-3.19-1.3,5.37,5.37,0,0,1-1.16-3.67,5.28,5.28,0,0,1,1.27-3.65,4.07,4.07,0,0,1,3.15-1.4,3.58,3.58,0,0,1,2.9,1.21,5.06,5.06,0,0,1,1,3.38Zm-1.57-1.3a3.08,3.08,0,0,0-.64-2.06,2.15,2.15,0,0,0-1.75-.74,2.48,2.48,0,0,0-1.84.77,3.53,3.53,0,0,0-.94,2Z"/><path class="d" d="M136.73,170.28H135.2V156.1h1.53Z"/><path class="d" d="M147.53,165.87h-6.76a3.64,3.64,0,0,0,.86,2.47,3,3,0,0,0,2.27.87,4.71,4.71,0,0,0,3-1.07v1.44a5.55,5.55,0,0,1-3.34.92,4.06,4.06,0,0,1-3.19-1.3,5.37,5.37,0,0,1-1.16-3.67,5.28,5.28,0,0,1,1.27-3.65,4.09,4.09,0,0,1,3.15-1.4,3.61,3.61,0,0,1,2.91,1.21,5.11,5.11,0,0,1,1,3.38Zm-1.57-1.3a3.08,3.08,0,0,0-.64-2.06,2.15,2.15,0,0,0-1.75-.74,2.49,2.49,0,0,0-1.84.77,3.53,3.53,0,0,0-.94,2Z"/><path class="d" d="M156.38,169.84a5,5,0,0,1-2.62.66,4.31,4.31,0,0,1-3.3-1.33,4.83,4.83,0,0,1-1.26-3.46,5.34,5.34,0,0,1,1.35-3.8,4.77,4.77,0,0,1,3.62-1.43,5.08,5.08,0,0,1,2.23.46v1.58a3.89,3.89,0,0,0-2.28-.75,3.09,3.09,0,0,0-2.41,1,4,4,0,0,0-.94,2.76,3.81,3.81,0,0,0,.88,2.66,3,3,0,0,0,2.37,1,3.88,3.88,0,0,0,2.36-.83Z"/><path class="d" d="M163.14,170.18a3,3,0,0,1-1.43.3c-1.68,0-2.52-.93-2.52-2.8V162h-1.64V160.7h1.64v-2.34l1.54-.49v2.83h2.41V162h-2.41v5.4a2.28,2.28,0,0,0,.32,1.37,1.33,1.33,0,0,0,1.09.41,1.58,1.58,0,0,0,1-.32Z"/><path class="d" d="M170.18,162.25a1.91,1.91,0,0,0-1.16-.31,2,2,0,0,0-1.64.93,4.28,4.28,0,0,0-.66,2.52v4.89h-1.53V160.7h1.53v2h0a3.36,3.36,0,0,1,1-1.57,2.27,2.27,0,0,1,1.5-.57,2.69,2.69,0,0,1,.92.13Z"/><path class="d" d="M175.85,170.5a4.44,4.44,0,0,1-3.39-1.34,5,5,0,0,1-1.27-3.56,5.19,5.19,0,0,1,1.32-3.77,4.74,4.74,0,0,1,3.56-1.35,4.28,4.28,0,0,1,3.34,1.32,6,6,0,0,1-.09,7.32A4.53,4.53,0,0,1,175.85,170.5Zm.11-8.73a2.91,2.91,0,0,0-2.34,1,4.15,4.15,0,0,0-.86,2.77,3.92,3.92,0,0,0,.87,2.69,3,3,0,0,0,2.33,1,2.79,2.79,0,0,0,2.28-1,4.16,4.16,0,0,0,.8-2.74,4.22,4.22,0,0,0-.8-2.77A2.77,2.77,0,0,0,176,161.77Zm2.24-6-2.45,3.07h-1.19l2.09-3.07Z"/><path class="d" d="M191,170.28h-1.53v-5.46c0-2-.74-3-2.23-3a2.43,2.43,0,0,0-1.9.86,3.23,3.23,0,0,0-.75,2.19v5.46h-1.54V160.7h1.54v1.59h0a3.47,3.47,0,0,1,3.15-1.81,3,3,0,0,1,2.4,1,4.55,4.55,0,0,1,.83,2.93Z"/><path class="d" d="M194.69,158.27A1,1,0,0,1,194,158a1,1,0,0,1-.29-.71,1,1,0,0,1,1-1,1,1,0,0,1,.71.28,1,1,0,0,1,.3.72.94.94,0,0,1-.3.7A1,1,0,0,1,194.69,158.27Zm.74,12H193.9V160.7h1.53Z"/><path class="d" d="M205.06,169.84a5,5,0,0,1-2.61.66,4.33,4.33,0,0,1-3.31-1.33,4.83,4.83,0,0,1-1.26-3.46,5.34,5.34,0,0,1,1.36-3.8,4.76,4.76,0,0,1,3.62-1.43,5,5,0,0,1,2.22.46v1.58a3.89,3.89,0,0,0-2.28-.75,3.09,3.09,0,0,0-2.41,1,4,4,0,0,0-.94,2.76,3.82,3.82,0,0,0,.89,2.66,3,3,0,0,0,2.37,1,3.85,3.85,0,0,0,2.35-.83Z"/><path class="d" d="M211.39,170.5a4.44,4.44,0,0,1-3.39-1.34,5,5,0,0,1-1.27-3.56,5.19,5.19,0,0,1,1.32-3.77,4.74,4.74,0,0,1,3.56-1.35A4.28,4.28,0,0,1,215,161.8a6,6,0,0,1-.09,7.32A4.53,4.53,0,0,1,211.39,170.5Zm.11-8.73a2.91,2.91,0,0,0-2.34,1,4.15,4.15,0,0,0-.86,2.77,3.92,3.92,0,0,0,.87,2.69,3,3,0,0,0,2.33,1,2.79,2.79,0,0,0,2.28-1,4.16,4.16,0,0,0,.8-2.74,4.22,4.22,0,0,0-.8-2.77A2.77,2.77,0,0,0,211.5,161.77Z"/></g></g><path class="e" d="M154.44,79a1,1,0,0,1-1.19.66L136.16,75.9a1,1,0,0,1-.8-1.1l4.49-20.39a1,1,0,0,1,1.19-.66l17.09,3.77a1,1,0,0,1,.8,1.1Z"/><path class="f" d="M141.81,80.8c0,.55-.64,1-1.42,1H116.17c-.78,0-1.41-.45-1.41-1V57.57c0-.55.63-1,1.41-1h24.22c.78,0,1.42.45,1.42,1Z"/><path class="g" d="M162.82,60.09H109.56a1.17,1.17,0,0,0,0,2.31h53.26a1.17,1.17,0,0,0,0-2.31Z"/><path class="g" d="M159.46,69.36H112.17a1.17,1.17,0,0,0,0,2.32h47.29a1.17,1.17,0,0,0,0-2.32Z"/><path class="g" d="M155.91,78.64H114.22a1.17,1.17,0,0,0-1,1.34,1.15,1.15,0,0,0,1,1h41.69a1.17,1.17,0,0,0,0-2.31Z"/><path class="g" d="M119.32,61.63l-2,.3,2.72,24.13,2.1.51Z"/><path class="g" d="M127.35,61.8l-2,.16,1.48,24.83,2.11-.44Z"/><path class="g" d="M133.41,61.45V86.87l1.92-.08.1-25.33Z"/><path class="g" d="M142.7,61.37l-3.8,25.79,2.17-.88,3.62-24.52Z"/><path class="g" d="M151.36,61.36l-6.26,26,2.23-.52,6-24.81Z"/><path class="g" d="M159.82,60.94l-8.27,25.12,2,1,8.18-25.26Z"/><path class="e" d="M157.77,84.34H117.18L109,58c-.12,1.41-1.38,1.7-2.61,1.87l8.37,26.76a1.48,1.48,0,0,0,1.38,1.12h41.63a1.71,1.71,0,0,0,0-3.39Z"/><path class="h" d="M108.63,56.64a2.75,2.75,0,0,0-1.85-.68h-19a2.37,2.37,0,0,0-.5,4.72,2.09,2.09,0,0,0,.5,0h19a1.73,1.73,0,0,0,.32,0,2.47,2.47,0,0,0,2.29-2.11,2,2,0,0,0-.76-1.9Z"/><path class="e" d="M146.36,103.82H113.84l3.88-18,2,.58-3.23,15h29.84Z"/><path class="f" d="M151.6,102.83A5.84,5.84,0,1,1,145.76,97,5.85,5.85,0,0,1,151.6,102.83Z"/><path class="g" d="M149.47,102.83a3.71,3.71,0,1,1-3.71-3.72h0a3.72,3.72,0,0,1,3.71,3.72Z"/><path class="f" d="M121,102.83A5.85,5.85,0,1,1,115.14,97a5.85,5.85,0,0,1,5.85,5.85Z"/><path class="g" d="M118.85,102.83a3.71,3.71,0,1,1-3.71-3.72h0a3.72,3.72,0,0,1,3.71,3.72Z"/></svg>