<svg xmlns="http://www.w3.org/2000/svg" xmlns:xlink="http://www.w3.org/1999/xlink" viewBox="0 0 270 260"><defs><style>.a{fill:none;}.b{fill:#ffa900;}.c{opacity:0.15;}.d{opacity:0.8;}.e{opacity:0.5;}.f{fill:#00d1e3;}.g{fill:#ccd3e6;}.h{fill:#fff;}.i{fill:#575759;}.j{fill:#363638;}.k{fill:#fd615b;}.l{fill:#0592f5;}.m{fill:#cedcec;}.n{clip-path:url(#a);}.o{fill:#ffc49c;}.p{fill:#ff9b79;}.q{fill:#ffd24f;}.r{fill:#dc7f21;}.s{fill:#ffb028;}.t{fill:#0076fa;}.u{fill:#004ecb;}.v{fill:#f56c63;}.w{fill:#c1c765;}.x{fill:#a1a654;}.y{fill:#00b570;}.z{fill:#007d55;}.aa{fill:#ce101d;}.ab{fill:#f37168;}.ac{fill:#75a1de;}.ad{fill:#296eb2;}.ae{isolation:isolate;}.af{fill:#f4f4f4;}.ag{fill:#707070;}</style><clipPath id="a"><path class="a" d="M116.17,131.6c-.54,1.66-.54,1.94-.54,1.66l0-47.4c0-.29,0-.24,0-34.56H222.21l0,80.29Z"/></clipPath></defs><path class="b" d="M250,.62H137a1,1,0,0,0-1,1v34a1,1,0,0,0,1,1h15.18a1,1,0,0,1,.71.29l4.37,4.37a1,1,0,0,0,1.4,0L163,36.91a1,1,0,0,1,.71-.29H250a1,1,0,0,0,1-1v-34A1,1,0,0,0,250,.62Z"/><g class="c"><g class="d"><g class="e"><path class="f" d="M133.74,92.88a59.91,59.91,0,0,1-27.3-11.58c-12.06-9.1-37.3-24.59-61.37-16.87-33.21,10.64-33.36,41.43-24.71,58.15s70,65.7,149.51,57.9c71.16-7,85-86.79,47.07-101.23C184,66.72,172.8,98.64,133.74,92.88Z"/></g><g class="e"><ellipse class="f" cx="236.19" cy="81.06" rx="3.09" ry="3.32"/></g><path class="f" d="M34.74,59.18A2,2,0,0,1,37,60.44a2.08,2.08,0,0,1-2.93,2.49h0A2,2,0,0,1,34.74,59.18Z"/><circle class="f" cx="227.76" cy="51.38" r="4.02"/><g class="d"><path class="f" d="M46.92,56a4.06,4.06,0,1,1-5-2.81h0A4,4,0,0,1,46.92,56Z"/></g><path class="f" d="M207.58,177a2,2,0,0,1,2.43.82,2.07,2.07,0,0,1-2.41,3h0A2,2,0,0,1,207.58,177Z"/><path class="f" d="M219,171.6a4.06,4.06,0,1,1-5.44-1.83A4.06,4.06,0,0,1,219,171.6Z"/><circle class="f" cx="220.19" cy="45.23" r="2.47"/></g><g class="d"><path class="f" d="M229.25,90c0-22.09-18.4-46.3-41.29-47.76-.4,0-.81,0-1.22-.06-32.81-1.53-35.31,38.49-65,43S69.38,66.93,33.85,81.8C1.94,95.15-6.7,170.19,87.05,173.2,162.05,175.6,229.26,155.92,229.25,90Z"/></g></g><ellipse class="g" cx="170.43" cy="196.23" rx="72.34" ry="3.73"/><path class="g" d="M219.43,185.78h-10v10.43h11.72v-8.73a1.7,1.7,0,0,0-1.7-1.7Z"/><rect class="g" x="155.78" y="163.45" width="34.8" height="22.34"/><path class="h" d="M127.74,185.78h82.89a6.56,6.56,0,0,1,6.55,6.56v3.87h-96v-3.87A6.56,6.56,0,0,1,127.74,185.78Z"/><rect class="h" x="151.51" y="163.45" width="34.8" height="22.34"/><path class="g" d="M151.51,170.3l34.8-2.78v-4.07H151.56Z"/><rect class="g" x="90.2" y="66.54" width="157.88" height="96.91" rx="4.65"/><path class="i" d="M248.08,71.19v81.13H233.7V66.54h9.73A4.65,4.65,0,0,1,248.08,71.19Z"/><path class="h" d="M242.16,71.19V158.8a4.65,4.65,0,0,1-4.64,4.65H94.85a4.65,4.65,0,0,1-4.65-4.65V71.19a4.65,4.65,0,0,1,4.65-4.65H238l.18,0,.11,0h.06l.11,0A4.65,4.65,0,0,1,242.16,71.19Z"/><path class="j" d="M238.45,66.64l-.11,0h-.06l-.11,0-.18,0H94.85a4.65,4.65,0,0,0-4.65,4.65v81.13h152V71.19A4.65,4.65,0,0,0,238.45,66.64Zm-2.31,77.58a1.26,1.26,0,0,1-1.27,1.26H97.49a1.26,1.26,0,0,1-1.27-1.26h0V73.84a1.27,1.27,0,0,1,1.27-1.27H234.87a1.27,1.27,0,0,1,1.27,1.26h0Z"/><rect class="g" x="96.22" y="72.57" width="139.91" height="72.91" rx="1.26"/><path class="h" d="M236.14,73.84v6.64H96.22V73.84a1.27,1.27,0,0,1,1.27-1.27H234.87a1.27,1.27,0,0,1,1.27,1.26Z"/><path class="k" d="M225.3,76.42a1.08,1.08,0,1,1-1.07-1.08A1.07,1.07,0,0,1,225.3,76.42Z"/><circle class="l" cx="227.71" cy="76.42" r="1.07"/><path class="m" d="M109.44,75.28h109.3a1,1,0,0,1,1,1v.27a1,1,0,0,1-1,1H109.44a1,1,0,0,1-1-1h0v-.27a1,1,0,0,1,1-1Z"/><path d="M101.28,76.42v1a.19.19,0,0,1-.2.19l-.09,0-.91-.53-.91-.52a.2.2,0,0,1-.08-.27.27.27,0,0,1,.08-.07l.91-.53.91-.52a.19.19,0,0,1,.26.07.17.17,0,0,1,0,.1Z"/><path d="M102.88,76.42v1a.18.18,0,0,0,.19.19l.09,0,.92-.53.91-.52a.21.21,0,0,0,.07-.27.23.23,0,0,0-.07-.07l-.91-.53-.92-.52a.19.19,0,0,0-.26.07.3.3,0,0,0,0,.1Z"/><rect class="j" x="229.83" y="76.08" width="2.58" height="0.61" rx="0.27" transform="translate(13.68 185.8) rotate(-45)"/><rect class="j" x="230.81" y="75.09" width="0.61" height="2.58" rx="0.27" transform="translate(13.68 185.8) rotate(-45)"/><rect class="h" x="112.04" y="82.08" width="107.91" height="60.57" rx="2.64"/><path class="g" d="M143.27,113.07H119.61a.65.65,0,0,1-.65-.66h0a.66.66,0,0,1,.65-.66h23.66a.66.66,0,0,1,.66.66h0A.65.65,0,0,1,143.27,113.07Z"/><path class="g" d="M143.27,107.51H119.61a.65.65,0,0,1-.65-.66h0a.66.66,0,0,1,.65-.66h23.66a.66.66,0,0,1,.66.66h0A.65.65,0,0,1,143.27,107.51Z"/><path class="g" d="M143.27,118.63H119.61A.65.65,0,0,1,119,118h0a.65.65,0,0,1,.65-.65h23.66a.65.65,0,0,1,.66.65h0A.65.65,0,0,1,143.27,118.63Z"/><path class="g" d="M216,113.07H192.31a.66.66,0,0,1-.66-.66h0a.67.67,0,0,1,.66-.66H216a.67.67,0,0,1,.66.66h0A.66.66,0,0,1,216,113.07Z"/><path class="g" d="M216,107.51H192.31a.66.66,0,0,1-.66-.66h0a.67.67,0,0,1,.66-.66H216a.67.67,0,0,1,.66.66h0A.66.66,0,0,1,216,107.51Z"/><path class="g" d="M216,118.63H192.31a.66.66,0,0,1-.66-.66h0a.66.66,0,0,1,.66-.65H216a.66.66,0,0,1,.66.65h0A.66.66,0,0,1,216,118.63Z"/><path class="j" d="M112,133.24H220v8.85a.56.56,0,0,1-.56.56H112.6a.56.56,0,0,1-.56-.56Z"/><path class="h" d="M209.35,136.73v-.8h1v-.71H209a.36.36,0,0,0-.35.36h0v1.15Z"/><path class="h" d="M209.35,138.15h-.71v1.21a.36.36,0,0,0,.35.36h1.36V139h-1Z"/><path class="h" d="M212.42,136.73h.71v-1.15a.36.36,0,0,0-.35-.36h-1.3v.71h.94Z"/><path class="h" d="M212.42,138.15V139h-.94v.71h1.3a.36.36,0,0,0,.35-.36h0v-1.21Z"/><path class="h" d="M118.33,137.62v-2.24l1.94,1.12,1.94,1.12-1.94,1.13-1.94,1.12Z"/><path class="h" d="M128.58,135.61h.51a.34.34,0,0,1,.34.34h0v3.39a.35.35,0,0,1-.34.35h-.51a.35.35,0,0,1-.35-.35V136A.34.34,0,0,1,128.58,135.61Z"/><rect class="h" x="130.74" y="135.61" width="1.2" height="4.08" rx="0.35"/><rect class="g" x="112.04" y="131.48" width="107.91" height="1.77"/><rect class="k" x="112.04" y="131.48" width="55.37" height="1.77"/><path class="j" d="M202.69,124.59h1.22v2.67h1.63v1h-2.85Z"/><path class="j" d="M205.87,124.59h1.22v3.62h-1.22Z"/><path class="j" d="M211.54,124.59,210,128.21h-1.2l-1.52-3.62h1.31l.86,2.11.88-2.11Z"/><path class="j" d="M214.66,127.29v.91h-3v-3.61h2.93v.92h-1.74v.43h1.53v.87h-1.53v.48Z"/><path class="k" d="M200.69,126.37a1.49,1.49,0,1,1-3,0,1.48,1.48,0,0,1,1.48-1.48h0a1.49,1.49,0,0,1,1.49,1.48Z"/><path class="j" d="M125.22,127.37c0,.83-.78,1.36-1.9,1.36s-1.91-.53-1.91-1.36a1.12,1.12,0,0,1,.57-1,1,1,0,0,1-.41-.84c0-.77.72-1.26,1.75-1.26s1.75.49,1.75,1.26a1,1,0,0,1-.42.84A1.12,1.12,0,0,1,125.22,127.37Zm-1.44,0a.47.47,0,0,0-.93,0,.47.47,0,0,0,.44.49h0a.43.43,0,0,0,.46-.39Zm-.8-1.71a.34.34,0,0,0,.36.32.34.34,0,0,0,0-.68.33.33,0,0,0-.34.32v0Z"/><path class="j" d="M125.49,126.51a1.94,1.94,0,1,1,3.84,0c0,1.41-.8,2.22-1.92,2.22S125.49,127.92,125.49,126.51Zm2.4,0c0-.82-.2-1.07-.48-1.07s-.49.25-.49,1.07.21,1.08.49,1.08S127.89,127.33,127.89,126.51Z"/><path class="k" d="M118.93,125.32a1.31,1.31,0,1,1-2.61,0,1.3,1.3,0,0,1,1.3-1.3h0A1.31,1.31,0,0,1,118.93,125.32Z"/><path class="k" d="M120.06,128.62h-4.87a2.52,2.52,0,0,1,2.4-1.55h.07A2.53,2.53,0,0,1,120.06,128.62Z"/><g class="n"><path class="o" d="M132.61,95.88s-.66,4-3.59,4.69c-2.36.58-4.59-1.7-5.36-2.59l-.29-.35a3.2,3.2,0,0,1-.44,0,2.49,2.49,0,0,1-2.14-.89c-.61-1.08,1.62-1.82,1.62-1.82s-1.14-1-.86-1.76,1.81-.88,1.81-.88-1.65-1.07-1.09-2c.83-1.4,2.53.15,2.67.23-.11-.12-2.25-2.33-1.08-2.73,1-.35,2.7.8,3.81,1.94l.27.28.18-.13c.55-.37,2.25-1.35,3.33-.45C132.75,90.51,132.61,95.88,132.61,95.88Z"/><path class="p" d="M129.55,98.32a.23.23,0,0,1-.31-.1.25.25,0,0,1,0-.24,2.12,2.12,0,0,0,.36-1.74c-.39-1.49-2.38-2.52-2.4-2.53a.23.23,0,0,1,.21-.41c.09,0,2.2,1.14,2.64,2.83a2.53,2.53,0,0,1-.42,2.11A.18.18,0,0,1,129.55,98.32Z"/><path class="p" d="M127.51,92.59a.72.72,0,0,1-.32.63.8.8,0,0,1-.16.08,1.43,1.43,0,0,1-.41.09,2.17,2.17,0,0,1,.29.24.84.84,0,0,1,.18.28.6.6,0,0,1-.1.58,2.9,2.9,0,0,1-1.93.78,2.42,2.42,0,0,1,1.08,1.11.71.71,0,0,1-.09.7,1.39,1.39,0,0,1-.5.37,7.82,7.82,0,0,1-1.89.53l-.29-.35a3.2,3.2,0,0,1-.44,0,.31.31,0,0,1,.12,0,5.82,5.82,0,0,0,2.63-.78.28.28,0,0,0,0-.28A2.8,2.8,0,0,0,124,95.32a.23.23,0,0,1,.06-.46c.58,0,2.16-.08,2.58-.65.06-.08,0-.12,0-.14a.75.75,0,0,0-.35-.33,5.51,5.51,0,0,0-1.37-.51.2.2,0,0,1-.12-.08.24.24,0,0,1-.06-.2.23.23,0,0,1,.28-.17h0a4.64,4.64,0,0,1,.45.12,5.27,5.27,0,0,0,1.05,0,.88.88,0,0,0,.39-.11.27.27,0,0,0,.12-.25,1.48,1.48,0,0,0-.25-.7.23.23,0,0,1,0-.26h0a.22.22,0,0,1,.32,0s0,0,.06.06A2,2,0,0,1,127.51,92.59Z"/><path class="j" d="M125.81,88.24a5.66,5.66,0,0,1,1.09.8c.33.31.54.47.77.68,0,0,0,0,0,0l-4.47-19a.24.24,0,0,0-.28-.16.22.22,0,0,0-.17.26Z"/><path class="j" d="M129.7,98.77c-1.55,1-2,.26-2,.26l-.78-4.46.06-.07a.58.58,0,0,0,.1-.59.83.83,0,0,0-.17-.27,1,1,0,0,0-.19-.16v-.1a1.87,1.87,0,0,0,.32-.08l.15-.08a.74.74,0,0,0,.29-.38,1.08,1.08,0,0,0,.69.32.89.89,0,0,0,.23,0Z"/><path class="p" d="M131,91.81a7.82,7.82,0,0,1-1.52,1,2.64,2.64,0,0,1-1.35.32,1.14,1.14,0,0,1-.84-.48c-.74-1-.11-2.28.34-3l.27.28.18-.12c-.38.56-1,1.73-.42,2.53a.71.71,0,0,0,.52.29,4.66,4.66,0,0,0,2.52-1.23.22.22,0,0,1,.32,0,.24.24,0,0,1,0,.33Z"/><path class="q" d="M155,87.21h0v0l0,.06,0,.13-.07.3-.06.32-.08.32c-.1.43-.2.88-.32,1.32-.24.88-.5,1.76-.8,2.63s-.61,1.74-1,2.58c-.18.43-.35.85-.55,1.26s-.38.83-.57,1.24c-.41.81-.84,1.6-1.3,2.37-.11.2-.23.39-.35.58s-.23.38-.35.57c-.25.37-.49.74-.75,1.1-.5.73-1.06,1.42-1.61,2.1s-1.15,1.31-1.78,1.92l-.46.45-.48.44-.24.22-.06,0,0,0,0,0a.83.83,0,0,1,.18-.13,2.7,2.7,0,0,1,.86-.4l.21,0,.1,0h.4s0,0,.06,0h0l.09,0h.09c.07,0-.06,0-.27-.09a8,8,0,0,1-.77-.4c-.3-.18-.62-.39-1-.63-.66-.47-1.36-1-2-1.62s-1.4-1.24-2.09-1.91-1.39-1.35-2.08-2.06-1.37-1.42-2-2.15l-1-1.1-1-1.06-7.5,5.63.25.38.24.35.47.68c.32.46.64.91,1,1.35.66.89,1.33,1.76,2,2.63s1.43,1.71,2.19,2.55q.57.63,1.17,1.26c.4.41.81.82,1.24,1.23a33.41,33.41,0,0,0,2.76,2.42c.51.39,1,.78,1.63,1.16a14.76,14.76,0,0,0,2,1.11,11.66,11.66,0,0,0,2.7.93l.2,0,.22,0a3.47,3.47,0,0,0,.45.06l.48,0,.24,0H146l.53,0,.57,0,.28,0,.29-.06c.2,0,.39-.08.59-.14a8.25,8.25,0,0,0,2.29-1.07l.49-.36.12-.1.1-.09.09-.07.34-.31.69-.61c.23-.21.44-.43.66-.64.89-.85,1.71-1.77,2.5-2.69a36.27,36.27,0,0,0,2.19-2.91c.7-1,1.32-2,1.91-3.06l.43-.79c.14-.26.27-.53.41-.8s.27-.53.39-.8l.38-.81a43.63,43.63,0,0,0,2.38-6.66c.3-1.14.57-2.28.78-3.45.11-.58.2-1.17.28-1.77l.06-.45c0-.15,0-.31,0-.46s0-.32.05-.48l0-.57Z"/><path class="r" d="M131.41,100a.65.65,0,1,0,.59-.7.66.66,0,0,0-.59.7Z"/><path class="r" d="M144.86,111.11a.28.28,0,0,0,.27-.21,20.27,20.27,0,0,0,.45-4.79.28.28,0,0,0-.28-.27.28.28,0,0,0-.27.28h0a21.36,21.36,0,0,1-.43,4.65.27.27,0,0,0,.2.33h.06Z"/><path class="r" d="M146.63,109.11a.28.28,0,0,0,.28-.28.27.27,0,0,0,0-.12,21.7,21.7,0,0,0-1.35-2.4.27.27,0,0,0-.39,0,.28.28,0,0,0,0,.39,22.62,22.62,0,0,1,1.3,2.3A.27.27,0,0,0,146.63,109.11Z"/><path class="r" d="M129.43,105.36a.27.27,0,0,0,.19-.08,78.33,78.33,0,0,1,7.59-6.2.27.27,0,0,0-.31-.45h0a75.7,75.7,0,0,0-7.66,6.25.27.27,0,0,0,0,.39.28.28,0,0,0,.2.08Z"/><path class="r" d="M131.66,103.32a.28.28,0,0,0,.28-.27.24.24,0,0,0-.07-.18l-2.79-3.35a.27.27,0,1,0-.42.35l2.79,3.35A.25.25,0,0,0,131.66,103.32Z"/><path class="j" d="M161.8,168.55l3.75-22.11.3-1.8-10.78-3.81-.61-.21-2.57-.91s-.2.95-.52,2.57c0,.2-.08.4-.12.62a205.28,205.28,0,0,0-3.43,25.65Z"/><path class="i" d="M159.89,168.55c1.62-8.81,3.7-21.69,3.82-22.45a.29.29,0,1,0-.57-.09c0,.19-2.19,13.56-3.85,22.54Z"/><path class="j" d="M183.61,132.65s.82,7.7-.94,12-24.42,2.08-30.2-1.77c-2.37-1.58,2.68-16.18,2.68-16.18Z"/><path class="i" d="M151.25,142.9a6.87,6.87,0,0,0,2.49-1,7.72,7.72,0,0,0,1.33-1.09,13.87,13.87,0,0,0,3.27-6.52.28.28,0,0,0-.23-.33.29.29,0,0,0-.34.23h0a13.56,13.56,0,0,1-3.31,6.41,7.43,7.43,0,0,1-1,.81,5.8,5.8,0,0,1-1.42.68,4.91,4.91,0,0,1-.63.17C151.33,142.48,151.29,142.68,151.25,142.9Z"/><path class="i" d="M165.23,145.05a.3.3,0,0,0,.28.3h0a.28.28,0,0,0,.3-.27c.06-1.05.12-2.13.19-3.21l0-.56c.23-3.52.52-7,.74-9.41,0-.2,0-.39,0-.58.05-.53.1-1,.13-1.41l-.57-.09c0,.4-.08.88-.13,1.42q0,.27-.06.57c-.21,2.42-.5,5.84-.73,9.34,0,.19,0,.39,0,.58C165.35,142.84,165.29,144,165.23,145.05Z"/><path class="i" d="M164.4,141.34a8.94,8.94,0,0,0,1,.39,5.45,5.45,0,0,0,.58.14,3.31,3.31,0,0,0,.55.07,1.89,1.89,0,0,0,1-.15,1.18,1.18,0,0,0,.67-.89c.21-1.08.65-5.56.95-8.73l.06-.57c0-.51.09-1,.12-1.36l-.58-.07c0,.39-.08.86-.12,1.37,0,.18,0,.38-.06.57-.3,3.16-.74,7.64-.94,8.69a.63.63,0,0,1-.36.49,2,2,0,0,1-1.22,0c-.2-.05-.4-.1-.58-.16a7.77,7.77,0,0,1-.8-.31.28.28,0,1,0-.26.5Z"/><path class="j" d="M180.8,168.55c.89-8.21,1.93-19.18,2.52-25.54,0-.2,0-.4.05-.59.26-2.8.42-4.57.42-4.57-1.39-.58-3.92-.18-6.6.58l-.58.17a80.38,80.38,0,0,0-9.83,3.84v26.1Z"/><path class="i" d="M179.43,168.55c.77-9.12,1.69-22.3,1.7-22.47a.29.29,0,0,0-.26-.32.3.3,0,0,0-.32.26v0c0,.17-.93,13.39-1.71,22.51Z"/><path class="i" d="M175,134.31a15.2,15.2,0,0,0,1.6,4.29,9.47,9.47,0,0,0,3,3.32,6.87,6.87,0,0,0,3.71,1.09l.06-.59a6.22,6.22,0,0,1-3.46-1,8.7,8.7,0,0,1-2.72-3,14.93,14.93,0,0,1-1.62-4.22.29.29,0,0,0-.34-.23.28.28,0,0,0-.23.33Z"/><path class="q" d="M151.68,132.17c6.28,5.86,21.12,9,32.55,3.4,1.26-3.43,2.64-15.67,3-19.33.07-.72.13-1.45.18-2.18a93.86,93.86,0,0,0,0-10.74c0-.2,0-.41,0-.61-.15-3-.38-6.2-.59-9.54-.42-6.63-2.63-10.72-6.47-11.33a16.17,16.17,0,0,1-4.25-1.28l-.36-.18a12.15,12.15,0,0,1-2-1.2h-8.57a6.57,6.57,0,0,1-2.67,2.23l-.34.15c-3,1.31-6.59,1-7.32,4.72-.46,2.31,1.3,7,1.12,16.66,0,.71,0,1.44-.08,2.2s-.08,1.44-.13,2.2-.12,1.44-.19,2.18-.14,1.33-.22,2-.19,1.44-.29,2.18C154.53,117.72,153,127,151.68,132.17Z"/><path class="r" d="M181.07,134.17H181a.27.27,0,0,1-.18-.31h0c4.77-17.47,3.81-35.22,3.8-35.4a.26.26,0,0,1,.51,0h0c0,.18,1,18-3.81,35.56A.26.26,0,0,1,181.07,134.17Z"/><path class="r" d="M155.23,111.49a.27.27,0,0,0,.27-.25c.57-5,.58-15.1.58-15.2a.29.29,0,0,0-.28-.28.28.28,0,0,0-.27.28c0,.1,0,10.12-.58,15.14a.27.27,0,0,0,.25.3Z"/><path class="r" d="M167,130.51a.64.64,0,1,0,.58-.7A.64.64,0,0,0,167,130.51Z"/><path class="r" d="M166.87,133.64a.65.65,0,1,0,.59-.7A.65.65,0,0,0,166.87,133.64Z"/><path class="r" d="M159.32,99.23c-1.68-2-1-6.31-1-6.49a.27.27,0,0,1,.27-.24h5.71a.27.27,0,0,1,.27.24c0,.18.66,4.54-1,6.49a2.83,2.83,0,0,1-4,.21l-.21-.21Zm-.51-6.18c-.1.92-.38,4.29.93,5.82A2.28,2.28,0,0,0,163,99l.15-.15c1.31-1.52,1-4.9.93-5.82Z"/><path class="j" d="M174.57,58c-1.6-1-6.63-1.55-6.63-1.55a7.64,7.64,0,0,0-1.76-2.8c-2.12-1.41-2.39,1.45-2.39,1.45s-2.07-2.9-3.93-2.07.51,3.52.51,3.52-2.8-.52-2.48,1.87,3,3.41,3,3.41a5.25,5.25,0,0,0-.41,3.53c.41,2.17,1.34,2.28,1.34,2.28l11.61,1s2.38,0,3-3A3.87,3.87,0,0,0,175,61.45S176.33,59.17,174.57,58Z"/><path class="o" d="M165.09,77.72V79.9a5.91,5.91,0,0,0,.77.54c3.79,2.27,7.87-.54,7.87-.54V72.34l-7.61,4.74Z"/><path class="j" d="M165.09,77.65V79.9a5.91,5.91,0,0,0,.77.54,14.59,14.59,0,0,0,5.57-4.66l-5.31,1.3Z"/><path class="s" d="M173.71,77.68A4.34,4.34,0,0,1,177,81c-2.49,2.6-4.68,4.85-8.23,5.51V81.31A9.16,9.16,0,0,0,173.71,77.68Z"/><path class="s" d="M165,78.44a4.67,4.67,0,0,0-3.16,3.4c2.29,2.79,3.52,3.84,6.88,4.69V81.31S166.86,81.28,165,78.44Z"/><path class="j" d="M163.73,119l1.47,3.56h0l.66,1.6,1.88,4.52.9-1.74.32-.62.72-1.4.32-.62.73-1.4.32-.61.72-1.4h0l.32-.62.69-1.32,0-.14-.1-1-.25-2.37-.1-1-.24-2.37-.11-1-.24-2.37-.11-1-.24-2.37-.1-1-.24-2.36-.11-1-.24-2.36-.11-1-.24-2.36-.1-1L170,91.51l-.1-1.05L169.63,88,167.82,88l0,.4-.11.83-.25,1.88-.11.83-.24,1.87-.11.83-.25,1.88-.11.83-.25,1.88-.1.82-.25,1.88-.11.83-.25,1.88-.11.82-.24,1.88-.11.83-.25,1.88-.11.83-.25,1.87-.11.83-.24,1.88-.11.83-.25,1.87-.11.83Z"/><path class="i" d="M167.66,89.18,170,91.5l-.1-1-2.11-2.11Z"/><path class="i" d="M167.3,91.88l3,3-.11-1-2.81-2.81Z"/><path class="i" d="M166.94,94.59l3.74,3.73-.11-1-3.52-3.52Z"/><path class="i" d="M166.59,97.29l4.44,4.44-.11-1-4.22-4.22Z"/><path class="i" d="M166.23,100l5.14,5.14-.1-1-4.93-4.93Z"/><path class="i" d="M165.87,102.71l5.85,5.84-.11-1L166,101.88Z"/><path class="i" d="M165.52,105.41l6.55,6.55-.11-1-6.33-6.34Z"/><path class="i" d="M165.16,108.12l7.25,7.25-.1-1-7-7Z"/><path class="i" d="M164.8,110.82l8,8-.11-1L164.91,110Z"/><path class="i" d="M164.45,113.53l7.32,7.32.33-.61-7.54-7.54Z"/><path class="i" d="M164.09,116.23l6.64,6.64.32-.62-6.85-6.85Z"/><path class="i" d="M163.73,118.94l6,6,.32-.62-6.16-6.16Z"/><path class="i" d="M165.2,122.53l.66,1.6,2.78,2.78.32-.62Z"/><path class="i" d="M169.63,88l-.9,1.33-.91-1.4-.15,1.2,1.05,1.07,1-1.27Z"/><path class="j" d="M171.14,85.77l-2.41,3.58-2.31-3.58,2.31-3Z"/><path class="r" d="M172.54,88.22a.27.27,0,0,0,.17-.06c2.39-1.9,4.42-6.82,4.51-7a.28.28,0,0,0-.15-.36.27.27,0,0,0-.36.14h0s-1.94,4.68-4.12,6.62L169,82.61a.28.28,0,0,0-.23-.11.25.25,0,0,0-.22.12l-3.39,4.81c-.51-.94-1.87-3.42-3-5.72a.27.27,0,0,0-.36-.13.28.28,0,0,0-.14.37h0c1.44,2.9,3.23,6.09,3.25,6.12a.28.28,0,0,0,.37.11.2.2,0,0,0,.09-.09l3.42-4.85,3.58,4.86a.29.29,0,0,0,.19.11Z"/><path class="r" d="M168.74,83.05a.27.27,0,0,0,.27-.27h0V81.54a.28.28,0,1,0-.55,0h0v1.24a.27.27,0,0,0,.27.27Z"/><path class="p" d="M162.36,68.06s-1.23-1.47-1.93,0-.16,4.42,1.72,3.94Z"/><path class="o" d="M161,73.19a4.46,4.46,0,0,0,4.69,4.49c4.65,0,7.83-3.66,8-3.83h0l.05-1,.27-4.91.14-2.63s.59-4.73-3.9-5.59c-3.29-.63-6.37-.09-7.93,1.63-.05,0-.09.11-.14.17a3.92,3.92,0,0,0-.88,2.2l-.15,4.72,0,1.16Z"/><path class="j" d="M162.22,61.38c.75-.27,1.3,0,2.47.5,1.7.74,3.59.07,5.27-.79s2.68.34,2.1,1.12-.5,1.41.13,2.41-1.2,1.46-.19,2.24a1,1,0,0,1,.23,1.28.69.69,0,0,0,.41.89.78.78,0,0,0,.37,0h0c.54-.14,1.31-1.11,1.31-1.11l.15-2.69s.61-4.84-4-5.72c-3.36-.65-6.51-.09-8.1,1.66Z"/><path class="j" d="M172.26,72a4.11,4.11,0,0,0,1.46,1.83h0l.05-1A3.18,3.18,0,0,1,172.26,72Z"/><path class="o" d="M173.08,68.89s1.8-2.42,3.13-.52c1.08,1.57-1,5.65-3.13,4.25Z"/><path class="j" d="M173.33,71.89a.18.18,0,0,0,.18-.16,3.13,3.13,0,0,1,1.8-2.5.18.18,0,1,0-.13-.34,3.48,3.48,0,0,0-2,2.8.18.18,0,0,0,.17.2h0Z"/><path class="j" d="M175.06,70.77a.2.2,0,0,0,.19-.19.19.19,0,0,0-.07-.14,1.82,1.82,0,0,0-1.3-.44.18.18,0,0,0,.08.36h0c.32-.09.81.24,1,.37A.28.28,0,0,0,175.06,70.77Z"/><path class="o" d="M210,86.23s2.5,2.52,5,1.54c2-.79,2.42-3.56,2.52-4.6a3.49,3.49,0,0,0,0-.39,3.62,3.62,0,0,0,.32-.22c.44-.32,1.16-1,1.08-1.73-.11-1.09-2.08-.48-2.08-.48s.3-1.31-.29-1.7-1.75.29-1.75.29.64-1.61-.23-2c-1.31-.59-1.75,1.39-1.8,1.52,0-.14.63-6.21-.41-5.9s-1.74,5.34-2,6.72c0,.22-.05.34-.05.34h-.19c-.59,0-2.31.18-2.62,1.37C207.2,82.45,210,86.23,210,86.23Z"/><path class="p" d="M215.15,82a2.14,2.14,0,0,0-.21,1.34.63.63,0,0,0,.42.46,1.14,1.14,0,0,0,.55,0,6.17,6.17,0,0,0,1.62-.59,3.49,3.49,0,0,0,0-.39,3.62,3.62,0,0,0,.32-.22.2.2,0,0,0-.11,0,5,5,0,0,1-2.28.77.21.21,0,0,1-.16-.18,2.51,2.51,0,0,1,.61-1.75.2.2,0,0,0-.27-.29c-.41.3-1.59,1-2.18.85-.09,0-.1-.07-.1-.09a.62.62,0,0,1,.09-.42,5,5,0,0,1,.72-1.07.21.21,0,0,0,0-.29.22.22,0,0,0-.29,0,6,6,0,0,0-.73,1.07,1.55,1.55,0,0,0-.18.51.94.94,0,0,0,0,.29.56.56,0,0,0,.38.37A2.6,2.6,0,0,0,215.15,82Z"/><path class="p" d="M212,80.22a.23.23,0,0,1,.15.18,1.28,1.28,0,0,0,.18.63.21.21,0,0,0,.21.12.66.66,0,0,0,.33-.12,6,6,0,0,0,1.1-.91.16.16,0,0,1-.05.11,4.84,4.84,0,0,0-.72,1.08l-.13.07a1.53,1.53,0,0,1-.37.16l-.14,0a.62.62,0,0,1-.56-.29,1.66,1.66,0,0,1-.26-.84.2.2,0,0,1,.18-.22Z"/><path class="p" d="M209.09,82.52a6.76,6.76,0,0,0,1.62,0,2.24,2.24,0,0,0,1.13-.45,1,1,0,0,0,.36-.77c0-1.09-1.09-1.69-1.76-2,0,.22-.05.35-.05.35h-.19c.56.21,1.61.72,1.59,1.6a.62.62,0,0,1-.22.47,4,4,0,0,1-2.44.4.2.2,0,0,0-.2.21.22.22,0,0,0,.16.2Z"/><path class="p" d="M213.48,86.42a.21.21,0,0,0,.17-.24.24.24,0,0,0-.13-.15A1.83,1.83,0,0,1,212.38,85a4.53,4.53,0,0,1,.43-3,.2.2,0,0,0-.06-.28.2.2,0,0,0-.28,0s0,0,0,0a4.84,4.84,0,0,0-.45,3.38,2.2,2.2,0,0,0,1.38,1.3A.12.12,0,0,0,213.48,86.42Z"/><path class="q" d="M183.11,83.29,187.37,87l2.06,1.89,2,1.88c.69.61,1.37,1.23,2.06,1.83s1.37,1.19,2.05,1.76,1.35,1.11,2,1.58c.31.23.62.45.86.61l.17.11.07,0,0,0a.12.12,0,0,1,.05,0s0,0,.05.08a.37.37,0,0,0,.21,0,3.25,3.25,0,0,0,1.2-.46,11.51,11.51,0,0,0,1.64-1.23,22.32,22.32,0,0,0,1.68-1.69,40.48,40.48,0,0,0,3.18-4.1c1-1.46,1.73-2.59,2.65-4.15a6.82,6.82,0,0,0,6.22,2.38,55.69,55.69,0,0,1-2.41,5.55A43.29,43.29,0,0,1,210,98.56a27.14,27.14,0,0,1-2.06,2.61,19.15,19.15,0,0,1-2.67,2.5,13.29,13.29,0,0,1-1.74,1.13,12,12,0,0,1-2.16.9,10.08,10.08,0,0,1-2.61.41,9.51,9.51,0,0,1-2.76-.35,9.27,9.27,0,0,1-1.28-.46l-.3-.13-.24-.12-.24-.12-.22-.12c-.58-.31-1.07-.61-1.55-.91-.94-.6-1.78-1.2-2.61-1.79s-1.61-1.21-2.39-1.83-1.55-1.22-2.3-1.85-1.51-1.25-2.25-1.88l-2.19-1.91c-.72-.64-1.44-1.29-2.15-2l-1.07-1-.53-.5-.53-.51Z"/><path class="r" d="M187.18,100.79a.28.28,0,0,1-.15,0c-2.81-2-7.82-6.13-7.87-6.17a.26.26,0,0,1,0-.36.27.27,0,0,1,.37,0h0s5,4.18,7.84,6.14a.27.27,0,0,1,.06.36.26.26,0,0,1-.21.11Z"/><path class="r" d="M181.35,96.3h0l-2-.29a.27.27,0,0,1-.21-.3.26.26,0,0,1,.28-.21l2,.29a.26.26,0,0,1,0,.51Z"/><path class="r" d="M214.19,90.83a.25.25,0,0,0,.11-.35.26.26,0,0,0-.29-.13c-3.73.81-5.6-2.75-5.61-2.79a.28.28,0,0,0-.36-.12h0a.27.27,0,0,0-.11.36s2.07,4,6.19,3.06Z"/><path class="r" d="M212.27,90.9a.22.22,0,0,0,.12-.13l1.23-2.87a.26.26,0,0,0-.14-.34.25.25,0,0,0-.34.14h0l-1.23,2.87a.25.25,0,0,0,.14.34.24.24,0,0,0,.22,0Z"/><path class="r" d="M210.07,88.14a.45.45,0,0,0,.61.19.46.46,0,0,0,.19-.61.45.45,0,0,0-.61-.19.46.46,0,0,0-.2.61Z"/><path class="r" d="M198.21,100.08a.3.3,0,0,0,.14-.19,10.72,10.72,0,0,1,.76-2.61.27.27,0,0,0-.11-.36.28.28,0,0,0-.36.12,11.52,11.52,0,0,0-.81,2.76.25.25,0,0,0,.22.3.3.3,0,0,0,.16,0Z"/><path class="r" d="M199.91,99.49l.05,0a.25.25,0,0,0,0-.36h0a4.76,4.76,0,0,1-.91-1.74.26.26,0,0,0-.52.09h0a5.13,5.13,0,0,0,1,2A.26.26,0,0,0,199.91,99.49Z"/></g><ellipse class="g" cx="55.88" cy="211.94" rx="55.88" ry="3.4"/><path class="o" d="M48.41,111.16l6,22-2.15-2.47a11,11,0,0,0,2.73,1,20.43,20.43,0,0,0,3.29.42c1.16.06,2.38,0,3.61,0s2.51-.15,3.79-.26h0a3.44,3.44,0,0,1,.83,6.83c-1.32.21-2.67.42-4,.57s-2.8.28-4.27.32a27.71,27.71,0,0,1-4.55-.25A18.94,18.94,0,0,1,48.89,138a3.75,3.75,0,0,1-2.07-2.24l-.07-.23-7.23-21.66a4.65,4.65,0,0,1,8.82-2.94C48.36,111,48.39,111.08,48.41,111.16Z"/><path class="r" d="M50.73,191a.86.86,0,0,1-.27,0L18.9,179.58a.8.8,0,0,1,.54-1.5L51,189.46a.8.8,0,0,1,.48,1,.79.79,0,0,1-.75.53Z"/><path class="r" d="M17.86,191a.8.8,0,0,1-.27-1.55L49.52,177.9a.79.79,0,0,1,.55,1.49L18.14,191A.87.87,0,0,1,17.86,191Z"/><path class="s" d="M53.54,211.34a1.37,1.37,0,0,1-1.35-1.18l-5.7-42.56H22.64L17,210.15a1.37,1.37,0,0,1-2.71-.33v0l5.76-43.74a1.37,1.37,0,0,1,1.35-1.19H47.68A1.37,1.37,0,0,1,49,166.06l5.86,43.73a1.37,1.37,0,0,1-1.17,1.54Z"/><path class="s" d="M40.08,166.24H23c-5.4,0-11.18-3-12-8.29A101.46,101.46,0,0,1,10,137.57a24.86,24.86,0,0,1,9.41-18.29h0s3.4,14.84-.88,35.31C20.13,162.37,40.08,166.24,40.08,166.24Z"/><path class="j" d="M36.53,79.23a6.8,6.8,0,0,0-7.39-4C25.4,75.92,23.8,80.58,24,87.8c.32,10.49-3.23,16.81-3.23,16.81l4.71,1.08S37.49,87.69,36.53,79.23Z"/><path class="j" d="M79.5,193.1H71.89s-1.76-8.45-2.35-13.18-.9-16-.9-16-6.06,2-18.76,1.23c-28.13-1.65-17.46-22.32-17.46-22.32.95,1.32,6.77.41,10.75,1,12.21,1.18,22.81,6,29.16,8.71a31.55,31.55,0,0,1,4.09,2.1c1.53.94,2.49,3.81,3.06,7.58C81.22,173.61,79.5,193.1,79.5,193.1Z"/><path class="i" d="M72.84,189a.28.28,0,0,1-.27-.22,131.6,131.6,0,0,1-1.76-17.63c-.25-4.51-.48-8.77-1.06-9.28s-2.41-.09-4.88.32c-4.9.82-12.31,2.05-20.48.14-4.45-1-7.73-3.19-9.73-6.42-3.45-5.57-1.88-12.47-1.86-12.54a.27.27,0,0,1,.34-.19.28.28,0,0,1,.19.31c0,.07-1.54,6.76,1.8,12.13,1.92,3.1,5.08,5.18,9.38,6.18,8.07,1.88,15.41.66,20.27-.15,2.91-.48,4.67-.77,5.33-.19s.92,3.75,1.24,9.66a131.74,131.74,0,0,0,1.76,17.55.27.27,0,0,1-.22.32Z"/><path class="i" d="M79.65,189.17h0L71.18,189a.27.27,0,0,1-.27-.28h0a.28.28,0,0,1,.28-.26h0l8.47.18a.27.27,0,0,1,0,.54Z"/><path class="o" d="M79.3,202.85H73.92l-1-6.3-.57-3.45H79l.1,3.45Z"/><path class="s" d="M79.3,202.85H73.92l-.77-4.69-.26-1.61H79.1l.05,1.67Z"/><path class="r" d="M79.15,198.22l-6-.06-.26-1.61H79.1Z"/><path class="t" d="M92.55,211.34H72.23a3,3,0,0,1-.26-1.13,32.69,32.69,0,0,1,.69-6.19c0-.2.06-.39.08-.56s.05-.47.06-.71a1,1,0,0,1,1.25-1.17c2,2,4.38-1,5.74,0l.18.13c.12.09.29.23.53.44s.83.71,1.49,1.3c1.61,1.45,4.36,2.41,6.69,3.38.3.13.58.25.83.38a5.64,5.64,0,0,1,.55.28c1.91,1,2.52,2,2.66,2.73A1.54,1.54,0,0,1,92.55,211.34Z"/><path class="u" d="M90.06,207.48a5.19,5.19,0,0,1-2.62,1.25h-.12a24.9,24.9,0,0,1-5-2.33c-1.13-.62-2.16-1.23-2.9-1.72-1.22-.8-1.43-1.1-1.48-1.32-.18-.8,1.15-1.36,2.08-1.65.11.09.29.23.53.44-1.16.31-2.1.8-2.06,1.08s1.32,1.16,4.19,2.73a26.38,26.38,0,0,0,4.74,2.21,4.1,4.1,0,0,0,2.14-1A5.64,5.64,0,0,1,90.06,207.48Z"/><path class="u" d="M92.55,211.34H72.23a3,3,0,0,1-.26-1.13H92.72A1.54,1.54,0,0,1,92.55,211.34Z"/><path class="u" d="M74.31,211.34H73.7a4.47,4.47,0,0,0,1.1-3.25A5.76,5.76,0,0,0,72.65,204c0-.2.06-.39.09-.56a6.25,6.25,0,0,1,2.54,4.6A5,5,0,0,1,74.31,211.34Z"/><path class="h" d="M81.65,204.64a.34.34,0,0,1-.33-.35.32.32,0,0,1,.25-.31l1.26-.32a.34.34,0,0,1,.41.25.33.33,0,0,1-.24.4l-1.27.32Z"/><path class="h" d="M80.38,203.58a.34.34,0,0,1-.08-.66l1.27-.32a.35.35,0,0,1,.41.25.33.33,0,0,1-.25.4l-1.26.32Z"/><path class="h" d="M82.91,205.37a.32.32,0,0,1-.32-.34.33.33,0,0,1,.24-.32l1.27-.31a.34.34,0,0,1,.17.65l-1.27.31Z"/><path class="h" d="M84.18,206.08a.32.32,0,0,1-.32-.34.33.33,0,0,1,.24-.32l1.27-.31a.35.35,0,0,1,.41.25.34.34,0,0,1-.25.4l-1.26.31Z"/><path class="h" d="M85.57,206.74a.34.34,0,0,1-.33-.34.33.33,0,0,1,.25-.32l1.27-.32a.34.34,0,0,1,.4.25.32.32,0,0,1-.24.4h0l-1.27.32Z"/><path class="h" d="M87.07,207.3a.34.34,0,0,1-.33-.34.33.33,0,0,1,.25-.32l1.27-.32a.33.33,0,0,1,.4.25.32.32,0,0,1-.24.4l-1.27.32Z"/><path class="u" d="M18.33,136.31s-.24,1.64,2,2.1l22.92.77a2.59,2.59,0,0,0,1.27-2.7S34.8,131,18.33,136.31Z"/><path class="o" d="M43.52,143.89c-11.9,6.55-24.89,1.28-24.89,1.28a35.54,35.54,0,0,0,1.45-5.47c.4-2.07.62-3.9.72-4.86,5.06-.28,17.47-.8,22.33.35l0,1.95Z"/><path class="v" d="M34.73,140.75c-.08.62-.36,1.09-.61,1.05s-.39-.56-.3-1.18.36-1.08.61-1S34.82,140.14,34.73,140.75Z"/><path class="v" d="M43.17,137.14c-5.07-.31-15-.42-23.09,2.56.4-2.07.62-3.9.72-4.86,5.06-.28,17.47-.81,22.33.35Z"/><path class="t" d="M48.82,127.72a2.47,2.47,0,0,1-.17.42l-.08.14a11.49,11.49,0,0,1-2.44,2.94l-.49.41c-.31.24-.57.44-.75.56l-.26.18v0c0,.09,0,.18,0,.28,0,.37-.06.82-.07,1.33s0,.86,0,1.34,0,.73,0,1.12c-6.72-3-20.57-1.11-26.15-.17.1-.48.19-.95.28-1.41a43.13,43.13,0,0,0,.7-5.76,59.83,59.83,0,0,0-.63-10.36c0-.26-.07-.51-.11-.77s-.05-.33-.07-.5c-.19-1.25-.42-2.49-.67-3.7-1.1-5.28-.33-10.82,5-11.47l1.15-.13c2.52-.27,4.59-.36,5.17-.39h.16l10.34,3,1,.29,1.57.53.6.22c.5.18,1,.37,1.36.55a11.46,11.46,0,0,1,2,1.09c2.27,1.61,1.91,3.43,1.86,7v0a.57.57,0,0,1,0,.13v.51c0,.46,0,.92.05,1.38,0,.68.1,1.36.18,2,0,.26,0,.53.09.79l.09.73C48.87,123.29,49.38,126,48.82,127.72Z"/><path class="u" d="M48.05,114.58v.64l-2.17,1.36a.3.3,0,0,1-.42-.1.29.29,0,0,1,.1-.41h0l2.3-1.45A.27.27,0,0,1,48.05,114.58Z"/><path class="u" d="M33.72,126.22a.31.31,0,0,1-.3-.31.3.3,0,0,1,.1-.22l2-1.82a.3.3,0,0,1,.43,0,.3.3,0,0,1,0,.42l-2,1.82A.32.32,0,0,1,33.72,126.22Z"/><path class="u" d="M48.46,120.14l-1.39,1.25a.3.3,0,0,1-.43,0,.31.31,0,0,1,0-.43l1.7-1.52C48.39,119.65,48.42,119.9,48.46,120.14Z"/><path class="u" d="M29.62,118.9a.3.3,0,0,1,.08-.42.3.3,0,0,1,.24,0l2.65.62a.31.31,0,0,1,.21.38.29.29,0,0,1-.35.21L29.8,119A.36.36,0,0,1,29.62,118.9Z"/><path class="u" d="M20.18,124.09a.3.3,0,0,1-.31-.3.33.33,0,0,1,.1-.23l2-1.82a.31.31,0,0,1,.41.46h0l-2,1.81A.27.27,0,0,1,20.18,124.09Z"/><path class="u" d="M43.71,123.66a.3.3,0,0,1,.39-.19.31.31,0,0,1,.18.16l1.08,2.5a.29.29,0,0,1-.16.39.3.3,0,0,1-.39-.15l-1.09-2.49A.33.33,0,0,1,43.71,123.66Z"/><path class="u" d="M48.82,127.72a2.47,2.47,0,0,1-.17.42l-.08.14-1.47-.47a.3.3,0,1,1,.18-.57h0Z"/><path class="u" d="M40.47,127.94a.3.3,0,0,1,.26.51l-1.83,2a.3.3,0,1,1-.46-.39v0l1.83-2A.3.3,0,0,1,40.47,127.94Z"/><path class="u" d="M39.4,123.29a.29.29,0,0,1-.25-.35.28.28,0,0,1,.14-.2l2.3-1.45a.32.32,0,0,1,.42.11.31.31,0,0,1-.1.41l-2.3,1.44A.26.26,0,0,1,39.4,123.29Z"/><path class="u" d="M40.86,114.53a.31.31,0,0,1,0,.43.31.31,0,0,1-.24.08l-2.7-.3a.3.3,0,0,1-.27-.33.3.3,0,0,1,.34-.27l2.7.3A.28.28,0,0,1,40.86,114.53Z"/><path class="u" d="M36.93,108.67a.32.32,0,0,1,.37-.23.33.33,0,0,1,.19.16L38.78,111a.3.3,0,0,1-.53.29h0L37,108.88A.26.26,0,0,1,36.93,108.67Z"/><path class="u" d="M46.13,131.22l-.49.41-.36-.91a.28.28,0,0,1,0-.22.3.3,0,0,1,.39-.17.29.29,0,0,1,.17.17Z"/><path class="u" d="M21.26,126.61a.3.3,0,0,1,.12-.41.31.31,0,0,1,.25,0l2.56.92a.3.3,0,0,1,.19.38.3.3,0,0,1-.38.2h0l-2.56-.92A.32.32,0,0,1,21.26,126.61Z"/><path class="u" d="M22.51,130.07a.3.3,0,0,1,.3.3.33.33,0,0,1-.1.23l-2,1.8a.3.3,0,0,1-.42-.05.29.29,0,0,1,0-.4l2-1.81A.29.29,0,0,1,22.51,130.07Z"/><path class="u" d="M26.2,132.93a.3.3,0,0,1-.05.43.31.31,0,0,1-.23.06L23.23,133a.3.3,0,0,1-.24-.35.29.29,0,0,1,.35-.25l2.68.46A.27.27,0,0,1,26.2,132.93Z"/><path class="u" d="M28.45,107.46a.3.3,0,0,1,.45-.33l2.29,1.47a.3.3,0,1,1-.33.51l-2.29-1.47A.32.32,0,0,1,28.45,107.46Z"/><path class="u" d="M44,109.2a.3.3,0,0,1,.43.37l-.91,2.56a.29.29,0,0,1-.38.18.3.3,0,0,1-.19-.38l.91-2.57A.32.32,0,0,1,44,109.2Z"/><path class="u" d="M42.82,105.86l-1.4,1.8a.3.3,0,0,1-.43,0,.3.3,0,0,1-.05-.41l1.28-1.65C42.43,105.71,42.63,105.78,42.82,105.86Z"/><path class="u" d="M29.08,130.74a.24.24,0,0,0,.19.16h.13a14.17,14.17,0,0,1,9.07.48,15.63,15.63,0,0,0,6.14,1.31,2.46,2.46,0,0,1,0-.28v0l.26-.18a14.86,14.86,0,0,1-6.23-1.28,14.5,14.5,0,0,0-9.42-.49A.25.25,0,0,0,29.08,130.74Z"/><path class="u" d="M39.67,104.82c-.58.9-1.78,1.92-4.2,1.74-3.34-.24-5.53-3.43-6.3-4.74h.16Z"/><path class="h" d="M36.12,110.73l.29,0a2.59,2.59,0,0,0,2.23-.8c1.6-1.76.94-5.76.91-5.92a.25.25,0,0,0-.28-.21.26.26,0,0,0-.21.29s.65,3.93-.79,5.5a2.07,2.07,0,0,1-1.82.64c-3.23-.26-6.86-8.48-6.9-8.56a.23.23,0,0,0-.32-.13.24.24,0,0,0-.13.32C29.25,102.26,32.69,110,36.12,110.73Z"/><path class="o" d="M46.2,107.5a17.92,17.92,0,0,0,1.9,9.1c0-.6-.05-1.21-.05-1.82v-.07a1.09,1.09,0,0,1,0-.18C48.11,110.93,48.46,109.11,46.2,107.5Z"/><path class="o" d="M27.17,111.68c-1.19,4.58-5.52,8.25-8.49,7.1,0-.25-.07-.51-.11-.77s-.05-.33-.08-.5c-.19-1.25-.41-2.49-.66-3.7-1.1-5.28-.33-10.82,5-11.47l1.15-.13C26.67,103.35,28.54,106.41,27.17,111.68Z"/><path class="o" d="M27.78,108.19l6.95,25.42-2.47-2.86a13,13,0,0,0,3.15,1.13,23.1,23.1,0,0,0,3.8.48c1.34.07,2.74.06,4.17,0s2.89-.17,4.37-.29h0a4,4,0,0,1,1,7.88c-1.53.24-3.09.47-4.68.66s-3.23.32-4.92.36a31.88,31.88,0,0,1-5.26-.29,22,22,0,0,1-5.52-1.52,4.33,4.33,0,0,1-2.39-2.6l-.09-.26-8.34-25a5.36,5.36,0,0,1,10.18-3.39A2.29,2.29,0,0,1,27.78,108.19Z"/><path class="v" d="M30.89,132.79a.2.2,0,0,1-.2-.2.2.2,0,0,1,.1-.18,8.66,8.66,0,0,1,3.18-1,.21.21,0,0,1,0,.41,8.39,8.39,0,0,0-3,1Z"/><path class="v" d="M33.42,131.87a.2.2,0,0,1-.11,0,5.65,5.65,0,0,0-2.13-.67A.2.2,0,0,1,31,131a.21.21,0,0,1,.22-.19,5.89,5.89,0,0,1,2.32.73.22.22,0,0,1,.07.28.2.2,0,0,1-.18.1Z"/><path class="u" d="M39.62,118.48c3.08.62,4.42-2.56,4.43-2.59a.24.24,0,1,0-.45-.19c-.05.12-1.21,2.83-3.88,2.29s-8-6.08-8.09-6.14a.25.25,0,0,0-.36.34C31.49,112.42,36.66,117.88,39.62,118.48Z"/><path class="j" d="M34.78,98.46a8.61,8.61,0,0,1-6.33-5.92c-1.32-4.74-.3-7.2,1.08-9.76a8.32,8.32,0,0,1,8.94-3.61c4.67,1,8.15,3.34,8.67,7.18C48.1,93.52,42.31,102.27,34.78,98.46Z"/><path class="s" d="M28.69,93.31a.28.28,0,0,1-.23-.13A11.24,11.24,0,0,1,28,84.37a8.06,8.06,0,0,1,4.79-5.05,8.53,8.53,0,0,1,3.23-.6.27.27,0,0,1,.24.28.27.27,0,0,1-.26.24h0a8.12,8.12,0,0,0-3,.57,7.45,7.45,0,0,0-4.47,4.73,10.86,10.86,0,0,0,.4,8.39.25.25,0,0,1-.1.35A.24.24,0,0,1,28.69,93.31Z"/><path class="v" d="M44.36,93.39s1.6-1.27,2,.41-.77,4.67-2.64,3.76Z"/><path class="s" d="M42.79,96.48a2.54,2.54,0,0,0-1.68,1.85A2.42,2.42,0,1,0,44,96.44h0a.42.42,0,0,0,.07.4,1.87,1.87,0,0,1,.71.34,2,2,0,0,1-2.47,3.26,2.08,2.08,0,0,1-.77-2A2,2,0,0,1,43,96.85Z"/><path class="o" d="M39.49,100.59l-.67,4.21s-3.15,3.21-8.9-2.56c1.54-1.15,2.13-3.81,1.95-5.53a7.73,7.73,0,0,1,1.15.9,5.36,5.36,0,0,0,.49.34A15,15,0,0,0,39.49,100.59Z"/><path class="j" d="M39.49,100.59l-.32,2c-1.72-.76-4.78-2.41-6.15-5l.48.34A15.13,15.13,0,0,0,39.49,100.59Z"/><path class="o" d="M45.91,92.38c-.09.45-.17.87-.26,1.27s-.17.85-.26,1.24c-.63,2.91-1.16,4.47-2,5-4.29,3-11.28-3-11.5-3.22h0q0-.52,0-1A26,26,0,0,1,33.17,88a5.92,5.92,0,0,1,4.94-5c2.66-.4,4.66,1.14,5.91,1.82C45.91,85.81,46.65,88.67,45.91,92.38Z"/><path class="j" d="M33.32,85.33s3-5.78,9-4.17,6.31,4.4,6.42,5.79-3.11-1.07-3.11-1.07-.11,2.78-1.18,1.93a17.72,17.72,0,0,1-2.78-3.33s-3.57,3.51-7,2.57C32.78,86.51,33.32,85.33,33.32,85.33Z"/><path class="h" d="M48.14,93.3l-2.33-.4a1.36,1.36,0,0,1-.06.29s0,0,0,0l2.36.4a.18.18,0,0,0,.2-.14.17.17,0,0,0-.14-.2Z"/><path class="h" d="M41.91,91.3a2.06,2.06,0,0,0,0-.35,2.9,2.9,0,0,0-.79-1.67,2.87,2.87,0,0,0-1.5-.85h0a2.94,2.94,0,0,0-3.27,1.65c0,.11-.09.22-.13.33s-.06.2-.08.3a2.94,2.94,0,0,0,5.76,1.19h0A3,3,0,0,0,41.91,91.3Zm-3.46,2.54h0a2.59,2.59,0,0,1-2-3.09,3.57,3.57,0,0,1,.1-.35v0a2.59,2.59,0,1,1,1.9,3.47Z"/><path class="h" d="M47.14,90.1,46.9,90a1.63,1.63,0,0,0-.31-.11l-.22-.06-.41,0a2.66,2.66,0,0,0-.49,0,3,3,0,0,0-2.26,1.48,2.11,2.11,0,0,0-.16.34v0a4,4,0,0,0-.15.49A3,3,0,0,0,44,95a2.86,2.86,0,0,0,1,.49l.17,0,.08,0a2.64,2.64,0,0,0,.84,0h.13l.36-.07a2.94,2.94,0,0,0,.63-5.45Zm1.17,3.13a.75.75,0,0,1,0,.16,1.55,1.55,0,0,1-.07.23,2.59,2.59,0,0,1-1.06,1.29,2.5,2.5,0,0,1-.94.35l-.11,0a2.64,2.64,0,0,1-.84,0h-.13A2.66,2.66,0,0,1,44,94.63a.8.8,0,0,1-.13-.13,2.54,2.54,0,0,1-.67-2.32,2.09,2.09,0,0,1,.18-.55,2.6,2.6,0,0,1,2.36-1.52H46a1.86,1.86,0,0,1,.34,0,1.05,1.05,0,0,1,.24.06,2,2,0,0,1,.31.12,1,1,0,0,1,.23.12,2.58,2.58,0,0,1,1.23,2.76Z"/><path class="h" d="M32.58,90.6l-.06,0a.17.17,0,0,1-.05-.24c1.17-1.83,4-.19,4-.17a.17.17,0,0,1,.07.24.18.18,0,0,1-.24.06h0s-2.55-1.49-3.54.06A.16.16,0,0,1,32.58,90.6Z"/><path class="h" d="M43.18,91.7a.14.14,0,0,1-.11-.07c-.38-.58-1.18-.32-1.19-.32a.16.16,0,0,1-.22-.09.17.17,0,0,1,.09-.23h0a1.39,1.39,0,0,1,1.59.46.18.18,0,0,1,0,.24.2.2,0,0,1-.13,0Z"/><path class="j" d="M33.8,95.12a4.37,4.37,0,0,1-1.92,1.6h0c0-.35,0-.68,0-1A3.69,3.69,0,0,0,33.8,95.12Z"/><path class="o" d="M33.6,91.67s-1.38-2.92-3.16-1.21c-1.47,1.41-.19,6.12,2.37,5.12Z"/><path class="s" d="M30.22,94.18A2.55,2.55,0,0,0,28.53,96a2.42,2.42,0,1,0,2.86-1.89h0a.42.42,0,0,0,.07.4,1.87,1.87,0,0,1,.71.34,2,2,0,1,1-3.24,1.23,2,2,0,0,1,1.51-1.56Z"/><path class="j" d="M32.7,94.76h0a.2.2,0,0,0,.22-.18,3.72,3.72,0,0,0-1.53-3.36.21.21,0,0,0-.28.06.2.2,0,0,0,.06.27h0a3.3,3.3,0,0,1,1.35,3A.21.21,0,0,0,32.7,94.76Z"/><path class="j" d="M31.13,93.22a.2.2,0,0,0,.13,0c.2-.1.78-.34,1.09-.18a.21.21,0,0,0,.27-.1.21.21,0,0,0-.09-.26,1.91,1.91,0,0,0-1.46.19.2.2,0,0,0-.08.26.19.19,0,0,0,.14.11Z"/><path class="j" d="M35.37,86.72a61.28,61.28,0,0,0-1.95,6c-.14,1.38-2-3.35-.13-7.38Z"/><path class="j" d="M66.25,193.13H58.64s-1.76-8.45-2.35-13.19-.9-16-.9-16-6.06,2-18.76,1.22c-28.13-1.64-17.46-22.31-17.46-22.31.95,1.31,8.08,3.12,12.06,3.75,12.21,1.17,21.49,3.25,27.85,6a32.79,32.79,0,0,1,4.09,2.09c1.53.95,2.49,3.81,3.06,7.58C68,173.63,66.25,193.13,66.25,193.13Z"/><path class="i" d="M59.59,189.06a.28.28,0,0,1-.27-.22,130.12,130.12,0,0,1-1.76-17.64c-.25-4.5-.48-8.76-1.06-9.27s-2.41-.09-4.88.32c-4.9.81-12.31,2-20.48.14-4.45-1-7.73-3.2-9.73-6.43-3.45-5.56-1.88-12.47-1.86-12.54a.27.27,0,0,1,.33-.18.28.28,0,0,1,.2.31c0,.07-1.54,6.76,1.8,12.13,1.92,3.1,5.08,5.18,9.38,6.18,8.07,1.87,15.41.66,20.27-.15,2.91-.48,4.67-.78,5.33-.19s.92,3.75,1.24,9.65a131.86,131.86,0,0,0,1.75,17.56.27.27,0,0,1-.21.32h0Z"/><path class="i" d="M66.4,189.2h0L57.93,189a.28.28,0,0,1-.27-.28h0a.28.28,0,0,1,.28-.27h0l8.47.19a.27.27,0,0,1,.27.27.28.28,0,0,1-.28.27Z"/><path class="o" d="M66,202.88H60.67l-1-6.3-.57-3.45h6.68l.1,3.45Z"/><path class="s" d="M66,202.88H60.67l-.77-4.69-.26-1.61h6.21l.05,1.66Z"/><path class="r" d="M65.9,198.25l-6-.06-.26-1.61h6.21Z"/><path class="t" d="M79.3,211.36H59a2.87,2.87,0,0,1-.26-1.12,33.61,33.61,0,0,1,.68-6.2c0-.2.07-.39.09-.56s0-.47.06-.7a1,1,0,0,1,1.25-1.17c2.05,2,4.38-1,5.74,0l.18.14.53.43c.35.29.83.71,1.49,1.3,1.61,1.45,4.36,2.41,6.69,3.39.3.12.58.25.83.37l.55.28c1.91,1,2.52,2,2.66,2.74A1.52,1.52,0,0,1,79.3,211.36Z"/><path class="u" d="M76.81,207.5a5.11,5.11,0,0,1-2.62,1.25h-.12a26.1,26.1,0,0,1-5-2.33c-1.13-.62-2.16-1.23-2.9-1.72-1.22-.8-1.43-1.11-1.48-1.32-.18-.8,1.15-1.36,2.08-1.65l.53.43c-1.15.32-2.11.81-2.06,1.09s1.32,1.16,4.19,2.73a26.06,26.06,0,0,0,4.74,2.21,4,4,0,0,0,2.14-1Z"/><path class="u" d="M79.3,211.36H59a2.87,2.87,0,0,1-.26-1.12H79.47A1.57,1.57,0,0,1,79.3,211.36Z"/><path class="u" d="M61.06,211.36h-.61a4.39,4.39,0,0,0,1.09-3.25,5.69,5.69,0,0,0-2.14-4.06c0-.21.06-.4.09-.57A6.27,6.27,0,0,1,62,208.09,5,5,0,0,1,61.06,211.36Z"/><path class="h" d="M68.4,204.66a.34.34,0,0,1-.34-.34.35.35,0,0,1,.25-.32l1.27-.31a.33.33,0,0,1,.41.24.33.33,0,0,1-.24.41h0l-1.27.31Z"/><path class="h" d="M67.13,203.6a.34.34,0,0,1-.33-.34.34.34,0,0,1,.25-.31l1.27-.32a.33.33,0,0,1,.4.25.32.32,0,0,1-.24.4l-1.27.32Z"/><path class="h" d="M69.66,205.4a.34.34,0,0,1-.33-.34.34.34,0,0,1,.25-.32l1.27-.32a.34.34,0,0,1,.41.24.33.33,0,0,1-.23.41h0l-1.26.32Z"/><path class="h" d="M70.93,206.11a.34.34,0,0,1-.33-.34.33.33,0,0,1,.25-.32l1.27-.32a.35.35,0,0,1,.41.25.33.33,0,0,1-.25.4L71,206.1Z"/><path class="h" d="M72.32,206.76a.32.32,0,0,1-.33-.33.31.31,0,0,1,.25-.32l1.27-.32a.33.33,0,0,1,.16.65l-1.27.32Z"/><path class="h" d="M73.82,207.32a.33.33,0,0,1-.33-.33.31.31,0,0,1,.25-.32l1.27-.32a.33.33,0,0,1,.16.65l-1.27.32Z"/><path class="w" d="M94.29,142.59v1.68c0,1-.58,1.76-1.31,1.76H1.8c-.72,0-1.31-.78-1.31-1.76v-1.68c0-1,.59-1.76,1.31-1.76H93C93.71,140.83,94.29,141.62,94.29,142.59Z"/><rect class="x" x="0.49" y="143.12" width="93.8" height="0.77"/><path class="x" d="M91.55,150.37H5.84a.69.69,0,0,1-.69-.7h0V146h87.1v3.66a.7.7,0,0,1-.7.7Z"/><rect class="x" x="11.05" y="171.88" width="76.65" height="2.99"/><path class="w" d="M5.53,211.9l14.84-61.53H15.15L.32,211.9Z"/><path class="w" d="M93.13,211.9,78.29,150.37H83.5L98.34,211.9Z"/><rect class="s" x="8.13" y="126.74" width="1.63" height="12.27" transform="translate(-20.02 2.89) rotate(-8.71)"/><path class="o" d="M8.82,126.68l-1.61.25.35-1.23.19-.63.36.55Z"/><rect class="j" x="8.99" y="138.05" width="1.63" height="0.89" transform="translate(-20.86 3.08) rotate(-8.71)"/><path class="k" d="M10.68,139.53l-1.4.22a.1.1,0,0,1-.12-.09h0l-.09-.6,1.61-.25.09.6a.1.1,0,0,1-.09.12Z"/><path class="j" d="M8.11,125.62l-.55.08.19-.64Z"/><rect class="r" x="8.87" y="137.42" width="1.63" height="0.64" transform="translate(-20.74 3.05) rotate(-8.71)"/><path class="r" d="M7.7,127.47l1.38,9a.12.12,0,0,0,.14.1h0a.12.12,0,0,0,.1-.14h0l-1.37-9a.13.13,0,0,0-.14-.11h0a.13.13,0,0,0-.1.14Z"/><path class="r" d="M8.33,127.37l1.38,9a.12.12,0,0,0,.14.11h0a.12.12,0,0,0,.1-.14h0l-1.37-9a.12.12,0,0,0-.14-.1h0a.12.12,0,0,0-.1.14Z"/><rect class="y" x="10.12" y="126.74" width="1.63" height="12.27" transform="translate(-0.44 0.04) rotate(-0.19)"/><path class="o" d="M11.73,126.74H10.1l.53-1.17.28-.6.28.6Z"/><rect class="j" x="10.14" y="138.12" width="1.63" height="0.89" transform="translate(-0.45 0.04) rotate(-0.19)"/><path class="k" d="M11.66,139.72H10.25a.11.11,0,0,1-.11-.11h0V139h1.63v.6a.11.11,0,0,1-.11.11Z"/><path class="j" d="M11.19,125.58h-.56l.28-.6Z"/><rect class="z" x="10.14" y="137.48" width="1.63" height="0.64" transform="translate(-0.45 0.04) rotate(-0.19)"/><path class="z" d="M10.51,127.35l0,9.09a.12.12,0,0,0,.12.12h0a.12.12,0,0,0,.12-.12h0l0-9.09a.12.12,0,0,0-.12-.13h0a.12.12,0,0,0-.12.13Z"/><path class="z" d="M11.14,127.35l0,9.08a.13.13,0,0,0,.13.13h0a.12.12,0,0,0,.12-.13h0l0-9.08a.12.12,0,0,0-.12-.13h0A.13.13,0,0,0,11.14,127.35Z"/><rect class="t" x="6.73" y="132.06" width="12.27" height="1.63" transform="translate(-120.49 126.93) rotate(-81.92)"/><path class="o" d="M14.53,126.91l-1.61-.23.7-1.07.36-.56.19.64Z"/><rect class="j" x="11.62" y="137.69" width="0.89" height="1.63" transform="translate(-126.76 130.97) rotate(-81.91)"/><path class="k" d="M12.6,139.75l-1.39-.2a.12.12,0,0,1-.1-.12h0l.09-.6,1.61.23-.08.6a.11.11,0,0,1-.13.09Z"/><path class="j" d="M14.17,125.69l-.55-.08.36-.55Z"/><rect class="u" x="11.86" y="136.94" width="0.64" height="1.63" transform="translate(-125.92 130.42) rotate(-81.91)"/><path class="u" d="M13.24,127.34l-1.28,9a.13.13,0,0,0,.11.14h0a.13.13,0,0,0,.14-.11h0l1.27-9a.12.12,0,0,0-.1-.14h0A.12.12,0,0,0,13.24,127.34Z"/><path class="u" d="M13.87,127.43l-1.28,9a.13.13,0,0,0,.11.14h0a.12.12,0,0,0,.14-.11h0l1.27-9a.12.12,0,0,0-.1-.14h0A.12.12,0,0,0,13.87,127.43Z"/><path class="k" d="M15.06,131.59l-.08.66-.08.6-.11.91-.08.59-.12.92-.07.58-.12.92-.08.58-.12.93-.07.57-.12.94-.07.56-.07.48H7.48l-.07-.48-.07-.56-.12-.94-.07-.57L7,137.35,7,136.77l-.12-.92-.07-.58-.12-.92-.08-.59-.11-.91-.08-.6-.09-.66Z"/><path class="aa" d="M15,132.25l-.08.6H6.45l-.08-.6Z"/><path class="aa" d="M14.79,133.76l-.08.59H6.64l-.08-.59Z"/><path class="aa" d="M14.59,135.26l-.07.59H6.83l-.07-.59Z"/><path class="aa" d="M14.4,136.77l-.08.58H7L7,136.77Z"/><path class="aa" d="M14.2,138.28l-.07.57H7.22l-.07-.57Z"/><path class="aa" d="M14,139.78l-.07.56H7.41l-.07-.56Z"/><path class="j" d="M93.76,108.2l-5.45,23.07-.15.61-.37,1.55a1.48,1.48,0,0,1-1.45,1.15H49.59a1.49,1.49,0,0,1-1.49-1.49,1.86,1.86,0,0,1,0-.34l6-25.24a1.49,1.49,0,0,1,1.45-1.14H92.31a1.49,1.49,0,0,1,1.49,1.49A1.32,1.32,0,0,1,93.76,108.2Z"/><path class="i" d="M88.31,131.27l-.15.61H50v-.61Z"/><path class="s" d="M64.4,112.08a3.74,3.74,0,0,1-3.51,3,2.39,2.39,0,0,1-2.48-2.3,2.9,2.9,0,0,1,.07-.66,3.73,3.73,0,0,1,3.52-3,2.38,2.38,0,0,1,2.47,2.29A2.15,2.15,0,0,1,64.4,112.08Z"/><path class="j" d="M61.06,111.51c-.06.33-.23.59-.37.59s-.21-.26-.15-.59.23-.59.37-.59S61.12,111.18,61.06,111.51Z"/><path class="j" d="M62.61,111.51c-.07.33-.23.59-.37.59s-.21-.26-.15-.59.23-.59.37-.59S62.67,111.18,62.61,111.51Z"/><path class="j" d="M61.2,113.52a1.32,1.32,0,0,1-1.33-1.29.17.17,0,0,1,.13-.15.11.11,0,0,1,.13.07v0a1.09,1.09,0,0,0,1.11,1.08h0a1.76,1.76,0,0,0,1.52-1.08.16.16,0,0,1,.17-.1.11.11,0,0,1,.08.13,0,0,0,0,0,0,0A2.12,2.12,0,0,1,61.2,113.52Z"/><path class="k" d="M81.39,125.9c0,1.53,2.63,3.45,2.63,3.45s3-1.92,3.38-3.45-1.5-2.17-2.9-.92C83.37,123.73,81.36,124.24,81.39,125.9Z"/><path class="i" d="M75.9,121.46a3.29,3.29,0,0,1-3.19,2.88,2.53,2.53,0,0,1-2.58-2.47,2.82,2.82,0,0,1,0-.41,3.3,3.3,0,0,1,3.19-2.88,2.53,2.53,0,0,1,2.59,2.47A2.73,2.73,0,0,1,75.9,121.46Z"/><path class="i" d="M57,106.37l-6.36,28.21H49.59a1.49,1.49,0,0,1-1.49-1.49,1.86,1.86,0,0,1,0-.34l6-25.24a1.49,1.49,0,0,1,1.45-1.14Z"/><path class="h" d="M67.66,134.58l-1.11,6.27h3.68l1.11-6.27Z"/><path class="h" d="M61,139.77l.76-1.06a1.42,1.42,0,0,1,1.17-.6H73.05a1.43,1.43,0,0,1,1.28.77l.5,1a.67.67,0,0,1-.29.92.65.65,0,0,1-.31.08H61.59a.68.68,0,0,1-.68-.68A.7.7,0,0,1,61,139.77Z"/><path class="h" d="M40,140.85H70.33l.33-1.15a1.13,1.13,0,0,0-.77-1.39,1.19,1.19,0,0,0-.32-.05h-28a1.13,1.13,0,0,0-1.08.82Z"/><rect class="ab" x="65.41" y="88.71" width="15.3" height="10.13" rx="0.94"/><path class="ab" d="M79,97.31l-1.23,4.62-2.13-4.34Z"/><path class="h" d="M76.45,93c-.27,1.73-3.5,3.9-3.5,3.9s-3.11-2.17-3.29-3.9,2-2.46,3.42-1C74.56,90.57,76.75,91.15,76.45,93Z"/><ellipse class="g" cx="247.16" cy="212.34" rx="22.84" ry="2.26"/><rect class="j" x="231.32" y="193.58" width="30.82" height="2.44" rx="0.99"/><path class="i" d="M232.67,166.53h28.17a.85.85,0,0,1,.85.85v3.46a.84.84,0,0,1-.85.84H232.67a.84.84,0,0,1-.85-.84v-3.46A.85.85,0,0,1,232.67,166.53Z"/><path class="w" d="M239.32,144.59s-11.88-2.35-15.19-10.64,8.81-14.5,15.19-10C246.16,128.66,239.32,144.59,239.32,144.59Z"/><path class="j" d="M246.39,166.36a.23.23,0,0,1-.22-.18c-1.13-7.7-5.72-18.78-9.37-26.71-4-8.61-7.69-15.48-7.72-15.55a.2.2,0,0,1,.09-.28.2.2,0,0,1,.28.08c0,.07,3.78,6.95,7.74,15.57,3.66,8,8.26,19.07,9.41,26.82a.22.22,0,0,1-.18.25h0Z"/><path class="j" d="M238.88,143.78a.2.2,0,0,1-.19-.11A63.65,63.65,0,0,0,225.05,127a.22.22,0,1,1,.24-.36l0,0a64.22,64.22,0,0,1,13.75,16.8.23.23,0,0,1-.09.29h0A.18.18,0,0,1,238.88,143.78Z"/><path class="j" d="M239.11,144.47a.2.2,0,0,1-.16-.07,41.19,41.19,0,0,0-10.2-8.73,25.51,25.51,0,0,0-4.74-2.28.22.22,0,0,1,.12-.42h0a26,26,0,0,1,4.81,2.31,41.57,41.57,0,0,1,10.32,8.83.21.21,0,0,1,0,.3.24.24,0,0,1-.14.05Z"/><path class="j" d="M238.07,142a.22.22,0,0,1-.21-.15C235,133.3,236,123,236,122.87a.21.21,0,0,1,.24-.19.21.21,0,0,1,.19.23h0c0,.1-1.07,10.34,1.8,18.75a.21.21,0,0,1-.14.27Z"/><path class="j" d="M238.79,143.63a.21.21,0,0,1-.21-.18,29.94,29.94,0,0,1,.52-12.5,20.24,20.24,0,0,1,1.82-4.71.22.22,0,0,1,.3-.08.22.22,0,0,1,.07.3,19.6,19.6,0,0,0-1.77,4.62,29.34,29.34,0,0,0-.51,12.3.22.22,0,0,1-.18.25Z"/><path class="w" d="M251.85,146.75s12-1.64,15.8-9.72-7.93-15-14.57-10.93C246,130.45,251.85,146.75,251.85,146.75Z"/><path class="j" d="M247.3,165.65h0a.21.21,0,0,1-.21-.21h0A44.24,44.24,0,0,1,249.66,152a86.88,86.88,0,0,1,5.44-12.57,115.43,115.43,0,0,1,7.85-13,.22.22,0,0,1,.3,0,.21.21,0,0,1,.05.3,114.42,114.42,0,0,0-7.82,12.9c-3.58,6.87-7.86,16.91-8,25.79A.21.21,0,0,1,247.3,165.65Z"/><path class="j" d="M252.36,146a.15.15,0,0,1-.11,0,.2.2,0,0,1-.07-.29h0a63.88,63.88,0,0,1,14.71-16,.21.21,0,0,1,.3.05.22.22,0,0,1,0,.3,63.45,63.45,0,0,0-14.61,15.83A.21.21,0,0,1,252.36,146Z"/><path class="j" d="M252.08,146.65a.22.22,0,0,1-.21-.21.2.2,0,0,1,.06-.15,41.51,41.51,0,0,1,10.83-8.2,25.21,25.21,0,0,1,4.93-2,.22.22,0,1,1,.11.42h0a25.75,25.75,0,0,0-4.86,2,41.5,41.5,0,0,0-10.7,8.1A.2.2,0,0,1,252.08,146.65Z"/><path class="j" d="M253.28,144.19h-.09a.21.21,0,0,1-.11-.28h0c3.35-8.23,2.91-18.51,2.9-18.61a.23.23,0,0,1,.21-.23.21.21,0,0,1,.22.21h0c0,.1.46,10.48-2.94,18.79A.21.21,0,0,1,253.28,144.19Z"/><path class="j" d="M252.45,145.83h0a.22.22,0,0,1-.16-.26h0a29.57,29.57,0,0,0,.22-12.32,19.89,19.89,0,0,0-1.5-4.71.21.21,0,0,1,.38-.2,20.29,20.29,0,0,1,1.54,4.81,30,30,0,0,1-.22,12.51A.21.21,0,0,1,252.45,145.83Z"/><path class="w" d="M247.23,131.12s-10.16-6.58-10.17-15.51,13.55-10.21,17.84-3.71C259.48,118.85,247.23,131.12,247.23,131.12Z"/><path class="j" d="M245.81,154h-.05a.22.22,0,0,1-.16-.26c1.8-7.57,1.64-19.55,1.19-28.28-.49-9.46-1.42-17.22-1.42-17.3a.2.2,0,0,1,.18-.23.21.21,0,0,1,.24.18h0c0,.08.94,7.86,1.43,17.33.45,8.75.61,20.78-1.2,28.4A.21.21,0,0,1,245.81,154Z"/><path class="j" d="M247.2,130.23A.23.23,0,0,1,247,130a63.72,63.72,0,0,0-6.49-20.55.21.21,0,0,1,.37-.2,64.06,64.06,0,0,1,6.55,20.7.22.22,0,0,1-.19.24h0Z"/><path class="j" d="M247.16,131a.23.23,0,0,1-.21-.14,41.31,41.31,0,0,0-6.24-11.88,26.12,26.12,0,0,0-3.55-3.88.22.22,0,0,1,0-.3.21.21,0,0,1,.3,0,25.36,25.36,0,0,1,3.61,3.93,41.55,41.55,0,0,1,6.32,12,.21.21,0,0,1-.13.27Z"/><path class="j" d="M247.12,128.22h0a.2.2,0,0,1-.2-.22c.45-9,5.27-18.17,5.32-18.27a.22.22,0,0,1,.29-.09.24.24,0,0,1,.09.3h0c-.05.09-4.82,9.21-5.27,18.08A.22.22,0,0,1,247.12,128.22Z"/><path class="j" d="M247.18,130.06h-.05a.2.2,0,0,1-.16-.25h0a30.15,30.15,0,0,1,5.12-11.47,20.53,20.53,0,0,1,3.45-3.76.22.22,0,0,1,.27.34h0a20.06,20.06,0,0,0-3.38,3.69,30,30,0,0,0-5.05,11.3A.22.22,0,0,1,247.18,130.06Z"/><path class="ac" d="M259.65,152.82l-.35.94-.22.6-.65,1.7-.22.6-.66,1.75-.22.6-2.84,7.52H239L236.19,159l-.22-.6-.66-1.75-.23-.6-.64-1.7-.22-.6-.36-.94a1,1,0,0,1,.58-1.27,1,1,0,0,1,.34-.06h24a1,1,0,0,1,.92,1.33Z"/><path class="ad" d="M259.3,153.76l-.22.6H234.44l-.23-.6Z"/><path class="ad" d="M258.43,156.06l-.22.6h-22.9l-.23-.6Z"/><path class="ad" d="M257.55,158.41l-.23.6H236.19l-.22-.6Z"/><path class="j" d="M242.61,171.69l-.86,2.76L229.81,213h-2.33l7.57-37.71.72-3.55Z"/><path class="j" d="M266.11,213h-2.34l-12.29-39.64-.51-1.62h6.85l.17.86h0Z"/><rect class="i" x="231.32" y="188.27" width="30.82" height="2.44" rx="0.99"/><ellipse class="g" cx="73.11" cy="61.74" rx="11.16" ry="11.03"/><ellipse class="ad" cx="73.11" cy="60.3" rx="11.16" ry="11.03"/><ellipse class="h" cx="73.11" cy="60.3" rx="9.08" ry="8.96"/><path class="g" d="M82.19,60.3c0,.24,0,.47,0,.71a9.08,9.08,0,0,0-18.09,0c0-.24,0-.47,0-.71a9.08,9.08,0,0,1,18.15,0Z"/><path class="j" d="M73.11,61.23a.21.21,0,0,1-.18-.09l-4.45-5.92a.21.21,0,0,1,0-.31h0a.22.22,0,0,1,.31,0l4.35,5.78,4.94-2.14a.22.22,0,0,1,.29.12.22.22,0,0,1-.11.29h0l-5.1,2.21A.18.18,0,0,1,73.11,61.23Z"/><path class="f" d="M87,202.48h33.19a.7.7,0,0,0,.5-.2l2.89-2.81a.72.72,0,0,1,1,0l2.89,2.81a.7.7,0,0,0,.5.2h33.32a.72.72,0,0,1,.71.72h0v18.14a.71.71,0,0,1-.71.71H87a.71.71,0,0,1-.72-.71h0V203.2a.72.72,0,0,1,.72-.72Z"/><g class="ae"><g class="ae"><path class="h" d="M101.87,210.31H99.68v1.52h2V213h-2v2.41h-1.4v-6.2h3.59Z"/><path class="h" d="M104.86,215.48a2.39,2.39,0,0,1-1.74-.62,2.28,2.28,0,0,1-.63-1.69,2.25,2.25,0,0,1,.65-1.71,2.46,2.46,0,0,1,1.78-.62,2.32,2.32,0,0,1,1.73.62,2.19,2.19,0,0,1,.63,1.64,2.35,2.35,0,0,1-.65,1.74A2.43,2.43,0,0,1,104.86,215.48Zm0-3.6a.92.92,0,0,0-.75.33,1.49,1.49,0,0,0-.27.95c0,.85.35,1.27,1,1.27s1-.44,1-1.31S105.55,211.88,104.89,211.88Z"/><path class="h" d="M115.19,215.37h-1.36v-2.53c0-.64-.24-1-.71-1a.65.65,0,0,0-.55.29,1.18,1.18,0,0,0-.21.72v2.48H111v-2.55c0-.63-.23-.94-.69-.94a.65.65,0,0,0-.56.28,1.19,1.19,0,0,0-.21.75v2.46h-1.37v-4.43h1.37v.69h0a1.7,1.7,0,0,1,.59-.57,1.6,1.6,0,0,1,.84-.22,1.27,1.27,0,0,1,1.28.82,1.63,1.63,0,0,1,1.49-.82c1,0,1.44.59,1.44,1.78Z"/><path class="h" d="M120.25,213.54h-2.89c0,.65.45,1,1.21,1a2.4,2.4,0,0,0,1.29-.35v1a3.37,3.37,0,0,1-1.6.33,2.06,2.06,0,0,1-2.25-2.26,2.35,2.35,0,0,1,.64-1.74,2.11,2.11,0,0,1,1.57-.64,2,2,0,0,1,1.5.57,2.22,2.22,0,0,1,.53,1.56Zm-1.27-.83c0-.64-.26-1-.77-1a.74.74,0,0,0-.57.27,1.28,1.28,0,0,0-.29.68Z"/><path class="h" d="M125.33,215.37H124v-2.46c0-.69-.24-1-.73-1a.75.75,0,0,0-.59.27,1.06,1.06,0,0,0-.23.69v2.53h-1.36v-4.43h1.36v.7h0a1.56,1.56,0,0,1,1.42-.8c1,0,1.47.6,1.47,1.82Z"/><path class="h" d="M129.09,215.32a2.12,2.12,0,0,1-.91.16,1.31,1.31,0,0,1-1.45-1.5v-2H126v-1h.71V210l1.36-.39v1.34h1v1h-1v1.79c0,.46.19.69.55.69a.86.86,0,0,0,.45-.13Z"/><path class="h" d="M133.54,215.37h-1.29v-.64h0a1.45,1.45,0,0,1-1.32.75,1.38,1.38,0,0,1-1-.37,1.29,1.29,0,0,1-.37-1c0-.86.51-1.36,1.52-1.49l1.21-.16c0-.48-.27-.73-.79-.73a2.68,2.68,0,0,0-1.5.47v-1a3.07,3.07,0,0,1,.78-.26,3.8,3.8,0,0,1,.9-.11,1.67,1.67,0,0,1,1.89,1.88Zm-1.28-1.8v-.3l-.81.11q-.66.08-.66.6a.49.49,0,0,0,.16.38.62.62,0,0,0,.44.15.8.8,0,0,0,.62-.27A.91.91,0,0,0,132.26,213.57Z"/><path class="h" d="M138.9,215.37h-1.37v-2.46c0-.69-.24-1-.73-1a.72.72,0,0,0-.58.27,1,1,0,0,0-.23.69v2.53h-1.37v-4.43H136v.7h0a1.56,1.56,0,0,1,1.43-.8c1,0,1.47.6,1.47,1.82Z"/><path class="h" d="M144.31,215.37h-1.37v-.61h0a1.52,1.52,0,0,1-1.37.72,1.67,1.67,0,0,1-1.33-.59,2.39,2.39,0,0,1-.51-1.63,2.63,2.63,0,0,1,.56-1.76,1.82,1.82,0,0,1,1.46-.66,1.23,1.23,0,0,1,1.19.61h0v-2.63h1.37ZM143,213.22v-.34a1.08,1.08,0,0,0-.25-.71.85.85,0,0,0-.66-.29.83.83,0,0,0-.71.36,1.65,1.65,0,0,0-.25,1,1.37,1.37,0,0,0,.25.89.79.79,0,0,0,.68.32.82.82,0,0,0,.67-.33A1.36,1.36,0,0,0,143,213.22Z"/><path class="h" d="M147.56,215.48a2.38,2.38,0,0,1-1.73-.62,2.25,2.25,0,0,1-.64-1.69,2.22,2.22,0,0,1,.66-1.71,2.46,2.46,0,0,1,1.78-.62,2.3,2.3,0,0,1,1.72.62,2.19,2.19,0,0,1,.63,1.64,2.32,2.32,0,0,1-.65,1.74A2.43,2.43,0,0,1,147.56,215.48Zm0-3.6a.92.92,0,0,0-.75.33,1.49,1.49,0,0,0-.27.95c0,.85.34,1.27,1,1.27s1-.44,1-1.31S148.26,211.88,147.6,211.88Z"/></g></g><path class="af" d="M131.5,230.11h17a1.09,1.09,0,0,0,.75-.3l4.32-4.2a1.09,1.09,0,0,1,1.5,0l4.32,4.2a1.05,1.05,0,0,0,.75.3l108.74-.3a1.07,1.07,0,0,1,1.07,1.07h0V258a1.07,1.07,0,0,1-1.07,1.07h0l-137.42.3a1.07,1.07,0,0,1-1.08-1.07h0V231.19a1.07,1.07,0,0,1,1.07-1.08Z"/><path class="af" d="M123.72,230.11h-17a1.09,1.09,0,0,1-.75-.3l-4.32-4.2a1.08,1.08,0,0,0-1.49,0l-4.33,4.2a1.05,1.05,0,0,1-.75.3h-94A1.07,1.07,0,0,0,0,231.19H0v27.12a1.07,1.07,0,0,0,1.07,1.07H123.72a1.07,1.07,0,0,0,1.07-1.07h0V231.19a1.07,1.07,0,0,0-1.07-1.08Z"/><g class="ae"><g class="ae"><path class="ag" d="M17.83,248.07h-3v-5.58H17.7v.59H15.52v1.86h2v.58h-2v2h2.31Z"/><path class="ag" d="M19.45,248.07h-.64v-5.9h.64Z"/><path class="ag" d="M25.78,248.07h-.64v-.63h0a1.33,1.33,0,0,1-1.22.72,1.29,1.29,0,0,1-.93-.31,1.08,1.08,0,0,1-.34-.84c0-.74.44-1.18,1.31-1.3l1.2-.17c0-.67-.28-1-.82-1A1.93,1.93,0,0,0,23,245v-.66a2.53,2.53,0,0,1,1.35-.37c.94,0,1.41.5,1.41,1.49Zm-.64-2-1,.13a1.74,1.74,0,0,0-.67.22.66.66,0,0,0-.23.56.6.6,0,0,0,.21.48.82.82,0,0,0,.56.18,1,1,0,0,0,.78-.33,1.21,1.21,0,0,0,.31-.84Z"/><path class="ag" d="M27.63,247.49h0v2.41H27v-5.82h.64v.7h0A1.52,1.52,0,0,1,29,244a1.46,1.46,0,0,1,1.2.54,2.18,2.18,0,0,1,.43,1.43,2.48,2.48,0,0,1-.48,1.6,1.64,1.64,0,0,1-1.34.6A1.33,1.33,0,0,1,27.63,247.49Zm0-1.6v.55a1.16,1.16,0,0,0,.32.84,1,1,0,0,0,.81.34,1.05,1.05,0,0,0,.91-.44A2,2,0,0,0,30,246a1.56,1.56,0,0,0-.31-1,1,1,0,0,0-.83-.38,1.14,1.14,0,0,0-.9.39A1.43,1.43,0,0,0,27.62,245.89Z"/><path class="ag" d="M33.74,244.73a.75.75,0,0,0-.49-.13.81.81,0,0,0-.68.39,1.77,1.77,0,0,0-.27,1v2h-.64v-4h.64v.83h0a1.4,1.4,0,0,1,.42-.66.94.94,0,0,1,.63-.23,1,1,0,0,1,.38,0Z"/><path class="ag" d="M37.63,246.24H34.82a1.47,1.47,0,0,0,.36,1,1.22,1.22,0,0,0,.94.36,1.9,1.9,0,0,0,1.23-.44v.6a2.32,2.32,0,0,1-1.38.38,1.68,1.68,0,0,1-1.33-.54,2.23,2.23,0,0,1-.48-1.53,2.17,2.17,0,0,1,.52-1.51A1.71,1.71,0,0,1,36,244a1.49,1.49,0,0,1,1.21.51,2.06,2.06,0,0,1,.43,1.4ZM37,245.7a1.36,1.36,0,0,0-.27-.86.9.9,0,0,0-.73-.31,1.06,1.06,0,0,0-.77.32,1.42,1.42,0,0,0-.38.85Z"/><path class="ag" d="M41.9,248.07h-.64V245.8c0-.85-.31-1.27-.92-1.27a1,1,0,0,0-.8.36,1.37,1.37,0,0,0-.31.91v2.27h-.64v-4h.64v.67h0a1.42,1.42,0,0,1,1.3-.76,1.22,1.22,0,0,1,1,.42,1.91,1.91,0,0,1,.35,1.22Z"/><path class="ag" d="M46.5,248.07h-.64v-.68h0a1.61,1.61,0,0,1-2.57.24,2.22,2.22,0,0,1-.45-1.46,2.32,2.32,0,0,1,.5-1.58,1.62,1.62,0,0,1,1.32-.6,1.29,1.29,0,0,1,1.2.65h0v-2.47h.64Zm-.64-1.8v-.59a1.13,1.13,0,0,0-.32-.82,1.07,1.07,0,0,0-.81-.33,1.08,1.08,0,0,0-.91.43,1.82,1.82,0,0,0-.34,1.18,1.72,1.72,0,0,0,.32,1.09,1.06,1.06,0,0,0,.86.39,1.08,1.08,0,0,0,.87-.38A1.44,1.44,0,0,0,45.86,246.27Z"/><path class="ag" d="M48.12,243.07a.42.42,0,0,1-.29-.11.44.44,0,0,1,0-.6.38.38,0,0,1,.29-.11.43.43,0,0,1,.3.11.41.41,0,0,1,.12.3.38.38,0,0,1-.12.29A.44.44,0,0,1,48.12,243.07Zm.31,5h-.64v-4h.64Z"/><path class="ag" d="M52.5,244.27l-2.36,3.25h2.33v.55H49.2v-.2l2.36-3.24H49.42v-.55H52.5Z"/><path class="ag" d="M56.17,248.07h-.64v-.63h0a1.34,1.34,0,0,1-1.23.72,1.32,1.32,0,0,1-.93-.31A1.11,1.11,0,0,1,53,247c0-.74.43-1.18,1.31-1.3l1.19-.17c0-.67-.27-1-.82-1a2,2,0,0,0-1.3.49v-.66a2.59,2.59,0,0,1,1.36-.37c.93,0,1.4.5,1.4,1.49Zm-.64-2-1,.13a1.87,1.87,0,0,0-.67.22.65.65,0,0,0-.22.56.6.6,0,0,0,.21.48.81.81,0,0,0,.55.18,1,1,0,0,0,.79-.33,1.2,1.2,0,0,0,.3-.84Z"/><path class="ag" d="M58,247.9a2.51,2.51,0,0,1-.39,1.51,1.34,1.34,0,0,1-1.13.53,1.24,1.24,0,0,1-.53-.12v-.6a1,1,0,0,0,.54.18c.58,0,.87-.47.87-1.39v-3.93H58Zm-.31-4.83a.44.44,0,0,1-.29-.11.44.44,0,0,1,0-.6.39.39,0,0,1,.29-.11.4.4,0,0,1,.3.11.41.41,0,0,1,.12.3A.38.38,0,0,1,58,243,.41.41,0,0,1,57.7,243.07Z"/><path class="ag" d="M62.5,246.24H59.69a1.47,1.47,0,0,0,.36,1,1.24,1.24,0,0,0,.94.36,1.94,1.94,0,0,0,1.24-.44v.6a2.36,2.36,0,0,1-1.39.38,1.7,1.7,0,0,1-1.33-.54,2.23,2.23,0,0,1-.48-1.53,2.17,2.17,0,0,1,.53-1.51,1.68,1.68,0,0,1,1.31-.59,1.5,1.5,0,0,1,1.21.51,2.11,2.11,0,0,1,.42,1.4Zm-.65-.54a1.25,1.25,0,0,0-.27-.86.88.88,0,0,0-.73-.31,1,1,0,0,0-.76.32,1.5,1.5,0,0,0-.39.85Z"/><path class="ag" d="M68.36,247.88a2,2,0,0,1-1.08.28,1.81,1.81,0,0,1-1.38-.55,2,2,0,0,1-.52-1.44,2.23,2.23,0,0,1,.56-1.58,2,2,0,0,1,1.51-.6,2,2,0,0,1,.92.2v.65a1.59,1.59,0,0,0-1-.31,1.26,1.26,0,0,0-1,.44,1.65,1.65,0,0,0-.39,1.15,1.56,1.56,0,0,0,.37,1.1,1.25,1.25,0,0,0,1,.4,1.58,1.58,0,0,0,1-.34Z"/><path class="ag" d="M71,248.16a1.85,1.85,0,0,1-1.41-.56,2.06,2.06,0,0,1-.52-1.48,2.14,2.14,0,0,1,.54-1.56,2,2,0,0,1,1.49-.57,1.79,1.79,0,0,1,1.39.55,2.19,2.19,0,0,1,.5,1.52,2.15,2.15,0,0,1-.54,1.53A1.9,1.9,0,0,1,71,248.16Zm.05-3.63a1.21,1.21,0,0,0-1,.42,1.7,1.7,0,0,0-.36,1.15,1.66,1.66,0,0,0,.36,1.12,1.22,1.22,0,0,0,1,.4,1.16,1.16,0,0,0,.95-.4,1.72,1.72,0,0,0,.33-1.14,1.79,1.79,0,0,0-.33-1.15A1.16,1.16,0,0,0,71,244.53Z"/><path class="ag" d="M74.63,248.07H74v-5.9h.63Z"/><path class="ag" d="M78.77,248.07h-.63v-.63h0a1.33,1.33,0,0,1-1.22.72,1.29,1.29,0,0,1-.93-.31,1.08,1.08,0,0,1-.34-.84c0-.74.44-1.18,1.31-1.3l1.2-.17c0-.67-.28-1-.82-1A1.93,1.93,0,0,0,76,245v-.66a2.53,2.53,0,0,1,1.35-.37c.94,0,1.4.5,1.4,1.49Zm-.63-2-1,.13a1.74,1.74,0,0,0-.67.22.66.66,0,0,0-.23.56.6.6,0,0,0,.21.48.81.81,0,0,0,.55.18,1,1,0,0,0,.79-.33,1.21,1.21,0,0,0,.31-.84Z"/><path class="ag" d="M80.63,247.49h0v.58H80v-5.9h.63v2.61h0A1.52,1.52,0,0,1,82,244a1.46,1.46,0,0,1,1.2.54,2.18,2.18,0,0,1,.43,1.43,2.43,2.43,0,0,1-.49,1.6,1.6,1.6,0,0,1-1.33.6A1.3,1.3,0,0,1,80.63,247.49Zm0-1.6v.55a1.17,1.17,0,0,0,.33.84,1,1,0,0,0,.81.34,1.05,1.05,0,0,0,.91-.44A2,2,0,0,0,83,246a1.61,1.61,0,0,0-.31-1,1,1,0,0,0-.83-.38,1.14,1.14,0,0,0-.9.39A1.43,1.43,0,0,0,80.61,245.89Z"/><path class="ag" d="M86.32,248.16a1.87,1.87,0,0,1-1.41-.56,2.06,2.06,0,0,1-.52-1.48,2.11,2.11,0,0,1,.55-1.56,1.94,1.94,0,0,1,1.48-.57,1.79,1.79,0,0,1,1.39.55,2.19,2.19,0,0,1,.5,1.52,2.15,2.15,0,0,1-.54,1.53A1.9,1.9,0,0,1,86.32,248.16Zm.05-3.63a1.21,1.21,0,0,0-1,.42A1.7,1.7,0,0,0,85,246.1a1.66,1.66,0,0,0,.36,1.12,1.24,1.24,0,0,0,1,.4,1.16,1.16,0,0,0,.95-.4,1.72,1.72,0,0,0,.33-1.14,1.79,1.79,0,0,0-.33-1.15A1.16,1.16,0,0,0,86.37,244.53Z"/><path class="ag" d="M91.4,244.73a.74.74,0,0,0-.48-.13.81.81,0,0,0-.68.39,1.7,1.7,0,0,0-.28,1v2h-.64v-4H90v.83h0a1.46,1.46,0,0,1,.41-.66A.94.94,0,0,1,91,244a1,1,0,0,1,.38,0Z"/><path class="ag" d="M94.94,248.07h-.63v-.63h0a1.33,1.33,0,0,1-1.22.72,1.29,1.29,0,0,1-.93-.31,1.08,1.08,0,0,1-.34-.84c0-.74.44-1.18,1.31-1.3l1.2-.17c0-.67-.28-1-.82-1a1.93,1.93,0,0,0-1.3.49v-.66a2.53,2.53,0,0,1,1.35-.37c.94,0,1.4.5,1.4,1.49Zm-.63-2-1,.13a1.74,1.74,0,0,0-.67.22.66.66,0,0,0-.23.56.6.6,0,0,0,.21.48.81.81,0,0,0,.55.18,1,1,0,0,0,.79-.33,1.21,1.21,0,0,0,.31-.84Z"/><path class="ag" d="M98,248a1.23,1.23,0,0,1-.59.12c-.7,0-1.05-.39-1.05-1.16v-2.36h-.68v-.55h.68v-1l.64-.2v1.17h1v.55H97v2.24a.91.91,0,0,0,.14.57.53.53,0,0,0,.45.18.64.64,0,0,0,.41-.14Z"/><path class="ag" d="M99.17,243.07a.44.44,0,0,1-.29-.11.44.44,0,0,1,0-.6.39.39,0,0,1,.29-.11.4.4,0,0,1,.3.11.41.41,0,0,1,.12.3.38.38,0,0,1-.12.29A.41.41,0,0,1,99.17,243.07Zm.31,5h-.63v-4h.63Z"/><path class="ag" d="M103.91,244.08l-1.59,4h-.63l-1.51-4h.7l1,2.9a2.56,2.56,0,0,1,.15.55h0a3.61,3.61,0,0,1,.12-.54l1.06-2.91Z"/><path class="ag" d="M106.25,248.16a1.88,1.88,0,0,1-1.41-.56,2.06,2.06,0,0,1-.52-1.48,2.11,2.11,0,0,1,.55-1.56,2,2,0,0,1,1.48-.57,1.79,1.79,0,0,1,1.39.55,2.19,2.19,0,0,1,.5,1.52,2.15,2.15,0,0,1-.54,1.53A1.9,1.9,0,0,1,106.25,248.16Zm0-3.63a1.21,1.21,0,0,0-1,.42,1.7,1.7,0,0,0-.36,1.15,1.66,1.66,0,0,0,.36,1.12,1.24,1.24,0,0,0,1,.4,1.16,1.16,0,0,0,1-.4,1.72,1.72,0,0,0,.33-1.14,1.79,1.79,0,0,0-.33-1.15A1.16,1.16,0,0,0,106.3,244.53Z"/><path class="ag" d="M109.48,248.15a.42.42,0,0,1-.31-.13.41.41,0,0,1-.12-.3.45.45,0,0,1,.12-.31.43.43,0,0,1,.62,0,.46.46,0,0,1,.13.31.44.44,0,0,1-.44.43Z"/></g></g><g class="ae"><g class="ae"><path class="ag" d="M145.46,248.07h-2.89v-5.58h.65v5h2.24Z"/><path class="ag" d="M149.08,248.07h-.64v-.63h0a1.34,1.34,0,0,1-1.23.72,1.32,1.32,0,0,1-.93-.31,1.11,1.11,0,0,1-.33-.84c0-.74.43-1.18,1.31-1.3l1.19-.17c0-.67-.27-1-.82-1a2,2,0,0,0-1.3.49v-.66a2.59,2.59,0,0,1,1.36-.37c.93,0,1.4.5,1.4,1.49Zm-.64-2-1,.13a1.75,1.75,0,0,0-.66.22.63.63,0,0,0-.23.56.6.6,0,0,0,.21.48.81.81,0,0,0,.55.18,1,1,0,0,0,.79-.33,1.2,1.2,0,0,0,.3-.84Z"/><path class="ag" d="M155.32,248.07h-.64v-.63h0a1.33,1.33,0,0,1-1.22.72,1.29,1.29,0,0,1-.93-.31,1.08,1.08,0,0,1-.34-.84c0-.74.44-1.18,1.31-1.3l1.2-.17c0-.67-.28-1-.82-1a2,2,0,0,0-1.3.49v-.66a2.53,2.53,0,0,1,1.35-.37c.94,0,1.41.5,1.41,1.49Zm-.64-2-1,.13a1.74,1.74,0,0,0-.67.22.66.66,0,0,0-.23.56.6.6,0,0,0,.21.48.82.82,0,0,0,.56.18,1,1,0,0,0,.78-.33,1.21,1.21,0,0,0,.31-.84Z"/><path class="ag" d="M157.17,247.49h0v2.41h-.64v-5.82h.64v.7h0a1.53,1.53,0,0,1,1.38-.79,1.46,1.46,0,0,1,1.2.54,2.18,2.18,0,0,1,.43,1.43,2.48,2.48,0,0,1-.48,1.6,1.63,1.63,0,0,1-1.33.6A1.33,1.33,0,0,1,157.17,247.49Zm0-1.6v.55a1.16,1.16,0,0,0,.32.84,1,1,0,0,0,.81.34,1.05,1.05,0,0,0,.91-.44,2,2,0,0,0,.33-1.23,1.56,1.56,0,0,0-.31-1,1,1,0,0,0-.83-.38,1.14,1.14,0,0,0-.9.39A1.43,1.43,0,0,0,157.16,245.89Z"/><path class="ag" d="M163.28,244.73a.75.75,0,0,0-.49-.13.81.81,0,0,0-.68.39,1.77,1.77,0,0,0-.27,1v2h-.64v-4h.64v.83h0a1.4,1.4,0,0,1,.42-.66.94.94,0,0,1,.63-.23,1,1,0,0,1,.38,0Z"/><path class="ag" d="M165.63,248.16a1.87,1.87,0,0,1-1.41-.56,2.06,2.06,0,0,1-.52-1.48,2.14,2.14,0,0,1,.54-1.56,2,2,0,0,1,1.49-.57,1.79,1.79,0,0,1,1.39.55,2.19,2.19,0,0,1,.5,1.52,2.15,2.15,0,0,1-.54,1.53A1.9,1.9,0,0,1,165.63,248.16Zm.05-3.63a1.21,1.21,0,0,0-1,.42,1.7,1.7,0,0,0-.36,1.15,1.66,1.66,0,0,0,.36,1.12,1.24,1.24,0,0,0,1,.4,1.16,1.16,0,0,0,.95-.4,1.72,1.72,0,0,0,.33-1.14,1.79,1.79,0,0,0-.33-1.15A1.16,1.16,0,0,0,165.68,244.53Z"/><path class="ag" d="M169.29,247.49h0v2.41h-.63v-5.82h.63v.7h0a1.52,1.52,0,0,1,1.38-.79,1.46,1.46,0,0,1,1.2.54,2.18,2.18,0,0,1,.43,1.43,2.43,2.43,0,0,1-.49,1.6,1.6,1.6,0,0,1-1.33.6A1.33,1.33,0,0,1,169.29,247.49Zm0-1.6v.55a1.17,1.17,0,0,0,.33.84,1,1,0,0,0,.81.34,1.05,1.05,0,0,0,.91-.44,2,2,0,0,0,.33-1.23,1.61,1.61,0,0,0-.31-1,1,1,0,0,0-.83-.38,1.14,1.14,0,0,0-.9.39A1.43,1.43,0,0,0,169.27,245.89Z"/><path class="ag" d="M173.65,243.07a.44.44,0,0,1-.3-.11.44.44,0,0,1,0-.6.4.4,0,0,1,.3-.11.39.39,0,0,1,.29.11.42.42,0,0,1,.13.3.39.39,0,0,1-.13.29A.4.4,0,0,1,173.65,243.07Zm.31,5h-.64v-4H174Z"/><path class="ag" d="M178.1,248.07h-.64v-.63h0a1.34,1.34,0,0,1-1.23.72,1.29,1.29,0,0,1-.93-.31A1.08,1.08,0,0,1,175,247c0-.74.44-1.18,1.32-1.3l1.19-.17c0-.67-.27-1-.82-1a2,2,0,0,0-1.3.49v-.66a2.53,2.53,0,0,1,1.35-.37c.94,0,1.41.5,1.41,1.49Zm-.64-2-1,.13a1.74,1.74,0,0,0-.67.22.65.65,0,0,0-.22.56.59.59,0,0,0,.2.48.84.84,0,0,0,.56.18,1,1,0,0,0,.78-.33,1.16,1.16,0,0,0,.31-.84Z"/><path class="ag" d="M182,247.88a2,2,0,0,1-1.08.28,1.81,1.81,0,0,1-1.38-.55,2,2,0,0,1-.52-1.44,2.23,2.23,0,0,1,.56-1.58,2,2,0,0,1,1.51-.6,2,2,0,0,1,.92.2v.65a1.59,1.59,0,0,0-1-.31,1.26,1.26,0,0,0-1,.44,1.65,1.65,0,0,0-.39,1.15,1.56,1.56,0,0,0,.37,1.1,1.25,1.25,0,0,0,1,.4,1.58,1.58,0,0,0,1-.34Z"/><path class="ag" d="M183.3,243.07A.44.44,0,0,1,183,243a.44.44,0,0,1,0-.6.39.39,0,0,1,.29-.11.4.4,0,0,1,.3.11.42.42,0,0,1,.13.3.39.39,0,0,1-.13.29A.41.41,0,0,1,183.3,243.07Zm.32,5H183v-4h.64Z"/><path class="ag" d="M186.57,248.16a1.85,1.85,0,0,1-1.41-.56,2.06,2.06,0,0,1-.52-1.48,2.14,2.14,0,0,1,.54-1.56,2,2,0,0,1,1.48-.57,1.79,1.79,0,0,1,1.4.55,2.19,2.19,0,0,1,.5,1.52,2.15,2.15,0,0,1-.54,1.53A1.9,1.9,0,0,1,186.57,248.16Zm.05-3.63a1.19,1.19,0,0,0-1,.42,1.7,1.7,0,0,0-.36,1.15,1.66,1.66,0,0,0,.36,1.12,1.22,1.22,0,0,0,1,.4,1.16,1.16,0,0,0,.95-.4,1.72,1.72,0,0,0,.33-1.14,1.79,1.79,0,0,0-.33-1.15A1.16,1.16,0,0,0,186.62,244.53Zm.93-2.48-1,1.28H186l.87-1.28Z"/><path class="ag" d="M192.88,248.07h-.64V245.8c0-.85-.31-1.27-.92-1.27a1,1,0,0,0-.8.36,1.37,1.37,0,0,0-.31.91v2.27h-.64v-4h.64v.67h0a1.42,1.42,0,0,1,1.3-.76,1.22,1.22,0,0,1,1,.42,1.91,1.91,0,0,1,.35,1.22Z"/><path class="ag" d="M199.66,248.07H199v-.68h0a1.48,1.48,0,0,1-1.37.77,1.51,1.51,0,0,1-1.2-.53,2.22,2.22,0,0,1-.45-1.46,2.37,2.37,0,0,1,.5-1.58,1.63,1.63,0,0,1,1.33-.6,1.28,1.28,0,0,1,1.19.65h0v-2.47h.64Zm-.64-1.8v-.59a1.16,1.16,0,0,0-.31-.82,1.1,1.1,0,0,0-.81-.33,1.09,1.09,0,0,0-.92.43,1.88,1.88,0,0,0-.34,1.18,1.67,1.67,0,0,0,.33,1.09,1.05,1.05,0,0,0,.86.39,1.07,1.07,0,0,0,.86-.38A1.44,1.44,0,0,0,199,246.27Z"/><path class="ag" d="M204.15,246.24h-2.81a1.47,1.47,0,0,0,.36,1,1.24,1.24,0,0,0,.94.36,1.94,1.94,0,0,0,1.24-.44v.6a2.34,2.34,0,0,1-1.39.38,1.71,1.71,0,0,1-1.33-.54,2.23,2.23,0,0,1-.48-1.53,2.17,2.17,0,0,1,.53-1.51,1.7,1.7,0,0,1,1.31-.59,1.5,1.5,0,0,1,1.21.51,2.11,2.11,0,0,1,.42,1.4Zm-.65-.54a1.25,1.25,0,0,0-.27-.86.87.87,0,0,0-.72-.31,1,1,0,0,0-.77.32,1.5,1.5,0,0,0-.39.85Z"/><path class="ag" d="M205.76,248.07h-.64v-5.9h.64Z"/><path class="ag" d="M211.94,247.88a2,2,0,0,1-1.09.28,1.8,1.8,0,0,1-1.37-.55,2,2,0,0,1-.52-1.44,2.18,2.18,0,0,1,.56-1.58A2,2,0,0,1,211,244a2.08,2.08,0,0,1,.92.2v.65a1.59,1.59,0,0,0-.95-.31,1.26,1.26,0,0,0-1,.44,1.65,1.65,0,0,0-.39,1.15,1.56,1.56,0,0,0,.37,1.1,1.25,1.25,0,0,0,1,.4,1.58,1.58,0,0,0,1-.34Z"/><path class="ag" d="M214.57,248.16a1.85,1.85,0,0,1-1.41-.56,2.06,2.06,0,0,1-.52-1.48,2.14,2.14,0,0,1,.54-1.56,2,2,0,0,1,1.49-.57,1.79,1.79,0,0,1,1.39.55,2.19,2.19,0,0,1,.5,1.52,2.15,2.15,0,0,1-.54,1.53A1.9,1.9,0,0,1,214.57,248.16Zm.05-3.63a1.21,1.21,0,0,0-1,.42,1.7,1.7,0,0,0-.36,1.15,1.66,1.66,0,0,0,.36,1.12,1.22,1.22,0,0,0,1,.4,1.16,1.16,0,0,0,.95-.4,1.72,1.72,0,0,0,.33-1.14,1.79,1.79,0,0,0-.33-1.15A1.16,1.16,0,0,0,214.62,244.53Z"/><path class="ag" d="M220.88,248.07h-.64V245.8c0-.85-.31-1.27-.92-1.27a1,1,0,0,0-.79.36,1.33,1.33,0,0,0-.32.91v2.27h-.64v-4h.64v.67h0a1.42,1.42,0,0,1,1.3-.76,1.22,1.22,0,0,1,1,.42,1.91,1.91,0,0,1,.35,1.22Z"/><path class="ag" d="M223.75,248.16a1.85,1.85,0,0,1-1.41-.56,2.06,2.06,0,0,1-.53-1.48,2.11,2.11,0,0,1,.55-1.56,2,2,0,0,1,1.48-.57,1.77,1.77,0,0,1,1.39.55,2.19,2.19,0,0,1,.5,1.52,2.15,2.15,0,0,1-.54,1.53A1.89,1.89,0,0,1,223.75,248.16Zm0-3.63a1.21,1.21,0,0,0-1,.42,1.7,1.7,0,0,0-.36,1.15,1.66,1.66,0,0,0,.36,1.12,1.25,1.25,0,0,0,1,.4,1.16,1.16,0,0,0,1-.4,1.67,1.67,0,0,0,.34-1.14,1.73,1.73,0,0,0-.34-1.15A1.16,1.16,0,0,0,223.79,244.53Z"/><path class="ag" d="M229.46,247.88a2,2,0,0,1-1.09.28,1.8,1.8,0,0,1-1.37-.55,2,2,0,0,1-.52-1.44,2.18,2.18,0,0,1,.56-1.58,2,2,0,0,1,1.51-.6,2.08,2.08,0,0,1,.92.2v.65a1.59,1.59,0,0,0-.95-.31,1.26,1.26,0,0,0-1,.44,1.65,1.65,0,0,0-.39,1.15,1.56,1.56,0,0,0,.37,1.1,1.25,1.25,0,0,0,1,.4,1.58,1.58,0,0,0,1-.34Z"/><path class="ag" d="M230.75,243.07a.44.44,0,0,1-.29-.11.44.44,0,0,1,0-.6.39.39,0,0,1,.29-.11.4.4,0,0,1,.3.11.42.42,0,0,1,.13.3.39.39,0,0,1-.13.29A.41.41,0,0,1,230.75,243.07Zm.32,5h-.64v-4h.64Z"/><path class="ag" d="M238,248.07h-.64v-2.29a1.72,1.72,0,0,0-.2-1,.8.8,0,0,0-.69-.29.84.84,0,0,0-.69.37,1.45,1.45,0,0,0-.29.9v2.27h-.64V245.7q0-1.17-.9-1.17a.84.84,0,0,0-.69.35,1.42,1.42,0,0,0-.28.92v2.27h-.63v-4H233v.64h0a1.34,1.34,0,0,1,1.24-.73,1.16,1.16,0,0,1,.71.23,1.11,1.11,0,0,1,.41.6,1.44,1.44,0,0,1,1.33-.83c.87,0,1.31.54,1.31,1.62Z"/><path class="ag" d="M239.54,243.07a.44.44,0,0,1-.29-.11.44.44,0,0,1,0-.6.39.39,0,0,1,.29-.11.4.4,0,0,1,.3.11.41.41,0,0,1,.12.3.38.38,0,0,1-.12.29A.41.41,0,0,1,239.54,243.07Zm.31,5h-.63v-4h.63Z"/><path class="ag" d="M244.35,246.24h-2.81a1.46,1.46,0,0,0,.35,1,1.24,1.24,0,0,0,.94.36,1.94,1.94,0,0,0,1.24-.44v.6a2.34,2.34,0,0,1-1.39.38,1.68,1.68,0,0,1-1.32-.54,2.52,2.52,0,0,1,0-3,1.7,1.7,0,0,1,1.31-.59,1.5,1.5,0,0,1,1.21.51,2.11,2.11,0,0,1,.43,1.4Zm-.66-.54a1.3,1.3,0,0,0-.26-.86.9.9,0,0,0-.73-.31,1.06,1.06,0,0,0-.77.32,1.5,1.5,0,0,0-.39.85Z"/><path class="ag" d="M248.62,248.07H248V245.8c0-.85-.31-1.27-.93-1.27a1,1,0,0,0-.79.36,1.32,1.32,0,0,0-.31.91v2.27h-.64v-4H246v.67h0a1.44,1.44,0,0,1,1.31-.76,1.22,1.22,0,0,1,1,.42,1.91,1.91,0,0,1,.35,1.22Z"/><path class="ag" d="M251.67,248a1.28,1.28,0,0,1-.6.12c-.7,0-1-.39-1-1.16v-2.36h-.69v-.55H250v-1l.63-.2v1.17h1v.55h-1v2.24a.91.91,0,0,0,.14.57.53.53,0,0,0,.45.18.68.68,0,0,0,.42-.14Z"/><path class="ag" d="M254.18,248.16a1.85,1.85,0,0,1-1.41-.56,2.06,2.06,0,0,1-.52-1.48,2.14,2.14,0,0,1,.54-1.56,2,2,0,0,1,1.48-.57,1.79,1.79,0,0,1,1.4.55,2.19,2.19,0,0,1,.49,1.52,2.14,2.14,0,0,1-.53,1.53A1.9,1.9,0,0,1,254.18,248.16Zm0-3.63a1.19,1.19,0,0,0-1,.42,1.7,1.7,0,0,0-.36,1.15,1.66,1.66,0,0,0,.36,1.12,1.22,1.22,0,0,0,1,.4,1.16,1.16,0,0,0,1-.4,1.72,1.72,0,0,0,.33-1.14,1.79,1.79,0,0,0-.33-1.15A1.16,1.16,0,0,0,254.23,244.53Z"/><path class="ag" d="M257.41,248.15a.4.4,0,0,1-.31-.13.42.42,0,0,1-.13-.3.46.46,0,0,1,.13-.31.4.4,0,0,1,.31-.13.42.42,0,0,1,.31.13.46.46,0,0,1,.13.31.44.44,0,0,1-.44.43Z"/></g></g><path class="b" d="M114,10.62H24a1,1,0,0,0-1,1V42.58a1,1,0,0,0,1,1H37.91a1,1,0,0,1,.73.3l3.63,3.62a1,1,0,0,0,1.46,0l3.62-3.62a1,1,0,0,1,.73-.3H114a1,1,0,0,0,1-1V11.65A1,1,0,0,0,114,10.62Z"/><g class="ae"><g class="ae"><path class="h" d="M40.59,24.37H39.41V22.25H37.26v2.12H36.1V19.18h1.16v2.07h2.15V19.18h1.18Z"/><path class="h" d="M45,22.84H42.57q.06.81,1,.81a2,2,0,0,0,1.07-.29v.82a2.82,2.82,0,0,1-1.33.28,1.73,1.73,0,0,1-1.89-1.89A2,2,0,0,1,42,21.11a1.76,1.76,0,0,1,1.31-.54,1.64,1.64,0,0,1,1.26.48A1.89,1.89,0,0,1,45,22.36Zm-1.06-.7c0-.53-.22-.8-.64-.8a.62.62,0,0,0-.48.23,1,1,0,0,0-.24.57Z"/><path class="h" d="M48.09,21.69a1.06,1.06,0,0,0-.48-.11.71.71,0,0,0-.59.27,1.19,1.19,0,0,0-.21.75v1.77H45.67V20.66h1.14v.69h0a1,1,0,0,1,1-.75.72.72,0,0,1,.28,0Z"/><path class="h" d="M51,21.69a1.07,1.07,0,0,0-.49-.11.7.7,0,0,0-.58.27,1.19,1.19,0,0,0-.21.75v1.77H48.62V20.66h1.14v.69h0a1,1,0,0,1,1-.75.75.75,0,0,1,.29,0Z"/><path class="h" d="M54.65,24.37H53.57v-.54h0a1.29,1.29,0,0,1-1.95.32,1.12,1.12,0,0,1-.31-.82c0-.71.43-1.13,1.28-1.24l1-.13c0-.41-.22-.61-.66-.61a2.28,2.28,0,0,0-1.26.39v-.86a3.47,3.47,0,0,1,.65-.22,3.63,3.63,0,0,1,.76-.09,1.4,1.4,0,0,1,1.58,1.58Zm-1.07-1.51v-.25l-.68.09c-.37.05-.55.21-.55.5a.41.41,0,0,0,.13.32.55.55,0,0,0,.37.13.67.67,0,0,0,.52-.23A.78.78,0,0,0,53.58,22.86Z"/><path class="h" d="M61.44,24.37H60.3V22.25c0-.54-.2-.8-.59-.8a.55.55,0,0,0-.46.24,1,1,0,0,0-.18.6v2.08H57.93V22.23c0-.52-.2-.78-.59-.78a.53.53,0,0,0-.46.23,1,1,0,0,0-.18.63v2.06H55.56V20.66H56.7v.58h0a1.36,1.36,0,0,1,.5-.48,1.34,1.34,0,0,1,.7-.19,1.07,1.07,0,0,1,1.08.69,1.36,1.36,0,0,1,1.24-.69c.81,0,1.21.5,1.21,1.49Z"/><path class="h" d="M62.92,20.07a.63.63,0,0,1-.47-.17.56.56,0,0,1,0-.84.67.67,0,0,1,.47-.16.68.68,0,0,1,.48.16.54.54,0,0,1,.18.42.57.57,0,0,1-.18.43A.68.68,0,0,1,62.92,20.07Zm.57,4.3H62.34V20.66h1.15Z"/><path class="h" d="M67.78,22.84H65.36q.06.81,1,.81a2,2,0,0,0,1.07-.29v.82a2.82,2.82,0,0,1-1.33.28,1.73,1.73,0,0,1-1.89-1.89,2,2,0,0,1,.54-1.46,1.76,1.76,0,0,1,1.31-.54,1.64,1.64,0,0,1,1.26.48,1.89,1.89,0,0,1,.44,1.31Zm-1.06-.7c0-.53-.22-.8-.64-.8a.62.62,0,0,0-.48.23,1,1,0,0,0-.24.57Z"/><path class="h" d="M72,24.37H70.9V22.31c0-.58-.21-.86-.62-.86a.59.59,0,0,0-.48.22.89.89,0,0,0-.2.58v2.12H68.46V20.66H69.6v.59h0a1.31,1.31,0,0,1,1.19-.68Q72,20.57,72,22.1Z"/><path class="h" d="M75.18,24.32a1.63,1.63,0,0,1-.76.14c-.81,0-1.21-.42-1.21-1.26V21.5h-.6v-.84h.6v-.8l1.14-.33v1.13h.83v.84h-.83V23c0,.39.15.58.46.58a.74.74,0,0,0,.37-.1Z"/><path class="h" d="M78.91,24.37H77.83v-.54h0a1.29,1.29,0,0,1-2,.32,1.12,1.12,0,0,1-.31-.82c0-.71.43-1.13,1.28-1.24l1-.13c0-.41-.22-.61-.66-.61a2.28,2.28,0,0,0-1.26.39v-.86a3.24,3.24,0,0,1,.65-.22,3.63,3.63,0,0,1,.76-.09,1.4,1.4,0,0,1,1.58,1.58Zm-1.07-1.51v-.25l-.68.09c-.37.05-.55.21-.55.5a.41.41,0,0,0,.13.32.54.54,0,0,0,.37.13.67.67,0,0,0,.52-.23A.78.78,0,0,0,77.84,22.86Z"/><path class="h" d="M79.57,24.27v-.93a2.36,2.36,0,0,0,.57.25,1.69,1.69,0,0,0,.53.09,1.08,1.08,0,0,0,.48-.09.27.27,0,0,0,.17-.25.25.25,0,0,0-.08-.18A.77.77,0,0,0,81,23l-.28-.09-.28-.1-.39-.18a1.05,1.05,0,0,1-.28-.22.92.92,0,0,1-.18-.3,1.14,1.14,0,0,1-.06-.39,1,1,0,0,1,.5-.9,1.42,1.42,0,0,1,.52-.21,2.35,2.35,0,0,1,.6-.07,3.71,3.71,0,0,1,1,.15v.88a1.86,1.86,0,0,0-.46-.19,2.12,2.12,0,0,0-.49-.06.75.75,0,0,0-.21,0,.48.48,0,0,0-.18.06.27.27,0,0,0-.12.09.33.33,0,0,0,0,.14.22.22,0,0,0,.07.17.59.59,0,0,0,.17.13l.23.09.26.09a3.89,3.89,0,0,1,.41.17,1.23,1.23,0,0,1,.31.22.9.9,0,0,1,.21.3,1.19,1.19,0,0,1,.07.4,1.05,1.05,0,0,1-.15.57,1.15,1.15,0,0,1-.38.38,2,2,0,0,1-.54.21,3.39,3.39,0,0,1-.64.07A3.49,3.49,0,0,1,79.57,24.27Z"/></g><g class="ae"><path class="h" d="M85.84,23.83h0v2.24h-.59V20.66h.59v.65h0a1.4,1.4,0,0,1,1.28-.74,1.35,1.35,0,0,1,1.11.5,2.05,2.05,0,0,1,.41,1.33,2.31,2.31,0,0,1-.46,1.49,1.47,1.47,0,0,1-1.23.56A1.23,1.23,0,0,1,85.84,23.83Zm0-1.49v.51a1.09,1.09,0,0,0,.3.78,1.06,1.06,0,0,0,1.6-.09A1.85,1.85,0,0,0,88,22.39a1.52,1.52,0,0,0-.29-1,1,1,0,0,0-.77-.35,1.06,1.06,0,0,0-.84.36A1.32,1.32,0,0,0,85.82,22.34Z"/><path class="h" d="M92.24,24.37h-.6v-.58h0a1.36,1.36,0,0,1-2,.37,1,1,0,0,1-.31-.78c0-.69.41-1.09,1.22-1.21L91.64,22c0-.63-.25-.95-.76-.95a1.8,1.8,0,0,0-1.21.46v-.61a2.29,2.29,0,0,1,1.26-.35c.87,0,1.31.46,1.31,1.39Zm-.6-1.88-.89.12a1.4,1.4,0,0,0-.62.21.59.59,0,0,0-.21.52.55.55,0,0,0,.19.44.72.72,0,0,0,.51.17.93.93,0,0,0,.73-.31,1,1,0,0,0,.29-.78Z"/><path class="h" d="M95.29,21.26a.8.8,0,0,0-1.09.24,1.65,1.65,0,0,0-.25,1v1.89h-.6V20.66H94v.76h0a1.4,1.4,0,0,1,.39-.61.9.9,0,0,1,.58-.21.89.89,0,0,1,.36,0Z"/><path class="h" d="M98.58,24.37H98v-.58h0a1.36,1.36,0,0,1-2,.37,1,1,0,0,1-.31-.78c0-.69.4-1.09,1.22-1.21L98,22c0-.63-.25-.95-.76-.95a1.8,1.8,0,0,0-1.21.46v-.61a2.29,2.29,0,0,1,1.26-.35c.87,0,1.3.46,1.3,1.39ZM98,22.49l-.89.12a1.45,1.45,0,0,0-.63.21.59.59,0,0,0-.21.52.56.56,0,0,0,.2.44A.72.72,0,0,0,97,24a.93.93,0,0,0,.73-.31,1.09,1.09,0,0,0,.29-.78Z"/></g><g class="ae"><path class="h" d="M36.7,34.25h-.6V28.76h.6Z"/><path class="h" d="M39.45,34.33a1.73,1.73,0,0,1-1.32-.52,1.93,1.93,0,0,1-.49-1.37A2,2,0,0,1,38.15,31a1.84,1.84,0,0,1,1.38-.53,1.67,1.67,0,0,1,1.3.51,2.06,2.06,0,0,1,.46,1.42,2,2,0,0,1-.5,1.42A1.73,1.73,0,0,1,39.45,34.33Zm0-3.38a1.15,1.15,0,0,0-.91.39,1.62,1.62,0,0,0-.33,1.08,1.47,1.47,0,0,0,.34,1,1.11,1.11,0,0,0,.9.38,1.07,1.07,0,0,0,.88-.37,1.6,1.6,0,0,0,.31-1.06,1.63,1.63,0,0,0-.31-1.07A1.07,1.07,0,0,0,39.49,31Z"/><path class="h" d="M42,34.11v-.63a1.71,1.71,0,0,0,1.06.35c.52,0,.78-.17.78-.52a.49.49,0,0,0-.06-.25.77.77,0,0,0-.18-.18,1.71,1.71,0,0,0-.27-.14L43,32.6a3.63,3.63,0,0,1-.43-.19,1.31,1.31,0,0,1-.32-.23.84.84,0,0,1-.18-.28.87.87,0,0,1-.07-.37.91.91,0,0,1,.12-.47,1.12,1.12,0,0,1,.32-.33,1.55,1.55,0,0,1,.45-.21,2.33,2.33,0,0,1,.53-.07,2.13,2.13,0,0,1,.86.17v.6a1.65,1.65,0,0,0-.94-.27,1.36,1.36,0,0,0-.3,0,.82.82,0,0,0-.23.11.57.57,0,0,0-.15.16.54.54,0,0,0,0,.22.6.6,0,0,0,0,.24.64.64,0,0,0,.16.17,1.08,1.08,0,0,0,.24.14l.33.13a4.69,4.69,0,0,1,.44.2,1.42,1.42,0,0,1,.34.22.86.86,0,0,1,.21.29.94.94,0,0,1,.07.39.89.89,0,0,1-.12.47,1,1,0,0,1-.32.34,1.42,1.42,0,0,1-.47.2,2.51,2.51,0,0,1-.55.06A2.07,2.07,0,0,1,42,34.11Z"/><path class="h" d="M50.07,34.25h-.6v-.58h0a1.25,1.25,0,0,1-1.14.66,1.21,1.21,0,0,1-.87-.29,1,1,0,0,1-.31-.78c0-.69.41-1.09,1.22-1.21l1.11-.15c0-.63-.25-.95-.76-.95a1.85,1.85,0,0,0-1.21.46V30.8a2.34,2.34,0,0,1,1.26-.35c.87,0,1.31.47,1.31,1.39Zm-.6-1.88-.89.13a1.33,1.33,0,0,0-.62.2.59.59,0,0,0-.21.52.55.55,0,0,0,.19.44.73.73,0,0,0,.52.17,1,1,0,0,0,.73-.31,1.08,1.08,0,0,0,.28-.78Z"/><path class="h" d="M51.78,34.25h-.6V28.76h.6Z"/><path class="h" d="M56,34.25h-.6v-.59h0a1.22,1.22,0,0,1-1.15.67c-.88,0-1.32-.52-1.32-1.57V30.54h.59v2.12q0,1.17.9,1.17a.87.87,0,0,0,.71-.32,1.19,1.19,0,0,0,.28-.83V30.54H56Z"/><path class="h" d="M62.44,34.25h-.6V32.12a1.57,1.57,0,0,0-.19-.89A.72.72,0,0,0,61,31a.78.78,0,0,0-.64.35,1.31,1.31,0,0,0-.27.83v2.12h-.59v-2.2c0-.73-.28-1.1-.84-1.1a.78.78,0,0,0-.65.33,1.34,1.34,0,0,0-.25.85v2.12h-.6V30.54h.6v.59h0a1.26,1.26,0,0,1,1.15-.68,1.1,1.1,0,0,1,1,.77,1.34,1.34,0,0,1,1.23-.77c.82,0,1.23.51,1.23,1.51Z"/><path class="h" d="M66.63,34.25H66V32.13c0-.78-.29-1.18-.86-1.18a1,1,0,0,0-.74.34,1.24,1.24,0,0,0-.29.84v2.12h-.59V30.54h.59v.62h0a1.35,1.35,0,0,1,1.22-.71,1.13,1.13,0,0,1,.93.4A1.71,1.71,0,0,1,66.63,32Z"/><path class="h" d="M69.3,34.33A1.7,1.7,0,0,1,68,33.81a1.89,1.89,0,0,1-.49-1.37A2,2,0,0,1,68,31a1.84,1.84,0,0,1,1.38-.53,1.66,1.66,0,0,1,1.29.51,2.06,2.06,0,0,1,.47,1.42,2,2,0,0,1-.51,1.42A1.73,1.73,0,0,1,69.3,34.33Zm0-3.38a1.12,1.12,0,0,0-.9.39,1.62,1.62,0,0,0-.33,1.08,1.52,1.52,0,0,0,.33,1,1.14,1.14,0,0,0,.9.38,1.09,1.09,0,0,0,.89-.37,1.65,1.65,0,0,0,.31-1.06,1.68,1.68,0,0,0-.31-1.07A1.09,1.09,0,0,0,69.34,31Z"/><path class="h" d="M71.87,34.11v-.63a1.74,1.74,0,0,0,1.07.35c.52,0,.78-.17.78-.52a.41.41,0,0,0-.07-.25.52.52,0,0,0-.18-.18,1.36,1.36,0,0,0-.27-.14l-.33-.14a4.54,4.54,0,0,1-.43-.19,1.25,1.25,0,0,1-.31-.23.73.73,0,0,1-.19-.28,1.06,1.06,0,0,1-.06-.37.91.91,0,0,1,.12-.47,1.08,1.08,0,0,1,.31-.33,1.75,1.75,0,0,1,.46-.21,2.25,2.25,0,0,1,.52-.07,2.18,2.18,0,0,1,.87.17v.6a1.69,1.69,0,0,0-.94-.27,1.37,1.37,0,0,0-.31,0,.76.76,0,0,0-.22.11.38.38,0,0,0-.15.16.43.43,0,0,0-.06.22.5.5,0,0,0,.21.41,1.17,1.17,0,0,0,.25.14l.33.13c.16.07.31.13.44.2a1.36,1.36,0,0,1,.33.22.86.86,0,0,1,.21.29.93.93,0,0,1,.08.39.81.81,0,0,1-.13.47,1,1,0,0,1-.32.34,1.34,1.34,0,0,1-.47.2,2.44,2.44,0,0,1-.55.06A2.07,2.07,0,0,1,71.87,34.11Z"/><path class="h" d="M75.44,34.33a.38.38,0,0,1-.28-.12.41.41,0,0,1,0-.58.38.38,0,0,1,.28-.12.38.38,0,0,1,.29.12.41.41,0,0,1,0,.58A.38.38,0,0,1,75.44,34.33Z"/></g></g><g class="ae"><g class="ae"><path class="h" d="M153,15.56h-1.34l-.81-1.33-.17-.28-.17-.2a.68.68,0,0,0-.18-.13.46.46,0,0,0-.2,0h-.32v2H148.6V10.37h1.85q1.89,0,1.89,1.41a1.35,1.35,0,0,1-.09.5,1.22,1.22,0,0,1-.23.42,1.64,1.64,0,0,1-.37.32,1.75,1.75,0,0,1-.48.21h0a1.27,1.27,0,0,1,.23.12,1.8,1.8,0,0,1,.21.19l.19.23L152,14Zm-3.19-4.31v1.44h.51a.81.81,0,0,0,.6-.22.68.68,0,0,0,.24-.54c0-.46-.28-.68-.82-.68Z"/><path class="h" d="M156.47,14h-2.42q.06.81,1,.81a1.93,1.93,0,0,0,1.07-.29v.83a2.87,2.87,0,0,1-1.34.27,1.72,1.72,0,0,1-1.88-1.88,2,2,0,0,1,.53-1.47,1.83,1.83,0,0,1,1.32-.53,1.61,1.61,0,0,1,1.25.48,1.82,1.82,0,0,1,.45,1.3Zm-1.06-.7c0-.53-.22-.79-.65-.79a.6.6,0,0,0-.47.22,1.06,1.06,0,0,0-.25.57Z"/><path class="h" d="M160,15.43a2.22,2.22,0,0,1-1.11.22,1.9,1.9,0,0,1-1.39-.52,1.78,1.78,0,0,1-.52-1.33,2,2,0,0,1,.56-1.49,2.11,2.11,0,0,1,1.52-.54,1.87,1.87,0,0,1,.94.17v1a1.27,1.27,0,0,0-.8-.27,1.09,1.09,0,0,0-.78.29,1.08,1.08,0,0,0-.28.79,1.09,1.09,0,0,0,.27.78,1.06,1.06,0,0,0,.76.28,1.49,1.49,0,0,0,.83-.27Z"/><path class="h" d="M164.22,15.56h-1.14V15h0a1.31,1.31,0,0,1-1.14.65c-.86,0-1.28-.52-1.28-1.56V11.86h1.14V14c0,.52.2.79.62.79a.63.63,0,0,0,.49-.22.87.87,0,0,0,.18-.58V11.86h1.14Z"/><path class="h" d="M167.6,12.89a.9.9,0,0,0-.48-.11.69.69,0,0,0-.58.27,1.18,1.18,0,0,0-.21.74v1.77h-1.14v-3.7h1.14v.68h0a1,1,0,0,1,1-.75.93.93,0,0,1,.28,0Z"/><path class="h" d="M167.94,15.46v-.92a2.3,2.3,0,0,0,.56.25,1.71,1.71,0,0,0,.53.08,1.09,1.09,0,0,0,.48-.08.25.25,0,0,0,.17-.25.21.21,0,0,0-.07-.18,1.07,1.07,0,0,0-.21-.13,1.69,1.69,0,0,0-.27-.1l-.29-.1a2.4,2.4,0,0,1-.39-.17,1.27,1.27,0,0,1-.28-.23.92.92,0,0,1-.17-.29,1.14,1.14,0,0,1-.06-.39,1,1,0,0,1,.13-.54,1.16,1.16,0,0,1,.36-.37,2.18,2.18,0,0,1,.52-.21,3.08,3.08,0,0,1,.61-.06l.5,0,.5.11v.89a1.6,1.6,0,0,0-.47-.19,1.64,1.64,0,0,0-.48-.07l-.22,0-.17.06a.4.4,0,0,0-.12.1.2.2,0,0,0,0,.13.28.28,0,0,0,.06.18.43.43,0,0,0,.17.12l.23.1.26.08a3.15,3.15,0,0,1,.41.18,1.21,1.21,0,0,1,.32.22.84.84,0,0,1,.2.29,1,1,0,0,1,.07.41,1.08,1.08,0,0,1-.14.56,1.15,1.15,0,0,1-.38.38,1.81,1.81,0,0,1-.55.22,3.31,3.31,0,0,1-.64.06A3.15,3.15,0,0,1,167.94,15.46Z"/><path class="h" d="M173.21,15.65a2,2,0,0,1-1.46-.52,1.88,1.88,0,0,1-.53-1.41,1.88,1.88,0,0,1,.55-1.44,2.11,2.11,0,0,1,1.49-.51,2,2,0,0,1,1.44.51,1.87,1.87,0,0,1,.53,1.38,2,2,0,0,1-.54,1.46A2,2,0,0,1,173.21,15.65Zm0-3a.75.75,0,0,0-.63.28,1.3,1.3,0,0,0-.22.79c0,.71.29,1.07.86,1.07s.82-.37.82-1.1S173.79,12.64,173.23,12.64Z"/><path class="h" d="M175.73,15.46v-.92a2.3,2.3,0,0,0,.56.25,1.71,1.71,0,0,0,.53.08,1.09,1.09,0,0,0,.48-.08.26.26,0,0,0,.18-.25.22.22,0,0,0-.08-.18.84.84,0,0,0-.21-.13,1.69,1.69,0,0,0-.27-.1l-.29-.1a3.52,3.52,0,0,1-.39-.17,1.27,1.27,0,0,1-.28-.23.92.92,0,0,1-.17-.29,1.14,1.14,0,0,1-.06-.39,1,1,0,0,1,.13-.54,1.19,1.19,0,0,1,.37-.37,2,2,0,0,1,.51-.21,3.08,3.08,0,0,1,.61-.06l.5,0,.5.11v.89a2.08,2.08,0,0,0-.95-.26l-.22,0-.17.06a.4.4,0,0,0-.12.1.2.2,0,0,0,0,.13.28.28,0,0,0,.06.18.52.52,0,0,0,.17.12l.23.1.26.08a3.15,3.15,0,0,1,.41.18,1.07,1.07,0,0,1,.32.22.72.72,0,0,1,.2.29,1,1,0,0,1,.07.41,1.08,1.08,0,0,1-.14.56,1.15,1.15,0,0,1-.38.38,1.81,1.81,0,0,1-.55.22,3.31,3.31,0,0,1-.64.06A3.19,3.19,0,0,1,175.73,15.46Z"/><path class="h" d="M184.9,15.56h-1.14v-.51h0a1.27,1.27,0,0,1-1.14.6,1.39,1.39,0,0,1-1.12-.49,2,2,0,0,1-.43-1.37,2.22,2.22,0,0,1,.47-1.47,1.51,1.51,0,0,1,1.22-.55,1,1,0,0,1,1,.51h0v-2.2h1.14Zm-1.12-1.8v-.28a.88.88,0,0,0-.21-.6.69.69,0,0,0-.55-.24.68.68,0,0,0-.59.3,1.4,1.4,0,0,0-.21.82,1.22,1.22,0,0,0,.2.75.68.68,0,0,0,.57.27.71.71,0,0,0,.57-.28A1.14,1.14,0,0,0,183.78,13.76Z"/><path class="h" d="M189.19,14h-2.41c0,.54.37.81,1,.81a1.94,1.94,0,0,0,1.08-.29v.83a2.87,2.87,0,0,1-1.34.27,1.84,1.84,0,0,1-1.39-.5,1.87,1.87,0,0,1-.5-1.38,2,2,0,0,1,.54-1.47,1.81,1.81,0,0,1,1.32-.53,1.62,1.62,0,0,1,1.25.48,1.81,1.81,0,0,1,.44,1.3Zm-1.06-.7c0-.53-.21-.79-.64-.79a.64.64,0,0,0-.48.22,1.13,1.13,0,0,0-.24.57Z"/><path class="h" d="M195,15.56h-1.08V15h0a1.2,1.2,0,0,1-1.1.62,1.18,1.18,0,0,1-.85-.3,1.14,1.14,0,0,1-.31-.82c0-.72.43-1.13,1.28-1.24l1-.14c0-.4-.22-.61-.66-.61a2.21,2.21,0,0,0-1.26.4v-.86a2.33,2.33,0,0,1,.65-.22,3.63,3.63,0,0,1,.76-.09A1.4,1.4,0,0,1,195,13.35Zm-1.07-1.5v-.25l-.68.08c-.37,0-.55.22-.55.51a.42.42,0,0,0,.13.32.53.53,0,0,0,.37.12.66.66,0,0,0,.52-.22A.79.79,0,0,0,193.93,14.06Z"/><path class="h" d="M197.06,15.13h0v2.14h-1.14V11.86h1.14v.55h0a1.47,1.47,0,0,1,2.31-.15,2.11,2.11,0,0,1,.39,1.34,2.25,2.25,0,0,1-.46,1.49,1.5,1.5,0,0,1-1.22.56A1.16,1.16,0,0,1,197.06,15.13Zm0-1.52v.3a1,1,0,0,0,.2.62.66.66,0,0,0,.54.25.67.67,0,0,0,.6-.31,1.39,1.39,0,0,0,.22-.85c0-.65-.26-1-.76-1a.72.72,0,0,0-.58.27A1,1,0,0,0,197,13.61Z"/><path class="h" d="M202.27,15.65a2,2,0,0,1-1.46-.52,1.88,1.88,0,0,1-.53-1.41,1.88,1.88,0,0,1,.55-1.44,2.11,2.11,0,0,1,1.49-.51,2,2,0,0,1,1.44.51,1.87,1.87,0,0,1,.53,1.38,2,2,0,0,1-.54,1.46A2,2,0,0,1,202.27,15.65Zm0-3a.75.75,0,0,0-.63.28,1.24,1.24,0,0,0-.23.79c0,.71.29,1.07.86,1.07s.82-.37.82-1.1S202.85,12.64,202.3,12.64Z"/><path class="h" d="M208.56,11.86l-1.51,4c-.36,1-.9,1.44-1.63,1.44a2.22,2.22,0,0,1-.69-.09V16.3a1,1,0,0,0,.5.13.63.63,0,0,0,.62-.42l.19-.46-1.5-3.69h1.26l.69,2.25a2.21,2.21,0,0,1,.1.5h0a2.88,2.88,0,0,1,.12-.49l.7-2.26Z"/><path class="h" d="M210.71,15.65a2,2,0,0,1-1.45-.52,1.84,1.84,0,0,1-.53-1.41,1.88,1.88,0,0,1,.55-1.44,2.08,2.08,0,0,1,1.48-.51,2,2,0,0,1,1.45.51,1.87,1.87,0,0,1,.53,1.38,2,2,0,0,1-.54,1.46A2.07,2.07,0,0,1,210.71,15.65Zm0-3a.75.75,0,0,0-.63.28,1.24,1.24,0,0,0-.22.79c0,.71.28,1.07.86,1.07s.82-.37.82-1.1S211.29,12.64,210.74,12.64Z"/></g><g class="ae"><path class="h" d="M216.24,15h0v2.24h-.59V11.86h.59v.65h0a1.4,1.4,0,0,1,1.28-.74,1.35,1.35,0,0,1,1.11.5A2,2,0,0,1,219,13.6a2.31,2.31,0,0,1-.46,1.49,1.5,1.5,0,0,1-1.23.56A1.23,1.23,0,0,1,216.24,15Zm0-1.5v.52a1.09,1.09,0,0,0,.3.78,1,1,0,0,0,.76.32,1,1,0,0,0,.84-.41,1.87,1.87,0,0,0,.31-1.15,1.5,1.5,0,0,0-.29-1,1,1,0,0,0-.77-.35,1.06,1.06,0,0,0-.84.36A1.31,1.31,0,0,0,216.22,13.53Z"/><path class="h" d="M222.64,15.56H222V15h0a1.36,1.36,0,0,1-2,.38,1,1,0,0,1-.31-.78c0-.7.41-1.1,1.22-1.21l1.11-.16c0-.63-.25-.94-.76-.94a1.84,1.84,0,0,0-1.21.45v-.6a2.21,2.21,0,0,1,1.26-.35c.87,0,1.31.46,1.31,1.38Zm-.6-1.87-.89.12a1.55,1.55,0,0,0-.62.2.6.6,0,0,0-.21.52.58.58,0,0,0,.19.45.77.77,0,0,0,.52.17.92.92,0,0,0,.72-.31,1.08,1.08,0,0,0,.29-.78Z"/><path class="h" d="M225.69,12.46a.8.8,0,0,0-1.09.24,1.62,1.62,0,0,0-.25,1v1.89h-.6v-3.7h.6v.76h0a1.4,1.4,0,0,1,.39-.61.86.86,0,0,1,.58-.22,1.11,1.11,0,0,1,.36.05Z"/><path class="h" d="M229,15.56h-.59V15h0a1.36,1.36,0,0,1-2,.38,1,1,0,0,1-.31-.78c0-.7.4-1.1,1.22-1.21l1.11-.16c0-.63-.25-.94-.76-.94a1.84,1.84,0,0,0-1.21.45v-.6a2.21,2.21,0,0,1,1.26-.35c.87,0,1.3.46,1.3,1.38Zm-.59-1.87-.89.12a1.61,1.61,0,0,0-.63.2.6.6,0,0,0-.21.52.59.59,0,0,0,.2.45.77.77,0,0,0,.51.17.93.93,0,0,0,.73-.31,1.12,1.12,0,0,0,.29-.78Z"/><path class="h" d="M232.72,15.56h-.59V10.08h.59Z"/><path class="h" d="M235.47,15.65a1.72,1.72,0,0,1-1.31-.52,2,2,0,0,1-.49-1.38,2,2,0,0,1,.51-1.46,1.83,1.83,0,0,1,1.38-.52,1.68,1.68,0,0,1,1.3.51,2,2,0,0,1,.46,1.41,2,2,0,0,1-.5,1.42A1.74,1.74,0,0,1,235.47,15.65Zm.05-3.38a1.15,1.15,0,0,0-.91.39,1.59,1.59,0,0,0-.33,1.07,1.48,1.48,0,0,0,.34,1,1.14,1.14,0,0,0,.9.38,1.1,1.1,0,0,0,.88-.37,1.61,1.61,0,0,0,.31-1.06,1.61,1.61,0,0,0-.31-1.07A1,1,0,0,0,235.52,12.27Z"/><path class="h" d="M238,15.43v-.64a1.77,1.77,0,0,0,1.07.36c.52,0,.78-.17.78-.52a.49.49,0,0,0-.06-.25,1.07,1.07,0,0,0-.18-.19,1.71,1.71,0,0,0-.27-.14l-.33-.13a4.69,4.69,0,0,1-.44-.2,1.44,1.44,0,0,1-.31-.22.88.88,0,0,1-.18-.29.84.84,0,0,1-.07-.37.88.88,0,0,1,.12-.46,1.15,1.15,0,0,1,.32-.34,1.32,1.32,0,0,1,.45-.2,1.88,1.88,0,0,1,.53-.07,2,2,0,0,1,.86.17v.6a1.65,1.65,0,0,0-.94-.27,1,1,0,0,0-.3,0,.7.7,0,0,0-.23.1.61.61,0,0,0-.15.17.46.46,0,0,0-.05.21.54.54,0,0,0,.05.24.55.55,0,0,0,.16.18,1.08,1.08,0,0,0,.24.13l.33.14a3.05,3.05,0,0,1,.44.19,1.69,1.69,0,0,1,.34.23.83.83,0,0,1,.21.28.94.94,0,0,1,.07.39,1,1,0,0,1-.12.48,1.12,1.12,0,0,1-.32.33,1.42,1.42,0,0,1-.47.2,2,2,0,0,1-.55.07A2.2,2.2,0,0,1,238,15.43Z"/></g><g class="ae"><path class="h" d="M151.77,25.44h-.6v-.63h0a1.49,1.49,0,0,1-2.39.22,2,2,0,0,1-.42-1.35,2.22,2.22,0,0,1,.46-1.48,1.56,1.56,0,0,1,1.24-.55,1.18,1.18,0,0,1,1.11.6h0V20h.6Zm-.6-1.67v-.55a1.06,1.06,0,0,0-.3-.76,1,1,0,0,0-.75-.31,1,1,0,0,0-.85.4,1.71,1.71,0,0,0-.31,1.1,1.56,1.56,0,0,0,.3,1,1,1,0,0,0,.8.37,1,1,0,0,0,.8-.36A1.31,1.31,0,0,0,151.17,23.77Z"/><path class="h" d="M154.52,25.53A1.73,1.73,0,0,1,153.2,25a2,2,0,0,1-.49-1.38,2,2,0,0,1,.51-1.45,1.84,1.84,0,0,1,1.38-.53,1.67,1.67,0,0,1,1.3.51,2.34,2.34,0,0,1,0,2.84A1.76,1.76,0,0,1,154.52,25.53Zm0-3.38a1.15,1.15,0,0,0-.91.39,1.61,1.61,0,0,0-.33,1.07,1.48,1.48,0,0,0,.34,1,1.14,1.14,0,0,0,.9.38,1.07,1.07,0,0,0,.88-.37,2,2,0,0,0,0-2.13A1.07,1.07,0,0,0,154.56,22.15Z"/><path class="h" d="M159.84,25.27a2,2,0,0,1-1,.26,1.67,1.67,0,0,1-1.28-.52,1.87,1.87,0,0,1-.48-1.33,2,2,0,0,1,.52-1.47,1.84,1.84,0,0,1,1.4-.56,1.94,1.94,0,0,1,.86.18v.61a1.52,1.52,0,0,0-.88-.29,1.19,1.19,0,0,0-.93.41,1.5,1.5,0,0,0-.37,1.07,1.45,1.45,0,0,0,.35,1,1.13,1.13,0,0,0,.91.38,1.53,1.53,0,0,0,.92-.32Z"/><path class="h" d="M163.71,23.74h-2.62a1.34,1.34,0,0,0,.34,1,1.12,1.12,0,0,0,.87.34,1.84,1.84,0,0,0,1.15-.41v.56a2.17,2.17,0,0,1-1.29.35,1.58,1.58,0,0,1-1.23-.5,2.08,2.08,0,0,1-.45-1.43,2,2,0,0,1,.49-1.4,1.56,1.56,0,0,1,1.22-.55,1.39,1.39,0,0,1,1.12.47,1.94,1.94,0,0,1,.4,1.31Zm-.61-.5a1.15,1.15,0,0,0-.25-.8.83.83,0,0,0-.67-.29,1,1,0,0,0-.72.3,1.42,1.42,0,0,0-.36.79Z"/><path class="h" d="M167.68,25.44h-.59V23.33c0-.79-.29-1.18-.86-1.18a1,1,0,0,0-.74.33,1.29,1.29,0,0,0-.29.85v2.11h-.59v-3.7h.59v.61h0a1.32,1.32,0,0,1,1.21-.7,1.12,1.12,0,0,1,.93.39,1.74,1.74,0,0,1,.32,1.14Z"/><path class="h" d="M170.52,25.41a1.22,1.22,0,0,1-.55.11c-.65,0-1-.36-1-1.08v-2.2h-.63v-.5H169v-.91l.6-.19v1.1h.93v.5h-.93v2.09a.88.88,0,0,0,.12.53.51.51,0,0,0,.42.16.65.65,0,0,0,.39-.12Z"/><path class="h" d="M174.29,23.74h-2.61a1.33,1.33,0,0,0,.33,1,1.12,1.12,0,0,0,.87.34,1.84,1.84,0,0,0,1.15-.41v.56a2.17,2.17,0,0,1-1.29.35,1.58,1.58,0,0,1-1.23-.5,2.08,2.08,0,0,1-.45-1.43,2,2,0,0,1,.49-1.4,1.56,1.56,0,0,1,1.22-.55,1.39,1.39,0,0,1,1.12.47,1.94,1.94,0,0,1,.4,1.31Zm-.61-.5a1.15,1.15,0,0,0-.25-.8.83.83,0,0,0-.67-.29,1,1,0,0,0-.72.3,1.42,1.42,0,0,0-.36.79Z"/><path class="h" d="M175,25.31v-.64A1.77,1.77,0,0,0,176,25c.52,0,.78-.17.78-.52a.49.49,0,0,0-.06-.25.77.77,0,0,0-.18-.18,1.17,1.17,0,0,0-.27-.15L176,23.8a3,3,0,0,1-.44-.2,1.44,1.44,0,0,1-.31-.22.79.79,0,0,1-.18-.29.84.84,0,0,1-.07-.37.88.88,0,0,1,.12-.46,1.15,1.15,0,0,1,.32-.34,1.54,1.54,0,0,1,.45-.2,1.88,1.88,0,0,1,.53-.07,2.13,2.13,0,0,1,.86.17v.6a1.65,1.65,0,0,0-.94-.27,1,1,0,0,0-.3,0,.7.7,0,0,0-.23.1.8.8,0,0,0-.15.17.46.46,0,0,0,0,.21.54.54,0,0,0,0,.24.55.55,0,0,0,.16.18,1.08,1.08,0,0,0,.24.13l.33.14c.17.06.31.13.44.19a1.69,1.69,0,0,1,.34.23.81.81,0,0,1,.28.67.92.92,0,0,1-.12.48,1.15,1.15,0,0,1-.32.34,1.41,1.41,0,0,1-.47.19,2,2,0,0,1-.55.07A2.08,2.08,0,0,1,175,25.31Z"/><path class="h" d="M178.88,24.62l-.58,1.78h-.43l.43-1.78Z"/><path class="h" d="M187.23,25.44h-.59V23.32a1.66,1.66,0,0,0-.19-.89.71.71,0,0,0-.64-.28.81.81,0,0,0-.65.35,1.37,1.37,0,0,0-.26.83v2.11h-.6v-2.2c0-.73-.28-1.09-.84-1.09a.77.77,0,0,0-.64.33,1.35,1.35,0,0,0-.26.85v2.11H182v-3.7h.59v.58h0a1.26,1.26,0,0,1,1.15-.67,1.08,1.08,0,0,1,.66.21,1.06,1.06,0,0,1,.39.56,1.32,1.32,0,0,1,1.23-.77c.81,0,1.22.5,1.22,1.51Z"/><path class="h" d="M191.33,23.74h-2.61a1.38,1.38,0,0,0,.33,1,1.12,1.12,0,0,0,.87.34,1.82,1.82,0,0,0,1.15-.41v.56a2.17,2.17,0,0,1-1.29.35,1.58,1.58,0,0,1-1.23-.5,2.08,2.08,0,0,1-.45-1.43,2,2,0,0,1,.49-1.4,1.56,1.56,0,0,1,1.22-.55,1.39,1.39,0,0,1,1.12.47,1.94,1.94,0,0,1,.4,1.31Zm-.61-.5a1.19,1.19,0,0,0-.24-.8.86.86,0,0,0-.68-.29,1,1,0,0,0-.72.3,1.42,1.42,0,0,0-.36.79Z"/><path class="h" d="M192.82,25.29a2.34,2.34,0,0,1-.36,1.4,1.25,1.25,0,0,1-1.06.5,1.07,1.07,0,0,1-.49-.12v-.55a1,1,0,0,0,.51.16q.81,0,.81-1.29V21.74h.59Zm-.29-4.49a.4.4,0,0,1-.27-.11.39.39,0,0,1-.11-.28.37.37,0,0,1,.11-.27.36.36,0,0,1,.27-.11.37.37,0,0,1,.28.11.39.39,0,0,1,0,.54A.38.38,0,0,1,192.53,20.8Z"/><path class="h" d="M195.57,25.53a1.7,1.7,0,0,1-1.31-.52,1.91,1.91,0,0,1-.49-1.38,2,2,0,0,1,.51-1.45,1.84,1.84,0,0,1,1.38-.53,1.66,1.66,0,0,1,1.29.51,2.32,2.32,0,0,1,0,2.84A1.78,1.78,0,0,1,195.57,25.53Zm.05-3.38a1.12,1.12,0,0,0-.91.39,1.61,1.61,0,0,0-.33,1.07,1.48,1.48,0,0,0,.34,1,1.14,1.14,0,0,0,.9.38,1.08,1.08,0,0,0,.88-.37,2,2,0,0,0,0-2.13A1.09,1.09,0,0,0,195.62,22.15Z"/><path class="h" d="M200.3,22.34a.73.73,0,0,0-.45-.12.77.77,0,0,0-.64.36,1.64,1.64,0,0,0-.25,1v1.89h-.59v-3.7H199v.76h0a1.4,1.4,0,0,1,.39-.61.91.91,0,0,1,.58-.22,1.06,1.06,0,0,1,.36,0Z"/><path class="h" d="M203.59,25.44H203v-.58h0a1.36,1.36,0,0,1-2,.38,1,1,0,0,1-.31-.78c0-.69.41-1.1,1.22-1.21l1.11-.16c0-.62-.25-.94-.76-.94a1.8,1.8,0,0,0-1.21.46V22a2.29,2.29,0,0,1,1.26-.35c.87,0,1.3.46,1.3,1.38ZM203,23.57l-.89.12a1.4,1.4,0,0,0-.62.21.58.58,0,0,0-.21.52.56.56,0,0,0,.19.44A.77.77,0,0,0,202,25a.93.93,0,0,0,.73-.31,1.08,1.08,0,0,0,.29-.78Z"/><path class="h" d="M207.79,25.44h-.59V23.33c0-.79-.29-1.18-.87-1.18a.93.93,0,0,0-.73.33,1.24,1.24,0,0,0-.29.85v2.11h-.6v-3.7h.6v.61h0a1.34,1.34,0,0,1,1.22-.7,1.15,1.15,0,0,1,.93.39,1.8,1.8,0,0,1,.32,1.14Z"/><path class="h" d="M212.07,25.44h-.59v-.63h0a1.36,1.36,0,0,1-1.27.72,1.39,1.39,0,0,1-1.12-.5,2,2,0,0,1-.42-1.35,2.23,2.23,0,0,1,.47-1.48,1.55,1.55,0,0,1,1.23-.55,1.18,1.18,0,0,1,1.11.6h0V20h.59Zm-.59-1.67v-.55a1.06,1.06,0,0,0-.3-.76,1,1,0,0,0-.75-.31,1,1,0,0,0-.86.4,1.78,1.78,0,0,0-.31,1.1,1.56,1.56,0,0,0,.3,1,1,1,0,0,0,.8.37,1,1,0,0,0,.81-.36A1.36,1.36,0,0,0,211.48,23.77Z"/><path class="h" d="M214.82,25.53a1.7,1.7,0,0,1-1.31-.52,1.91,1.91,0,0,1-.49-1.38,2,2,0,0,1,.51-1.45,1.84,1.84,0,0,1,1.38-.53,1.66,1.66,0,0,1,1.29.51,2,2,0,0,1,.47,1.42,2,2,0,0,1-.51,1.42A1.76,1.76,0,0,1,214.82,25.53Zm0-3.38a1.12,1.12,0,0,0-.9.39,1.61,1.61,0,0,0-.33,1.07,1.53,1.53,0,0,0,.33,1,1.17,1.17,0,0,0,.9.38,1.09,1.09,0,0,0,.89-.37,2,2,0,0,0,0-2.13A1.09,1.09,0,0,0,214.86,22.15Z"/><path class="h" d="M220.24,25.44h-.6V20h.6Z"/><path class="h" d="M223,25.53a1.69,1.69,0,0,1-1.31-.52,1.91,1.91,0,0,1-.49-1.38,2,2,0,0,1,.5-1.45,1.85,1.85,0,0,1,1.38-.53,1.67,1.67,0,0,1,1.3.51,2,2,0,0,1,.46,1.42,2,2,0,0,1-.5,1.42A1.76,1.76,0,0,1,223,25.53Zm0-3.38a1.12,1.12,0,0,0-.9.39,1.56,1.56,0,0,0-.34,1.07,1.48,1.48,0,0,0,.34,1,1.14,1.14,0,0,0,.9.38,1.1,1.1,0,0,0,.89-.37,2,2,0,0,0,0-2.13A1.11,1.11,0,0,0,223,22.15Z"/><path class="h" d="M225.56,25.31v-.64a1.74,1.74,0,0,0,1.06.36c.52,0,.79-.17.79-.52a.49.49,0,0,0-.07-.25.77.77,0,0,0-.18-.18,1.17,1.17,0,0,0-.27-.15l-.33-.13a2.48,2.48,0,0,1-.43-.2,1.29,1.29,0,0,1-.32-.22.79.79,0,0,1-.18-.29.84.84,0,0,1-.07-.37.88.88,0,0,1,.12-.46,1.15,1.15,0,0,1,.32-.34,1.6,1.6,0,0,1,.46-.2,1.81,1.81,0,0,1,.52-.07,2.13,2.13,0,0,1,.86.17v.6a1.65,1.65,0,0,0-.94-.27,1,1,0,0,0-.3,0,.55.55,0,0,0-.38.27.46.46,0,0,0-.05.21.54.54,0,0,0,.05.24.55.55,0,0,0,.16.18,1.36,1.36,0,0,0,.24.13l.33.14c.17.06.31.13.44.19a1.45,1.45,0,0,1,.34.23.81.81,0,0,1,.28.67.92.92,0,0,1-.12.48,1.15,1.15,0,0,1-.32.34,1.41,1.41,0,0,1-.47.19,2,2,0,0,1-.55.07A2.07,2.07,0,0,1,225.56,25.31Z"/></g></g></svg>