<svg xmlns="http://www.w3.org/2000/svg" viewBox="0 0 250 200"><defs><style>.a{fill:#f8f8f8;}.b,.f{fill:none;}.b{stroke:#ffa900;stroke-width:5.32px;}.c{isolation:isolate;}.d{fill:#707070;}.e{fill:#fa4441;}.g{fill:#d32d2d;}.h{fill:#fff;}.i{fill:#ffcb00;}</style></defs><rect class="a" y="85.11" width="250" height="114.89" rx="12.77"/><circle class="a" cx="124.47" cy="76.6" r="54.26"/><circle class="b" cx="124.47" cy="76.6" r="51.6"/><g class="c"><g class="c"><path class="d" d="M73.47,170.21V156.8h4.88a6.06,6.06,0,0,1,3.45.83A2.66,2.66,0,0,1,83,160a2.73,2.73,0,0,1-.74,1.89A3.86,3.86,0,0,1,80.4,163v0a3.7,3.7,0,0,1,2.28,1.06,3,3,0,0,1,.86,2.14,3.57,3.57,0,0,1-1.32,2.92,5.52,5.52,0,0,1-3.6,1.08Zm3-11.18v3.18h1.33a2.23,2.23,0,0,0,1.47-.45,1.56,1.56,0,0,0,.54-1.25c0-1-.74-1.48-2.21-1.48Zm0,5.42V168h1.64a2.51,2.51,0,0,0,1.64-.49,1.64,1.64,0,0,0,.59-1.33,1.55,1.55,0,0,0-.58-1.26,2.64,2.64,0,0,0-1.64-.46Z"/><path class="d" d="M93.42,170.21H90.63v-1.37h0a3.12,3.12,0,0,1-2.85,1.61,3,3,0,0,1-2.2-.79,2.85,2.85,0,0,1-.8-2.11c0-1.86,1.11-2.93,3.31-3.22l2.59-.34c0-1.05-.56-1.58-1.7-1.58a5.8,5.8,0,0,0-3.25,1v-2.22a7.22,7.22,0,0,1,1.69-.56,9,9,0,0,1,2-.25c2.73,0,4.09,1.37,4.09,4.09Zm-2.78-3.89v-.64l-1.73.22c-1,.13-1.44.56-1.44,1.3a1,1,0,0,0,.35.83,1.32,1.32,0,0,0,1,.32,1.75,1.75,0,0,0,1.35-.57A2.09,2.09,0,0,0,90.64,166.32Z"/><path class="d" d="M105,170.21h-3v-5.32q0-2.22-1.59-2.22a1.55,1.55,0,0,0-1.26.59,2.24,2.24,0,0,0-.5,1.49v5.46H95.76v-9.57h2.95v1.51h0a3.41,3.41,0,0,1,3.08-1.75q3.18,0,3.18,3.95Z"/><path class="d" d="M114.6,169.87a5.92,5.92,0,0,1-2.89.58,4.89,4.89,0,0,1-3.57-1.34,4.62,4.62,0,0,1-1.37-3.45,5.08,5.08,0,0,1,1.47-3.85,5.39,5.39,0,0,1,3.91-1.41,5,5,0,0,1,2.45.45v2.51a3.39,3.39,0,0,0-2.07-.69,2.56,2.56,0,0,0-2.75,2.79,2.7,2.7,0,0,0,.71,2,2.6,2.6,0,0,0,2,.72,3.89,3.89,0,0,0,2.16-.69Z"/><path class="d" d="M124.5,170.21h-2.79v-1.37h0a3.12,3.12,0,0,1-2.85,1.61,3,3,0,0,1-2.2-.79,2.85,2.85,0,0,1-.8-2.11q0-2.79,3.31-3.22l2.59-.34c0-1.05-.56-1.58-1.7-1.58a5.8,5.8,0,0,0-3.25,1v-2.22a7.22,7.22,0,0,1,1.69-.56,9,9,0,0,1,2-.25c2.73,0,4.09,1.37,4.09,4.09Zm-2.78-3.89v-.64l-1.73.22c-1,.13-1.44.56-1.44,1.3a1,1,0,0,0,.35.83,1.32,1.32,0,0,0,.95.32,1.75,1.75,0,0,0,1.35-.57A2.09,2.09,0,0,0,121.72,166.32Z"/></g><g class="c"><path class="d" d="M146,170.21h-1.54v-5.5a4.16,4.16,0,0,0-.49-2.3,1.85,1.85,0,0,0-1.65-.71,2.05,2.05,0,0,0-1.67.9,3.49,3.49,0,0,0-.68,2.15v5.46h-1.54v-5.68c0-1.88-.72-2.83-2.17-2.83a2,2,0,0,0-1.67.85,3.49,3.49,0,0,0-.65,2.2v5.46h-1.54v-9.57h1.54v1.51h0a3.26,3.26,0,0,1,3-1.74,2.82,2.82,0,0,1,1.71.55,2.78,2.78,0,0,1,1,1.44,3.41,3.41,0,0,1,3.18-2c2.1,0,3.16,1.3,3.16,3.9Z"/><path class="d" d="M152.89,170.44a4.41,4.41,0,0,1-3.39-1.35,4.92,4.92,0,0,1-1.27-3.55,5.17,5.17,0,0,1,1.32-3.77,4.76,4.76,0,0,1,3.56-1.36,4.28,4.28,0,0,1,3.34,1.32,6,6,0,0,1-.09,7.33A4.53,4.53,0,0,1,152.89,170.44Zm.11-8.74a2.94,2.94,0,0,0-2.34,1,4.14,4.14,0,0,0-.86,2.77,3.92,3.92,0,0,0,.87,2.69,3,3,0,0,0,2.33,1,2.8,2.8,0,0,0,2.29-1,4.18,4.18,0,0,0,.8-2.74,4.24,4.24,0,0,0-.8-2.76A2.81,2.81,0,0,0,153,161.7Zm2.24-5.94-2.45,3.06h-1.18l2.08-3.06Z"/><path class="d" d="M167.63,160.64l-3.81,9.57h-1.51l-3.62-9.57h1.68l2.43,7a6.92,6.92,0,0,1,.34,1.34h0a7.54,7.54,0,0,1,.3-1.3l2.55-7Z"/><path class="d" d="M170.06,158.21a1,1,0,0,1-.7-.28,1,1,0,0,1,.7-1.71,1,1,0,0,1,.72.28,1,1,0,0,1,0,1.42A1,1,0,0,1,170.06,158.21Zm.75,12h-1.53v-9.57h1.53Z"/><path class="d" d="M175.45,170.21h-1.53V156h1.53Z"/></g></g><path class="e" d="M145.85,99.94a2.76,2.76,0,0,1-2.79,2.72H91.45a2.76,2.76,0,0,1-2.79-2.72h0V66.45a2.76,2.76,0,0,1,2.79-2.72h51.61a2.76,2.76,0,0,1,2.79,2.72h0Z"/><path class="f" d="M160.76,61.12,112.12,43.83a.92.92,0,0,0-1.18.51L109,50l50.4,17.91,2-5.61A.91.91,0,0,0,160.76,61.12Z"/><path class="g" d="M162.66,58.09,114,40.8a2.77,2.77,0,0,0-3.54,1.64l-2,5.61-1.15,3.23-.95,2.66-1.3,3.66-1.72,4.84h2l1.5-4.22,11.86,4.22h25.65a2.74,2.74,0,0,1,2.78,2.72h0v7.38l10.11,3.6-5.83,16.39a.92.92,0,0,1-1.18.51l-3.1-1.1v2l2.49.89a2.76,2.76,0,0,0,3.53-1.63h0L159,76.76l1.3-3.66.94-2.66,1.15-3.24,2-5.61A2.75,2.75,0,0,0,162.66,58.09Zm0,2.88-2,5.61L110.23,48.66l2-5.61a.92.92,0,0,1,1.18-.51L162,59.83a.91.91,0,0,1,.59,1.14Z"/><path class="h" d="M92.56,97.05h.69V94h-.71v-.78H94.1v3.84h.64v.73H92.57Z"/><path class="h" d="M95.24,94.54c0-1,.92-1.39,1.76-1.39s1.9.38,1.9,1.46S98,96,97.07,96c-.38,0-1,.1-1,.6V97h2.83v.8h-3.7v-1.2c0-1,1-1.37,1.86-1.37.34,0,1,0,1-.58s-.45-.73-1-.73-.92.22-.92.64Z"/><path class="h" d="M100.52,95.79v-.71h.66c.47,0,1-.12,1-.54,0-.26-.21-.61-.94-.61-.4,0-1,.14-1,.56h-.86c0-1,1-1.34,1.82-1.34s1.79.41,1.8,1.39a1,1,0,0,1-.64.9,1.08,1.08,0,0,1,.75,1c0,1.12-1,1.45-1.93,1.45s-1.86-.36-1.87-1.4h.87c0,.47.63.63,1,.63s1-.18,1-.67c0-.27-.15-.61-1-.61Z"/><path class="h" d="M107.08,93.22v2.86h.53v.83h-.53v.87h-.85v-.87h-2.44l-.08-.87,2.05-2.82Zm-.85,2.86V94l-1.55,2.11Z"/><path class="h" d="M112.89,94h-2.47v.8h.89c1,0,1.84.4,1.84,1.47a1.6,1.6,0,0,1-1.65,1.54h-.14c-1,0-1.87-.36-1.88-1.43h.85c0,.5.58.63,1,.63s1-.19,1-.73-.51-.67-1-.67h-1.73V93.22h3.31Z"/><path class="h" d="M114.4,94.62v.68a1.34,1.34,0,0,1,1-.48c.92,0,1.89.39,1.89,1.52a1.95,1.95,0,0,1-3.8,0v-1.7c0-1,.94-1.49,1.88-1.49s1.87.39,1.87,1.35h-.86c0-.41-.51-.61-1-.61s-1,.28-1,.77Zm2.08,1.72c0-.5-.45-.77-1-.77s-1.06.26-1,.77.48.75,1,.75,1-.25,1-.75Z"/><path class="h" d="M117.82,97.78,119.68,94h-2.22v-.82h3.35l0,.46-2,4.11Z"/><path class="h" d="M121.66,95.42a1,1,0,0,1-.57-.9c0-.92.85-1.39,1.84-1.39s1.87.48,1.87,1.39a1,1,0,0,1-.59.87,1.12,1.12,0,0,1,.69,1c0,1.07-1,1.49-2,1.48s-2-.41-2-1.48A1.11,1.11,0,0,1,121.66,95.42Zm.2,1c0,.35.38.68,1.07.68s1.08-.33,1.07-.68-.5-.66-1.07-.66-1.06.2-1.07.65Zm1.07-1.28c.54,0,1-.24,1-.64s-.39-.65-1-.65-1,.34-1,.65.46.64,1,.64Z"/><path class="h" d="M126.64,97.05h.68V94h-.71v-.78h1.57v3.84h.63v.73h-2.17Z"/><path class="h" d="M129.31,94.54c0-1,.92-1.39,1.76-1.39s1.91.38,1.91,1.46S132.1,96,131.14,96c-.38,0-1,.1-1,.6V97H133v.8h-3.7v-1.2c0-1,1-1.37,1.85-1.37.35,0,1,0,1-.58s-.45-.73-1-.73-.91.22-.92.64Z"/><path class="h" d="M134.6,95.79v-.71h.66c.46,0,1-.12,1-.54,0-.26-.21-.61-.94-.61-.4,0-1,.14-1,.56h-.86c0-1,1-1.34,1.82-1.34s1.79.41,1.79,1.39a1,1,0,0,1-.63.9,1.07,1.07,0,0,1,.74,1c0,1.12-1.05,1.45-1.93,1.45s-1.86-.36-1.86-1.4h.87c0,.47.63.63,1,.63s1-.18,1-.67c0-.27-.15-.61-1-.61Z"/><path class="h" d="M141.15,93.22v2.86h.53v.83h-.53v.87h-.85v-.87h-2.44l-.08-.87,2.06-2.82Zm-.85,2.86V94l-1.55,2.11Z"/><path class="i" d="M92.9,80.18v1.74a1.91,1.91,0,0,0,0,.53,1.87,1.87,0,0,0,2,1.46h5V80.18Z"/><path class="i" d="M100.6,78.06h3.8v.66h-3.8v5.12h4.91a2.05,2.05,0,0,0,.55,0,1.87,1.87,0,0,0,1.45-2V75.34H100.6Z"/><path class="i" d="M103.23,74.68V69.35H97.07v5.33Z"/><path class="i" d="M99.89,75.33h-7v4.19h7Z"/><path class="i" d="M96.32,69.29H95a2.42,2.42,0,0,0-.66.06,1.83,1.83,0,0,0-1.43,1.93v3.39h3.42Z"/><path class="i" d="M107.51,74.67V71.36a3.47,3.47,0,0,0-.06-.64,1.87,1.87,0,0,0-2-1.43h-1.64v5.38Z"/></svg>