<svg xmlns="http://www.w3.org/2000/svg" xmlns:xlink="http://www.w3.org/1999/xlink" viewBox="0 0 270 300"><defs><style>.a{fill:none;}.b{fill:#ffa900;}.c{opacity:0.15;}.d{opacity:0.8;}.e{opacity:0.5;}.f{fill:#00d1e3;}.g{fill:#ccd3e6;}.h{fill:#fff;}.i{fill:#575759;}.j{fill:#363638;}.k{fill:#fd615b;}.l{fill:#0592f5;}.m{fill:#cedcec;}.n{clip-path:url(#a);}.o{fill:#ffc49c;}.p{fill:#ff9b79;}.q{fill:#ffd24f;}.r{fill:#dc7f21;}.s{fill:#ffb028;}.t{fill:#0076fa;}.u{fill:#004ecb;}.v{fill:#f56c63;}.w{fill:#c1c765;}.x{fill:#a1a654;}.y{fill:#00b570;}.z{fill:#007d55;}.aa{fill:#ce101d;}.ab{fill:#f37168;}.ac{fill:#75a1de;}.ad{fill:#296eb2;}.ae{isolation:isolate;}.af{fill:#f4f4f4;}.ag{fill:#707070;}</style><clipPath id="a"><path class="a" d="M116.17,145c-.54,1.66-.54,1.95-.54,1.66l0-47.4c0-.29,0-.24,0-34.56H222.21l0,80.3Z"/></clipPath></defs><path class="b" d="M268.73,5.19h-144a1.27,1.27,0,0,0-1.27,1.27V49.78a1.27,1.27,0,0,0,1.27,1.27h19.33a1.31,1.31,0,0,1,.9.37L150.58,57a1.26,1.26,0,0,0,1.79,0l5.57-5.57a1.31,1.31,0,0,1,.9-.37H268.73A1.27,1.27,0,0,0,270,49.78V6.46A1.27,1.27,0,0,0,268.73,5.19Z"/><g class="c"><g class="d"><g class="e"><path class="f" d="M133.74,106.3a60,60,0,0,1-27.3-11.57c-12.06-9.11-37.3-24.6-61.37-16.88C11.86,88.49,11.71,119.28,20.36,136s70,65.7,149.51,57.91c71.16-7,85-86.79,47.07-101.24C184,80.15,172.8,112.06,133.74,106.3Z"/></g><g class="e"><ellipse class="f" cx="236.19" cy="94.48" rx="3.09" ry="3.32"/></g><path class="f" d="M34.74,72.61A2,2,0,0,1,37,73.86a2.07,2.07,0,0,1-2.93,2.49h0A2,2,0,0,1,34.74,72.61Z"/><circle class="f" cx="227.76" cy="64.8" r="4.02"/><g class="d"><path class="f" d="M46.92,69.44a4.06,4.06,0,1,1-5-2.82h0A4.06,4.06,0,0,1,46.92,69.44Z"/></g><path class="f" d="M207.58,190.41a2,2,0,0,1,2.43.81,2.07,2.07,0,0,1-2.41,3h0A2,2,0,0,1,207.58,190.41Z"/><path class="f" d="M219,185a4.06,4.06,0,1,1-5.44-1.84A4.07,4.07,0,0,1,219,185Z"/><circle class="f" cx="220.19" cy="58.65" r="2.47"/></g><g class="d"><path class="f" d="M229.25,103.44c0-22.09-18.4-46.29-41.29-47.75l-1.22-.07c-32.81-1.53-35.31,38.49-65,43S69.38,80.35,33.85,95.22c-31.91,13.36-40.55,88.39,53.2,91.4C162.05,189,229.26,169.35,229.25,103.44Z"/></g></g><ellipse class="g" cx="170.43" cy="209.65" rx="72.34" ry="3.73"/><path class="g" d="M219.43,199.21h-10v10.42h11.72v-8.72a1.7,1.7,0,0,0-1.7-1.7Z"/><rect class="g" x="155.78" y="176.87" width="34.8" height="22.34"/><path class="h" d="M127.74,199.21h82.89a6.55,6.55,0,0,1,6.55,6.55v3.87h-96v-3.87A6.56,6.56,0,0,1,127.74,199.21Z"/><rect class="h" x="151.51" y="176.87" width="34.8" height="22.34"/><path class="g" d="M151.51,183.73l34.8-2.79v-4.07H151.56Z"/><rect class="g" x="90.2" y="79.97" width="157.88" height="96.91" rx="4.65"/><path class="i" d="M248.08,84.62v81.13H233.7V80h9.73A4.65,4.65,0,0,1,248.08,84.62Z"/><path class="h" d="M242.16,84.62v87.6a4.65,4.65,0,0,1-4.64,4.65H94.85a4.65,4.65,0,0,1-4.65-4.65V84.62A4.65,4.65,0,0,1,94.85,80H238l.18,0,.11,0h.06l.11,0A4.66,4.66,0,0,1,242.16,84.62Z"/><path class="j" d="M238.45,80.06l-.11,0h-.06l-.11,0L238,80H94.85a4.65,4.65,0,0,0-4.65,4.65v81.13h152V84.62A4.66,4.66,0,0,0,238.45,80.06Zm-2.31,77.58a1.27,1.27,0,0,1-1.27,1.27H97.49a1.27,1.27,0,0,1-1.27-1.27h0V87.26A1.27,1.27,0,0,1,97.49,86H234.87a1.27,1.27,0,0,1,1.27,1.27h0Z"/><rect class="g" x="96.22" y="85.99" width="139.91" height="72.91" rx="1.26"/><path class="h" d="M236.14,87.26V93.9H96.22V87.26A1.27,1.27,0,0,1,97.49,86H234.87a1.27,1.27,0,0,1,1.27,1.27Z"/><path class="k" d="M225.3,89.84a1.08,1.08,0,1,1-1.07-1.07A1.08,1.08,0,0,1,225.3,89.84Z"/><circle class="l" cx="227.71" cy="89.84" r="1.07"/><path class="m" d="M109.44,88.7h109.3a1,1,0,0,1,1,1V90a1,1,0,0,1-1,1H109.44a1,1,0,0,1-1-1h0v-.27a1,1,0,0,1,1-1Z"/><path d="M101.28,89.84v1a.2.2,0,0,1-.2.2.16.16,0,0,1-.09,0l-.91-.53L99.17,90a.19.19,0,0,1-.08-.26.3.3,0,0,1,.08-.08l.91-.52.91-.53a.2.2,0,0,1,.29.17Z"/><path d="M102.88,89.84v1a.19.19,0,0,0,.19.2.14.14,0,0,0,.09,0l.92-.53L105,90a.2.2,0,0,0,.07-.27.46.46,0,0,0-.07-.07l-.91-.52-.92-.53a.19.19,0,0,0-.26.07.36.36,0,0,0,0,.1Z"/><rect class="j" x="229.83" y="89.5" width="2.58" height="0.61" rx="0.27" transform="translate(4.19 189.73) rotate(-45)"/><rect class="j" x="230.81" y="88.51" width="0.61" height="2.58" rx="0.27" transform="translate(4.19 189.73) rotate(-45)"/><rect class="h" x="112.04" y="95.5" width="107.91" height="60.57" rx="2.64"/><path class="g" d="M143.27,126.5H119.61a.66.66,0,0,1-.65-.66h0a.65.65,0,0,1,.65-.66h23.66a.65.65,0,0,1,.66.66h0A.66.66,0,0,1,143.27,126.5Z"/><path class="g" d="M143.27,120.93H119.61a.65.65,0,0,1-.65-.65h0a.65.65,0,0,1,.65-.66h23.66a.65.65,0,0,1,.66.66h0A.65.65,0,0,1,143.27,120.93Z"/><path class="g" d="M143.27,132.06H119.61a.66.66,0,0,1-.65-.66h0a.65.65,0,0,1,.65-.66h23.66a.65.65,0,0,1,.66.66h0A.66.66,0,0,1,143.27,132.06Z"/><path class="g" d="M216,126.5H192.31a.67.67,0,0,1-.66-.66h0a.66.66,0,0,1,.66-.66H216a.66.66,0,0,1,.66.66h0A.67.67,0,0,1,216,126.5Z"/><path class="g" d="M216,120.93H192.31a.66.66,0,0,1-.66-.65h0a.66.66,0,0,1,.66-.66H216a.66.66,0,0,1,.66.66h0A.66.66,0,0,1,216,120.93Z"/><path class="g" d="M216,132.06H192.31a.67.67,0,0,1-.66-.66h0a.66.66,0,0,1,.66-.66H216a.66.66,0,0,1,.66.66h0A.67.67,0,0,1,216,132.06Z"/><path class="j" d="M112,146.67H220v8.85a.56.56,0,0,1-.56.55H112.6a.56.56,0,0,1-.56-.55Z"/><path class="h" d="M209.35,150.15v-.79h1v-.71H209a.35.35,0,0,0-.35.35h0v1.16Z"/><path class="h" d="M209.35,151.57h-.71v1.22a.35.35,0,0,0,.35.35h1.36v-.71h-1Z"/><path class="h" d="M212.42,150.15h.71V149a.35.35,0,0,0-.35-.35h-1.3v.71h.94Z"/><path class="h" d="M212.42,151.57v.86h-.94v.71h1.3a.35.35,0,0,0,.35-.35h0v-1.22Z"/><path class="h" d="M118.33,151.05v-2.24l1.94,1.12,1.94,1.12-1.94,1.12-1.94,1.12Z"/><path class="h" d="M128.58,149h.51a.35.35,0,0,1,.34.35h0v3.38a.34.34,0,0,1-.34.35h-.51a.34.34,0,0,1-.35-.35v-3.38A.35.35,0,0,1,128.58,149Z"/><rect class="h" x="130.74" y="149.03" width="1.2" height="4.08" rx="0.35"/><rect class="g" x="112.04" y="144.9" width="107.91" height="1.77"/><rect class="k" x="112.04" y="144.9" width="55.37" height="1.77"/><path class="j" d="M202.69,138h1.22v2.66h1.63v.95h-2.85Z"/><path class="j" d="M205.87,138h1.22v3.61h-1.22Z"/><path class="j" d="M211.54,138,210,141.63h-1.2L207.29,138h1.31l.86,2.11.88-2.11Z"/><path class="j" d="M214.66,140.71v.92h-3V138h2.93v.92h-1.74v.42h1.53v.88h-1.53v.47Z"/><path class="k" d="M200.69,139.79a1.49,1.49,0,1,1-3,0,1.48,1.48,0,0,1,1.48-1.48h0a1.49,1.49,0,0,1,1.49,1.48Z"/><path class="j" d="M125.22,140.8c0,.82-.78,1.36-1.9,1.36s-1.91-.54-1.91-1.36a1.13,1.13,0,0,1,.57-1,1,1,0,0,1-.41-.83c0-.77.72-1.27,1.75-1.27s1.75.5,1.75,1.27a1,1,0,0,1-.42.83A1.13,1.13,0,0,1,125.22,140.8Zm-1.44-.05a.47.47,0,0,0-.93-.05.46.46,0,0,0,.44.49h0a.43.43,0,0,0,.46-.39Zm-.8-1.7a.33.33,0,0,0,.36.31.34.34,0,0,0,.32-.36.35.35,0,0,0-.34-.32.33.33,0,0,0-.34.32v.05Z"/><path class="j" d="M125.49,139.94c0-1.41.8-2.22,1.92-2.22s1.92.81,1.92,2.22a1.94,1.94,0,1,1-3.84,0Zm2.4,0c0-.82-.2-1.08-.48-1.08s-.49.26-.49,1.08.21,1.07.49,1.07S127.89,140.76,127.89,139.94Z"/><path class="k" d="M118.93,138.75a1.31,1.31,0,1,1-1.31-1.31h0A1.31,1.31,0,0,1,118.93,138.75Z"/><path class="k" d="M120.06,142.05h-4.87a2.5,2.5,0,0,1,2.4-1.55h.07A2.51,2.51,0,0,1,120.06,142.05Z"/><g class="n"><path class="o" d="M132.61,109.3s-.66,4-3.59,4.69c-2.36.58-4.59-1.69-5.36-2.59a4.38,4.38,0,0,1-.29-.35l-.44,0a2.5,2.5,0,0,1-2.14-.9c-.61-1.08,1.62-1.82,1.62-1.82s-1.14-1-.86-1.76,1.81-.88,1.81-.88-1.65-1.07-1.09-2c.83-1.41,2.53.14,2.67.22-.11-.12-2.25-2.33-1.08-2.73,1-.35,2.7.8,3.81,1.94l.27.29.18-.13c.55-.37,2.25-1.36,3.33-.46C132.75,103.93,132.61,109.3,132.61,109.3Z"/><path class="p" d="M129.55,111.75a.24.24,0,0,1-.31-.11.23.23,0,0,1,0-.23,2.12,2.12,0,0,0,.36-1.74c-.39-1.49-2.38-2.52-2.4-2.53a.24.24,0,0,1-.09-.32.23.23,0,0,1,.3-.1c.09,0,2.2,1.14,2.64,2.83a2.55,2.55,0,0,1-.42,2.12A.24.24,0,0,1,129.55,111.75Z"/><path class="p" d="M127.51,106a.71.71,0,0,1-.32.63.8.8,0,0,1-.16.08,1.43,1.43,0,0,1-.41.09,2.26,2.26,0,0,1,.29.25.8.8,0,0,1,.18.27.63.63,0,0,1-.1.59,3,3,0,0,1-1.93.78,2.4,2.4,0,0,1,1.08,1.1.73.73,0,0,1-.09.71,1.52,1.52,0,0,1-.5.37,7.8,7.8,0,0,1-1.89.52,4.38,4.38,0,0,1-.29-.35l-.44,0a.21.21,0,0,1,.12,0,5.81,5.81,0,0,0,2.63-.79.28.28,0,0,0,0-.28,2.8,2.8,0,0,0-1.72-1.21.22.22,0,0,1-.17-.25.21.21,0,0,1,.23-.2c.58,0,2.16-.09,2.58-.65.06-.08,0-.13,0-.15a.73.73,0,0,0-.35-.32,5.53,5.53,0,0,0-1.37-.52.24.24,0,0,1-.12-.07.27.27,0,0,1-.06-.21.24.24,0,0,1,.28-.17h0l.45.12a4.62,4.62,0,0,0,1.05,0,.87.87,0,0,0,.39-.1.28.28,0,0,0,.12-.25,1.52,1.52,0,0,0-.25-.71.23.23,0,0,1,0-.26h0a.23.23,0,0,1,.32,0,.34.34,0,0,1,.06.06A2,2,0,0,1,127.51,106Z"/><path class="j" d="M125.81,101.66a6.11,6.11,0,0,1,1.09.8c.33.31.54.47.77.68,0,0,0,0,0,0l-4.47-19a.23.23,0,0,0-.28-.17.22.22,0,0,0-.17.26Z"/><path class="j" d="M129.7,112.19c-1.55,1-2,.26-2,.26l-.78-4.45.06-.08a.58.58,0,0,0,.1-.59,1,1,0,0,0-.17-.27l-.19-.16v-.1a1.25,1.25,0,0,0,.32-.08l.15-.08a.71.71,0,0,0,.29-.37,1.12,1.12,0,0,0,.69.31h.23Z"/><path class="p" d="M131,105.24a7.77,7.77,0,0,1-1.52,1,2.54,2.54,0,0,1-1.35.32,1.16,1.16,0,0,1-.84-.47c-.74-1-.11-2.29.34-3l.27.29.18-.13c-.38.56-1,1.73-.42,2.53a.68.68,0,0,0,.52.29c.82.09,2.09-.86,2.52-1.23a.22.22,0,0,1,.32,0,.24.24,0,0,1,0,.33Z"/><path class="q" d="M155,100.64h0v0l0,.06,0,.14-.07.3-.06.31c0,.11-.05.22-.08.33-.1.43-.2.87-.32,1.31-.24.88-.5,1.76-.8,2.63s-.61,1.74-1,2.59c-.18.42-.35.84-.55,1.25s-.38.83-.57,1.24c-.41.81-.84,1.61-1.3,2.38-.11.19-.23.38-.35.57s-.23.39-.35.57c-.25.37-.49.75-.75,1.1-.5.74-1.06,1.42-1.61,2.1s-1.15,1.31-1.78,1.92l-.46.46-.48.43-.24.22-.06.06,0,0,0,0a.81.81,0,0,1,.18-.12,2.73,2.73,0,0,1,.86-.41l.21,0h.1l.09,0h.6c.07,0-.06,0-.27-.08a8.14,8.14,0,0,1-.77-.41c-.3-.18-.62-.39-1-.62-.66-.47-1.36-1-2-1.63s-1.4-1.24-2.09-1.91-1.39-1.35-2.08-2.06-1.37-1.42-2-2.15L135,110l-1-1.07-7.5,5.63.25.38.24.35.47.69c.32.45.64.9,1,1.34.66.89,1.33,1.77,2,2.63s1.43,1.72,2.19,2.56c.38.42.77.84,1.17,1.25s.81.83,1.24,1.24a35.26,35.26,0,0,0,2.76,2.41c.51.39,1,.78,1.63,1.17a17.35,17.35,0,0,0,2,1.11,12.12,12.12,0,0,0,2.7.92l.2,0,.22,0,.45.06.48,0h1l.57-.06.28,0,.29-.06c.2,0,.39-.08.59-.14a8.22,8.22,0,0,0,2.29-1.06l.49-.37.12-.09.1-.09.09-.08.34-.31.69-.61c.23-.21.44-.43.66-.64a35.22,35.22,0,0,0,2.5-2.69c.77-.94,1.52-1.9,2.19-2.9s1.32-2,1.91-3.07l.43-.79.41-.79c.13-.27.27-.54.39-.81l.38-.8a43.75,43.75,0,0,0,2.38-6.67c.3-1.13.57-2.28.78-3.44.11-.59.2-1.17.28-1.77l.06-.46c0-.15,0-.3,0-.46s0-.31.05-.47l0-.58Z"/><path class="r" d="M131.41,113.42a.65.65,0,1,0,.59-.7.64.64,0,0,0-.59.7Z"/><path class="r" d="M144.86,124.53a.27.27,0,0,0,.27-.21,20.27,20.27,0,0,0,.45-4.79.28.28,0,0,0-.28-.27.29.29,0,0,0-.27.29h0a21.27,21.27,0,0,1-.43,4.64.26.26,0,0,0,.2.33h.06Z"/><path class="r" d="M146.63,122.53a.27.27,0,0,0,.28-.28.27.27,0,0,0,0-.12,22.51,22.51,0,0,0-1.35-2.39.28.28,0,0,0-.44.34,22.62,22.62,0,0,1,1.3,2.3A.27.27,0,0,0,146.63,122.53Z"/><path class="r" d="M129.43,118.79a.25.25,0,0,0,.19-.09,77.71,77.71,0,0,1,7.59-6.19.28.28,0,0,0,.07-.39.28.28,0,0,0-.38-.07h0a77.81,77.81,0,0,0-7.66,6.26.27.27,0,0,0,0,.39.28.28,0,0,0,.2.08Z"/><path class="r" d="M131.66,116.74a.28.28,0,0,0,.28-.27.24.24,0,0,0-.07-.18l-2.79-3.35a.28.28,0,0,0-.39,0,.27.27,0,0,0,0,.39l2.79,3.36A.27.27,0,0,0,131.66,116.74Z"/><path class="j" d="M161.8,182l3.75-22.1.3-1.81-10.78-3.8-.61-.22-2.57-.91s-.2,1-.52,2.57l-.12.62A205.28,205.28,0,0,0,147.82,182Z"/><path class="i" d="M159.89,182c1.62-8.81,3.7-21.69,3.82-22.44a.29.29,0,1,0-.57-.1c0,.19-2.19,13.56-3.85,22.54Z"/><path class="j" d="M183.61,146.08s.82,7.7-.94,12-24.42,2.08-30.2-1.78c-2.37-1.58,2.68-16.18,2.68-16.18Z"/><path class="i" d="M151.25,156.32a6.69,6.69,0,0,0,2.49-1,7.66,7.66,0,0,0,1.33-1.08,13.92,13.92,0,0,0,3.27-6.52.29.29,0,0,0-.57-.11h0a13.52,13.52,0,0,1-3.31,6.41,6.76,6.76,0,0,1-1,.81,5.8,5.8,0,0,1-1.42.68,4.91,4.91,0,0,1-.63.17Z"/><path class="i" d="M165.23,158.48a.29.29,0,0,0,.28.29h0a.28.28,0,0,0,.3-.27c.06-1.05.12-2.13.19-3.2l0-.57c.23-3.52.52-7,.74-9.41,0-.2,0-.39,0-.57.05-.54.1-1,.13-1.42l-.57-.09c0,.4-.08.88-.13,1.42l-.06.57c-.21,2.42-.5,5.85-.73,9.34,0,.19,0,.39,0,.58C165.35,156.27,165.29,157.39,165.23,158.48Z"/><path class="i" d="M164.4,154.76a6.3,6.3,0,0,0,1,.39,5.47,5.47,0,0,0,.58.15,4.86,4.86,0,0,0,.55.07,2,2,0,0,0,1-.15,1.2,1.2,0,0,0,.67-.89c.21-1.09.65-5.57.95-8.74l.06-.57c0-.51.09-1,.12-1.36l-.58-.07c0,.39-.08.86-.12,1.37l-.06.57c-.3,3.17-.74,7.64-.94,8.69a.63.63,0,0,1-.36.49,2,2,0,0,1-1.22,0,4.91,4.91,0,0,1-.58-.16,7.77,7.77,0,0,1-.8-.31.3.3,0,0,0-.39.13.28.28,0,0,0,.13.37Z"/><path class="j" d="M180.8,182c.89-8.2,1.93-19.18,2.52-25.54,0-.2,0-.39.05-.58.26-2.81.42-4.58.42-4.58-1.39-.58-3.92-.18-6.6.58l-.58.17a82,82,0,0,0-9.83,3.84V182Z"/><path class="i" d="M179.43,182c.77-9.12,1.69-22.3,1.7-22.47a.29.29,0,0,0-.26-.32.31.31,0,0,0-.32.27h0c0,.17-.93,13.4-1.71,22.51Z"/><path class="i" d="M175,147.74a15.25,15.25,0,0,0,1.6,4.28,9.47,9.47,0,0,0,3,3.32,6.79,6.79,0,0,0,3.71,1.09l.06-.58a6.23,6.23,0,0,1-3.46-1,8.7,8.7,0,0,1-2.72-3,14.82,14.82,0,0,1-1.62-4.22.29.29,0,1,0-.57.11Z"/><path class="q" d="M151.68,145.59c6.28,5.86,21.12,9,32.55,3.4,1.26-3.43,2.64-15.66,3-19.32q.1-1.09.18-2.19a93.86,93.86,0,0,0,0-10.74c0-.2,0-.4,0-.61-.15-3-.38-6.19-.59-9.54-.42-6.63-2.63-10.72-6.47-11.33A15.45,15.45,0,0,1,176.1,94l-.36-.18a12.15,12.15,0,0,1-2-1.2h-8.57a6.57,6.57,0,0,1-2.67,2.23l-.34.15c-3,1.32-6.59,1.06-7.32,4.73-.46,2.3,1.3,7,1.12,16.66,0,.7,0,1.43-.08,2.19s-.08,1.45-.13,2.21-.12,1.43-.19,2.18-.14,1.33-.22,2-.19,1.43-.29,2.17C154.53,131.14,153,140.45,151.68,145.59Z"/><path class="r" d="M181.07,147.59H181a.27.27,0,0,1-.18-.32h0c4.77-17.47,3.81-35.22,3.8-35.39a.26.26,0,0,1,.24-.28.26.26,0,0,1,.27.25h0c0,.17,1,18-3.81,35.55A.25.25,0,0,1,181.07,147.59Z"/><path class="r" d="M155.23,124.91a.27.27,0,0,0,.27-.25c.57-5,.58-15.1.58-15.2a.28.28,0,0,0-.28-.27.27.27,0,0,0-.27.27c0,.1,0,10.12-.58,15.14a.29.29,0,0,0,.25.31Z"/><path class="r" d="M167,143.93a.64.64,0,1,0,1.28-.11.64.64,0,1,0-1.28.11Z"/><path class="r" d="M166.87,147.06a.65.65,0,1,0,.59-.7A.66.66,0,0,0,166.87,147.06Z"/><path class="r" d="M159.32,112.65c-1.68-2-1-6.3-1-6.49a.27.27,0,0,1,.27-.23h5.71a.27.27,0,0,1,.27.23c0,.19.66,4.54-1,6.49a2.82,2.82,0,0,1-4,.21,2.08,2.08,0,0,1-.21-.21Zm-.51-6.17c-.1.92-.38,4.29.93,5.81a2.28,2.28,0,0,0,3.22.15l.15-.15c1.31-1.52,1-4.89.93-5.81Z"/><path class="j" d="M174.57,71.45c-1.6-1-6.63-1.55-6.63-1.55a7.64,7.64,0,0,0-1.76-2.8c-2.12-1.41-2.39,1.45-2.39,1.45s-2.07-2.9-3.93-2.07.51,3.52.51,3.52-2.8-.51-2.48,1.87,3,3.42,3,3.42a5.22,5.22,0,0,0-.41,3.52c.41,2.17,1.34,2.28,1.34,2.28l11.61,1s2.38,0,3-3A3.87,3.87,0,0,0,175,74.87S176.33,72.59,174.57,71.45Z"/><path class="o" d="M165.09,91.14v2.18a5.91,5.91,0,0,0,.77.54c3.79,2.27,7.87-.54,7.87-.54V85.76l-7.61,4.74Z"/><path class="j" d="M165.09,91.08v2.24a5.91,5.91,0,0,0,.77.54,14.59,14.59,0,0,0,5.57-4.66l-5.31,1.3Z"/><path class="s" d="M173.71,91.11A4.31,4.31,0,0,1,177,94.45c-2.49,2.59-4.68,4.85-8.23,5.5V94.74A9.21,9.21,0,0,0,173.71,91.11Z"/><path class="s" d="M165,91.86a4.69,4.69,0,0,0-3.16,3.4c2.29,2.79,3.52,3.84,6.88,4.69V94.74S166.86,94.71,165,91.86Z"/><path class="j" d="M163.73,132.39,165.2,136h0l.66,1.6,1.88,4.53.9-1.75.32-.62.72-1.4.32-.61.73-1.4.32-.62.72-1.4h0l.32-.62.69-1.31,0-.15-.1-1-.25-2.36-.1-1.05-.24-2.36-.11-1-.24-2.36-.11-1-.24-2.36-.1-1-.24-2.36-.11-1-.24-2.36-.11-1-.24-2.36-.1-1-.25-2.37-.1-1-.25-2.45-1.81-.07,0,.41-.11.83-.25,1.87-.11.83-.24,1.88L167,108l-.25,1.87-.11.83-.25,1.88-.1.83L166,115.3l-.11.83-.25,1.88-.11.83-.24,1.87-.11.83-.25,1.88-.11.83-.25,1.88-.11.82-.24,1.88-.11.83-.25,1.88-.11.83Z"/><path class="i" d="M167.66,102.6l2.32,2.33-.1-1.05-2.11-2.11Z"/><path class="i" d="M167.3,105.31l3,3-.11-1-2.81-2.81Z"/><path class="i" d="M166.94,108l3.74,3.74-.11-1-3.52-3.52Z"/><path class="i" d="M166.59,110.72l4.44,4.43-.11-1-4.22-4.22Z"/><path class="i" d="M166.23,113.42l5.14,5.14-.1-1-4.93-4.93Z"/><path class="i" d="M165.87,116.13l5.85,5.85-.11-1L166,115.3Z"/><path class="i" d="M165.52,118.83l6.55,6.55-.11-1L165.63,118Z"/><path class="i" d="M165.16,121.54l7.25,7.25-.1-1-7-7Z"/><path class="i" d="M164.8,124.24l8,8-.11-1-7.74-7.74Z"/><path class="i" d="M164.45,127l7.32,7.33.33-.62-7.54-7.54Z"/><path class="i" d="M164.09,129.66l6.64,6.64.32-.62-6.85-6.85Z"/><path class="i" d="M163.73,132.36l6,5.95.32-.62-6.16-6.16Z"/><path class="i" d="M165.2,136l.66,1.6,2.78,2.77.32-.62Z"/><path class="i" d="M169.63,101.44l-.9,1.34-.91-1.41-.15,1.2,1.05,1.07,1-1.27Z"/><path class="j" d="M171.14,99.19l-2.41,3.58-2.31-3.58,2.31-3Z"/><path class="r" d="M172.54,101.64a.27.27,0,0,0,.17-.06c2.39-1.9,4.42-6.82,4.51-7a.28.28,0,1,0-.51-.21h0S174.77,99,172.59,101L169,96a.28.28,0,0,0-.23-.11.27.27,0,0,0-.22.12l-3.39,4.81c-.51-.93-1.87-3.42-3-5.71a.27.27,0,0,0-.36-.14.29.29,0,0,0-.14.37h0c1.44,2.9,3.23,6.09,3.25,6.12a.27.27,0,0,0,.37.11.24.24,0,0,0,.09-.08l3.42-4.86,3.58,4.86a.29.29,0,0,0,.19.11Z"/><path class="r" d="M168.74,96.47a.27.27,0,0,0,.27-.27h0V95a.28.28,0,0,0-.55,0h0V96.2a.27.27,0,0,0,.27.27Z"/><path class="p" d="M162.36,81.48s-1.23-1.46-1.93,0-.16,4.42,1.72,3.94Z"/><path class="o" d="M161,86.61a4.46,4.46,0,0,0,4.69,4.5c4.65,0,7.83-3.67,8-3.84h0l.05-.94.27-4.92.14-2.63s.59-4.73-3.9-5.59c-3.29-.63-6.37-.09-7.93,1.63-.05,0-.09.11-.14.17a4,4,0,0,0-.88,2.2l-.15,4.72,0,1.16Z"/><path class="j" d="M162.22,74.8c.75-.26,1.3,0,2.47.5,1.7.74,3.59.07,5.27-.78s2.68.33,2.1,1.11-.5,1.42.13,2.41S171,79.5,172,80.29a1,1,0,0,1,.23,1.28.69.69,0,0,0,.41.88.78.78,0,0,0,.37,0h0c.54-.14,1.31-1.11,1.31-1.11l.15-2.68s.61-4.85-4-5.73c-3.36-.65-6.51-.09-8.1,1.67Z"/><path class="j" d="M172.26,85.44a4.06,4.06,0,0,0,1.46,1.83h0l.05-.94A3.2,3.2,0,0,1,172.26,85.44Z"/><path class="o" d="M173.08,82.31s1.8-2.42,3.13-.52c1.08,1.57-1,5.65-3.13,4.25Z"/><path class="j" d="M173.33,85.32a.18.18,0,0,0,.18-.17,3.13,3.13,0,0,1,1.8-2.5.19.19,0,0,0,.11-.24.19.19,0,0,0-.24-.1,3.5,3.5,0,0,0-2,2.8.2.2,0,0,0,.17.21h0Z"/><path class="j" d="M175.06,84.19a.19.19,0,0,0,.19-.18.21.21,0,0,0-.07-.15,1.82,1.82,0,0,0-1.3-.44.18.18,0,0,0-.14.22.18.18,0,0,0,.22.14h0c.32-.08.81.24,1,.37A.19.19,0,0,0,175.06,84.19Z"/><path class="o" d="M210,99.65s2.5,2.53,5,1.54c2-.79,2.42-3.56,2.52-4.59a3.73,3.73,0,0,0,0-.4,3.53,3.53,0,0,0,.32-.21c.44-.32,1.16-1,1.08-1.74-.11-1.08-2.08-.48-2.08-.48s.3-1.31-.29-1.7-1.75.3-1.75.3.64-1.61-.23-2c-1.31-.58-1.75,1.39-1.8,1.52,0-.14.63-6.21-.41-5.89s-1.74,5.34-2,6.71c0,.22-.05.35-.05.35h-.19c-.59,0-2.31.17-2.62,1.37C207.2,95.88,210,99.65,210,99.65Z"/><path class="p" d="M215.15,95.37a2.14,2.14,0,0,0-.21,1.34.65.65,0,0,0,.42.47,1.28,1.28,0,0,0,.55,0,6.52,6.52,0,0,0,1.62-.58,3.73,3.73,0,0,0,0-.4,3.53,3.53,0,0,0,.32-.21.2.2,0,0,0-.11,0,5,5,0,0,1-2.28.78.22.22,0,0,1-.16-.19,2.47,2.47,0,0,1,.61-1.74.21.21,0,0,0,0-.29.21.21,0,0,0-.24,0c-.41.3-1.59,1-2.18.85-.09,0-.1-.07-.1-.09a.6.6,0,0,1,.09-.41,4.57,4.57,0,0,1,.72-1.07.21.21,0,0,0,0-.29.2.2,0,0,0-.29,0,5.54,5.54,0,0,0-.73,1.06,1.55,1.55,0,0,0-.18.51.93.93,0,0,0,0,.29.56.56,0,0,0,.38.37A2.6,2.6,0,0,0,215.15,95.37Z"/><path class="p" d="M212,93.65a.2.2,0,0,1,.15.17,1.28,1.28,0,0,0,.18.64.24.24,0,0,0,.21.12.79.79,0,0,0,.33-.13,6,6,0,0,0,1.1-.91.17.17,0,0,1-.05.12,4.57,4.57,0,0,0-.72,1.07l-.13.07a1.22,1.22,0,0,1-.37.16l-.14,0a.67.67,0,0,1-.56-.29,1.73,1.73,0,0,1-.26-.85.19.19,0,0,1,.18-.21Z"/><path class="p" d="M209.09,95.94a6.76,6.76,0,0,0,1.62,0,2.34,2.34,0,0,0,1.13-.46,1,1,0,0,0,.36-.77c0-1.08-1.09-1.69-1.76-2l-.05.34h-.19c.56.21,1.61.72,1.59,1.6a.6.6,0,0,1-.22.47,4,4,0,0,1-2.44.4.21.21,0,0,0-.2.21.2.2,0,0,0,.16.2Z"/><path class="p" d="M213.48,99.85a.21.21,0,0,0,.17-.24.23.23,0,0,0-.13-.16,1.82,1.82,0,0,1-1.14-1.06,4.52,4.52,0,0,1,.43-3,.21.21,0,0,0-.06-.29.2.2,0,0,0-.28.06.05.05,0,0,0,0,0,4.82,4.82,0,0,0-.45,3.37,2.24,2.24,0,0,0,1.38,1.31Z"/><path class="q" d="M183.11,96.71l4.26,3.71c.69.64,1.37,1.27,2.06,1.89l2,1.88c.69.62,1.37,1.23,2.06,1.83s1.37,1.19,2.05,1.76,1.35,1.11,2,1.58c.31.24.62.45.86.61l.17.11.07,0,0,0,.05.06s0,0,.05.07a.26.26,0,0,0,.21,0,3.25,3.25,0,0,0,1.2-.46,10.18,10.18,0,0,0,1.64-1.23,20.61,20.61,0,0,0,1.68-1.69,40.48,40.48,0,0,0,3.18-4.1c1-1.46,1.73-2.59,2.65-4.14a6.84,6.84,0,0,0,6.22,2.37,54.7,54.7,0,0,1-2.41,5.55A42.57,42.57,0,0,1,210,112a27.14,27.14,0,0,1-2.06,2.61,19.15,19.15,0,0,1-2.67,2.5,13.29,13.29,0,0,1-1.74,1.13,11.33,11.33,0,0,1-2.16.9,10.08,10.08,0,0,1-2.61.41,9.51,9.51,0,0,1-2.76-.35,9.23,9.23,0,0,1-1.28-.45l-.3-.14-.24-.12-.24-.12-.22-.12c-.58-.31-1.07-.61-1.55-.91-.94-.6-1.78-1.19-2.61-1.79s-1.61-1.21-2.39-1.82-1.55-1.23-2.3-1.85-1.51-1.25-2.25-1.88l-2.19-1.92c-.72-.64-1.44-1.29-2.15-2l-1.07-1-.53-.51c-.18-.16-.35-.33-.53-.51Z"/><path class="r" d="M187.18,114.22a.3.3,0,0,1-.15,0c-2.81-2-7.82-6.13-7.87-6.17a.26.26,0,1,1,.33-.39h0s5,4.18,7.84,6.14a.27.27,0,0,1,.06.36.29.29,0,0,1-.21.11Z"/><path class="r" d="M181.35,109.72h0l-2-.29a.26.26,0,0,1-.21-.3.27.27,0,0,1,.28-.21l2,.29a.26.26,0,0,1,0,.51Z"/><path class="r" d="M214.19,104.26a.27.27,0,0,0,.11-.36.26.26,0,0,0-.29-.13c-3.73.81-5.6-2.75-5.61-2.79a.27.27,0,0,0-.36-.11h0a.25.25,0,0,0-.11.35s2.07,4,6.19,3.06Z"/><path class="r" d="M212.27,104.33a.3.3,0,0,0,.12-.13l1.23-2.88a.26.26,0,0,0-.14-.34.26.26,0,0,0-.34.14h0L211.91,104a.26.26,0,0,0,.14.35.28.28,0,0,0,.22,0Z"/><path class="r" d="M210.07,101.56a.44.44,0,0,0,.61.19.45.45,0,0,0-.42-.8.46.46,0,0,0-.2.61Z"/><path class="r" d="M198.21,113.5a.3.3,0,0,0,.14-.19,10.85,10.85,0,0,1,.76-2.61.26.26,0,0,0-.11-.35.27.27,0,0,0-.36.11,11.65,11.65,0,0,0-.81,2.76.26.26,0,0,0,.22.31.3.3,0,0,0,.16,0Z"/><path class="r" d="M199.91,112.91l.05,0a.27.27,0,0,0,0-.37h0a4.8,4.8,0,0,1-.91-1.75.26.26,0,0,0-.52.1h0a5.09,5.09,0,0,0,1,2A.25.25,0,0,0,199.91,112.91Z"/></g><ellipse class="g" cx="55.88" cy="225.36" rx="55.88" ry="3.4"/><path class="o" d="M48.41,124.58l6,22-2.15-2.48a10.6,10.6,0,0,0,2.73,1,20.43,20.43,0,0,0,3.29.42c1.16.06,2.38.05,3.61,0s2.51-.14,3.79-.25h0a3.44,3.44,0,0,1,.83,6.83c-1.32.21-2.67.41-4,.57s-2.8.28-4.27.31a27.71,27.71,0,0,1-4.55-.25,18.92,18.92,0,0,1-4.79-1.32,3.77,3.77,0,0,1-2.07-2.25l-.07-.23-7.23-21.66a4.65,4.65,0,0,1,8.82-2.94C48.36,124.41,48.39,124.5,48.41,124.58Z"/><path class="r" d="M50.73,204.43a.86.86,0,0,1-.27-.05L18.9,193a.79.79,0,0,1,.54-1.49L51,202.88a.8.8,0,0,1,.48,1,.79.79,0,0,1-.75.53Z"/><path class="r" d="M17.86,204.43a.79.79,0,0,1-.79-.8.81.81,0,0,1,.52-.75l31.93-11.56a.8.8,0,0,1,.55,1.5L18.14,204.38A.87.87,0,0,1,17.86,204.43Z"/><path class="s" d="M53.54,224.76a1.36,1.36,0,0,1-1.35-1.18L46.49,181H22.64L17,223.58a1.37,1.37,0,0,1-2.71-.34v0l5.76-43.74a1.36,1.36,0,0,1,1.35-1.18H47.68A1.36,1.36,0,0,1,49,179.48l5.86,43.74a1.36,1.36,0,0,1-1.17,1.53Z"/><path class="s" d="M40.08,179.66H23c-5.4,0-11.18-2.95-12-8.29A101.46,101.46,0,0,1,10,151a24.82,24.82,0,0,1,9.41-18.28h0s3.4,14.83-.88,35.3C20.13,175.79,40.08,179.66,40.08,179.66Z"/><path class="j" d="M36.53,92.66a6.8,6.8,0,0,0-7.39-4C25.4,89.34,23.8,94,24,101.22c.32,10.49-3.23,16.82-3.23,16.82l4.71,1.07S37.49,101.12,36.53,92.66Z"/><path class="j" d="M79.5,206.52H71.89s-1.76-8.44-2.35-13.18-.9-16-.9-16-6.06,2-18.76,1.23C21.75,177,32.42,156.29,32.42,156.29c.95,1.31,6.77.4,10.75,1,12.21,1.17,22.81,6,29.16,8.71a30.29,30.29,0,0,1,4.09,2.09c1.53.95,2.49,3.81,3.06,7.58C81.22,187,79.5,206.52,79.5,206.52Z"/><path class="i" d="M72.84,202.45a.28.28,0,0,1-.27-.21,131.74,131.74,0,0,1-1.76-17.64c-.25-4.51-.48-8.76-1.06-9.27s-2.41-.09-4.88.31c-4.9.82-12.31,2.05-20.48.15-4.45-1-7.73-3.2-9.73-6.43-3.45-5.57-1.88-12.47-1.86-12.54a.28.28,0,0,1,.34-.19.29.29,0,0,1,.19.32c0,.06-1.54,6.75,1.8,12.13,1.92,3.1,5.08,5.17,9.38,6.18,8.07,1.87,15.41.65,20.27-.15,2.91-.49,4.67-.78,5.33-.19s.92,3.74,1.24,9.65a131.89,131.89,0,0,0,1.76,17.56.28.28,0,0,1-.22.32Z"/><path class="i" d="M79.65,202.6h0l-8.46-.18a.28.28,0,0,1-.27-.28h0a.28.28,0,0,1,.28-.27h0l8.47.18a.28.28,0,0,1,.26.29A.29.29,0,0,1,79.65,202.6Z"/><path class="o" d="M79.3,216.28H73.92l-1-6.31-.57-3.45H79l.1,3.45Z"/><path class="s" d="M79.3,216.28H73.92l-.77-4.7L72.89,210H79.1l.05,1.67Z"/><path class="r" d="M79.15,211.64l-6-.06L72.89,210H79.1Z"/><path class="t" d="M92.55,224.76H72.23a2.92,2.92,0,0,1-.26-1.13,32.69,32.69,0,0,1,.69-6.19c0-.2.06-.39.08-.56s.05-.47.06-.71A1,1,0,0,1,74.05,215c2,2,4.38-1,5.74,0l.18.14.53.43c.35.29.83.71,1.49,1.3,1.61,1.45,4.36,2.41,6.69,3.39.3.12.58.24.83.37s.38.19.55.28c1.91,1,2.52,2,2.66,2.73A1.53,1.53,0,0,1,92.55,224.76Z"/><path class="u" d="M90.06,220.9a5.11,5.11,0,0,1-2.62,1.25h-.12a26.1,26.1,0,0,1-5-2.33c-1.13-.62-2.16-1.23-2.9-1.72-1.22-.8-1.43-1.11-1.48-1.32-.18-.8,1.15-1.36,2.08-1.65l.53.43c-1.16.31-2.1.81-2.06,1.09s1.32,1.15,4.19,2.73a26.38,26.38,0,0,0,4.74,2.21,4,4,0,0,0,2.14-1C89.71,220.71,89.89,220.81,90.06,220.9Z"/><path class="u" d="M92.55,224.76H72.23a2.92,2.92,0,0,1-.26-1.13H92.72A1.53,1.53,0,0,1,92.55,224.76Z"/><path class="u" d="M74.31,224.76H73.7a4.44,4.44,0,0,0,1.1-3.25,5.76,5.76,0,0,0-2.15-4.07c0-.2.06-.39.09-.56a6.25,6.25,0,0,1,2.54,4.6A5,5,0,0,1,74.31,224.76Z"/><path class="h" d="M81.65,218.06a.33.33,0,0,1-.33-.34.33.33,0,0,1,.25-.32l1.26-.32a.34.34,0,0,1,.41.25.33.33,0,0,1-.24.4l-1.27.32Z"/><path class="h" d="M80.38,217a.34.34,0,0,1-.33-.34.34.34,0,0,1,.25-.32l1.27-.31a.33.33,0,0,1,.41.24.35.35,0,0,1-.25.41l-1.26.31Z"/><path class="h" d="M82.91,218.8a.34.34,0,0,1-.32-.35.33.33,0,0,1,.24-.31l1.27-.32a.35.35,0,0,1,.41.25.33.33,0,0,1-.24.4l-1.27.32Z"/><path class="h" d="M84.18,219.51a.34.34,0,0,1-.32-.35.32.32,0,0,1,.24-.31l1.27-.32a.35.35,0,0,1,.41.25.33.33,0,0,1-.25.4l-1.26.32Z"/><path class="h" d="M85.57,220.16a.34.34,0,0,1-.08-.66l1.27-.31a.32.32,0,0,1,.4.24.33.33,0,0,1-.24.41h0l-1.27.31Z"/><path class="h" d="M87.07,220.72a.34.34,0,0,1-.08-.66l1.27-.31a.32.32,0,0,1,.4.24.33.33,0,0,1-.24.41l-1.27.31Z"/><path class="u" d="M18.33,149.73s-.24,1.65,2,2.11l22.92.76a2.59,2.59,0,0,0,1.27-2.7S34.8,144.47,18.33,149.73Z"/><path class="o" d="M43.52,157.32c-11.9,6.54-24.89,1.27-24.89,1.27a35.54,35.54,0,0,0,1.45-5.47c.4-2.07.62-3.89.72-4.85,5.06-.28,17.47-.81,22.33.34l0,1.95Z"/><path class="v" d="M34.73,154.18c-.08.61-.36,1.08-.61,1s-.39-.56-.3-1.17.36-1.09.61-1.05S34.82,153.56,34.73,154.18Z"/><path class="v" d="M43.17,150.56c-5.07-.31-15-.42-23.09,2.56.4-2.07.62-3.9.72-4.86,5.06-.27,17.47-.8,22.33.35Z"/><path class="t" d="M48.82,141.15a2.09,2.09,0,0,1-.17.41.64.64,0,0,1-.08.14,11.32,11.32,0,0,1-2.44,2.94l-.49.41c-.31.25-.57.44-.75.57l-.26.18v0c0,.09,0,.18,0,.28,0,.37-.06.82-.07,1.33s0,.86,0,1.34,0,.73,0,1.12c-6.72-3-20.57-1.11-26.15-.17.1-.48.19-.95.28-1.41a42.93,42.93,0,0,0,.7-5.76,59.89,59.89,0,0,0-.63-10.36c0-.25-.07-.51-.11-.77s-.05-.33-.07-.5c-.19-1.24-.42-2.49-.67-3.7-1.1-5.28-.33-10.82,5-11.47l1.15-.13c2.52-.27,4.59-.36,5.17-.38h.16l10.34,3,1,.28,1.57.53.6.22c.5.19,1,.37,1.36.55a11.51,11.51,0,0,1,2,1.1c2.27,1.61,1.91,3.43,1.86,7v0a.71.71,0,0,1,0,.14v.5c0,.46,0,.93.05,1.39q.06,1,.18,2c0,.27,0,.53.09.79l.09.73C48.87,136.71,49.38,139.47,48.82,141.15Z"/><path class="u" d="M48.05,128v.64L45.88,130a.31.31,0,0,1-.42-.09.3.3,0,0,1,.1-.42h0l2.3-1.45A.33.33,0,0,1,48.05,128Z"/><path class="u" d="M33.72,139.64a.31.31,0,0,1-.3-.3.33.33,0,0,1,.1-.23l2-1.82a.31.31,0,0,1,.43,0,.3.3,0,0,1,0,.42l-2,1.82A.32.32,0,0,1,33.72,139.64Z"/><path class="u" d="M48.46,133.56l-1.39,1.25a.3.3,0,1,1-.41-.45l1.7-1.53C48.39,133.08,48.42,133.32,48.46,133.56Z"/><path class="u" d="M29.62,132.32a.3.3,0,0,1,.08-.42.3.3,0,0,1,.24-.05l2.65.63a.29.29,0,0,1,.21.37.3.3,0,0,1-.35.22l-2.65-.63A.31.31,0,0,1,29.62,132.32Z"/><path class="u" d="M20.18,137.52a.31.31,0,0,1-.31-.31A.3.3,0,0,1,20,137l2-1.82a.31.31,0,0,1,.43,0,.3.3,0,0,1,0,.43h0l-2,1.82A.32.32,0,0,1,20.18,137.52Z"/><path class="u" d="M43.71,137.08a.31.31,0,0,1,.39-.19.33.33,0,0,1,.18.17l1.08,2.49a.3.3,0,1,1-.55.24l-1.09-2.49A.33.33,0,0,1,43.71,137.08Z"/><path class="u" d="M48.82,141.15a2.09,2.09,0,0,1-.17.41.64.64,0,0,1-.08.14l-1.47-.46a.3.3,0,0,1,.18-.58h0Z"/><path class="u" d="M40.47,141.36a.32.32,0,0,1,.34.27.3.3,0,0,1-.08.24l-1.83,2a.3.3,0,0,1-.43,0,.31.31,0,0,1,0-.43h0l1.83-2A.35.35,0,0,1,40.47,141.36Z"/><path class="u" d="M39.4,136.72a.3.3,0,0,1-.25-.35.28.28,0,0,1,.14-.21l2.3-1.44a.3.3,0,0,1,.42.11.3.3,0,0,1-.1.4l-2.3,1.45A.31.31,0,0,1,39.4,136.72Z"/><path class="u" d="M40.86,128a.31.31,0,0,1,0,.43.34.34,0,0,1-.24.07l-2.7-.29a.3.3,0,0,1-.27-.34.32.32,0,0,1,.34-.27l2.7.3A.3.3,0,0,1,40.86,128Z"/><path class="u" d="M36.93,122.09a.31.31,0,0,1,.37-.22.29.29,0,0,1,.19.15l1.29,2.4a.3.3,0,1,1-.53.28h0L37,122.31A.29.29,0,0,1,36.93,122.09Z"/><path class="u" d="M46.13,144.64l-.49.41-.36-.9a.28.28,0,0,1,0-.22.3.3,0,0,1,.39-.18.29.29,0,0,1,.17.17Z"/><path class="u" d="M21.26,140a.3.3,0,0,1,.12-.41.31.31,0,0,1,.25,0l2.56.92a.31.31,0,0,1-.19.58h0l-2.56-.92A.25.25,0,0,1,21.26,140Z"/><path class="u" d="M22.51,143.49a.3.3,0,0,1,.3.31.32.32,0,0,1-.1.22l-2,1.8a.3.3,0,0,1-.4-.45l2-1.8A.3.3,0,0,1,22.51,143.49Z"/><path class="u" d="M26.2,146.35a.3.3,0,0,1-.05.43.31.31,0,0,1-.23.06l-2.69-.46A.3.3,0,0,1,23,146a.31.31,0,0,1,.35-.25l2.68.46A.27.27,0,0,1,26.2,146.35Z"/><path class="u" d="M28.45,120.88a.3.3,0,0,1,.21-.37.29.29,0,0,1,.24,0L31.19,122a.3.3,0,0,1-.33.51l-2.29-1.47A.29.29,0,0,1,28.45,120.88Z"/><path class="u" d="M44,122.62a.32.32,0,0,1,.42.12.31.31,0,0,1,0,.25l-.91,2.56a.3.3,0,0,1-.38.19.31.31,0,0,1-.19-.39l.91-2.56A.39.39,0,0,1,44,122.62Z"/><path class="u" d="M42.82,119.28l-1.4,1.8a.3.3,0,0,1-.43,0,.3.3,0,0,1-.05-.41l1.28-1.65Z"/><path class="u" d="M29.08,144.16a.25.25,0,0,0,.19.17.29.29,0,0,0,.13,0,14.31,14.31,0,0,1,9.07.48,15.46,15.46,0,0,0,6.14,1.31,2.46,2.46,0,0,1,0-.28v0l.26-.18a14.71,14.71,0,0,1-6.23-1.28,14.5,14.5,0,0,0-9.42-.49A.25.25,0,0,0,29.08,144.16Z"/><path class="u" d="M39.67,118.25c-.58.89-1.78,1.91-4.2,1.74-3.34-.25-5.53-3.43-6.3-4.74h.16Z"/><path class="h" d="M36.12,124.16l.29,0a2.59,2.59,0,0,0,2.23-.8c1.6-1.75.94-5.75.91-5.92a.23.23,0,0,0-.28-.2.25.25,0,0,0-.21.28s.65,3.93-.79,5.51a2.09,2.09,0,0,1-1.82.63c-3.23-.26-6.86-8.48-6.9-8.56a.25.25,0,0,0-.32-.13.25.25,0,0,0-.13.33C29.25,115.68,32.69,123.46,36.12,124.16Z"/><path class="o" d="M46.2,120.93a18,18,0,0,0,1.9,9.1c0-.61-.05-1.22-.05-1.83v-.06a1.15,1.15,0,0,1,0-.19C48.11,124.36,48.46,122.54,46.2,120.93Z"/><path class="o" d="M27.17,125.1c-1.19,4.58-5.52,8.25-8.49,7.11,0-.26-.07-.52-.11-.78s-.05-.33-.08-.5c-.19-1.24-.41-2.49-.66-3.7-1.1-5.27-.33-10.81,5-11.47l1.15-.13C26.67,116.77,28.54,119.83,27.17,125.1Z"/><path class="o" d="M27.78,121.61,34.73,147l-2.47-2.86a12.61,12.61,0,0,0,3.15,1.13,22.07,22.07,0,0,0,3.8.48c1.34.07,2.74.06,4.17,0s2.89-.16,4.37-.29h0a4,4,0,0,1,1,7.88c-1.53.25-3.09.48-4.68.66a48.63,48.63,0,0,1-4.92.36,30.83,30.83,0,0,1-5.26-.29,21.54,21.54,0,0,1-5.52-1.52A4.33,4.33,0,0,1,26,150l-.09-.27-8.34-25a5.36,5.36,0,0,1,10.18-3.39C27.73,121.42,27.76,121.52,27.78,121.61Z"/><path class="v" d="M30.89,146.21a.2.2,0,0,1-.2-.2.22.22,0,0,1,.1-.18,8.66,8.66,0,0,1,3.18-1,.21.21,0,0,1,.22.19.2.2,0,0,1-.19.22,8.39,8.39,0,0,0-3,1A.15.15,0,0,1,30.89,146.21Z"/><path class="v" d="M33.42,145.3a.2.2,0,0,1-.11,0,5.32,5.32,0,0,0-2.13-.67.21.21,0,0,1-.19-.22.22.22,0,0,1,.22-.2,5.89,5.89,0,0,1,2.32.73.23.23,0,0,1,.07.29.22.22,0,0,1-.18.1Z"/><path class="u" d="M39.62,131.9c3.08.62,4.42-2.56,4.43-2.59a.24.24,0,1,0-.45-.19c-.05.12-1.21,2.84-3.88,2.29s-8-6.08-8.09-6.13a.24.24,0,0,0-.35,0,.25.25,0,0,0,0,.35C31.49,125.85,36.66,131.3,39.62,131.9Z"/><path class="j" d="M34.78,111.88A8.61,8.61,0,0,1,28.45,106c-1.32-4.75-.3-7.21,1.08-9.77a8.3,8.3,0,0,1,8.94-3.6c4.67.94,8.15,3.34,8.67,7.17C48.1,106.94,42.31,115.69,34.78,111.88Z"/><path class="s" d="M28.69,106.74a.28.28,0,0,1-.23-.13A11.25,11.25,0,0,1,28,97.8a8,8,0,0,1,4.79-5.06,8.94,8.94,0,0,1,3.23-.6.27.27,0,0,1,.24.28.26.26,0,0,1-.26.24h0a8.33,8.33,0,0,0-3,.57A7.47,7.47,0,0,0,28.51,98a10.84,10.84,0,0,0,.4,8.38.25.25,0,0,1-.1.35A.25.25,0,0,1,28.69,106.74Z"/><path class="v" d="M44.36,106.82s1.6-1.27,2,.41-.77,4.66-2.64,3.76Z"/><path class="s" d="M42.79,109.9a2.54,2.54,0,0,0-1.68,1.85A2.42,2.42,0,1,0,44,109.86h0a.42.42,0,0,0,.07.4,1.89,1.89,0,0,1,.71.35,2,2,0,0,1-2.47,3.25,2.06,2.06,0,0,1-.77-2A2,2,0,0,1,43,110.27Z"/><path class="o" d="M39.49,114l-.67,4.21s-3.15,3.21-8.9-2.55c1.54-1.15,2.13-3.82,1.95-5.54A8.45,8.45,0,0,1,33,111a3.91,3.91,0,0,0,.49.34A14.88,14.88,0,0,0,39.49,114Z"/><path class="j" d="M39.49,114l-.32,2c-1.72-.77-4.78-2.41-6.15-5l.48.34A15,15,0,0,0,39.49,114Z"/><path class="o" d="M45.91,105.8c-.09.45-.17.87-.26,1.28s-.17.84-.26,1.23c-.63,2.91-1.16,4.47-2,5-4.29,3-11.28-3-11.5-3.21h0q0-.51,0-1a26.1,26.1,0,0,1,1.3-7.73,5.93,5.93,0,0,1,4.94-5c2.66-.4,4.66,1.14,5.91,1.82C45.91,99.23,46.65,102.09,45.91,105.8Z"/><path class="j" d="M33.32,98.75s3-5.78,9-4.16,6.31,4.39,6.42,5.79-3.11-1.08-3.11-1.08-.11,2.79-1.18,1.93a17.46,17.46,0,0,1-2.78-3.32s-3.57,3.51-7,2.56C32.78,99.93,33.32,98.75,33.32,98.75Z"/><path class="h" d="M48.14,106.72l-2.33-.4a1.59,1.59,0,0,1-.06.3.08.08,0,0,1,0,0l2.36.4a.17.17,0,1,0,.06-.34Z"/><path class="h" d="M41.91,104.73a2.17,2.17,0,0,0,0-.36,2.93,2.93,0,0,0-.79-1.67,2.87,2.87,0,0,0-1.5-.85h0a2.94,2.94,0,0,0-3.27,1.66,3.05,3.05,0,0,0-.13.32,2.81,2.81,0,0,0-.08.31,2.94,2.94,0,0,0,5.76,1.19h0A2.86,2.86,0,0,0,41.91,104.73Zm-3.46,2.53h0a2.59,2.59,0,0,1-2-3.09c0-.12.06-.23.1-.35v0a2.61,2.61,0,0,1,2.27-1.66,2.59,2.59,0,1,1-.37,5.13Z"/><path class="h" d="M47.14,103.52l-.24-.11-.31-.11-.22,0a2.7,2.7,0,0,0-.41-.06,4,4,0,0,0-.49,0,3,3,0,0,0-2.26,1.48,2.6,2.6,0,0,0-.16.34v0a4.58,4.58,0,0,0-.15.49A3,3,0,0,0,44,108.46a3.06,3.06,0,0,0,1,.49l.17,0,.08,0a3,3,0,0,0,.84,0l.13,0a2.29,2.29,0,0,0,.36-.07,2.94,2.94,0,0,0,.63-5.45Zm1.17,3.13a1,1,0,0,1,0,.17,2,2,0,0,1-.07.23,2.61,2.61,0,0,1-1.06,1.28,2.7,2.7,0,0,1-.94.36h-.11a2.64,2.64,0,0,1-.84,0l-.08,0h-.05a2.66,2.66,0,0,1-1.08-.59l-.13-.12a2.57,2.57,0,0,1-.67-2.33,2.21,2.21,0,0,1,.18-.55,2.59,2.59,0,0,1,2.36-1.51H46l.34,0,.24.06a2,2,0,0,1,.31.12l.23.12a2.58,2.58,0,0,1,1.23,2.76Z"/><path class="h" d="M32.58,104l-.06,0a.17.17,0,0,1-.05-.24c1.17-1.83,4-.19,4-.17a.17.17,0,0,1,.07.24.19.19,0,0,1-.24.07h0s-2.55-1.48-3.54.06A.18.18,0,0,1,32.58,104Z"/><path class="h" d="M43.18,105.13a.15.15,0,0,1-.11-.08c-.38-.58-1.18-.32-1.19-.32a.16.16,0,0,1-.22-.09.17.17,0,0,1,.09-.23h0a1.41,1.41,0,0,1,1.59.46.18.18,0,0,1,0,.24.16.16,0,0,1-.13,0Z"/><path class="j" d="M33.8,108.54a4.44,4.44,0,0,1-1.92,1.61h0q0-.51,0-1A3.69,3.69,0,0,0,33.8,108.54Z"/><path class="o" d="M33.6,105.09s-1.38-2.92-3.16-1.21C29,105.29,30.25,110,32.81,109Z"/><path class="s" d="M30.22,107.6a2.57,2.57,0,0,0-1.69,1.85,2.42,2.42,0,1,0,2.86-1.89h0a.42.42,0,0,0,.07.4,2,2,0,1,1-2.53,1.57A2,2,0,0,1,30.41,108Z"/><path class="j" d="M32.7,108.18h0a.2.2,0,0,0,.22-.18,3.73,3.73,0,0,0-1.53-3.37.2.2,0,1,0-.22.34h0a3.27,3.27,0,0,1,1.35,3A.21.21,0,0,0,32.7,108.18Z"/><path class="j" d="M31.13,106.64a.2.2,0,0,0,.13,0,1.58,1.58,0,0,1,1.09-.18.2.2,0,0,0,.27-.09.22.22,0,0,0-.09-.27,2,2,0,0,0-1.46.19.2.2,0,0,0,.06.37Z"/><path class="j" d="M35.37,100.14a61.28,61.28,0,0,0-1.95,6c-.14,1.38-2-3.34-.13-7.38Z"/><path class="j" d="M66.25,206.55H58.64s-1.76-8.45-2.35-13.18-.9-16-.9-16-6.06,2-18.76,1.23C8.5,177,19.17,156.31,19.17,156.31c.95,1.32,8.08,3.13,12.06,3.75,12.21,1.18,21.49,3.25,27.85,6a31.55,31.55,0,0,1,4.09,2.1c1.53.94,2.49,3.81,3.06,7.58C68,187.06,66.25,206.55,66.25,206.55Z"/><path class="i" d="M59.59,202.48a.28.28,0,0,1-.27-.22,130,130,0,0,1-1.76-17.63c-.25-4.51-.48-8.77-1.06-9.28s-2.41-.09-4.88.32c-4.9.81-12.31,2.05-20.48.14-4.45-1-7.73-3.19-9.73-6.42-3.45-5.57-1.88-12.47-1.86-12.54a.27.27,0,0,1,.33-.19.28.28,0,0,1,.2.31c0,.07-1.54,6.76,1.8,12.13,1.92,3.1,5.08,5.18,9.38,6.18,8.07,1.88,15.41.66,20.27-.15,2.91-.48,4.67-.77,5.33-.19s.92,3.75,1.24,9.66a131.72,131.72,0,0,0,1.75,17.55.27.27,0,0,1-.21.32h0Z"/><path class="i" d="M66.4,202.62h0l-8.46-.18a.28.28,0,0,1-.27-.28h0a.28.28,0,0,1,.28-.26h0l8.47.18a.27.27,0,1,1,0,.54Z"/><path class="o" d="M66,216.3H60.67l-1-6.3-.57-3.45h6.68l.1,3.45Z"/><path class="s" d="M66,216.3H60.67l-.77-4.69L59.64,210h6.21l.05,1.67Z"/><path class="r" d="M65.9,211.67l-6-.06L59.64,210h6.21Z"/><path class="t" d="M79.3,224.79H59a3,3,0,0,1-.26-1.13,33.51,33.51,0,0,1,.68-6.19c0-.2.07-.39.09-.56s0-.47.06-.71A1,1,0,0,1,60.8,215c2.05,2,4.38-1,5.74,0l.18.13.53.43c.35.29.83.71,1.49,1.31,1.61,1.45,4.36,2.41,6.69,3.38l.83.37c.2.1.38.19.55.29,1.91,1,2.52,2,2.66,2.73A1.55,1.55,0,0,1,79.3,224.79Z"/><path class="u" d="M76.81,220.93a5.19,5.19,0,0,1-2.62,1.25h-.12a24.9,24.9,0,0,1-5-2.33c-1.13-.62-2.16-1.23-2.9-1.72-1.22-.8-1.43-1.1-1.48-1.32-.18-.8,1.15-1.36,2.08-1.65l.53.43c-1.15.32-2.11.81-2.06,1.09s1.32,1.16,4.19,2.73a26.06,26.06,0,0,0,4.74,2.21,4,4,0,0,0,2.14-1C76.46,220.74,76.64,220.83,76.81,220.93Z"/><path class="u" d="M79.3,224.79H59a3,3,0,0,1-.26-1.13H79.47A1.6,1.6,0,0,1,79.3,224.79Z"/><path class="u" d="M61.06,224.79h-.61a4.42,4.42,0,0,0,1.09-3.26,5.71,5.71,0,0,0-2.14-4.06c0-.2.06-.39.09-.56a6.25,6.25,0,0,1,2.54,4.6A5,5,0,0,1,61.06,224.79Z"/><path class="h" d="M68.4,218.08a.34.34,0,0,1-.34-.33.34.34,0,0,1,.25-.32l1.27-.32a.34.34,0,0,1,.17.65h0l-1.27.32Z"/><path class="h" d="M67.13,217a.34.34,0,0,1-.33-.34.35.35,0,0,1,.25-.32l1.27-.32a.33.33,0,0,1,.4.25.32.32,0,0,1-.24.4l-1.27.32Z"/><path class="h" d="M69.66,218.82a.34.34,0,0,1-.33-.34.34.34,0,0,1,.25-.32l1.27-.31a.33.33,0,0,1,.41.23.32.32,0,0,1-.23.41h0l-1.26.31Z"/><path class="h" d="M70.93,219.53a.34.34,0,0,1-.08-.66l1.27-.31a.33.33,0,0,1,.41.24.35.35,0,0,1-.25.41l-1.27.31Z"/><path class="h" d="M72.32,220.19a.34.34,0,0,1-.08-.66l1.27-.32a.33.33,0,0,1,.4.25.32.32,0,0,1-.24.4l-1.27.32Z"/><path class="h" d="M73.82,220.75a.34.34,0,0,1-.33-.34.33.33,0,0,1,.25-.32l1.27-.32a.33.33,0,0,1,.4.25.33.33,0,0,1-.24.4l-1.27.32Z"/><path class="w" d="M94.29,156v1.69c0,1-.58,1.76-1.31,1.76H1.8c-.72,0-1.31-.79-1.31-1.76V156c0-1,.59-1.76,1.31-1.76H93C93.71,154.25,94.29,155,94.29,156Z"/><rect class="x" x="0.49" y="156.54" width="93.8" height="0.77"/><path class="x" d="M91.55,163.79H5.84a.69.69,0,0,1-.69-.69h0v-3.67h87.1v3.67a.69.69,0,0,1-.7.69Z"/><rect class="x" x="11.05" y="185.3" width="76.65" height="2.99"/><path class="w" d="M5.53,225.32l14.84-61.53H15.15L.32,225.32Z"/><path class="w" d="M93.13,225.32,78.29,163.79H83.5l14.84,61.53Z"/><rect class="s" x="8.13" y="140.16" width="1.63" height="12.27" transform="translate(-22.05 3.04) rotate(-8.71)"/><path class="o" d="M8.82,140.11l-1.61.24.35-1.23.19-.63.36.55Z"/><rect class="j" x="8.99" y="151.47" width="1.63" height="0.89" transform="translate(-22.9 3.24) rotate(-8.71)"/><path class="k" d="M10.68,153l-1.4.21a.1.1,0,0,1-.12-.09h0l-.09-.6,1.61-.24.09.59a.11.11,0,0,1-.09.13Z"/><path class="j" d="M8.11,139l-.55.08.19-.63Z"/><rect class="r" x="8.87" y="150.84" width="1.63" height="0.64" transform="matrix(0.99, -0.15, 0.15, 0.99, -22.77, 3.21)"/><path class="r" d="M7.7,140.89l1.38,9a.12.12,0,0,0,.14.11h0a.12.12,0,0,0,.1-.14h0l-1.37-9a.12.12,0,0,0-.14-.1h0a.12.12,0,0,0-.1.14Z"/><path class="r" d="M8.33,140.79l1.38,9a.12.12,0,0,0,.14.1h0a.12.12,0,0,0,.1-.14h0l-1.37-9a.13.13,0,0,0-.14-.11h0a.12.12,0,0,0-.1.14Z"/><rect class="y" x="10.12" y="140.17" width="1.63" height="12.27" transform="translate(-0.48 0.04) rotate(-0.19)"/><path class="o" d="M11.73,140.16H10.1l.53-1.16.28-.61.28.6Z"/><rect class="j" x="10.14" y="151.55" width="1.63" height="0.89" transform="translate(-0.5 0.04) rotate(-0.19)"/><path class="k" d="M11.66,153.15H10.25a.11.11,0,0,1-.11-.11h0v-.6h1.63v.6a.11.11,0,0,1-.11.11Z"/><path class="j" d="M11.19,139h-.56l.28-.6Z"/><rect class="z" x="10.14" y="150.91" width="1.63" height="0.64" transform="translate(-0.5 0.04) rotate(-0.19)"/><path class="z" d="M10.51,140.77l0,9.09a.12.12,0,0,0,.12.12h0a.12.12,0,0,0,.12-.12h0l0-9.09a.12.12,0,0,0-.12-.12h0a.12.12,0,0,0-.12.12Z"/><path class="z" d="M11.14,140.77l0,9.09a.12.12,0,0,0,.13.12h0a.12.12,0,0,0,.12-.12h0l0-9.09a.12.12,0,0,0-.12-.12h0A.12.12,0,0,0,11.14,140.77Z"/><rect class="t" x="6.73" y="145.48" width="12.27" height="1.63" transform="translate(-133.78 138.46) rotate(-81.92)"/><path class="o" d="M14.53,140.34l-1.61-.23.7-1.08.36-.55.19.63Z"/><rect class="j" x="11.62" y="151.12" width="0.89" height="1.63" transform="translate(-140.05 142.51) rotate(-81.91)"/><path class="k" d="M12.6,153.17,11.21,153a.13.13,0,0,1-.1-.13h0l.09-.59,1.61.23-.08.59a.13.13,0,0,1-.13.1Z"/><path class="j" d="M14.17,139.11l-.55-.08.36-.55Z"/><rect class="u" x="11.86" y="150.36" width="0.64" height="1.63" transform="translate(-139.21 141.96) rotate(-81.91)"/><path class="u" d="M13.24,140.76l-1.28,9a.12.12,0,0,0,.11.14h0a.13.13,0,0,0,.14-.1h0l1.27-9a.12.12,0,0,0-.1-.14h0A.12.12,0,0,0,13.24,140.76Z"/><path class="u" d="M13.87,140.85l-1.28,9a.12.12,0,0,0,.11.14h0a.12.12,0,0,0,.14-.1h0l1.27-9a.12.12,0,0,0-.1-.14h0A.12.12,0,0,0,13.87,140.85Z"/><path class="k" d="M15.06,145l-.08.66-.08.59-.11.91-.08.59-.12.92-.07.58-.12.92-.08.58-.12.93-.07.57-.12.94-.07.56-.07.48H7.48l-.07-.48-.07-.56-.12-.94-.07-.57L7,150.77,7,150.19l-.12-.92-.07-.58-.12-.92-.08-.59-.11-.91-.08-.59L6.28,145Z"/><path class="aa" d="M15,145.68l-.08.59H6.45l-.08-.59Z"/><path class="aa" d="M14.79,147.18l-.08.59H6.64l-.08-.59Z"/><path class="aa" d="M14.59,148.69l-.07.58H6.83l-.07-.58Z"/><path class="aa" d="M14.4,150.19l-.08.58H7L7,150.19Z"/><path class="aa" d="M14.2,151.7l-.07.57H7.22l-.07-.57Z"/><path class="aa" d="M14,153.21l-.07.56H7.41l-.07-.56Z"/><path class="j" d="M93.76,121.62l-5.45,23.07-.15.61-.37,1.56A1.47,1.47,0,0,1,86.34,148H49.59a1.49,1.49,0,0,1-1.49-1.49,2,2,0,0,1,0-.34l6-25.23a1.5,1.5,0,0,1,1.45-1.15H92.31a1.49,1.49,0,0,1,1.49,1.49A1.27,1.27,0,0,1,93.76,121.62Z"/><path class="i" d="M88.31,144.69l-.15.61H50v-.61Z"/><path class="s" d="M64.4,125.5a3.72,3.72,0,0,1-3.51,3,2.39,2.39,0,0,1-2.48-2.29,3,3,0,0,1,.07-.67,3.73,3.73,0,0,1,3.52-3,2.39,2.39,0,0,1,2.47,2.29A2.15,2.15,0,0,1,64.4,125.5Z"/><path class="j" d="M61.06,124.93c-.06.33-.23.6-.37.6s-.21-.27-.15-.6.23-.59.37-.59S61.12,124.61,61.06,124.93Z"/><path class="j" d="M62.61,124.93c-.07.33-.23.6-.37.6s-.21-.27-.15-.6.23-.59.37-.59S62.67,124.61,62.61,124.93Z"/><path class="j" d="M61.2,126.94a1.31,1.31,0,0,1-1.33-1.28.17.17,0,0,1,.13-.16.11.11,0,0,1,.13.07v0a1.09,1.09,0,0,0,1.11,1.08h0a1.75,1.75,0,0,0,1.52-1.08.16.16,0,0,1,.17-.1.12.12,0,0,1,.08.13,0,0,0,0,0,0,0A2.13,2.13,0,0,1,61.2,126.94Z"/><path class="k" d="M81.39,139.32c0,1.54,2.63,3.45,2.63,3.45s3-1.91,3.38-3.45-1.5-2.17-2.9-.91C83.37,137.15,81.36,137.66,81.39,139.32Z"/><path class="i" d="M75.9,134.88a3.29,3.29,0,0,1-3.19,2.88,2.52,2.52,0,0,1-2.58-2.47,2.82,2.82,0,0,1,0-.41A3.3,3.3,0,0,1,73.34,132a2.53,2.53,0,0,1,2.59,2.47A2.69,2.69,0,0,1,75.9,134.88Z"/><path class="i" d="M57,119.79,50.66,148H49.59a1.49,1.49,0,0,1-1.49-1.49,2,2,0,0,1,0-.34l6-25.23a1.5,1.5,0,0,1,1.45-1.15Z"/><path class="h" d="M67.66,148l-1.11,6.27h3.68L71.34,148Z"/><path class="h" d="M61,153.19l.76-1.06a1.45,1.45,0,0,1,1.17-.6H73.05a1.45,1.45,0,0,1,1.28.77l.5,1a.67.67,0,0,1-.29.92.55.55,0,0,1-.31.08H61.59a.67.67,0,0,1-.68-.68A.72.72,0,0,1,61,153.19Z"/><path class="h" d="M40,154.27H70.33l.33-1.15a1.13,1.13,0,0,0-.77-1.39,1.17,1.17,0,0,0-.32,0h-28a1.13,1.13,0,0,0-1.08.81Z"/><rect class="ab" x="65.41" y="102.13" width="15.3" height="10.13" rx="0.94"/><path class="ab" d="M79,110.74l-1.23,4.62L75.61,111Z"/><path class="h" d="M76.45,106.44c-.27,1.73-3.5,3.9-3.5,3.9s-3.11-2.17-3.29-3.9,2-2.45,3.42-1C74.56,104,76.75,104.57,76.45,106.44Z"/><ellipse class="g" cx="247.16" cy="225.76" rx="22.84" ry="2.26"/><rect class="j" x="231.32" y="207" width="30.82" height="2.44" rx="0.99"/><path class="i" d="M232.67,180h28.17a.85.85,0,0,1,.85.85v3.46a.85.85,0,0,1-.85.85H232.67a.85.85,0,0,1-.85-.85V180.8A.85.85,0,0,1,232.67,180Z"/><path class="w" d="M239.32,158s-11.88-2.35-15.19-10.64,8.81-14.5,15.19-10.05C246.16,142.08,239.32,158,239.32,158Z"/><path class="j" d="M246.39,179.78a.23.23,0,0,1-.22-.18c-1.13-7.7-5.72-18.78-9.37-26.71-4-8.61-7.69-15.47-7.72-15.54a.2.2,0,0,1,.09-.29.21.21,0,0,1,.28.08c0,.07,3.78,7,7.74,15.57,3.66,8,8.26,19.08,9.41,26.83a.21.21,0,0,1-.18.24h0Z"/><path class="j" d="M238.88,157.21a.21.21,0,0,1-.19-.12,63.85,63.85,0,0,0-13.64-16.67.21.21,0,0,1-.06-.3.22.22,0,0,1,.3-.06l0,0a64.22,64.22,0,0,1,13.75,16.8.22.22,0,0,1-.09.29h0A.19.19,0,0,1,238.88,157.21Z"/><path class="j" d="M239.11,157.9a.21.21,0,0,1-.16-.08,41.4,41.4,0,0,0-10.2-8.73,26.16,26.16,0,0,0-4.74-2.28.21.21,0,0,1-.14-.27.2.2,0,0,1,.26-.14h0a25.37,25.37,0,0,1,4.81,2.32,41.53,41.53,0,0,1,10.32,8.82.21.21,0,0,1,0,.3.2.2,0,0,1-.14.06Z"/><path class="j" d="M238.07,155.37a.22.22,0,0,1-.21-.14C235,146.73,236,136.4,236,136.29a.22.22,0,0,1,.24-.19.21.21,0,0,1,.19.23h0c0,.1-1.07,10.34,1.8,18.75a.21.21,0,0,1-.14.27Z"/><path class="j" d="M238.79,157.06a.22.22,0,0,1-.21-.18,30,30,0,0,1,.52-12.51,20.42,20.42,0,0,1,1.82-4.71.23.23,0,0,1,.3-.08.22.22,0,0,1,.07.3,19.6,19.6,0,0,0-1.77,4.62,29.38,29.38,0,0,0-.51,12.31.21.21,0,0,1-.18.24Z"/><path class="w" d="M251.85,160.17s12-1.64,15.8-9.71-7.93-15-14.57-10.94C246,143.87,251.85,160.17,251.85,160.17Z"/><path class="j" d="M247.3,179.08h0a.21.21,0,0,1-.21-.22h0a44.29,44.29,0,0,1,2.57-13.42,87.36,87.36,0,0,1,5.44-12.57,115.3,115.3,0,0,1,7.85-13,.22.22,0,0,1,.35.25,114.55,114.55,0,0,0-7.82,12.91c-3.58,6.86-7.86,16.9-8,25.79A.22.22,0,0,1,247.3,179.08Z"/><path class="j" d="M252.36,159.4a.2.2,0,0,1-.11,0,.21.21,0,0,1-.07-.3h0a64.31,64.31,0,0,1,14.71-16,.21.21,0,0,1,.3,0,.22.22,0,0,1,0,.3,63.6,63.6,0,0,0-14.61,15.84A.22.22,0,0,1,252.36,159.4Z"/><path class="j" d="M252.08,160.07a.21.21,0,0,1-.21-.21.2.2,0,0,1,.06-.15,41.51,41.51,0,0,1,10.83-8.2,25.21,25.21,0,0,1,4.93-2,.22.22,0,0,1,.27.16.21.21,0,0,1-.16.26h0a25.75,25.75,0,0,0-4.86,2,41.32,41.32,0,0,0-10.7,8.11A.23.23,0,0,1,252.08,160.07Z"/><path class="j" d="M253.28,157.62l-.09,0a.21.21,0,0,1-.11-.28h0c3.35-8.22,2.91-18.51,2.9-18.61a.21.21,0,0,1,.21-.22.2.2,0,0,1,.22.2h0c0,.11.46,10.48-2.94,18.8A.21.21,0,0,1,253.28,157.62Z"/><path class="j" d="M252.45,159.25h0a.22.22,0,0,1-.16-.26h0a29.53,29.53,0,0,0,.22-12.31A20,20,0,0,0,251,142a.21.21,0,0,1,.38-.2,20.29,20.29,0,0,1,1.54,4.81,30,30,0,0,1-.22,12.52A.22.22,0,0,1,252.45,159.25Z"/><path class="w" d="M247.23,144.54S237.07,138,237.06,129s13.55-10.21,17.84-3.71C259.48,132.28,247.23,144.54,247.23,144.54Z"/><path class="j" d="M245.81,167.4h-.05a.23.23,0,0,1-.16-.26c1.8-7.58,1.64-19.56,1.19-28.28-.49-9.46-1.42-17.22-1.42-17.3a.21.21,0,1,1,.42,0h0c0,.07.94,7.85,1.43,17.32.45,8.75.61,20.78-1.2,28.41A.22.22,0,0,1,245.81,167.4Z"/><path class="j" d="M247.2,143.65a.22.22,0,0,1-.22-.19,63.61,63.61,0,0,0-6.49-20.54.22.22,0,0,1,.1-.29.22.22,0,0,1,.27.08,64.06,64.06,0,0,1,6.55,20.7.22.22,0,0,1-.19.24h0Z"/><path class="j" d="M247.16,144.38a.23.23,0,0,1-.21-.15,41.44,41.44,0,0,0-6.24-11.88,26.12,26.12,0,0,0-3.55-3.88.21.21,0,0,1,.27-.33,25.36,25.36,0,0,1,3.61,3.93,41.68,41.68,0,0,1,6.32,12,.22.22,0,0,1-.13.28Z"/><path class="j" d="M247.12,141.65h0a.21.21,0,0,1-.2-.23c.45-9,5.27-18.17,5.32-18.26a.2.2,0,0,1,.29-.09.22.22,0,0,1,.09.29h0c-.05.09-4.82,9.21-5.27,18.08A.22.22,0,0,1,247.12,141.65Z"/><path class="j" d="M247.18,143.48h-.05a.2.2,0,0,1-.16-.25h0a30.26,30.26,0,0,1,5.12-11.48,20.86,20.86,0,0,1,3.45-3.76.22.22,0,0,1,.3,0,.21.21,0,0,1,0,.3h0a20.39,20.39,0,0,0-3.38,3.69,30,30,0,0,0-5.05,11.3A.2.2,0,0,1,247.18,143.48Z"/><path class="ac" d="M259.65,166.24l-.35.94-.22.6-.65,1.71-.22.59-.66,1.76-.22.59L254.49,180H239l-2.83-7.52-.22-.59-.66-1.76-.23-.59-.64-1.71-.22-.6-.36-.94a1,1,0,0,1,.58-1.26.83.83,0,0,1,.34-.07h24a1,1,0,0,1,1,1A.94.94,0,0,1,259.65,166.24Z"/><path class="ad" d="M259.3,167.19l-.22.59H234.44l-.23-.59Z"/><path class="ad" d="M258.43,169.49l-.22.59h-22.9l-.23-.59Z"/><path class="ad" d="M257.55,171.84l-.23.59H236.19l-.22-.59Z"/><path class="j" d="M242.61,185.11l-.86,2.76-11.94,38.5h-2.33l7.57-37.71.72-3.55Z"/><path class="j" d="M266.11,226.37h-2.34l-12.29-39.63-.51-1.63h6.85l.17.86h0Z"/><rect class="i" x="231.32" y="201.69" width="30.82" height="2.44" rx="0.99"/><ellipse class="g" cx="73.11" cy="75.16" rx="11.16" ry="11.03"/><ellipse class="ad" cx="73.11" cy="73.72" rx="11.16" ry="11.03"/><ellipse class="h" cx="73.11" cy="73.72" rx="9.08" ry="8.96"/><path class="g" d="M82.19,73.72c0,.24,0,.48,0,.71a9.08,9.08,0,0,0-18.09,0c0-.23,0-.47,0-.71a9.08,9.08,0,0,1,18.15,0Z"/><path class="j" d="M73.11,74.66a.24.24,0,0,1-.18-.09l-4.45-5.92a.23.23,0,0,1,0-.32h0a.22.22,0,0,1,.31,0l4.35,5.77L78.13,72a.22.22,0,0,1,.29.12.22.22,0,0,1-.11.29h0l-5.1,2.22Z"/><path class="f" d="M79.19,205.53H122a.94.94,0,0,0,.65-.26l3.72-3.62a.92.92,0,0,1,1.29,0l3.74,3.62a.9.9,0,0,0,.64.26h43a.92.92,0,0,1,.93.93h0v23.4a.93.93,0,0,1-.93.93H79.19a.93.93,0,0,1-.93-.93h0v-23.4a.93.93,0,0,1,.93-.93Z"/><g class="ae"><g class="ae"><path class="h" d="M90.59,215H87v2.5h3.3v1.86H87v3.95H84.71V213.12h5.88Z"/><path class="h" d="M95.5,223.47a3.88,3.88,0,0,1-2.85-1,3.7,3.7,0,0,1-1-2.76,3.66,3.66,0,0,1,1.08-2.82,4.07,4.07,0,0,1,2.91-1,3.86,3.86,0,0,1,2.84,1,3.58,3.58,0,0,1,1,2.69,3.84,3.84,0,0,1-1.06,2.86A4,4,0,0,1,95.5,223.47Zm.06-5.9a1.49,1.49,0,0,0-1.23.54,2.38,2.38,0,0,0-.44,1.55c0,1.39.56,2.09,1.68,2.09s1.61-.72,1.61-2.15S96.64,217.57,95.56,217.57Z"/><path class="h" d="M112.46,223.29h-2.24v-4.14c0-1.06-.39-1.58-1.16-1.58a1.05,1.05,0,0,0-.9.47,2,2,0,0,0-.35,1.19v4.06h-2.24V219.1q0-1.53-1.14-1.53a1.09,1.09,0,0,0-.92.45,2,2,0,0,0-.34,1.23v4h-2.25V216h2.25v1.13h0a2.79,2.79,0,0,1,1-.95,2.72,2.72,0,0,1,1.37-.36,2.09,2.09,0,0,1,2.11,1.35,2.68,2.68,0,0,1,2.44-1.35c1.58,0,2.37,1,2.37,2.92Z"/><path class="h" d="M120.76,220.3H116c.07,1,.74,1.58,2,1.58a3.9,3.9,0,0,0,2.11-.57v1.62a5.54,5.54,0,0,1-2.62.54,3.38,3.38,0,0,1-3.7-3.7,3.87,3.87,0,0,1,1-2.86,3.48,3.48,0,0,1,2.58-1.06,3.17,3.17,0,0,1,2.46.94,3.63,3.63,0,0,1,.87,2.56Zm-2.08-1.38q0-1.56-1.26-1.56a1.21,1.21,0,0,0-.94.45,2,2,0,0,0-.48,1.11Z"/><path class="h" d="M129.1,223.29h-2.23v-4c0-1.12-.4-1.68-1.21-1.68a1.18,1.18,0,0,0-1,.44,1.72,1.72,0,0,0-.37,1.14v4.14h-2.24V216h2.24v1.15h0a2.55,2.55,0,0,1,2.33-1.33c1.61,0,2.41,1,2.41,3Z"/><path class="h" d="M135.27,223.2a3.24,3.24,0,0,1-1.5.27q-2.37,0-2.37-2.46v-3.33h-1.18V216h1.18v-1.57l2.23-.64V216h1.64v1.65h-1.64v2.93c0,.76.31,1.14.91,1.14a1.51,1.51,0,0,0,.73-.21Z"/><path class="h" d="M142.57,223.29h-2.12v-1h0a2.37,2.37,0,0,1-2.16,1.22,2.24,2.24,0,0,1-1.66-.6,2.14,2.14,0,0,1-.61-1.6c0-1.41.83-2.22,2.5-2.44l2-.26c0-.8-.42-1.2-1.29-1.2a4.37,4.37,0,0,0-2.46.78v-1.69A5.73,5.73,0,0,1,138,216a6.85,6.85,0,0,1,1.48-.18q3.1,0,3.1,3.1Zm-2.11-2.95v-.49l-1.31.17c-.73.09-1.1.42-1.1,1a.8.8,0,0,0,.27.62,1,1,0,0,0,.72.25,1.34,1.34,0,0,0,1-.44A1.59,1.59,0,0,0,140.46,220.34Z"/><path class="h" d="M151.36,223.29h-2.23v-4c0-1.12-.41-1.68-1.21-1.68a1.18,1.18,0,0,0-1,.44,1.72,1.72,0,0,0-.37,1.14v4.14h-2.24V216h2.24v1.15h0a2.55,2.55,0,0,1,2.33-1.33c1.61,0,2.41,1,2.41,3Z"/><path class="h" d="M160.24,223.29H158v-1h0a2.53,2.53,0,0,1-2.25,1.18,2.74,2.74,0,0,1-2.19-1,4,4,0,0,1-.83-2.69,4.3,4.3,0,0,1,.92-2.89,3,3,0,0,1,2.39-1.08,2,2,0,0,1,2,1h0v-4.32h2.24Zm-2.2-3.53v-.55a1.75,1.75,0,0,0-.41-1.18,1.35,1.35,0,0,0-1.07-.46,1.33,1.33,0,0,0-1.16.58,2.72,2.72,0,0,0-.42,1.61,2.34,2.34,0,0,0,.4,1.47,1.43,1.43,0,0,0,2.23,0A2.23,2.23,0,0,0,158,219.76Z"/><path class="h" d="M165.59,223.47a3.92,3.92,0,0,1-2.86-1,3.7,3.7,0,0,1-1-2.76,3.66,3.66,0,0,1,1.08-2.82,4.07,4.07,0,0,1,2.92-1,3.84,3.84,0,0,1,2.83,1,3.58,3.58,0,0,1,1,2.69,3.84,3.84,0,0,1-1.06,2.86A3.94,3.94,0,0,1,165.59,223.47Zm.06-5.9a1.5,1.5,0,0,0-1.24.54,2.44,2.44,0,0,0-.44,1.55c0,1.39.56,2.09,1.69,2.09s1.61-.72,1.61-2.15S166.73,217.57,165.65,217.57Z"/></g></g><path class="af" d="M131.5,243.54h17a1.06,1.06,0,0,0,.75-.31l4.32-4.19a1.07,1.07,0,0,1,1.5,0l4.32,4.19a1.06,1.06,0,0,0,.75.31l108.74-.31a1.07,1.07,0,0,1,1.07,1.08h0v49.12a1.07,1.07,0,0,1-1.07,1.07h0l-137.42.31a1.08,1.08,0,0,1-1.08-1.08h0V244.61a1.07,1.07,0,0,1,1.07-1.07Z"/><path class="af" d="M123.72,243.54h-17a1.06,1.06,0,0,1-.75-.31L101.6,239a1.06,1.06,0,0,0-1.49,0l-4.33,4.19a1.06,1.06,0,0,1-.75.31h-94A1.07,1.07,0,0,0,0,244.61H0v49.12a1.07,1.07,0,0,0,1.07,1.08H123.72a1.07,1.07,0,0,0,1.07-1.08h0V244.61a1.07,1.07,0,0,0-1.07-1.07Z"/><g class="ae"><path class="ag" d="M22.77,263.37h-5.9V252.23h5.65v1.18H18.18v3.71h4v1.17h-4v3.9h4.59Z"/><path class="ag" d="M26,263.37H24.75V251.59H26Z"/><path class="ag" d="M38.65,263.37H37.38v-1.24h0a2.69,2.69,0,0,1-2.45,1.43,2.62,2.62,0,0,1-1.86-.63,2.18,2.18,0,0,1-.67-1.67c0-1.49.87-2.35,2.62-2.6l2.39-.33c0-1.35-.55-2-1.64-2a3.94,3.94,0,0,0-2.6,1V256a4.93,4.93,0,0,1,2.71-.75c1.86,0,2.8,1,2.8,3Zm-1.27-4-1.92.26a3.09,3.09,0,0,0-1.34.44,1.26,1.26,0,0,0-.45,1.11,1.23,1.23,0,0,0,.42,1,1.61,1.61,0,0,0,1.1.37,2.05,2.05,0,0,0,1.57-.67,2.37,2.37,0,0,0,.62-1.68Z"/><path class="ag" d="M42.35,262.22h0V267H41.05V255.42h1.27v1.39h0a3,3,0,0,1,2.75-1.58,2.91,2.91,0,0,1,2.4,1.07,4.38,4.38,0,0,1,.87,2.86,5,5,0,0,1-1,3.2,3.25,3.25,0,0,1-2.66,1.2A2.68,2.68,0,0,1,42.35,262.22Zm0-3.21v1.11A2.41,2.41,0,0,0,43,261.8a2.17,2.17,0,0,0,1.63.69,2.12,2.12,0,0,0,1.81-.89,4,4,0,0,0,.66-2.46,3.23,3.23,0,0,0-.61-2.09,2,2,0,0,0-1.66-.75,2.24,2.24,0,0,0-1.79.78A2.83,2.83,0,0,0,42.32,259Z"/><path class="ag" d="M54.55,256.71a1.5,1.5,0,0,0-1-.26,1.64,1.64,0,0,0-1.36.77,3.59,3.59,0,0,0-.54,2.1v4.05H50.4v-8h1.28v1.63h0a2.71,2.71,0,0,1,.83-1.3,1.86,1.86,0,0,1,1.25-.47,1.94,1.94,0,0,1,.76.11Z"/><path class="ag" d="M62.32,259.71H56.71a3,3,0,0,0,.71,2.05,2.48,2.48,0,0,0,1.88.73,3.9,3.9,0,0,0,2.47-.89v1.2a4.66,4.66,0,0,1-2.77.76,3.35,3.35,0,0,1-2.65-1.09,4.42,4.42,0,0,1-1-3,4.36,4.36,0,0,1,1-3,3.36,3.36,0,0,1,2.61-1.17,3,3,0,0,1,2.42,1,4.2,4.2,0,0,1,.85,2.8ZM61,258.63a2.59,2.59,0,0,0-.54-1.71A1.79,1.79,0,0,0,59,256.3a2.06,2.06,0,0,0-1.53.65,2.93,2.93,0,0,0-.78,1.68Z"/><path class="ag" d="M70.85,263.37H69.58v-4.54c0-1.68-.62-2.53-1.85-2.53a2,2,0,0,0-1.58.72,2.64,2.64,0,0,0-.63,1.81v4.54H64.25v-8h1.27v1.32h0a2.84,2.84,0,0,1,2.6-1.51,2.44,2.44,0,0,1,2,.84,3.79,3.79,0,0,1,.69,2.44Z"/><path class="ag" d="M80,263.37H78.76V262h0A3,3,0,0,1,76,263.56a3,3,0,0,1-2.4-1.07,4.36,4.36,0,0,1-.89-2.91,4.76,4.76,0,0,1,1-3.16,3.28,3.28,0,0,1,2.65-1.19,2.54,2.54,0,0,1,2.38,1.29h0v-4.93H80Zm-1.28-3.6V258.6a2.28,2.28,0,0,0-.63-1.63,2.14,2.14,0,0,0-1.62-.67,2.2,2.2,0,0,0-1.83.86,3.7,3.7,0,0,0-.67,2.36,3.36,3.36,0,0,0,.64,2.17,2.1,2.1,0,0,0,1.72.8,2.18,2.18,0,0,0,1.73-.77A2.91,2.91,0,0,0,78.76,259.77Z"/><path class="ag" d="M83.27,253.4a.78.78,0,0,1-.58-.24.78.78,0,0,1-.24-.59.81.81,0,0,1,.24-.59.78.78,0,0,1,.58-.24.81.81,0,0,1,.59.24.82.82,0,0,1,0,1.18A.81.81,0,0,1,83.27,253.4Zm.62,10H82.62v-8h1.27Z"/><path class="ag" d="M92,255.78l-4.7,6.5H92v1.09H85.44V263l4.7-6.47H85.88v-1.08H92Z"/><path class="ag" d="M99.35,263.37H98.08v-1.24h0a2.67,2.67,0,0,1-2.44,1.43,2.63,2.63,0,0,1-1.87-.63,2.21,2.21,0,0,1-.67-1.67c0-1.49.88-2.35,2.63-2.6l2.38-.33c0-1.35-.54-2-1.64-2a3.93,3.93,0,0,0-2.59,1V256a4.89,4.89,0,0,1,2.7-.75c1.87,0,2.8,1,2.8,3Zm-1.27-4-1.92.26a3,3,0,0,0-1.33.44,1.46,1.46,0,0,0,0,2.07,1.65,1.65,0,0,0,1.11.37,2,2,0,0,0,1.56-.67,2.33,2.33,0,0,0,.62-1.68Z"/><path class="ag" d="M103,263a4.93,4.93,0,0,1-.79,3,2.64,2.64,0,0,1-2.26,1.06,2.44,2.44,0,0,1-1-.24v-1.19A2.11,2.11,0,0,0,100,266c1.15,0,1.73-.93,1.73-2.78v-7.83H103Zm-.62-9.64a.82.82,0,0,1-.59-.24.77.77,0,0,1-.23-.59.8.8,0,0,1,.23-.59.82.82,0,0,1,.59-.24.81.81,0,0,1,.59.24.82.82,0,0,1,0,1.18A.81.81,0,0,1,102.41,253.4Z"/><path class="ag" d="M112,259.71h-5.62a3,3,0,0,0,.72,2.05,2.46,2.46,0,0,0,1.88.73,3.93,3.93,0,0,0,2.47-.89v1.2a4.68,4.68,0,0,1-2.77.76,3.33,3.33,0,0,1-2.65-1.09,4.42,4.42,0,0,1-1-3,4.32,4.32,0,0,1,1.06-3,3.36,3.36,0,0,1,2.61-1.17,3,3,0,0,1,2.41,1A4.2,4.2,0,0,1,112,259Zm-1.31-1.08a2.54,2.54,0,0,0-.53-1.71,1.8,1.8,0,0,0-1.45-.62,2.06,2.06,0,0,0-1.53.65,2.93,2.93,0,0,0-.78,1.68Z"/><path class="ag" d="M22.84,283a4.25,4.25,0,0,1-2.18.55,3.58,3.58,0,0,1-2.74-1.11,4,4,0,0,1-1.05-2.87A4.43,4.43,0,0,1,18,276.39a4,4,0,0,1,3-1.19,4.16,4.16,0,0,1,1.85.39v1.3a3.26,3.26,0,0,0-1.89-.62,2.53,2.53,0,0,0-2,.88,3.31,3.31,0,0,0-.78,2.29,3.17,3.17,0,0,0,.73,2.21,2.53,2.53,0,0,0,2,.81,3.23,3.23,0,0,0,2-.69Z"/><path class="ag" d="M28.09,283.53a3.67,3.67,0,0,1-2.82-1.12,4.11,4.11,0,0,1-1.05-3,4.29,4.29,0,0,1,1.09-3.13,4,4,0,0,1,3-1.13,3.58,3.58,0,0,1,2.78,1.1,4.36,4.36,0,0,1,1,3A4.26,4.26,0,0,1,31,282.38,3.75,3.75,0,0,1,28.09,283.53Zm.09-7.26a2.4,2.4,0,0,0-1.94.84,3.41,3.41,0,0,0-.72,2.3,3.25,3.25,0,0,0,.72,2.23,2.49,2.49,0,0,0,1.94.82,2.36,2.36,0,0,0,1.9-.8,3.52,3.52,0,0,0,.66-2.28,3.56,3.56,0,0,0-.66-2.3A2.33,2.33,0,0,0,28.18,276.27Z"/><path class="ag" d="M35.36,283.34H34.08V271.57h1.28Z"/><path class="ag" d="M43.63,283.34H42.35V282.1h0a2.67,2.67,0,0,1-2.44,1.43A2.59,2.59,0,0,1,38,282.9a2.18,2.18,0,0,1-.67-1.67c0-1.49.87-2.35,2.62-2.6l2.38-.33c0-1.35-.54-2-1.63-2a3.94,3.94,0,0,0-2.6,1V276a4.89,4.89,0,0,1,2.7-.75c1.87,0,2.81,1,2.81,3Zm-1.28-4-1.92.26a3.09,3.09,0,0,0-1.33.44,1.27,1.27,0,0,0-.45,1.12,1.25,1.25,0,0,0,.41.95,1.65,1.65,0,0,0,1.11.37,2.07,2.07,0,0,0,1.57-.67,2.36,2.36,0,0,0,.61-1.68Z"/><path class="ag" d="M47.33,282.19h0v1.15H46V271.57H47.3v5.22h0a3,3,0,0,1,2.75-1.59,2.93,2.93,0,0,1,2.4,1.07,4.45,4.45,0,0,1,.86,2.86,4.93,4.93,0,0,1-1,3.2,3.22,3.22,0,0,1-2.65,1.2A2.63,2.63,0,0,1,47.33,282.19Zm0-3.21v1.11a2.37,2.37,0,0,0,.64,1.68,2.28,2.28,0,0,0,3.44-.2,4,4,0,0,0,.66-2.46,3.24,3.24,0,0,0-.61-2.08,2.06,2.06,0,0,0-1.67-.76,2.23,2.23,0,0,0-1.78.78A2.83,2.83,0,0,0,47.3,279Z"/><path class="ag" d="M58.7,283.53a3.66,3.66,0,0,1-2.81-1.12,4.11,4.11,0,0,1-1-3,4.29,4.29,0,0,1,1.09-3.13,4,4,0,0,1,3-1.13,3.58,3.58,0,0,1,2.78,1.1,4.35,4.35,0,0,1,1,3,4.25,4.25,0,0,1-1.07,3.05A3.76,3.76,0,0,1,58.7,283.53Zm.1-7.26a2.44,2.44,0,0,0-1.95.84,3.46,3.46,0,0,0-.71,2.3,3.25,3.25,0,0,0,.72,2.23,2.49,2.49,0,0,0,1.94.82,2.36,2.36,0,0,0,1.9-.8,3.52,3.52,0,0,0,.66-2.28,3.56,3.56,0,0,0-.66-2.3A2.33,2.33,0,0,0,58.8,276.27Z"/><path class="ag" d="M68.85,276.68a1.6,1.6,0,0,0-1-.26,1.63,1.63,0,0,0-1.36.77,3.51,3.51,0,0,0-.55,2.1v4H64.7v-7.95H66V277h0a2.77,2.77,0,0,1,.83-1.31,1.93,1.93,0,0,1,1.25-.47,2,2,0,0,1,.77.11Z"/><path class="ag" d="M75.92,283.34H74.65V282.1h0a2.68,2.68,0,0,1-2.45,1.43,2.62,2.62,0,0,1-1.86-.63,2.18,2.18,0,0,1-.67-1.67c0-1.49.87-2.35,2.62-2.6l2.39-.33c0-1.35-.55-2-1.64-2a3.91,3.91,0,0,0-2.59,1V276a4.89,4.89,0,0,1,2.7-.75c1.87,0,2.8,1,2.8,3Zm-1.27-4-1.92.26a3.09,3.09,0,0,0-1.34.44,1.27,1.27,0,0,0-.45,1.12,1.22,1.22,0,0,0,.42.95,1.63,1.63,0,0,0,1.11.37,2,2,0,0,0,1.56-.67,2.37,2.37,0,0,0,.62-1.68Z"/><path class="ag" d="M82,283.26a2.42,2.42,0,0,1-1.19.25c-1.39,0-2.09-.77-2.09-2.33v-4.71H77.37v-1.08h1.36v-1.94L80,273v2.35h2v1.08H80V281a1.87,1.87,0,0,0,.27,1.14,1.07,1.07,0,0,0,.9.34,1.37,1.37,0,0,0,.83-.26Z"/><path class="ag" d="M84.36,273.37a.83.83,0,0,1-.58-.23.86.86,0,0,1,0-1.19.8.8,0,0,1,.58-.24.83.83,0,1,1,0,1.66Zm.63,10H83.71v-7.95H85Z"/><path class="ag" d="M93.82,275.39l-3.17,7.95H89.4l-3-7.95h1.4l2,5.78a5.29,5.29,0,0,1,.28,1.11h0a5.36,5.36,0,0,1,.25-1.08l2.11-5.81Z"/><path class="ag" d="M98.51,283.53a3.68,3.68,0,0,1-2.82-1.12,4.11,4.11,0,0,1-1-3,4.3,4.3,0,0,1,1.1-3.13,3.93,3.93,0,0,1,3-1.13,3.56,3.56,0,0,1,2.78,1.1,4.31,4.31,0,0,1,1,3,4.26,4.26,0,0,1-1.08,3.05A3.72,3.72,0,0,1,98.51,283.53Zm.09-7.26a2.42,2.42,0,0,0-1.94.84,3.41,3.41,0,0,0-.72,2.3,3.25,3.25,0,0,0,.73,2.23,2.46,2.46,0,0,0,1.93.82,2.34,2.34,0,0,0,1.9-.8,3.52,3.52,0,0,0,.66-2.28,3.56,3.56,0,0,0-.66-2.3A2.32,2.32,0,0,0,98.6,276.27Z"/><path class="ag" d="M104.94,283.51a.84.84,0,0,1-.61-.25.89.89,0,0,1-.25-.62.86.86,0,0,1,.25-.61.81.81,0,0,1,.61-.26.87.87,0,0,1,.88.87.85.85,0,0,1-.88.87Z"/></g><g class="ae"><path class="ag" d="M145.3,263.38h-5.73v-11h1.29v9.87h4.44Z"/><path class="ag" d="M152.46,263.38H151.2v-1.23h0a2.65,2.65,0,0,1-2.43,1.41,2.56,2.56,0,0,1-1.84-.62,2.18,2.18,0,0,1-.67-1.66c0-1.47.87-2.32,2.61-2.57l2.36-.33q0-2-1.62-2a4,4,0,0,0-2.58,1v-1.29a4.93,4.93,0,0,1,2.68-.74c1.85,0,2.78,1,2.78,2.94Zm-1.26-4-1.9.26a3.18,3.18,0,0,0-1.33.44,1.26,1.26,0,0,0-.44,1.1,1.2,1.2,0,0,0,.41.95,1.6,1.6,0,0,0,1.1.36,2,2,0,0,0,1.55-.66,2.36,2.36,0,0,0,.61-1.66Z"/><path class="ag" d="M164.8,263.38h-1.26v-1.23h0a2.65,2.65,0,0,1-2.43,1.41,2.56,2.56,0,0,1-1.84-.62,2.14,2.14,0,0,1-.67-1.66c0-1.47.87-2.32,2.61-2.57l2.36-.33c0-1.34-.54-2-1.63-2a3.94,3.94,0,0,0-2.57,1v-1.29a4.93,4.93,0,0,1,2.68-.74c1.85,0,2.78,1,2.78,2.94Zm-1.26-4-1.9.26a3.18,3.18,0,0,0-1.33.44,1.26,1.26,0,0,0-.44,1.1,1.2,1.2,0,0,0,.41.95,1.59,1.59,0,0,0,1.09.36,2,2,0,0,0,1.56-.66,2.36,2.36,0,0,0,.61-1.66Z"/><path class="ag" d="M168.47,262.24h0V267h-1.26V255.5h1.26v1.38h0a3,3,0,0,1,2.73-1.57,2.87,2.87,0,0,1,2.38,1.06,4.39,4.39,0,0,1,.85,2.84,4.88,4.88,0,0,1-1,3.16,3.18,3.18,0,0,1-2.63,1.19A2.66,2.66,0,0,1,168.47,262.24Zm0-3.18v1.1a2.36,2.36,0,0,0,.64,1.66,2.26,2.26,0,0,0,3.41-.2,4,4,0,0,0,.65-2.44,3.16,3.16,0,0,0-.61-2.06,2,2,0,0,0-1.65-.75,2.25,2.25,0,0,0-1.77.77A2.84,2.84,0,0,0,168.44,259.06Z"/><path class="ag" d="M180.56,256.78a1.48,1.48,0,0,0-1-.26,1.62,1.62,0,0,0-1.35.76,3.54,3.54,0,0,0-.54,2.08v4h-1.26V255.5h1.26v1.62h0a2.77,2.77,0,0,1,.82-1.3,1.89,1.89,0,0,1,1.24-.46,1.94,1.94,0,0,1,.76.11Z"/><path class="ag" d="M185.22,263.56a3.65,3.65,0,0,1-2.79-1.1,4.12,4.12,0,0,1-1-2.93,4.27,4.27,0,0,1,1.08-3.1,3.91,3.91,0,0,1,2.94-1.12,3.52,3.52,0,0,1,2.75,1.09,4.93,4.93,0,0,1-.08,6A3.71,3.71,0,0,1,185.22,263.56Zm.1-7.19a2.4,2.4,0,0,0-1.93.83,3.4,3.4,0,0,0-.71,2.28,3.2,3.2,0,0,0,.72,2.21,2.43,2.43,0,0,0,1.92.81,2.31,2.31,0,0,0,1.88-.79,3.44,3.44,0,0,0,.65-2.26,3.52,3.52,0,0,0-.65-2.28A2.31,2.31,0,0,0,185.32,256.37Z"/><path class="ag" d="M192.46,262.24h0V267h-1.26V255.5h1.26v1.38h0a3,3,0,0,1,2.72-1.57,2.87,2.87,0,0,1,2.38,1.06,4.39,4.39,0,0,1,.86,2.84,4.88,4.88,0,0,1-1,3.16,3.21,3.21,0,0,1-2.64,1.19A2.63,2.63,0,0,1,192.46,262.24Zm0-3.18v1.1a2.35,2.35,0,0,0,.63,1.66,2.14,2.14,0,0,0,1.62.68,2.09,2.09,0,0,0,1.79-.88,4,4,0,0,0,.65-2.44,3.22,3.22,0,0,0-.6-2.06,2,2,0,0,0-1.65-.75,2.22,2.22,0,0,0-1.77.77A2.79,2.79,0,0,0,192.43,259.06Z"/><path class="ag" d="M201.08,253.5a.8.8,0,0,1-.58-.24.78.78,0,0,1-.23-.58.82.82,0,0,1,.23-.59.83.83,0,0,1,1.17,1.17A.81.81,0,0,1,201.08,253.5Zm.62,9.88h-1.27V255.5h1.27Z"/><path class="ag" d="M209.89,263.38h-1.26v-1.23h0a2.65,2.65,0,0,1-2.42,1.41,2.59,2.59,0,0,1-1.85-.62,2.17,2.17,0,0,1-.66-1.66c0-1.47.87-2.32,2.6-2.57l2.36-.33q0-2-1.62-2a3.9,3.9,0,0,0-2.57,1v-1.29a4.9,4.9,0,0,1,2.68-.74c1.85,0,2.77,1,2.77,2.94Zm-1.26-4-1.9.26a3.13,3.13,0,0,0-1.32.44,1.44,1.44,0,0,0,0,2.05,1.62,1.62,0,0,0,1.1.36,2,2,0,0,0,1.55-.66,2.31,2.31,0,0,0,.61-1.66Z"/><path class="ag" d="M217.65,263a4.17,4.17,0,0,1-2.16.54,3.57,3.57,0,0,1-2.72-1.09,4,4,0,0,1-1-2.85,4.39,4.39,0,0,1,1.11-3.13,3.93,3.93,0,0,1,3-1.18,4.1,4.1,0,0,1,1.83.39V257a3.21,3.21,0,0,0-1.88-.62,2.54,2.54,0,0,0-2,.87,3.28,3.28,0,0,0-.77,2.28,3.13,3.13,0,0,0,.72,2.18,2.54,2.54,0,0,0,2,.8,3.23,3.23,0,0,0,1.94-.68Z"/><path class="ag" d="M220.2,253.5a.8.8,0,0,1-.58-.24.75.75,0,0,1-.23-.58.78.78,0,0,1,.23-.59.83.83,0,0,1,1.17,1.17A.81.81,0,0,1,220.2,253.5Zm.62,9.88h-1.27V255.5h1.27Z"/><path class="ag" d="M226.67,263.56a3.62,3.62,0,0,1-2.79-1.1,4.08,4.08,0,0,1-1-2.93,4.27,4.27,0,0,1,1.09-3.1,3.87,3.87,0,0,1,2.93-1.12,3.51,3.51,0,0,1,2.75,1.09,4.95,4.95,0,0,1-.07,6A3.73,3.73,0,0,1,226.67,263.56Zm.09-7.19a2.43,2.43,0,0,0-1.93.83,3.4,3.4,0,0,0-.7,2.28,3.24,3.24,0,0,0,.71,2.21,2.44,2.44,0,0,0,1.92.81,2.31,2.31,0,0,0,1.88-.79,3.44,3.44,0,0,0,.66-2.26,3.52,3.52,0,0,0-.66-2.28A2.31,2.31,0,0,0,226.76,256.37Zm1.85-4.89-2,2.52h-1l1.72-2.52Z"/><path class="ag" d="M239.15,263.38h-1.26v-4.5c0-1.67-.61-2.51-1.83-2.51a2,2,0,0,0-1.57.72,2.63,2.63,0,0,0-.62,1.79v4.5h-1.26V255.5h1.26v1.3h0a2.86,2.86,0,0,1,2.59-1.49,2.42,2.42,0,0,1,2,.84,3.68,3.68,0,0,1,.68,2.41Z"/><path class="ag" d="M146.84,283.17h-1.27v-1.34h0a2.91,2.91,0,0,1-2.71,1.53,3,3,0,0,1-2.37-1.06,4.31,4.31,0,0,1-.89-2.88,4.78,4.78,0,0,1,1-3.14,3.26,3.26,0,0,1,2.63-1.17,2.52,2.52,0,0,1,2.36,1.27h0V271.5h1.27Zm-1.27-3.56v-1.16a2.26,2.26,0,0,0-.63-1.62,2.11,2.11,0,0,0-1.6-.66,2.17,2.17,0,0,0-1.82.85,3.69,3.69,0,0,0-.66,2.33,3.33,3.33,0,0,0,.64,2.16,2.08,2.08,0,0,0,1.7.79,2.14,2.14,0,0,0,1.71-.77A2.83,2.83,0,0,0,145.57,279.61Z"/><path class="ag" d="M155.73,279.55h-5.57a3,3,0,0,0,.71,2,2.43,2.43,0,0,0,1.86.72,3.9,3.9,0,0,0,2.45-.88v1.18a4.53,4.53,0,0,1-2.75.76,3.31,3.31,0,0,1-2.62-1.08,5,5,0,0,1,.09-6,3.32,3.32,0,0,1,2.59-1.15,3,3,0,0,1,2.39,1,4.18,4.18,0,0,1,.85,2.78Zm-1.3-1.07a2.51,2.51,0,0,0-.53-1.7,1.76,1.76,0,0,0-1.44-.61,2,2,0,0,0-1.51.64,2.8,2.8,0,0,0-.77,1.67Z"/><path class="ag" d="M158.9,283.17h-1.27V271.5h1.27Z"/><path class="ag" d="M171.14,282.81a4.11,4.11,0,0,1-2.15.55,3.56,3.56,0,0,1-2.72-1.1,4,4,0,0,1-1-2.84,4.35,4.35,0,0,1,1.12-3.13,3.88,3.88,0,0,1,3-1.18,4.1,4.1,0,0,1,1.83.38v1.29a3.22,3.22,0,0,0-1.88-.61,2.54,2.54,0,0,0-2,.86,3.29,3.29,0,0,0-.78,2.28,3.14,3.14,0,0,0,.73,2.18,2.51,2.51,0,0,0,1.95.81,3.13,3.13,0,0,0,1.94-.69Z"/><path class="ag" d="M176.35,283.36a3.63,3.63,0,0,1-2.79-1.11,4.06,4.06,0,0,1-1-2.93,4.29,4.29,0,0,1,1.08-3.1,3.9,3.9,0,0,1,2.93-1.11,3.57,3.57,0,0,1,2.76,1.08,4.34,4.34,0,0,1,1,3,4.22,4.22,0,0,1-1.06,3A3.74,3.74,0,0,1,176.35,283.36Zm.09-7.19a2.39,2.39,0,0,0-1.92.82,3.39,3.39,0,0,0-.71,2.29,3.26,3.26,0,0,0,.71,2.21,2.44,2.44,0,0,0,1.92.81,2.3,2.3,0,0,0,1.88-.8,3.43,3.43,0,0,0,.66-2.25,3.48,3.48,0,0,0-.66-2.28A2.27,2.27,0,0,0,176.44,276.17Z"/><path class="ag" d="M188.83,283.17h-1.26v-4.49c0-1.67-.61-2.51-1.83-2.51a2,2,0,0,0-1.57.71,2.64,2.64,0,0,0-.62,1.8v4.49h-1.26v-7.88h1.26v1.31h0a2.84,2.84,0,0,1,2.59-1.49,2.41,2.41,0,0,1,2,.83,3.76,3.76,0,0,1,.68,2.41Z"/><path class="ag" d="M194.51,283.36a3.63,3.63,0,0,1-2.79-1.11,4.06,4.06,0,0,1-1.05-2.93,4.25,4.25,0,0,1,1.09-3.1,3.9,3.9,0,0,1,2.93-1.11,3.53,3.53,0,0,1,2.75,1.08,4.3,4.3,0,0,1,1,3,4.22,4.22,0,0,1-1.06,3A3.74,3.74,0,0,1,194.51,283.36Zm.09-7.19a2.42,2.42,0,0,0-1.93.82,3.44,3.44,0,0,0-.7,2.29,3.21,3.21,0,0,0,.71,2.21,2.44,2.44,0,0,0,1.92.81,2.31,2.31,0,0,0,1.88-.8,3.43,3.43,0,0,0,.66-2.25,3.48,3.48,0,0,0-.66-2.28A2.28,2.28,0,0,0,194.6,276.17Z"/><path class="ag" d="M205.82,282.81a4.11,4.11,0,0,1-2.15.55,3.56,3.56,0,0,1-2.72-1.1,4,4,0,0,1-1-2.84,4.35,4.35,0,0,1,1.12-3.13,3.88,3.88,0,0,1,3-1.18,4.1,4.1,0,0,1,1.83.38v1.29a3.22,3.22,0,0,0-1.88-.61,2.54,2.54,0,0,0-2,.86,3.29,3.29,0,0,0-.78,2.28,3.14,3.14,0,0,0,.73,2.18,2.51,2.51,0,0,0,1.95.81,3.13,3.13,0,0,0,1.94-.69Z"/><path class="ag" d="M208.38,273.29a.82.82,0,0,1-.58-.23.79.79,0,0,1-.24-.59.81.81,0,0,1,.24-.59.82.82,0,0,1,.58-.23.84.84,0,0,1,.59.23.81.81,0,0,1,.24.59.78.78,0,0,1-.24.58A.81.81,0,0,1,208.38,273.29Zm.62,9.88h-1.27v-7.88H209Z"/><path class="ag" d="M222.74,283.17h-1.26v-4.52a3.41,3.41,0,0,0-.41-1.9,1.52,1.52,0,0,0-1.35-.58,1.68,1.68,0,0,0-1.38.74,2.8,2.8,0,0,0-.56,1.77v4.49h-1.27v-4.68c0-1.55-.6-2.32-1.79-2.32a1.67,1.67,0,0,0-1.37.69,2.9,2.9,0,0,0-.54,1.82v4.49h-1.26v-7.88h1.26v1.25h0a2.67,2.67,0,0,1,2.45-1.43,2.28,2.28,0,0,1,1.41.45,2.25,2.25,0,0,1,.82,1.18,2.82,2.82,0,0,1,2.62-1.63c1.73,0,2.6,1.07,2.6,3.21Z"/><path class="ag" d="M225.77,273.29a.81.81,0,0,1-.57-.23.79.79,0,0,1-.24-.59.8.8,0,0,1,.81-.82.82.82,0,0,1,.59.23.78.78,0,0,1,.25.59.76.76,0,0,1-.25.58A.79.79,0,0,1,225.77,273.29Zm.62,9.88h-1.26v-7.88h1.26Z"/><path class="ag" d="M235.28,279.55h-5.56a3,3,0,0,0,.7,2,2.46,2.46,0,0,0,1.87.72,3.92,3.92,0,0,0,2.45-.88v1.18a4.55,4.55,0,0,1-2.75.76,3.33,3.33,0,0,1-2.63-1.08,4.41,4.41,0,0,1-1-3,4.32,4.32,0,0,1,1-3,3.35,3.35,0,0,1,2.59-1.15,2.94,2.94,0,0,1,2.39,1,4.13,4.13,0,0,1,.85,2.78ZM234,278.48a2.56,2.56,0,0,0-.53-1.7,1.79,1.79,0,0,0-1.44-.61,2,2,0,0,0-1.52.64,2.92,2.92,0,0,0-.77,1.67Z"/><path class="ag" d="M243.73,283.17h-1.26v-4.49c0-1.67-.61-2.51-1.83-2.51a2,2,0,0,0-1.57.71,2.64,2.64,0,0,0-.62,1.8v4.49h-1.26v-7.88h1.26v1.31h0a2.84,2.84,0,0,1,2.59-1.49,2.41,2.41,0,0,1,2,.83,3.7,3.7,0,0,1,.68,2.41Z"/><path class="ag" d="M249.77,283.1a2.5,2.5,0,0,1-1.18.24q-2.07,0-2.07-2.31v-4.66h-1.35v-1.08h1.35v-1.92l1.26-.41v2.33h2v1.08h-2v4.44a1.84,1.84,0,0,0,.27,1.13,1.07,1.07,0,0,0,.9.34,1.36,1.36,0,0,0,.82-.26Z"/><path class="ag" d="M254.75,283.36a3.63,3.63,0,0,1-2.79-1.11,4.06,4.06,0,0,1-1-2.93,4.29,4.29,0,0,1,1.08-3.1,3.9,3.9,0,0,1,2.93-1.11,3.57,3.57,0,0,1,2.76,1.08,4.34,4.34,0,0,1,1,3,4.22,4.22,0,0,1-1.06,3A3.74,3.74,0,0,1,254.75,283.36Zm.09-7.19a2.39,2.39,0,0,0-1.92.82,3.39,3.39,0,0,0-.71,2.29,3.26,3.26,0,0,0,.71,2.21,2.44,2.44,0,0,0,1.92.81,2.3,2.3,0,0,0,1.88-.8,3.43,3.43,0,0,0,.66-2.25,3.48,3.48,0,0,0-.66-2.28A2.27,2.27,0,0,0,254.84,276.17Z"/><path class="ag" d="M261.13,283.34a.79.79,0,0,1-.6-.25.87.87,0,0,1,0-1.22.79.79,0,0,1,.6-.26.87.87,0,0,1,.62,1.48A.84.84,0,0,1,261.13,283.34Z"/></g><path class="b" d="M115.88,15.78H1.32A1.32,1.32,0,0,0,0,17.1V56.5a1.32,1.32,0,0,0,1.32,1.32H19a1.34,1.34,0,0,1,.93.38l4.62,4.62a1.32,1.32,0,0,0,1.86,0L31,58.2a1.36,1.36,0,0,1,.93-.38h83.93a1.32,1.32,0,0,0,1.31-1.32V17.1A1.32,1.32,0,0,0,115.88,15.78Z"/><g class="ae"><g class="ae"><path class="h" d="M17.3,31.49H15.61v-3H12.53v3H10.85V24h1.68v3h3.08V24H17.3Z"/><path class="h" d="M23.62,29.3H20.15c.06.77.54,1.16,1.46,1.16A2.86,2.86,0,0,0,23.16,30v1.19a4.15,4.15,0,0,1-1.92.39,2.48,2.48,0,0,1-2.72-2.7,2.84,2.84,0,0,1,.77-2.1,2.58,2.58,0,0,1,1.9-.78,2.34,2.34,0,0,1,1.8.69,2.69,2.69,0,0,1,.63,1.88Zm-1.52-1c0-.76-.31-1.14-.92-1.14a.88.88,0,0,0-.69.33,1.5,1.5,0,0,0-.35.81Z"/><path class="h" d="M28.07,27.65a1.53,1.53,0,0,0-.69-.16,1,1,0,0,0-.84.4,1.69,1.69,0,0,0-.3,1.06v2.54H24.6V26.17h1.64v1h0a1.42,1.42,0,0,1,1.41-1.08,1.05,1.05,0,0,1,.4.06Z"/><path class="h" d="M32.31,27.65a1.53,1.53,0,0,0-.69-.16,1,1,0,0,0-.84.4,1.69,1.69,0,0,0-.3,1.06v2.54H28.84V26.17h1.64v1h0a1.42,1.42,0,0,1,1.4-1.08,1.11,1.11,0,0,1,.41.06Z"/><path class="h" d="M37.5,31.49H36v-.76h0a1.71,1.71,0,0,1-1.58.89,1.67,1.67,0,0,1-1.22-.43A1.62,1.62,0,0,1,32.68,30c0-1,.61-1.62,1.83-1.78L36,28c0-.58-.32-.87-1-.87a3.22,3.22,0,0,0-1.81.57V26.49a4,4,0,0,1,.94-.31A5,5,0,0,1,35.22,26a2,2,0,0,1,2.28,2.27ZM36,29.33V29l-1,.13c-.53.07-.8.31-.8.72a.59.59,0,0,0,.19.46.76.76,0,0,0,.53.18,1,1,0,0,0,.76-.32A1.16,1.16,0,0,0,36,29.33Z"/><path class="h" d="M47.25,31.49H45.61v-3c0-.77-.28-1.16-.85-1.16a.79.79,0,0,0-.66.35,1.42,1.42,0,0,0-.25.87v3H42.2V28.43c0-.75-.28-1.13-.83-1.13a.82.82,0,0,0-.68.33,1.56,1.56,0,0,0-.25.91v2.95H38.8V26.17h1.64V27h0a2,2,0,0,1,.72-.69,1.92,1.92,0,0,1,1-.27,1.54,1.54,0,0,1,1.55,1,2,2,0,0,1,1.78-1c1.16,0,1.74.72,1.74,2.14Z"/><path class="h" d="M49.38,25.33a.94.94,0,0,1-.68-.25.77.77,0,0,1-.27-.6.74.74,0,0,1,.27-.6,1,1,0,0,1,.68-.24,1,1,0,0,1,.68.24.74.74,0,0,1,.27.6.78.78,0,0,1-.27.61A1,1,0,0,1,49.38,25.33Zm.81,6.16H48.55V26.17h1.64Z"/><path class="h" d="M56.36,29.3H52.88c.06.77.55,1.16,1.46,1.16A2.86,2.86,0,0,0,55.89,30v1.19a4.09,4.09,0,0,1-1.92.39,2.47,2.47,0,0,1-2.71-2.7,2.8,2.8,0,0,1,.77-2.1A2.54,2.54,0,0,1,53.92,26a2.34,2.34,0,0,1,1.8.69,2.69,2.69,0,0,1,.64,1.88Zm-1.53-1c0-.76-.31-1.14-.92-1.14a.89.89,0,0,0-.69.33,1.5,1.5,0,0,0-.35.81Z"/><path class="h" d="M62.47,31.49H60.83V28.54c0-.83-.29-1.24-.88-1.24a.87.87,0,0,0-.7.33,1.26,1.26,0,0,0-.27.83v3H57.33V26.17H59V27h0a1.88,1.88,0,0,1,1.71-1c1.17,0,1.76.73,1.76,2.2Z"/><path class="h" d="M67,31.43a2.41,2.41,0,0,1-1.1.19c-1.15,0-1.73-.6-1.73-1.8V27.38h-.87V26.17h.87V25l1.63-.46v1.61H67v1.21h-1.2v2.16c0,.55.22.83.66.83a1.1,1.1,0,0,0,.54-.15Z"/><path class="h" d="M72.34,31.49H70.79v-.76h0a1.73,1.73,0,0,1-1.59.89A1.68,1.68,0,0,1,68,31.19,1.62,1.62,0,0,1,67.52,30c0-1,.61-1.62,1.83-1.78L70.8,28c0-.58-.32-.87-1-.87a3.22,3.22,0,0,0-1.81.57V26.49a4,4,0,0,1,.94-.31A5,5,0,0,1,70.06,26a2,2,0,0,1,2.28,2.27ZM70.8,29.33V29l-1,.13c-.53.07-.8.31-.8.72a.6.6,0,0,0,.2.46.73.73,0,0,0,.52.18,1,1,0,0,0,.76-.32A1.16,1.16,0,0,0,70.8,29.33Z"/><path class="h" d="M73.29,31.35V30a3.24,3.24,0,0,0,.81.37,2.66,2.66,0,0,0,.76.12,1.64,1.64,0,0,0,.69-.12A.38.38,0,0,0,75.8,30a.36.36,0,0,0-.11-.26,1,1,0,0,0-.3-.18,2.93,2.93,0,0,0-.39-.14l-.41-.14A3.24,3.24,0,0,1,74,29a1.41,1.41,0,0,1-.4-.32,1.27,1.27,0,0,1-.25-.42,1.57,1.57,0,0,1-.09-.56,1.45,1.45,0,0,1,.2-.77,1.55,1.55,0,0,1,.52-.53,2.13,2.13,0,0,1,.74-.3,3.57,3.57,0,0,1,.87-.1,4.37,4.37,0,0,1,.72.06,4.29,4.29,0,0,1,.71.16v1.26a2.55,2.55,0,0,0-.66-.27,2.86,2.86,0,0,0-.7-.09,1.55,1.55,0,0,0-.31,0l-.25.08a.61.61,0,0,0-.17.14.34.34,0,0,0-.06.2.38.38,0,0,0,.09.25.8.8,0,0,0,.25.18,2.52,2.52,0,0,0,.33.13l.37.12a5.51,5.51,0,0,1,.59.25,1.72,1.72,0,0,1,.45.32,1.19,1.19,0,0,1,.3.43,1.63,1.63,0,0,1,.1.58,1.53,1.53,0,0,1-.21.81,1.64,1.64,0,0,1-.54.54,2.66,2.66,0,0,1-.79.31,4.56,4.56,0,0,1-.92.09A4.76,4.76,0,0,1,73.29,31.35Z"/></g><g class="ae"><path class="h" d="M82.29,30.73h0v3.21h-.86V26.17h.86v.94h0a2,2,0,0,1,1.84-1.06,2,2,0,0,1,1.6.71,3,3,0,0,1,.58,1.92,3.33,3.33,0,0,1-.65,2.14,2.18,2.18,0,0,1-1.78.8A1.77,1.77,0,0,1,82.29,30.73Zm0-2.15v.74a1.59,1.59,0,0,0,.42,1.12,1.42,1.42,0,0,0,1.09.46A1.45,1.45,0,0,0,85,30.31a2.74,2.74,0,0,0,.44-1.65A2.17,2.17,0,0,0,85,27.27a1.36,1.36,0,0,0-1.12-.5,1.51,1.51,0,0,0-1.19.51A1.92,1.92,0,0,0,82.27,28.58Z"/><path class="h" d="M91.48,31.49h-.85v-.83h0a1.8,1.8,0,0,1-1.64,1,1.77,1.77,0,0,1-1.25-.42,1.45,1.45,0,0,1-.44-1.12c0-1,.58-1.57,1.75-1.73l1.6-.23c0-.9-.37-1.35-1.1-1.35a2.62,2.62,0,0,0-1.74.65v-.87a3.26,3.26,0,0,1,1.81-.5c1.25,0,1.88.66,1.88,2Zm-.85-2.69L89.34,29a2,2,0,0,0-.89.29.85.85,0,0,0-.3.75.81.81,0,0,0,.28.64,1.08,1.08,0,0,0,.74.24,1.37,1.37,0,0,0,1-.44,1.58,1.58,0,0,0,.42-1.13Z"/><path class="h" d="M95.86,27a1,1,0,0,0-.64-.18,1.11,1.11,0,0,0-.92.52,2.4,2.4,0,0,0-.36,1.4v2.71h-.85V26.17h.85v1.1h0a1.89,1.89,0,0,1,.56-.88,1.22,1.22,0,0,1,.83-.31,1.39,1.39,0,0,1,.51.07Z"/><path class="h" d="M100.59,31.49h-.85v-.83h0a1.94,1.94,0,0,1-2.88.54,1.45,1.45,0,0,1-.45-1.12c0-1,.59-1.57,1.76-1.73l1.59-.23c0-.9-.36-1.35-1.09-1.35a2.62,2.62,0,0,0-1.74.65v-.87a3.24,3.24,0,0,1,1.81-.5c1.25,0,1.87.66,1.87,2Zm-.85-2.69L98.46,29a2,2,0,0,0-.89.29.83.83,0,0,0-.31.75.85.85,0,0,0,.28.64,1.1,1.1,0,0,0,.74.24,1.39,1.39,0,0,0,1-.44,1.62,1.62,0,0,0,.41-1.13Z"/></g><g class="ae"><path class="h" d="M11.71,45.69h-.85V37.81h.85Z"/><path class="h" d="M15.66,45.81a2.48,2.48,0,0,1-1.88-.74,2.78,2.78,0,0,1-.71-2,2.89,2.89,0,0,1,.74-2.1,2.62,2.62,0,0,1,2-.75,2.36,2.36,0,0,1,1.85.73,3.34,3.34,0,0,1-.05,4.08A2.52,2.52,0,0,1,15.66,45.81ZM15.72,41a1.61,1.61,0,0,0-1.3.56A2.32,2.32,0,0,0,14,43.06a2.19,2.19,0,0,0,.48,1.49,1.64,1.64,0,0,0,1.29.54A1.54,1.54,0,0,0,17,44.56a2.83,2.83,0,0,0,0-3.06A1.54,1.54,0,0,0,15.72,41Z"/><path class="h" d="M19.35,45.49v-.91a2.56,2.56,0,0,0,1.54.51c.74,0,1.12-.25,1.12-.74a.57.57,0,0,0-.1-.36,1,1,0,0,0-.26-.27,2.69,2.69,0,0,0-.38-.2l-.48-.19c-.23-.1-.44-.19-.62-.29a1.72,1.72,0,0,1-.45-.32,1.13,1.13,0,0,1-.27-.41,1.44,1.44,0,0,1-.09-.53,1.3,1.3,0,0,1,.17-.66,1.54,1.54,0,0,1,.46-.49,2.26,2.26,0,0,1,.65-.29,2.78,2.78,0,0,1,.76-.1,3.08,3.08,0,0,1,1.24.24v.86A2.5,2.5,0,0,0,21.29,41a2,2,0,0,0-.44,0,1.13,1.13,0,0,0-.33.16.66.66,0,0,0-.21.23.65.65,0,0,0-.08.31.71.71,0,0,0,.08.34.65.65,0,0,0,.22.25,1.54,1.54,0,0,0,.36.2l.47.19c.23.09.44.19.63.28a2.23,2.23,0,0,1,.48.32,1.25,1.25,0,0,1,.3.42,1.31,1.31,0,0,1,.11.55,1.38,1.38,0,0,1-.17.69,1.54,1.54,0,0,1-.47.48,2,2,0,0,1-.67.29,3.42,3.42,0,0,1-.79.09A2.93,2.93,0,0,1,19.35,45.49Z"/><path class="h" d="M30.91,45.69h-.85v-.83h0a1.95,1.95,0,0,1-2.88.53,1.45,1.45,0,0,1-.45-1.12c0-1,.59-1.57,1.76-1.73l1.59-.23c0-.9-.36-1.35-1.09-1.35a2.67,2.67,0,0,0-1.74.65v-.87a3.32,3.32,0,0,1,1.81-.5c1.25,0,1.87.66,1.87,2ZM30.06,43l-1.28.18a2.1,2.1,0,0,0-.89.3.81.81,0,0,0-.31.74.85.85,0,0,0,.28.64,1.1,1.1,0,0,0,.74.24,1.35,1.35,0,0,0,1-.44,1.62,1.62,0,0,0,.41-1.13Z"/><path class="h" d="M33.37,45.69h-.85V37.81h.85Z"/><path class="h" d="M39.4,45.69h-.85v-.85h0a1.74,1.74,0,0,1-1.64,1c-1.27,0-1.91-.75-1.91-2.26V40.37h.85v3q0,1.68,1.29,1.68a1.3,1.3,0,0,0,1-.46,1.72,1.72,0,0,0,.4-1.2V40.37h.85Z"/><path class="h" d="M48.68,45.69h-.85V42.63a2.25,2.25,0,0,0-.28-1.28,1,1,0,0,0-.91-.39,1.11,1.11,0,0,0-.93.5,1.86,1.86,0,0,0-.38,1.19v3h-.86V42.53c0-1.05-.4-1.57-1.21-1.57a1.1,1.1,0,0,0-.92.47A1.94,1.94,0,0,0,42,42.65v3h-.86V40.37H42v.84h0a1.78,1.78,0,0,1,1.65-1,1.54,1.54,0,0,1,1.51,1.1,1.89,1.89,0,0,1,1.76-1.1c1.17,0,1.76.72,1.76,2.17Z"/><path class="h" d="M54.71,45.69h-.86v-3c0-1.13-.41-1.69-1.23-1.69a1.34,1.34,0,0,0-1.06.48,1.76,1.76,0,0,0-.42,1.21v3h-.85V40.37h.85v.88h0a1.93,1.93,0,0,1,1.75-1,1.62,1.62,0,0,1,1.33.56,2.51,2.51,0,0,1,.47,1.63Z"/><path class="h" d="M58.54,45.81a2.5,2.5,0,0,1-1.89-.74,2.77,2.77,0,0,1-.7-2,2.89,2.89,0,0,1,.73-2.1,2.65,2.65,0,0,1,2-.75,2.38,2.38,0,0,1,1.86.73,3.34,3.34,0,0,1-.05,4.08A2.52,2.52,0,0,1,58.54,45.81ZM58.6,41a1.6,1.6,0,0,0-1.3.56,2.27,2.27,0,0,0-.48,1.54,2.14,2.14,0,0,0,.49,1.49,1.64,1.64,0,0,0,1.29.54,1.55,1.55,0,0,0,1.27-.53,2.88,2.88,0,0,0,0-3.06A1.56,1.56,0,0,0,58.6,41Z"/><path class="h" d="M62.23,45.49v-.91a2.51,2.51,0,0,0,1.53.51c.75,0,1.12-.25,1.12-.74a.64.64,0,0,0-.09-.36,1.1,1.1,0,0,0-.26-.27,2.36,2.36,0,0,0-.39-.2l-.47-.19a5.25,5.25,0,0,1-.62-.29,1.72,1.72,0,0,1-.45-.32,1.13,1.13,0,0,1-.27-.41,1.44,1.44,0,0,1-.09-.53,1.3,1.3,0,0,1,.17-.66,1.44,1.44,0,0,1,.46-.49,2.26,2.26,0,0,1,.65-.29,2.73,2.73,0,0,1,.76-.1,3,3,0,0,1,1.23.24v.86A2.45,2.45,0,0,0,64.16,41a1.88,1.88,0,0,0-.43,0,1,1,0,0,0-.33.16.66.66,0,0,0-.21.23.65.65,0,0,0-.08.31.71.71,0,0,0,.08.34.65.65,0,0,0,.22.25,1.46,1.46,0,0,0,.35.2l.47.19c.24.09.45.19.64.28a2.86,2.86,0,0,1,.48.32,1.25,1.25,0,0,1,.3.42,1.31,1.31,0,0,1,.11.55,1.29,1.29,0,0,1-.18.69,1.5,1.5,0,0,1-.46.48,2.13,2.13,0,0,1-.67.29,3.5,3.5,0,0,1-.8.09A2.89,2.89,0,0,1,62.23,45.49Z"/><path class="h" d="M67.36,45.8a.58.58,0,0,1-.41-.17.59.59,0,0,1,.41-1,.58.58,0,0,1,.42.18.58.58,0,0,1,0,.82A.61.61,0,0,1,67.36,45.8Z"/></g></g><g class="ae"><g class="ae"><path class="h" d="M140,23.15H138l-1.16-1.91c-.08-.15-.17-.28-.24-.39a2,2,0,0,0-.25-.3.83.83,0,0,0-.25-.18.59.59,0,0,0-.29-.07h-.45v2.85H133.7V15.7h2.66c1.81,0,2.71.68,2.71,2a2.09,2.09,0,0,1-.12.72,2,2,0,0,1-.33.59,2.34,2.34,0,0,1-.53.46,2.67,2.67,0,0,1-.69.3v0a1.1,1.1,0,0,1,.32.17,1.93,1.93,0,0,1,.3.27c.1.11.19.22.28.34s.17.24.24.35ZM135.38,17V19h.73a1.16,1.16,0,0,0,.86-.31,1,1,0,0,0,.34-.78c0-.66-.39-1-1.17-1Z"/><path class="h" d="M145,21h-3.47c.06.77.54,1.16,1.46,1.16a2.86,2.86,0,0,0,1.55-.42v1.19a4.15,4.15,0,0,1-1.92.39,2.48,2.48,0,0,1-2.72-2.7,2.84,2.84,0,0,1,.77-2.1,2.58,2.58,0,0,1,1.9-.78,2.34,2.34,0,0,1,1.8.69,2.69,2.69,0,0,1,.63,1.88Zm-1.52-1c0-.76-.31-1.14-.92-1.14a.88.88,0,0,0-.69.33,1.46,1.46,0,0,0-.35.81Z"/><path class="h" d="M150,23a3.17,3.17,0,0,1-1.6.32,2.71,2.71,0,0,1-2-.74,2.61,2.61,0,0,1-.76-1.92,2.83,2.83,0,0,1,.82-2.14,3,3,0,0,1,2.17-.78A2.73,2.73,0,0,1,150,18v1.39a1.89,1.89,0,0,0-1.15-.38,1.54,1.54,0,0,0-1.12.41,1.58,1.58,0,0,0-.41,1.14,1.5,1.5,0,0,0,.4,1.11,1.43,1.43,0,0,0,1.08.41,2.14,2.14,0,0,0,1.2-.39Z"/><path class="h" d="M156.15,23.15h-1.64v-.81h0a1.83,1.83,0,0,1-1.62.94c-1.24,0-1.85-.74-1.85-2.24V17.83h1.63V20.9c0,.75.3,1.13.9,1.13a.89.89,0,0,0,.7-.31,1.25,1.25,0,0,0,.27-.84V17.83h1.64Z"/><path class="h" d="M161,19.31a1.53,1.53,0,0,0-.69-.16,1,1,0,0,0-.84.39,1.74,1.74,0,0,0-.3,1.07v2.54h-1.64V17.83h1.64v1h0a1.42,1.42,0,0,1,1.4-1.08,1.11,1.11,0,0,1,.41.06Z"/><path class="h" d="M161.48,23V21.68a3.24,3.24,0,0,0,.81.37,2.66,2.66,0,0,0,.76.12,1.64,1.64,0,0,0,.69-.12.4.4,0,0,0,.25-.37.36.36,0,0,0-.11-.26,1.09,1.09,0,0,0-.3-.18,3.54,3.54,0,0,0-.39-.14l-.41-.14a4.21,4.21,0,0,1-.56-.26,1.45,1.45,0,0,1-.4-.32,1.12,1.12,0,0,1-.25-.42,1.6,1.6,0,0,1-.09-.56,1.44,1.44,0,0,1,.19-.77,1.65,1.65,0,0,1,.52-.53,2.27,2.27,0,0,1,.75-.3,3.57,3.57,0,0,1,.87-.1,4.34,4.34,0,0,1,.71.06,5.4,5.4,0,0,1,.72.15v1.27a2.61,2.61,0,0,0-.67-.27,2.78,2.78,0,0,0-.69-.09,1.55,1.55,0,0,0-.31,0,.92.92,0,0,0-.25.08.47.47,0,0,0-.17.14.34.34,0,0,0-.06.2.38.38,0,0,0,.09.25.92.92,0,0,0,.24.17,1.73,1.73,0,0,0,.34.14l.37.12c.21.08.41.16.59.25a1.91,1.91,0,0,1,.45.32,1.1,1.1,0,0,1,.29.42,1.52,1.52,0,0,1,.1.59,1.46,1.46,0,0,1-.2.8,1.61,1.61,0,0,1-.55.55,2.6,2.6,0,0,1-.78.31,4.63,4.63,0,0,1-.92.09A4.76,4.76,0,0,1,161.48,23Z"/><path class="h" d="M169.05,23.28a2.91,2.91,0,0,1-2.1-.74,2.74,2.74,0,0,1-.76-2,2.7,2.7,0,0,1,.79-2.06,3,3,0,0,1,2.14-.75,2.84,2.84,0,0,1,2.08.75,2.64,2.64,0,0,1,.75,2,2.8,2.8,0,0,1-.78,2.09A2.83,2.83,0,0,1,169.05,23.28Zm0-4.32a1.1,1.1,0,0,0-.91.4,1.79,1.79,0,0,0-.32,1.13c0,1,.41,1.54,1.24,1.54s1.18-.53,1.18-1.58S169.88,19,169.09,19Z"/><path class="h" d="M172.67,23V21.68a3.24,3.24,0,0,0,.81.37,2.61,2.61,0,0,0,.76.12,1.64,1.64,0,0,0,.69-.12.4.4,0,0,0,.25-.37.34.34,0,0,0-.12-.26.9.9,0,0,0-.29-.18,3.54,3.54,0,0,0-.39-.14L174,21a4.21,4.21,0,0,1-.56-.26,1.67,1.67,0,0,1-.41-.32,1.46,1.46,0,0,1-.25-.42,1.89,1.89,0,0,1-.08-.56,1.44,1.44,0,0,1,.19-.77,1.65,1.65,0,0,1,.52-.53,2.27,2.27,0,0,1,.75-.3,3.57,3.57,0,0,1,.87-.1,4.34,4.34,0,0,1,.71.06,5.4,5.4,0,0,1,.72.15v1.27a2.61,2.61,0,0,0-.67-.27,2.8,2.8,0,0,0-.7-.09,1.53,1.53,0,0,0-.3,0,.92.92,0,0,0-.25.08.4.4,0,0,0-.17.14.28.28,0,0,0-.06.2.38.38,0,0,0,.09.25.92.92,0,0,0,.24.17,1.51,1.51,0,0,0,.34.14l.36.12a5.72,5.72,0,0,1,.6.25,2.14,2.14,0,0,1,.45.32,1.1,1.1,0,0,1,.29.42,1.52,1.52,0,0,1,.1.59,1.56,1.56,0,0,1-.2.8,1.61,1.61,0,0,1-.55.55,2.6,2.6,0,0,1-.78.31,4.94,4.94,0,0,1-2.55-.18Z"/><path class="h" d="M185.84,23.15H184.2v-.73h0a1.82,1.82,0,0,1-1.65.86,2,2,0,0,1-1.6-.7,2.9,2.9,0,0,1-.61-2A3.14,3.14,0,0,1,181,18.5a2.19,2.19,0,0,1,1.75-.8,1.5,1.5,0,0,1,1.44.74h0V15.27h1.64Zm-1.61-2.59v-.39a1.28,1.28,0,0,0-.3-.87,1,1,0,0,0-.78-.34,1,1,0,0,0-.86.43,2,2,0,0,0-.3,1.17,1.81,1.81,0,0,0,.29,1.09,1,1,0,0,0,.82.38,1,1,0,0,0,.82-.4A1.68,1.68,0,0,0,184.23,20.56Z"/><path class="h" d="M192,21h-3.47c.05.77.54,1.16,1.46,1.16a2.82,2.82,0,0,0,1.54-.42v1.19a4.09,4.09,0,0,1-1.92.39,2.69,2.69,0,0,1-2-.71,2.72,2.72,0,0,1-.71-2,2.84,2.84,0,0,1,.77-2.1,2.54,2.54,0,0,1,1.89-.78,2.31,2.31,0,0,1,1.8.69,2.65,2.65,0,0,1,.64,1.88Zm-1.53-1c0-.76-.3-1.14-.92-1.14a.88.88,0,0,0-.68.33,1.47,1.47,0,0,0-.36.81Z"/><path class="h" d="M200.35,23.15h-1.56v-.76h0a1.73,1.73,0,0,1-1.58.89,1.63,1.63,0,0,1-1.22-.44,1.55,1.55,0,0,1-.45-1.17c0-1,.62-1.63,1.84-1.79l1.44-.19c0-.58-.31-.87-.94-.87a3.2,3.2,0,0,0-1.81.57V18.15a4,4,0,0,1,.94-.31,4.93,4.93,0,0,1,1.08-.14A2,2,0,0,1,200.35,20ZM198.8,21v-.36l-1,.13c-.54.07-.8.31-.8.72a.59.59,0,0,0,.19.46.76.76,0,0,0,.53.18,1,1,0,0,0,.75-.32A1.12,1.12,0,0,0,198.8,21Z"/><path class="h" d="M203.31,22.53h0V25.6h-1.64V17.83h1.64v.8h0a2.09,2.09,0,0,1,3.31-.22,3.06,3.06,0,0,1,.56,1.93,3.33,3.33,0,0,1-.65,2.14,2.17,2.17,0,0,1-1.75.8A1.67,1.67,0,0,1,203.31,22.53Zm-.05-2.18v.43a1.34,1.34,0,0,0,.3.9.94.94,0,0,0,.76.35,1,1,0,0,0,.87-.44,2.07,2.07,0,0,0,.31-1.23c0-.93-.37-1.4-1.09-1.4a1.05,1.05,0,0,0-.83.38A1.55,1.55,0,0,0,203.26,20.35Z"/><path class="h" d="M210.78,23.28a2.9,2.9,0,0,1-2.09-.74,2.74,2.74,0,0,1-.76-2,2.7,2.7,0,0,1,.79-2.06,3,3,0,0,1,2.14-.75,2.84,2.84,0,0,1,2.08.75,2.64,2.64,0,0,1,.75,2,2.8,2.8,0,0,1-.78,2.09A2.87,2.87,0,0,1,210.78,23.28Zm.05-4.32a1.1,1.1,0,0,0-.91.4,1.79,1.79,0,0,0-.32,1.13c0,1,.41,1.54,1.24,1.54S212,21.5,212,20.45,211.62,19,210.83,19Z"/><path class="h" d="M219.82,17.83l-2.16,5.75c-.52,1.38-1.3,2.07-2.35,2.07a3,3,0,0,1-1-.13V24.21a1.35,1.35,0,0,0,.71.19.88.88,0,0,0,.88-.6l.28-.66L214,17.83h1.82l1,3.24a3.27,3.27,0,0,1,.15.71h0a5.36,5.36,0,0,1,.17-.7l1-3.25Z"/><path class="h" d="M222.91,23.28a2.9,2.9,0,0,1-2.09-.74,2.74,2.74,0,0,1-.76-2,2.7,2.7,0,0,1,.79-2.06A3,3,0,0,1,223,17.7a2.84,2.84,0,0,1,2.08.75,2.64,2.64,0,0,1,.75,2,2.8,2.8,0,0,1-.78,2.09A2.86,2.86,0,0,1,222.91,23.28ZM223,19a1.1,1.1,0,0,0-.91.4,1.79,1.79,0,0,0-.32,1.13c0,1,.41,1.54,1.24,1.54s1.18-.53,1.18-1.58S223.75,19,223,19Z"/></g><g class="ae"><path class="h" d="M230.85,22.38h0V25.6H230V17.83h.85v.94h0a2,2,0,0,1,1.83-1.06,1.93,1.93,0,0,1,1.61.71,3,3,0,0,1,.58,1.92,3.33,3.33,0,0,1-.65,2.14,2.18,2.18,0,0,1-1.78.8A1.76,1.76,0,0,1,230.85,22.38Zm0-2.14V21a1.62,1.62,0,0,0,.43,1.12,1.42,1.42,0,0,0,1.09.46,1.45,1.45,0,0,0,1.22-.59,2.76,2.76,0,0,0,.43-1.65,2.15,2.15,0,0,0-.4-1.39,1.37,1.37,0,0,0-1.12-.51,1.52,1.52,0,0,0-1.19.52A1.88,1.88,0,0,0,230.82,20.24Z"/><path class="h" d="M240,23.15h-.85v-.83h0a1.8,1.8,0,0,1-1.64,1,1.77,1.77,0,0,1-1.25-.42,1.47,1.47,0,0,1-.45-1.12c0-1,.59-1.57,1.76-1.74l1.6-.22c0-.9-.37-1.36-1.1-1.36a2.63,2.63,0,0,0-1.74.66v-.87a3.26,3.26,0,0,1,1.81-.5c1.25,0,1.88.66,1.88,2Zm-.85-2.69-1.29.18a2,2,0,0,0-.89.29.85.85,0,0,0-.3.75.8.8,0,0,0,.27.63,1.08,1.08,0,0,0,.75.25,1.37,1.37,0,0,0,1-.44,1.6,1.6,0,0,0,.42-1.13Z"/><path class="h" d="M244.42,18.69a1.06,1.06,0,0,0-.64-.17,1.09,1.09,0,0,0-.92.52,2.4,2.4,0,0,0-.36,1.4v2.71h-.85V17.83h.85v1.1h0a1.82,1.82,0,0,1,.55-.88,1.27,1.27,0,0,1,.84-.31,1.39,1.39,0,0,1,.51.07Z"/><path class="h" d="M249.15,23.15h-.85v-.83h0a1.94,1.94,0,0,1-2.88.54,1.47,1.47,0,0,1-.45-1.12c0-1,.59-1.57,1.76-1.74l1.59-.22c0-.9-.36-1.36-1.09-1.36a2.63,2.63,0,0,0-1.74.66v-.87a3.24,3.24,0,0,1,1.81-.5c1.25,0,1.87.66,1.87,2Zm-.85-2.69-1.28.18a2.07,2.07,0,0,0-.9.29.85.85,0,0,0-.3.75.81.81,0,0,0,.28.63,1.05,1.05,0,0,0,.74.25,1.39,1.39,0,0,0,1-.44A1.64,1.64,0,0,0,248.3,21Z"/><path class="h" d="M254.53,23.15h-.85V15.27h.85Z"/><path class="h" d="M258.48,23.28a2.47,2.47,0,0,1-1.89-.75,2.75,2.75,0,0,1-.7-2,2.86,2.86,0,0,1,.73-2.09,2.65,2.65,0,0,1,2-.75,2.37,2.37,0,0,1,1.86.73,2.89,2.89,0,0,1,.67,2,2.86,2.86,0,0,1-.72,2A2.52,2.52,0,0,1,258.48,23.28Zm.06-4.86a1.63,1.63,0,0,0-1.3.56,2.31,2.31,0,0,0-.48,1.54,2.17,2.17,0,0,0,.49,1.5,1.64,1.64,0,0,0,1.29.54,1.58,1.58,0,0,0,1.27-.53,2.33,2.33,0,0,0,.45-1.53,2.36,2.36,0,0,0-.45-1.54A1.56,1.56,0,0,0,258.54,18.42Z"/><path class="h" d="M262.17,23v-.91a2.51,2.51,0,0,0,1.53.51c.75,0,1.12-.25,1.12-.75a.69.69,0,0,0-.09-.36.92.92,0,0,0-.26-.26,1.79,1.79,0,0,0-.39-.21l-.47-.19a4.56,4.56,0,0,1-.62-.28,1.72,1.72,0,0,1-.45-.32,1.22,1.22,0,0,1-.27-.41,1.44,1.44,0,0,1-.09-.53,1.33,1.33,0,0,1,.17-.67,1.62,1.62,0,0,1,.46-.48,2,2,0,0,1,.65-.29,2.73,2.73,0,0,1,.76-.1,3,3,0,0,1,1.23.24v.86a2.38,2.38,0,0,0-1.35-.39,1.44,1.44,0,0,0-.43.06,1,1,0,0,0-.33.15.79.79,0,0,0-.21.24.61.61,0,0,0-.08.3.72.72,0,0,0,.08.35.74.74,0,0,0,.22.25,1.9,1.9,0,0,0,.35.2l.48.19a6.24,6.24,0,0,1,.63.28,1.91,1.91,0,0,1,.48.32,1.31,1.31,0,0,1,.3.41,1.36,1.36,0,0,1,.11.56,1.31,1.31,0,0,1-.18.69,1.5,1.5,0,0,1-.46.48,2.11,2.11,0,0,1-.67.28,3.29,3.29,0,0,1-2.22-.22Z"/></g><g class="ae"><path class="h" d="M138.25,37.35h-.85v-.91h0a2,2,0,0,1-1.83,1,2,2,0,0,1-1.6-.71,3,3,0,0,1-.6-1.95,3.22,3.22,0,0,1,.66-2.12,2.19,2.19,0,0,1,1.77-.79,1.72,1.72,0,0,1,1.6.86h0V29.47h.85Zm-.85-2.41v-.79a1.5,1.5,0,0,0-.43-1.09,1.4,1.4,0,0,0-1.08-.44,1.45,1.45,0,0,0-1.22.57,2.5,2.5,0,0,0-.45,1.58,2.22,2.22,0,0,0,.43,1.45,1.38,1.38,0,0,0,1.15.53,1.48,1.48,0,0,0,1.16-.51A2,2,0,0,0,137.4,34.94Z"/><path class="h" d="M142.2,37.47a2.46,2.46,0,0,1-1.88-.75,2.73,2.73,0,0,1-.71-2,2.88,2.88,0,0,1,.74-2.1,2.65,2.65,0,0,1,2-.75,2.4,2.4,0,0,1,1.86.73,2.94,2.94,0,0,1,.66,2,2.86,2.86,0,0,1-.72,2A2.52,2.52,0,0,1,142.2,37.47Zm.07-4.85a1.61,1.61,0,0,0-1.3.55,2.32,2.32,0,0,0-.48,1.55,2.19,2.19,0,0,0,.48,1.49,1.65,1.65,0,0,0,1.3.54,1.58,1.58,0,0,0,1.27-.53,2.88,2.88,0,0,0,0-3.06A1.56,1.56,0,0,0,142.27,32.62Z"/><path class="h" d="M149.84,37.1a2.72,2.72,0,0,1-1.45.37,2.43,2.43,0,0,1-1.84-.74,2.65,2.65,0,0,1-.7-1.92,2.94,2.94,0,0,1,.75-2.11,2.64,2.64,0,0,1,2-.8,2.82,2.82,0,0,1,1.23.26V33a2.11,2.11,0,0,0-1.26-.41,1.69,1.69,0,0,0-1.34.58,2.22,2.22,0,0,0-.53,1.54,2.14,2.14,0,0,0,.49,1.47,1.7,1.7,0,0,0,1.32.54,2.11,2.11,0,0,0,1.31-.46Z"/><path class="h" d="M155.41,34.9h-3.76a2,2,0,0,0,.48,1.37,1.64,1.64,0,0,0,1.26.48,2.57,2.57,0,0,0,1.65-.59V37a3.1,3.1,0,0,1-1.86.51,2.26,2.26,0,0,1-1.77-.72,3,3,0,0,1-.64-2,2.91,2.91,0,0,1,.7-2,2.26,2.26,0,0,1,1.75-.78,2,2,0,0,1,1.62.67,2.83,2.83,0,0,1,.57,1.88Zm-.88-.73a1.71,1.71,0,0,0-.35-1.14,1.19,1.19,0,0,0-1-.41,1.36,1.36,0,0,0-1,.43,2,2,0,0,0-.52,1.12Z"/><path class="h" d="M161.12,37.35h-.86v-3c0-1.13-.41-1.69-1.23-1.69a1.34,1.34,0,0,0-1.06.48,1.76,1.76,0,0,0-.42,1.21v3h-.85V32h.85v.89h0a1.9,1.9,0,0,1,1.75-1,1.64,1.64,0,0,1,1.33.56,2.51,2.51,0,0,1,.47,1.63Z"/><path class="h" d="M165.19,37.29a1.67,1.67,0,0,1-.8.17c-.93,0-1.39-.52-1.39-1.56V32.75h-.92V32H163v-1.3l.85-.27V32h1.34v.73h-1.34v3a1.23,1.23,0,0,0,.18.76.7.7,0,0,0,.6.23,1,1,0,0,0,.56-.17Z"/><path class="h" d="M170.6,34.9h-3.75a1.94,1.94,0,0,0,.48,1.37,1.63,1.63,0,0,0,1.25.48,2.62,2.62,0,0,0,1.66-.59V37a3.1,3.1,0,0,1-1.86.51,2.26,2.26,0,0,1-1.77-.72,3,3,0,0,1-.65-2,2.92,2.92,0,0,1,.71-2,2.26,2.26,0,0,1,1.75-.78,2,2,0,0,1,1.61.67,2.83,2.83,0,0,1,.57,1.88Zm-.87-.73a1.66,1.66,0,0,0-.36-1.14,1.17,1.17,0,0,0-1-.41,1.36,1.36,0,0,0-1,.43,1.89,1.89,0,0,0-.52,1.12Z"/><path class="h" d="M171.57,37.15v-.91a2.56,2.56,0,0,0,1.54.51c.74,0,1.12-.25,1.12-.75a.61.61,0,0,0-.1-.36.92.92,0,0,0-.26-.26,1.94,1.94,0,0,0-.38-.2c-.15-.07-.31-.13-.48-.19s-.44-.19-.62-.29a1.72,1.72,0,0,1-.45-.32,1.13,1.13,0,0,1-.27-.41,1.44,1.44,0,0,1-.09-.53,1.36,1.36,0,0,1,.17-.67,1.62,1.62,0,0,1,.46-.48,2,2,0,0,1,.65-.29,2.78,2.78,0,0,1,.76-.1,3.08,3.08,0,0,1,1.24.24V33a2.42,2.42,0,0,0-1.35-.38,1.52,1.52,0,0,0-.44.05,1.43,1.43,0,0,0-.33.15.79.79,0,0,0-.21.24.61.61,0,0,0-.08.3.72.72,0,0,0,.08.35.65.65,0,0,0,.22.25,2,2,0,0,0,.36.2l.47.19a6.24,6.24,0,0,1,.63.28,2.23,2.23,0,0,1,.48.32,1.25,1.25,0,0,1,.3.42,1.31,1.31,0,0,1,.11.55,1.41,1.41,0,0,1-.17.69,1.54,1.54,0,0,1-.47.48,2.26,2.26,0,0,1-.67.29,3.42,3.42,0,0,1-.79.09A3,3,0,0,1,171.57,37.15Z"/><path class="h" d="M177.19,36.16l-.83,2.56h-.61l.61-2.56Z"/><path class="h" d="M189.19,37.35h-.85V34.29a2.23,2.23,0,0,0-.28-1.28,1,1,0,0,0-.91-.39,1.12,1.12,0,0,0-.93.49,2,2,0,0,0-.38,1.2v3H185V34.19c0-1-.4-1.57-1.21-1.57a1.1,1.1,0,0,0-.92.47,1.94,1.94,0,0,0-.36,1.22v3h-.86V32h.86v.85h0a1.78,1.78,0,0,1,1.65-1,1.54,1.54,0,0,1,1.51,1.1,1.89,1.89,0,0,1,1.76-1.1c1.17,0,1.76.72,1.76,2.17Z"/><path class="h" d="M195.08,34.9h-3.76a2,2,0,0,0,.48,1.37,1.64,1.64,0,0,0,1.26.48,2.57,2.57,0,0,0,1.65-.59V37a3.1,3.1,0,0,1-1.86.51,2.26,2.26,0,0,1-1.77-.72,3,3,0,0,1-.64-2,2.91,2.91,0,0,1,.7-2,2.26,2.26,0,0,1,1.75-.78,2,2,0,0,1,1.62.67,2.83,2.83,0,0,1,.57,1.88Zm-.88-.73a1.71,1.71,0,0,0-.35-1.14,1.19,1.19,0,0,0-1-.41,1.37,1.37,0,0,0-1,.43,2,2,0,0,0-.52,1.12Z"/><path class="h" d="M197.22,37.12a3.35,3.35,0,0,1-.53,2,1.77,1.77,0,0,1-1.51.71,1.57,1.57,0,0,1-.7-.17v-.79a1.41,1.41,0,0,0,.72.23q1.17,0,1.17-1.86V32h.85Zm-.42-6.45a.56.56,0,0,1-.39-.15.58.58,0,0,1,0-.8.57.57,0,0,1,.39-.16.58.58,0,0,1,.4.16.54.54,0,0,1,.17.4.56.56,0,0,1-.57.55Z"/><path class="h" d="M201.17,37.47a2.45,2.45,0,0,1-1.88-.75,2.73,2.73,0,0,1-.71-2,2.91,2.91,0,0,1,.73-2.1,2.65,2.65,0,0,1,2-.75,2.37,2.37,0,0,1,1.86.73,2.89,2.89,0,0,1,.67,2,2.86,2.86,0,0,1-.72,2A2.52,2.52,0,0,1,201.17,37.47Zm.06-4.85a1.62,1.62,0,0,0-1.3.55,2.32,2.32,0,0,0-.48,1.55,2.19,2.19,0,0,0,.49,1.49,1.64,1.64,0,0,0,1.29.54,1.57,1.57,0,0,0,1.27-.53,2.83,2.83,0,0,0,0-3.06A1.54,1.54,0,0,0,201.23,32.62Z"/><path class="h" d="M208,32.89a1,1,0,0,0-.65-.18,1.1,1.1,0,0,0-.91.52,2.4,2.4,0,0,0-.37,1.4v2.72h-.85V32H206v1.1h0a2,2,0,0,1,.56-.88,1.27,1.27,0,0,1,.84-.31A1.39,1.39,0,0,1,208,32Z"/><path class="h" d="M212.69,37.35h-.85v-.84h0a1.79,1.79,0,0,1-1.64,1,1.74,1.74,0,0,1-1.24-.42,1.45,1.45,0,0,1-.45-1.12c0-1,.58-1.57,1.75-1.73l1.6-.23c0-.9-.37-1.35-1.1-1.35a2.57,2.57,0,0,0-1.73.65V32.4a3.22,3.22,0,0,1,1.81-.5c1.25,0,1.87.66,1.87,2Zm-.85-2.7-1.28.18a2.16,2.16,0,0,0-.9.29.85.85,0,0,0-.3.75.81.81,0,0,0,.28.64,1.08,1.08,0,0,0,.74.24,1.4,1.4,0,0,0,1.05-.44,1.62,1.62,0,0,0,.41-1.13Z"/><path class="h" d="M218.72,37.35h-.86v-3c0-1.13-.41-1.69-1.23-1.69a1.34,1.34,0,0,0-1.06.48,1.76,1.76,0,0,0-.42,1.21v3h-.85V32h.85v.89h0a1.9,1.9,0,0,1,1.75-1,1.64,1.64,0,0,1,1.33.56,2.51,2.51,0,0,1,.47,1.63Z"/><path class="h" d="M224.86,37.35H224v-.91h0a2,2,0,0,1-1.83,1,2,2,0,0,1-1.6-.71,3,3,0,0,1-.6-1.95,3.22,3.22,0,0,1,.66-2.12,2.21,2.21,0,0,1,1.78-.79,1.7,1.7,0,0,1,1.59.86h0V29.47h.85ZM224,34.94v-.79a1.53,1.53,0,0,0-.42-1.09,1.44,1.44,0,0,0-1.09-.44,1.46,1.46,0,0,0-1.22.57,2.5,2.5,0,0,0-.45,1.58,2.22,2.22,0,0,0,.43,1.45,1.39,1.39,0,0,0,1.15.53,1.47,1.47,0,0,0,1.16-.51A2,2,0,0,0,224,34.94Z"/><path class="h" d="M228.81,37.47a2.46,2.46,0,0,1-1.88-.75,2.73,2.73,0,0,1-.7-2,2.87,2.87,0,0,1,.73-2.1,2.65,2.65,0,0,1,2-.75,2.4,2.4,0,0,1,1.86.73,2.94,2.94,0,0,1,.66,2,2.86,2.86,0,0,1-.72,2A2.51,2.51,0,0,1,228.81,37.47Zm.07-4.85a1.61,1.61,0,0,0-1.3.55,2.32,2.32,0,0,0-.48,1.55,2.19,2.19,0,0,0,.48,1.49,1.66,1.66,0,0,0,1.3.54,1.58,1.58,0,0,0,1.27-.53,2.88,2.88,0,0,0,0-3.06A1.56,1.56,0,0,0,228.88,32.62Z"/><path class="h" d="M236.59,37.35h-.85V29.47h.85Z"/><path class="h" d="M240.54,37.47a2.46,2.46,0,0,1-1.88-.75,2.73,2.73,0,0,1-.7-2,2.87,2.87,0,0,1,.73-2.1,2.65,2.65,0,0,1,2-.75,2.4,2.4,0,0,1,1.86.73,2.94,2.94,0,0,1,.66,2,2.86,2.86,0,0,1-.72,2A2.52,2.52,0,0,1,240.54,37.47Zm.07-4.85a1.61,1.61,0,0,0-1.3.55,2.32,2.32,0,0,0-.48,1.55,2.19,2.19,0,0,0,.48,1.49,1.65,1.65,0,0,0,1.3.54,1.58,1.58,0,0,0,1.27-.53,2.88,2.88,0,0,0,0-3.06A1.56,1.56,0,0,0,240.61,32.62Z"/><path class="h" d="M244.23,37.15v-.91a2.56,2.56,0,0,0,1.54.51c.74,0,1.12-.25,1.12-.75a.61.61,0,0,0-.1-.36.92.92,0,0,0-.26-.26,1.7,1.7,0,0,0-.38-.2c-.15-.07-.31-.13-.48-.19s-.44-.19-.62-.29a1.91,1.91,0,0,1-.45-.32,1.36,1.36,0,0,1-.36-.94,1.27,1.27,0,0,1,.18-.67,1.47,1.47,0,0,1,.45-.48,2,2,0,0,1,.65-.29,2.78,2.78,0,0,1,.76-.1,3.08,3.08,0,0,1,1.24.24V33a2.37,2.37,0,0,0-1.35-.38,1.41,1.41,0,0,0-.43.05,1.26,1.26,0,0,0-.33.15.71.71,0,0,0-.22.24.6.6,0,0,0-.07.3.73.73,0,0,0,.07.35.75.75,0,0,0,.22.25,2,2,0,0,0,.36.2l.47.19a4.72,4.72,0,0,1,.63.28,2.23,2.23,0,0,1,.48.32,1.27,1.27,0,0,1,.31.42,1.32,1.32,0,0,1,.1.55,1.41,1.41,0,0,1-.17.69,1.54,1.54,0,0,1-.47.48,2.16,2.16,0,0,1-.67.29,3.42,3.42,0,0,1-.79.09A3.08,3.08,0,0,1,244.23,37.15Z"/></g></g></svg>