<svg xmlns="http://www.w3.org/2000/svg" viewBox="0 0 500 300"><defs><style>.a{fill:#606060;}.b{fill:#f5f5f5;}.c{fill:#338ae8;}.d{fill:#ff3654;}.e{fill:#ff9d00;}.f{isolation:isolate;}.g{fill:#fff;}.h{fill:#707070;}</style></defs><path class="a" d="M250.91,243.7A93.71,93.71,0,1,1,344.62,150,93.81,93.81,0,0,1,250.91,243.7Zm0-186.59A92.89,92.89,0,1,0,343.8,150a93,93,0,0,0-92.89-92.89Z"/><circle class="b" cx="364.33" cy="251.32" r="32.63"/><circle class="c" cx="364.33" cy="251.32" r="25.26"/><circle class="b" cx="396.96" cy="150" r="32.63"/><circle class="d" cx="396.96" cy="150" r="25.26"/><circle class="b" cx="364.33" cy="48.68" r="32.63"/><circle class="e" cx="364.33" cy="48.68" r="25.26"/><circle class="b" cx="138.19" cy="251.32" r="32.63"/><circle class="c" cx="138.19" cy="251.32" r="25.26"/><circle class="b" cx="105.57" cy="150" r="32.63"/><circle class="d" cx="105.57" cy="150" r="25.26"/><circle class="b" cx="138.19" cy="48.68" r="32.63"/><circle class="e" cx="138.19" cy="48.68" r="25.26"/><circle class="b" cx="250.91" cy="150" r="83"/><circle class="e" cx="179.98" cy="90.02" r="7.53"/><circle class="e" cx="320.39" cy="88.98" r="7.53"/><circle class="c" cx="180.67" cy="210.87" r="7.53"/><circle class="d" cx="158.02" cy="150" r="7.53"/><path class="d" d="M351.34,150a7.54,7.54,0,0,1-15.07,0h0a7.53,7.53,0,0,1,7.53-7.53h0A7.54,7.54,0,0,1,351.34,150Z"/><g class="f"><g class="f"><path class="g" d="M134.68,257q-3.93,0-3.93-5.51a7.48,7.48,0,0,1,1.07-4.36,3.52,3.52,0,0,1,3.07-1.5q3.84,0,3.84,5.6a7.37,7.37,0,0,1-1,4.28A3.46,3.46,0,0,1,134.68,257Zm.11-9.52c-1,0-1.58,1.31-1.58,3.95,0,2.47.52,3.71,1.55,3.71s1.5-1.27,1.5-3.83S135.77,247.52,134.79,247.52Z"/><path class="g" d="M145.63,245.61v11.24h-2.41v-8.51a2.44,2.44,0,0,1-.47.33,5.23,5.23,0,0,1-.58.29c-.21.08-.42.15-.64.21a5.34,5.34,0,0,1-.65.13v-2a10.32,10.32,0,0,0,1.78-.71,9.68,9.68,0,0,0,1.51-.94Z"/></g></g><g class="f"><g class="f"><path class="g" d="M101.26,155.68c-2.62,0-3.92-1.83-3.92-5.51a7.51,7.51,0,0,1,1.06-4.36,3.53,3.53,0,0,1,3.07-1.49c2.56,0,3.84,1.86,3.84,5.6a7.37,7.37,0,0,1-1,4.28A3.45,3.45,0,0,1,101.26,155.68Zm.11-9.52c-1.05,0-1.57,1.32-1.57,4,0,2.48.51,3.72,1.54,3.72s1.5-1.28,1.5-3.83S102.35,146.16,101.37,146.16Z"/><path class="g" d="M109.13,153.48h4.66v2h-7.32v-.83a3.84,3.84,0,0,1,.29-1.51,4.75,4.75,0,0,1,.71-1.2,6.5,6.5,0,0,1,.94-.95c.34-.27.66-.52,1-.74s.6-.45.85-.65a5.1,5.1,0,0,0,.61-.63,2.59,2.59,0,0,0,.37-.63,1.91,1.91,0,0,0,.12-.68,1.34,1.34,0,0,0-.4-1.06,1.75,1.75,0,0,0-1.21-.36,4.11,4.11,0,0,0-2.72,1.12v-2.13a5.92,5.92,0,0,1,3.24-.92,5,5,0,0,1,1.5.21,3.3,3.3,0,0,1,1.12.63,2.63,2.63,0,0,1,.7,1,3.38,3.38,0,0,1,.24,1.3,3.73,3.73,0,0,1-.23,1.34,4.41,4.41,0,0,1-.62,1.08,5.36,5.36,0,0,1-.9.88q-.49.4-1,.78l-.71.52q-.33.26-.6.51a2.5,2.5,0,0,0-.41.48A.86.86,0,0,0,109.13,153.48Z"/></g></g><g class="f"><g class="f"><path class="g" d="M133.92,54.36q-3.93,0-3.93-5.51a7.48,7.48,0,0,1,1.06-4.36,3.55,3.55,0,0,1,3.08-1.5c2.56,0,3.83,1.87,3.83,5.61a7.42,7.42,0,0,1-1,4.27A3.46,3.46,0,0,1,133.92,54.36Zm.1-9.52c-1,0-1.57,1.31-1.57,3.95,0,2.48.52,3.71,1.54,3.71s1.5-1.27,1.5-3.83S135,44.84,134,44.84Z"/><path class="g" d="M139.39,53.81V51.7a4.22,4.22,0,0,0,2.57.8,2.36,2.36,0,0,0,1.45-.39,1.35,1.35,0,0,0,.52-1.12,1.28,1.28,0,0,0-.64-1.13,3.3,3.3,0,0,0-1.76-.4h-1V47.61h.94c1.43,0,2.15-.48,2.15-1.43s-.55-1.34-1.65-1.34a3.81,3.81,0,0,0-2.15.71v-2a6,6,0,0,1,2.7-.58,4.06,4.06,0,0,1,2.63.76,2.43,2.43,0,0,1,.94,2,2.56,2.56,0,0,1-2.19,2.7v0a3,3,0,0,1,1.84.84A2.42,2.42,0,0,1,146.4,51a2.94,2.94,0,0,1-1.13,2.43,4.86,4.86,0,0,1-3.11.9A6,6,0,0,1,139.39,53.81Z"/></g></g><g class="f"><g class="f"><path class="g" d="M359.75,257q-3.92,0-3.92-5.51a7.48,7.48,0,0,1,1.06-4.36,3.54,3.54,0,0,1,3.08-1.5q3.82,0,3.83,5.6a7.37,7.37,0,0,1-1.05,4.28A3.43,3.43,0,0,1,359.75,257Zm.11-9.52c-1.05,0-1.57,1.31-1.57,3.95,0,2.47.51,3.71,1.54,3.71s1.5-1.27,1.5-3.83S360.84,247.49,359.86,247.49Z"/><path class="g" d="M372.84,253.16a4,4,0,0,1-.29,1.52,3.47,3.47,0,0,1-.79,1.22,3.35,3.35,0,0,1-1.2.81,4.06,4.06,0,0,1-3.18,0,3.33,3.33,0,0,1-1.24-1,4.6,4.6,0,0,1-.78-1.6,7.94,7.94,0,0,1-.26-2.16,9,9,0,0,1,.34-2.57,6,6,0,0,1,1-2,4.48,4.48,0,0,1,1.57-1.27,4.63,4.63,0,0,1,2.07-.45,5.21,5.21,0,0,1,2,.3v2a3.72,3.72,0,0,0-1.83-.47,2.51,2.51,0,0,0-1.11.24,2.3,2.3,0,0,0-.85.67,3.1,3.1,0,0,0-.56,1,4.59,4.59,0,0,0-.22,1.38h0a2.67,2.67,0,0,1,2.31-1.08,3,3,0,0,1,1.23.24,2.76,2.76,0,0,1,.95.7,3.15,3.15,0,0,1,.6,1.08A4.05,4.05,0,0,1,372.84,253.16Zm-2.37.15c0-1.18-.48-1.77-1.45-1.77a1.32,1.32,0,0,0-.6.13,1.28,1.28,0,0,0-.46.34,1.51,1.51,0,0,0-.29.53,2,2,0,0,0-.11.67,2.68,2.68,0,0,0,.11.76,1.93,1.93,0,0,0,.3.61,1.44,1.44,0,0,0,.47.42,1.21,1.21,0,0,0,.6.15,1.24,1.24,0,0,0,1-.51,1.66,1.66,0,0,0,.29-.58A2.57,2.57,0,0,0,370.47,253.31Z"/></g></g><g class="f"><g class="f"><path class="g" d="M392.63,155.68c-2.61,0-3.92-1.83-3.92-5.51a7.51,7.51,0,0,1,1.06-4.36,3.55,3.55,0,0,1,3.08-1.49c2.55,0,3.83,1.86,3.83,5.6a7.37,7.37,0,0,1-1.05,4.28A3.43,3.43,0,0,1,392.63,155.68Zm.11-9.52c-1.05,0-1.57,1.32-1.57,4,0,2.48.51,3.72,1.54,3.72s1.5-1.28,1.5-3.83S393.72,146.16,392.74,146.16Z"/><path class="g" d="M398.3,155.21v-2.07a4.51,4.51,0,0,0,2.4.69,2.22,2.22,0,0,0,1.5-.46,1.52,1.52,0,0,0,.54-1.24c0-1.08-.77-1.63-2.31-1.63a18.69,18.69,0,0,0-2,.13l.41-6.13h5.82v2h-4l-.15,2.2c.39,0,.73-.05,1-.05a3.77,3.77,0,0,1,2.65.89,3.1,3.1,0,0,1,1,2.39,3.51,3.51,0,0,1-1.15,2.72,4.38,4.38,0,0,1-3.09,1.05A6.58,6.58,0,0,1,398.3,155.21Z"/></g></g><g class="f"><g class="f"><path class="g" d="M359.7,54.36q-3.93,0-3.93-5.51a7.48,7.48,0,0,1,1.07-4.36,3.52,3.52,0,0,1,3.07-1.5q3.84,0,3.84,5.61a7.34,7.34,0,0,1-1.05,4.27A3.46,3.46,0,0,1,359.7,54.36Zm.11-9.52c-1.05,0-1.58,1.31-1.58,3.95,0,2.48.52,3.71,1.55,3.71s1.5-1.27,1.5-3.83S360.79,44.84,359.81,44.84Z"/><path class="g" d="M371.57,43.18v6.93h1.32v1.8h-1.32v2.26h-2.2V51.91h-4.8V50q.65-.71,1.32-1.56t1.32-1.74c.43-.6.82-1.2,1.19-1.81s.67-1.18.93-1.73Zm-4.83,6.93h2.63V46.26c-.18.34-.38.67-.59,1s-.43.68-.66,1-.46.65-.69,1Z"/></g></g><path class="c" d="M327.92,212.25a7.53,7.53,0,0,1-7.53,7.53h0a7.53,7.53,0,1,1,7.53-7.53Z"/><g class="f"><g class="f"><path class="h" d="M214.67,132.28H210v-7.86h4.52v1.44h-2.76v1.75h2.57v1.44h-2.57v1.79h2.94Z"/><path class="h" d="M217.5,132.28h-1.74V124h1.74Z"/><path class="h" d="M227.37,132.28h-1.72v-.86h0a2,2,0,0,1-1.71,1c-1.3,0-1.95-.78-1.95-2.36v-3.38h1.72v3.23c0,.79.32,1.19.94,1.19a.94.94,0,0,0,.75-.33,1.34,1.34,0,0,0,.28-.88v-3.21h1.72Z"/><path class="h" d="M228.46,132.13v-1.4a3.71,3.71,0,0,0,.85.38,3,3,0,0,0,.81.13,1.78,1.78,0,0,0,.72-.13.4.4,0,0,0,.27-.38.38.38,0,0,0-.12-.28,1.5,1.5,0,0,0-.31-.19l-.42-.15-.43-.14a4.66,4.66,0,0,1-.59-.28,1.4,1.4,0,0,1-.42-.33,1.29,1.29,0,0,1-.27-.45,1.7,1.7,0,0,1-.09-.59,1.48,1.48,0,0,1,.21-.81,1.7,1.7,0,0,1,.54-.56,2.67,2.67,0,0,1,.79-.32,4.55,4.55,0,0,1,.92-.1,4.84,4.84,0,0,1,.75.06,4.91,4.91,0,0,1,.76.17v1.33a2.56,2.56,0,0,0-.71-.28,2.67,2.67,0,0,0-.73-.1,1.58,1.58,0,0,0-.32,0,1.07,1.07,0,0,0-.27.09.44.44,0,0,0-.18.14.4.4,0,0,0-.07.21.4.4,0,0,0,.1.26.73.73,0,0,0,.26.19,2.83,2.83,0,0,0,.35.14l.39.13a4,4,0,0,1,.62.27,1.7,1.7,0,0,1,.48.33,1.25,1.25,0,0,1,.31.45,1.58,1.58,0,0,1,.11.61,1.63,1.63,0,0,1-.22.85,1.69,1.69,0,0,1-.58.58,2.51,2.51,0,0,1-.82.32,4.43,4.43,0,0,1-1,.1A5,5,0,0,1,228.46,132.13Z"/><path class="h" d="M236.43,132.41a3,3,0,0,1-2.2-.78,2.89,2.89,0,0,1-.8-2.14,2.86,2.86,0,0,1,.83-2.17,3.14,3.14,0,0,1,2.25-.79,3,3,0,0,1,2.19.79,2.78,2.78,0,0,1,.8,2.08,3,3,0,0,1-.82,2.2A3.07,3.07,0,0,1,236.43,132.41Zm0-4.55a1.14,1.14,0,0,0-.95.42,1.83,1.83,0,0,0-.34,1.19c0,1.08.43,1.62,1.3,1.62s1.24-.56,1.24-1.66S237.31,127.86,236.48,127.86Z"/><path class="h" d="M249.2,132.28h-1.73v-.78h0a2,2,0,0,1-1.74.91,2.11,2.11,0,0,1-1.69-.74,3,3,0,0,1-.64-2.07,3.35,3.35,0,0,1,.7-2.23,2.32,2.32,0,0,1,1.86-.84,1.58,1.58,0,0,1,1.51.78h0V124h1.73Zm-1.7-2.73v-.42a1.28,1.28,0,0,0-.32-.91,1.12,1.12,0,0,0-1.72.09,2.05,2.05,0,0,0-.32,1.24,1.82,1.82,0,0,0,.31,1.14,1.06,1.06,0,0,0,.86.4,1,1,0,0,0,.86-.42A1.8,1.8,0,0,0,247.5,129.55Z"/><path class="h" d="M255.69,130H252c.05.81.57,1.22,1.53,1.22a3,3,0,0,0,1.63-.44V132a4.37,4.37,0,0,1-2,.41,2.61,2.61,0,0,1-2.86-2.85,3,3,0,0,1,.81-2.21,2.69,2.69,0,0,1,2-.82,2.44,2.44,0,0,1,1.9.73,2.79,2.79,0,0,1,.67,2Zm-1.6-1.07c0-.8-.33-1.2-1-1.2a1,1,0,0,0-.72.34,1.64,1.64,0,0,0-.37.86Z"/><path class="h" d="M261.55,132.28h-1.73V124h1.73Z"/><path class="h" d="M267.67,132.28H266v-.81h0a1.82,1.82,0,0,1-1.67.94,1.76,1.76,0,0,1-1.29-.46,1.66,1.66,0,0,1-.46-1.23c0-1.09.64-1.72,1.93-1.89l1.52-.2c0-.61-.33-.92-1-.92a3.39,3.39,0,0,0-1.9.6V127a4.73,4.73,0,0,1,1-.33,5.52,5.52,0,0,1,1.14-.14,2.12,2.12,0,0,1,2.4,2.39ZM266,130v-.38l-1,.13c-.56.07-.84.33-.84.76a.64.64,0,0,0,.21.49.8.8,0,0,0,.55.19,1.06,1.06,0,0,0,.8-.34A1.24,1.24,0,0,0,266,130Z"/><path class="h" d="M268.67,132.13v-1.4a3.71,3.71,0,0,0,.85.38,3,3,0,0,0,.8.13,1.8,1.8,0,0,0,.73-.13.39.39,0,0,0,.26-.38.38.38,0,0,0-.12-.28,1.27,1.27,0,0,0-.31-.19l-.41-.15L270,130a4.66,4.66,0,0,1-.59-.28,1.59,1.59,0,0,1-.43-.33,1.43,1.43,0,0,1-.26-.45,1.7,1.7,0,0,1-.09-.59,1.48,1.48,0,0,1,.21-.81,1.61,1.61,0,0,1,.54-.56,2.67,2.67,0,0,1,.79-.32,4.53,4.53,0,0,1,.91-.1,5,5,0,0,1,.76.06,4.79,4.79,0,0,1,.75.17v1.33a2.39,2.39,0,0,0-.7-.28,2.69,2.69,0,0,0-.74-.1,1.66,1.66,0,0,0-.32,0,.88.88,0,0,0-.26.09.44.44,0,0,0-.18.14.33.33,0,0,0-.07.21.35.35,0,0,0,.1.26.73.73,0,0,0,.26.19,2.32,2.32,0,0,0,.35.14l.39.13a4,4,0,0,1,.62.27,1.7,1.7,0,0,1,.48.33,1.39,1.39,0,0,1,.31.45,1.59,1.59,0,0,1,.1.61,1.62,1.62,0,0,1-.21.85,1.79,1.79,0,0,1-.58.58,2.6,2.6,0,0,1-.82.32,4.53,4.53,0,0,1-1,.1A5,5,0,0,1,268.67,132.13Z"/><path class="h" d="M282.75,125.86h-2.24v6.42h-1.78v-6.42h-2.22v-1.44h6.24Z"/><path class="h" d="M285.57,132.28h-1.76v-7.86h1.76Z"/><path class="h" d="M293,132a5.29,5.29,0,0,1-2.25.41,3.78,3.78,0,0,1-2.84-1.06,3.88,3.88,0,0,1-1-2.83,4.15,4.15,0,0,1,1.16-3.06,4.08,4.08,0,0,1,3-1.17,5.75,5.75,0,0,1,1.94.29v1.71a3.41,3.41,0,0,0-1.8-.48,2.38,2.38,0,0,0-1.78.7,2.92,2.92,0,0,0,0,3.7,2.27,2.27,0,0,0,1.72.68,3.66,3.66,0,0,0,1.9-.51Z"/></g><g class="f"><path class="h" d="M197.69,145.47a2.9,2.9,0,0,1-1.53.39,2.55,2.55,0,0,1-1.94-.78,2.82,2.82,0,0,1-.74-2,3.12,3.12,0,0,1,.8-2.23,2.77,2.77,0,0,1,2.12-.84,2.86,2.86,0,0,1,1.3.28v.92a2.31,2.31,0,0,0-1.34-.44,1.79,1.79,0,0,0-1.41.62,2.34,2.34,0,0,0-.55,1.61,2.26,2.26,0,0,0,.52,1.56,1.78,1.78,0,0,0,1.39.57,2.22,2.22,0,0,0,1.38-.49Z"/><path class="h" d="M201.39,145.86a2.63,2.63,0,0,1-2-.78,3,3,0,0,1-.74-2.09,3,3,0,0,1,.77-2.2,2.79,2.79,0,0,1,2.09-.8,2.5,2.5,0,0,1,2,.78,3.52,3.52,0,0,1-.06,4.29A2.67,2.67,0,0,1,201.39,145.86Zm.07-5.11a1.71,1.71,0,0,0-1.37.59,2.38,2.38,0,0,0-.51,1.62,2.26,2.26,0,0,0,.51,1.57,1.73,1.73,0,0,0,1.37.58,1.61,1.61,0,0,0,1.33-.57,2.39,2.39,0,0,0,.47-1.6,2.45,2.45,0,0,0-.47-1.62A1.61,1.61,0,0,0,201.46,140.75Z"/><path class="h" d="M210.27,145.73h-.9v-3.2c0-1.19-.43-1.78-1.3-1.78a1.39,1.39,0,0,0-1.11.51,1.83,1.83,0,0,0-.45,1.27v3.2h-.89v-5.61h.89v.94h0a2,2,0,0,1,1.84-1.07,1.69,1.69,0,0,1,1.4.6,2.6,2.6,0,0,1,.49,1.71Z"/><path class="h" d="M214.56,145.68a1.8,1.8,0,0,1-.83.17c-1,0-1.48-.55-1.48-1.64v-3.32h-1v-.77h1v-1.36l.9-.29v1.65h1.41v.77h-1.41v3.16a1.38,1.38,0,0,0,.19.81.77.77,0,0,0,.64.24.94.94,0,0,0,.58-.19Z"/><path class="h" d="M218.69,141a1.2,1.2,0,0,0-1.64.37,2.47,2.47,0,0,0-.39,1.47v2.86h-.9v-5.61h.9v1.16h0a2,2,0,0,1,.59-.92,1.34,1.34,0,0,1,.88-.33,1.57,1.57,0,0,1,.54.07Z"/><path class="h" d="M220.12,138.7a.56.56,0,0,1-.41-.16.6.6,0,0,1,0-.84.57.57,0,0,1,.41-.17.57.57,0,0,1,.42.17.54.54,0,0,1,.17.42.53.53,0,0,1-.17.41A.57.57,0,0,1,220.12,138.7Zm.44,7h-.9v-5.61h.9Z"/><path class="h" d="M223.3,144.92h0v.81h-.9v-8.3h.9v3.68h0a2.14,2.14,0,0,1,1.94-1.12,2,2,0,0,1,1.69.76,3.13,3.13,0,0,1,.61,2,3.48,3.48,0,0,1-.69,2.26,2.29,2.29,0,0,1-1.87.84A1.84,1.84,0,0,1,223.3,144.92Zm0-2.26v.78a1.65,1.65,0,0,0,.45,1.18,1.59,1.59,0,0,0,2.42-.14,2.82,2.82,0,0,0,.47-1.73,2.24,2.24,0,0,0-.44-1.47,1.44,1.44,0,0,0-1.17-.53,1.61,1.61,0,0,0-1.26.54A2,2,0,0,0,223.28,142.66Z"/><path class="h" d="M233.5,145.73h-.89v-.89h0a1.83,1.83,0,0,1-1.73,1c-1.33,0-2-.79-2-2.38v-3.36h.89v3.21c0,1.19.46,1.78,1.36,1.78a1.35,1.35,0,0,0,1.08-.49,1.85,1.85,0,0,0,.43-1.26v-3.24h.89Z"/><path class="h" d="M239.78,140.12l-2.58,6.51c-.46,1.16-1.11,1.74-1.94,1.74a1.92,1.92,0,0,1-.58-.07v-.8a1.78,1.78,0,0,0,.53.09,1.11,1.11,0,0,0,1-.81l.44-1.06-2.19-5.6h1l1.52,4.32c0,.05.05.2.11.43h0a2.64,2.64,0,0,1,.11-.42l1.59-4.33Z"/><path class="h" d="M245.25,143.15h-4a2.13,2.13,0,0,0,.5,1.45,1.76,1.76,0,0,0,1.33.51,2.74,2.74,0,0,0,1.74-.63v.85a3.29,3.29,0,0,1-2,.53,2.36,2.36,0,0,1-1.87-.76,3.15,3.15,0,0,1-.68-2.15,3.08,3.08,0,0,1,.74-2.13A2.4,2.4,0,0,1,243,140a2.09,2.09,0,0,1,1.7.72,3,3,0,0,1,.6,2Zm-.92-.76a1.84,1.84,0,0,0-.37-1.21,1.28,1.28,0,0,0-1-.43,1.46,1.46,0,0,0-1.08.45,2.07,2.07,0,0,0-.55,1.19Z"/><path class="h" d="M253.69,145.73h-.9v-.87h0a1.87,1.87,0,0,1-1.72,1,1.81,1.81,0,0,1-1.31-.44,1.54,1.54,0,0,1-.48-1.18c0-1.05.62-1.65,1.85-1.83l1.68-.23c0-1-.38-1.43-1.15-1.43a2.75,2.75,0,0,0-1.83.69v-.92a3.49,3.49,0,0,1,1.91-.53c1.31,0,2,.7,2,2.09Zm-.9-2.83-1.35.18a2.2,2.2,0,0,0-.94.31.9.9,0,0,0-.32.79.86.86,0,0,0,.3.67,1.13,1.13,0,0,0,.78.26,1.45,1.45,0,0,0,1.1-.47,1.67,1.67,0,0,0,.43-1.19Z"/><path class="h" d="M256.28,145.73h-.89v-8.3h.89Z"/><path class="h" d="M266,145.73h-.9v-.95h0a2.08,2.08,0,0,1-1.93,1.08,2.1,2.1,0,0,1-1.69-.75,3.1,3.1,0,0,1-.63-2.05,3.35,3.35,0,0,1,.7-2.23,2.32,2.32,0,0,1,1.87-.84,1.81,1.81,0,0,1,1.68.91h0v-3.47h.9Zm-.9-2.53v-.83a1.6,1.6,0,0,0-.45-1.15,1.52,1.52,0,0,0-1.14-.47,1.57,1.57,0,0,0-1.29.6,2.67,2.67,0,0,0-.47,1.67,2.4,2.4,0,0,0,.45,1.53,1.5,1.5,0,0,0,1.22.56,1.52,1.52,0,0,0,1.21-.54A2,2,0,0,0,265.06,143.2Z"/><path class="h" d="M272.28,143.15h-4a2.13,2.13,0,0,0,.51,1.45,1.73,1.73,0,0,0,1.32.51,2.7,2.7,0,0,0,1.74-.63v.85a3.29,3.29,0,0,1-1.95.53,2.38,2.38,0,0,1-1.87-.76,3.15,3.15,0,0,1-.68-2.15,3,3,0,0,1,.75-2.13A2.36,2.36,0,0,1,270,140a2.09,2.09,0,0,1,1.7.72,3,3,0,0,1,.6,2Zm-.92-.76a1.79,1.79,0,0,0-.37-1.21,1.28,1.28,0,0,0-1-.43,1.47,1.47,0,0,0-1.08.45,2.12,2.12,0,0,0-.54,1.19Z"/><path class="h" d="M273.3,145.53v-1a2.67,2.67,0,0,0,1.62.54c.79,0,1.18-.27,1.18-.79a.65.65,0,0,0-.1-.38.93.93,0,0,0-.28-.28,1.88,1.88,0,0,0-.4-.21l-.5-.2a7,7,0,0,1-.66-.3,2.47,2.47,0,0,1-.47-.34,1.33,1.33,0,0,1-.28-.43,1.42,1.42,0,0,1-.1-.57,1.31,1.31,0,0,1,.18-.69,1.41,1.41,0,0,1,.49-.51,2.22,2.22,0,0,1,.68-.31,3.09,3.09,0,0,1,.8-.11,3.18,3.18,0,0,1,1.3.26v.9a2.51,2.51,0,0,0-1.42-.4,1.65,1.65,0,0,0-.46.06.89.89,0,0,0-.34.16.78.78,0,0,0-.23.25.66.66,0,0,0-.08.32.77.77,0,0,0,.08.36,1,1,0,0,0,.23.27,3.24,3.24,0,0,0,.38.21l.5.2a5.91,5.91,0,0,1,.66.29,2.16,2.16,0,0,1,.51.34,1.38,1.38,0,0,1,.32.44,1.46,1.46,0,0,1,.11.58,1.37,1.37,0,0,1-.18.72,1.59,1.59,0,0,1-.49.51,2.06,2.06,0,0,1-.71.3,3.33,3.33,0,0,1-.84.1A3.25,3.25,0,0,1,273.3,145.53Z"/><path class="h" d="M282.41,145.73h-.89v-.87h0a1.87,1.87,0,0,1-1.72,1,1.81,1.81,0,0,1-1.31-.44,1.54,1.54,0,0,1-.48-1.18c0-1.05.62-1.65,1.85-1.83l1.69-.23c0-1-.39-1.43-1.16-1.43a2.78,2.78,0,0,0-1.83.69v-.92a3.49,3.49,0,0,1,1.91-.53c1.31,0,2,.7,2,2.09Zm-.89-2.83-1.36.18a2.2,2.2,0,0,0-.94.31.9.9,0,0,0-.32.79.86.86,0,0,0,.3.67,1.13,1.13,0,0,0,.78.26,1.45,1.45,0,0,0,1.1-.47,1.68,1.68,0,0,0,.44-1.19Z"/><path class="h" d="M287,141a1.1,1.1,0,0,0-.68-.18,1.14,1.14,0,0,0-1,.55,2.47,2.47,0,0,0-.39,1.47v2.86h-.89v-5.61H285v1.16h0a1.92,1.92,0,0,1,.58-.92,1.34,1.34,0,0,1,.88-.33,1.5,1.5,0,0,1,.54.07Z"/><path class="h" d="M290.93,141a1.12,1.12,0,0,0-.68-.18,1.14,1.14,0,0,0-1,.55,2.47,2.47,0,0,0-.39,1.47v2.86H288v-5.61h.9v1.16h0a2,2,0,0,1,.59-.92,1.34,1.34,0,0,1,.88-.33,1.53,1.53,0,0,1,.54.07Z"/><path class="h" d="M294.25,145.86a2.63,2.63,0,0,1-2-.78,3,3,0,0,1-.74-2.09,3,3,0,0,1,.77-2.2,2.79,2.79,0,0,1,2.09-.8,2.52,2.52,0,0,1,2,.78,3.08,3.08,0,0,1,.7,2.14,3,3,0,0,1-.76,2.15A2.67,2.67,0,0,1,294.25,145.86Zm.06-5.11a1.73,1.73,0,0,0-1.37.59,2.43,2.43,0,0,0-.5,1.62,2.26,2.26,0,0,0,.51,1.57,1.71,1.71,0,0,0,1.36.58,1.63,1.63,0,0,0,1.34-.57,2.44,2.44,0,0,0,.47-1.6,2.5,2.5,0,0,0-.47-1.62A1.63,1.63,0,0,0,294.31,140.75Z"/><path class="h" d="M299.37,145.73h-.9v-8.3h.9Z"/><path class="h" d="M302.09,145.73h-.9v-8.3h.9Z"/><path class="h" d="M306.25,145.86a2.63,2.63,0,0,1-2-.78,3,3,0,0,1-.74-2.09,3,3,0,0,1,.77-2.2,2.79,2.79,0,0,1,2.09-.8,2.5,2.5,0,0,1,2,.78,3.52,3.52,0,0,1-.06,4.29A2.67,2.67,0,0,1,306.25,145.86Zm.07-5.11a1.71,1.71,0,0,0-1.37.59,2.38,2.38,0,0,0-.51,1.62,2.26,2.26,0,0,0,.51,1.57,1.73,1.73,0,0,0,1.37.58,1.61,1.61,0,0,0,1.33-.57,2.39,2.39,0,0,0,.47-1.6,2.45,2.45,0,0,0-.47-1.62A1.61,1.61,0,0,0,306.32,140.75Z"/></g><g class="f"><path class="h" d="M223,159.19h-.9v-.95h0a2.08,2.08,0,0,1-1.93,1.08,2.1,2.1,0,0,1-1.69-.75,3.1,3.1,0,0,1-.63-2,3.35,3.35,0,0,1,.7-2.23,2.32,2.32,0,0,1,1.87-.84,1.79,1.79,0,0,1,1.68.91h0v-3.47h.9Zm-.9-2.54v-.82a1.6,1.6,0,0,0-.45-1.15,1.49,1.49,0,0,0-1.14-.47,1.54,1.54,0,0,0-1.29.6,2.66,2.66,0,0,0-.47,1.66,2.36,2.36,0,0,0,.45,1.53,1.47,1.47,0,0,0,1.21.57,1.51,1.51,0,0,0,1.22-.55A2,2,0,0,0,222.14,156.65Z"/><path class="h" d="M229.36,156.61h-4a2.13,2.13,0,0,0,.51,1.45,1.73,1.73,0,0,0,1.32.51,2.74,2.74,0,0,0,1.74-.63v.84a3.22,3.22,0,0,1-1.95.54,2.37,2.37,0,0,1-1.87-.76,3.15,3.15,0,0,1-.68-2.15,3.07,3.07,0,0,1,.74-2.13,2.4,2.4,0,0,1,1.85-.83,2.12,2.12,0,0,1,1.7.71,3,3,0,0,1,.6,2Zm-.92-.76a1.84,1.84,0,0,0-.37-1.21,1.28,1.28,0,0,0-1-.43,1.47,1.47,0,0,0-1.08.45,2,2,0,0,0-.54,1.19Z"/><path class="h" d="M238.58,159.19h-.9v-.95h0a2.08,2.08,0,0,1-1.93,1.08,2.1,2.1,0,0,1-1.69-.75,3.1,3.1,0,0,1-.63-2,3.35,3.35,0,0,1,.7-2.23,2.32,2.32,0,0,1,1.87-.84,1.79,1.79,0,0,1,1.68.91h0v-3.47h.9Zm-.9-2.54v-.82a1.6,1.6,0,0,0-.45-1.15,1.49,1.49,0,0,0-1.14-.47,1.54,1.54,0,0,0-1.29.6,2.66,2.66,0,0,0-.47,1.66,2.36,2.36,0,0,0,.45,1.53,1.47,1.47,0,0,0,1.21.57,1.51,1.51,0,0,0,1.22-.55A2,2,0,0,0,237.68,156.65Z"/><path class="h" d="M240.86,152.16a.57.57,0,0,1-.41-.17.5.5,0,0,1-.17-.41.54.54,0,0,1,.17-.42.57.57,0,0,1,.41-.17.61.61,0,0,1,.42.17.57.57,0,0,1,.17.42.57.57,0,0,1-.17.41A.61.61,0,0,1,240.86,152.16Zm.43,7h-.89v-5.61h.89Z"/><path class="h" d="M245.88,151.68a1.15,1.15,0,0,0-.59-.15c-.63,0-.95.4-.95,1.19v.86h1.32v.77h-1.32v4.84h-.89v-4.84h-1v-.77h1v-.91a1.89,1.89,0,0,1,.51-1.39,1.72,1.72,0,0,1,1.27-.51,1.67,1.67,0,0,1,.65.1Z"/><path class="h" d="M251.13,156.61h-4a2.08,2.08,0,0,0,.5,1.45,1.75,1.75,0,0,0,1.33.51,2.74,2.74,0,0,0,1.74-.63v.84a3.24,3.24,0,0,1-2,.54,2.36,2.36,0,0,1-1.87-.76,3.1,3.1,0,0,1-.68-2.15,3.07,3.07,0,0,1,.74-2.13,2.39,2.39,0,0,1,1.84-.83,2.14,2.14,0,0,1,1.71.71,3,3,0,0,1,.6,2Zm-.92-.76a1.79,1.79,0,0,0-.38-1.21,1.25,1.25,0,0,0-1-.43,1.44,1.44,0,0,0-1.08.45,2,2,0,0,0-.55,1.19Z"/><path class="h" d="M255.41,154.49a1.1,1.1,0,0,0-.68-.18,1.15,1.15,0,0,0-1,.54,2.5,2.5,0,0,0-.39,1.48v2.86h-.89v-5.61h.89v1.16h0a2,2,0,0,1,.58-.92,1.32,1.32,0,0,1,.88-.34,1.46,1.46,0,0,1,.54.08Z"/><path class="h" d="M260.89,156.61h-4a2.13,2.13,0,0,0,.51,1.45,1.73,1.73,0,0,0,1.32.51,2.74,2.74,0,0,0,1.74-.63v.84a3.22,3.22,0,0,1-1.95.54,2.37,2.37,0,0,1-1.87-.76,3.15,3.15,0,0,1-.68-2.15,3.07,3.07,0,0,1,.74-2.13,2.4,2.4,0,0,1,1.85-.83,2.12,2.12,0,0,1,1.7.71,3,3,0,0,1,.6,2Zm-.92-.76a1.84,1.84,0,0,0-.37-1.21,1.28,1.28,0,0,0-1-.43,1.47,1.47,0,0,0-1.08.45,2.1,2.1,0,0,0-.55,1.19Z"/><path class="h" d="M266.9,159.19H266V156c0-1.19-.44-1.78-1.31-1.78a1.42,1.42,0,0,0-1.11.5,1.86,1.86,0,0,0-.44,1.28v3.2h-.9v-5.61h.9v.93h0a2,2,0,0,1,1.84-1.06,1.72,1.72,0,0,1,1.41.6,2.64,2.64,0,0,1,.48,1.71Z"/><path class="h" d="M271.2,159.14a1.81,1.81,0,0,1-.84.17c-1,0-1.47-.55-1.47-1.64v-3.32h-1v-.77h1v-1.37l.9-.29v1.66h1.41v.77h-1.41v3.16a1.29,1.29,0,0,0,.19.8.75.75,0,0,0,.63.24,1,1,0,0,0,.59-.18Z"/><path class="h" d="M276.9,156.61h-4a2.13,2.13,0,0,0,.51,1.45,1.73,1.73,0,0,0,1.32.51,2.74,2.74,0,0,0,1.74-.63v.84a3.22,3.22,0,0,1-1.95.54,2.37,2.37,0,0,1-1.87-.76,3.15,3.15,0,0,1-.68-2.15,3.07,3.07,0,0,1,.74-2.13,2.4,2.4,0,0,1,1.85-.83,2.12,2.12,0,0,1,1.7.71,3,3,0,0,1,.6,2Zm-.92-.76a1.84,1.84,0,0,0-.37-1.21,1.28,1.28,0,0,0-1-.43,1.47,1.47,0,0,0-1.08.45,2,2,0,0,0-.54,1.19Z"/><path class="h" d="M277.92,159v-1a2.62,2.62,0,0,0,1.62.55c.79,0,1.18-.27,1.18-.79a.65.65,0,0,0-.1-.38.93.93,0,0,0-.28-.28,2.48,2.48,0,0,0-.4-.22l-.5-.2a5.2,5.2,0,0,1-.66-.29,2.47,2.47,0,0,1-.47-.34,1.33,1.33,0,0,1-.28-.43,1.42,1.42,0,0,1-.1-.57,1.38,1.38,0,0,1,.18-.7,1.66,1.66,0,0,1,.48-.51,2.16,2.16,0,0,1,.69-.3,3,3,0,0,1,.8-.11,3.35,3.35,0,0,1,1.3.25v.91a2.53,2.53,0,0,0-1.42-.4,2.16,2.16,0,0,0-.46,0,1.08,1.08,0,0,0-.34.17.68.68,0,0,0-.23.25.66.66,0,0,0-.08.32.8.8,0,0,0,.08.36.83.83,0,0,0,.23.27,2.24,2.24,0,0,0,.38.2l.49.21a5.37,5.37,0,0,1,.67.29,2.16,2.16,0,0,1,.51.34,1.26,1.26,0,0,1,.43,1,1.37,1.37,0,0,1-.18.72,1.59,1.59,0,0,1-.49.51,2.06,2.06,0,0,1-.71.3,3.33,3.33,0,0,1-.84.1A3.19,3.19,0,0,1,277.92,159Z"/><path class="h" d="M228.66,172.65h-.9v-3.23c0-1.17-.43-1.76-1.3-1.76a1.42,1.42,0,0,0-1.11.51,1.93,1.93,0,0,0-.44,1.3v3.18H224v-8.3h.9V168h0a2,2,0,0,1,1.84-1.06q1.89,0,1.89,2.28Z"/><path class="h" d="M234.37,172.65h-.9v-.88h0a1.89,1.89,0,0,1-1.73,1,1.84,1.84,0,0,1-1.31-.45,1.53,1.53,0,0,1-.47-1.17c0-1,.61-1.66,1.85-1.83l1.68-.24c0-1-.39-1.43-1.16-1.43a2.74,2.74,0,0,0-1.82.69v-.92a3.45,3.45,0,0,1,1.9-.52c1.32,0,2,.7,2,2.09Zm-.9-2.84-1.35.19a2.15,2.15,0,0,0-.94.31,1,1,0,0,0,0,1.45,1.12,1.12,0,0,0,.78.26,1.4,1.4,0,0,0,1.1-.47,1.62,1.62,0,0,0,.44-1.18Z"/><path class="h" d="M237,171.84h0v.81h-.9v-8.3h.9V168h0a2.12,2.12,0,0,1,1.94-1.12,2.06,2.06,0,0,1,1.69.75,3.16,3.16,0,0,1,.61,2,3.44,3.44,0,0,1-.69,2.25,2.25,2.25,0,0,1-1.87.85A1.86,1.86,0,0,1,237,171.84Zm0-2.26v.78a1.69,1.69,0,0,0,.45,1.18,1.61,1.61,0,0,0,2.42-.14,2.88,2.88,0,0,0,.47-1.74,2.29,2.29,0,0,0-.43-1.46,1.43,1.43,0,0,0-1.18-.54,1.61,1.61,0,0,0-1.26.55A2,2,0,0,0,237,169.58Z"/><path class="h" d="M243.11,165.62a.58.58,0,0,1-.58-.58.57.57,0,0,1,.17-.42.57.57,0,0,1,.41-.17.57.57,0,0,1,.42.17.54.54,0,0,1,.17.42.54.54,0,0,1-.17.41A.57.57,0,0,1,243.11,165.62Zm.44,7h-.9V167h.9Z"/><path class="h" d="M246.27,172.65h-.9v-8.3h.9Z"/><path class="h" d="M248.54,165.62a.58.58,0,0,1-.41-.17A.57.57,0,0,1,248,165a.57.57,0,0,1,.17-.42.58.58,0,0,1,.41-.17.57.57,0,0,1,.42.17.54.54,0,0,1,.18.42.55.55,0,0,1-.18.41A.57.57,0,0,1,248.54,165.62Zm.44,7h-.9V167h.9Z"/><path class="h" d="M255.59,172.65h-.9v-1h0a2.26,2.26,0,0,1-3.62.34,3.13,3.13,0,0,1-.63-2.06,3.32,3.32,0,0,1,.7-2.22,2.3,2.3,0,0,1,1.87-.84,1.79,1.79,0,0,1,1.68.91h0v-3.47h.9Zm-.9-2.54v-.83a1.62,1.62,0,0,0-.45-1.15,1.65,1.65,0,0,0-2.43.14,2.58,2.58,0,0,0-.47,1.66,2.36,2.36,0,0,0,.45,1.53A1.45,1.45,0,0,0,253,172a1.54,1.54,0,0,0,1.22-.54A2,2,0,0,0,254.69,170.11Z"/><path class="h" d="M261.42,172.65h-.9v-.88h0a1.89,1.89,0,0,1-1.73,1,1.83,1.83,0,0,1-1.31-.45,1.53,1.53,0,0,1-.47-1.17c0-1,.61-1.66,1.85-1.83l1.68-.24c0-1-.39-1.43-1.16-1.43a2.74,2.74,0,0,0-1.82.69v-.92a3.45,3.45,0,0,1,1.9-.52c1.32,0,2,.7,2,2.09Zm-.9-2.84-1.35.19a2.15,2.15,0,0,0-.94.31,1,1,0,0,0,0,1.45,1.12,1.12,0,0,0,.78.26,1.4,1.4,0,0,0,1.1-.47,1.62,1.62,0,0,0,.44-1.18Z"/><path class="h" d="M267.89,172.65H267v-1h0a2,2,0,0,1-1.92,1.09,2.09,2.09,0,0,1-1.69-.75,3.13,3.13,0,0,1-.63-2.06,3.32,3.32,0,0,1,.7-2.22,2.3,2.3,0,0,1,1.86-.84,1.79,1.79,0,0,1,1.68.91h0v-3.47h.89Zm-.89-2.54v-.83a1.62,1.62,0,0,0-.45-1.15,1.65,1.65,0,0,0-2.43.14,2.58,2.58,0,0,0-.47,1.66,2.36,2.36,0,0,0,.45,1.53,1.45,1.45,0,0,0,1.21.56,1.54,1.54,0,0,0,1.22-.54A2,2,0,0,0,267,170.11Z"/><path class="h" d="M274.22,170.07h-4a2.12,2.12,0,0,0,.5,1.44,1.76,1.76,0,0,0,1.33.51,2.79,2.79,0,0,0,1.74-.62v.84a3.22,3.22,0,0,1-1.95.54A2.36,2.36,0,0,1,270,172a3.58,3.58,0,0,1,.06-4.28,2.39,2.39,0,0,1,1.85-.82,2.12,2.12,0,0,1,1.7.71,3,3,0,0,1,.6,2Zm-.92-.76a1.79,1.79,0,0,0-.38-1.21,1.25,1.25,0,0,0-1-.44,1.47,1.47,0,0,0-1.08.46,2,2,0,0,0-.55,1.19Z"/><path class="h" d="M275.24,172.44v-1a2.67,2.67,0,0,0,1.61.54c.79,0,1.19-.26,1.19-.79a.77.77,0,0,0-.1-.38,1,1,0,0,0-.28-.27,1.89,1.89,0,0,0-.4-.22l-.51-.2c-.24-.1-.46-.2-.65-.3a1.89,1.89,0,0,1-.47-.34,1.26,1.26,0,0,1-.29-.43,1.6,1.6,0,0,1-.09-.56,1.35,1.35,0,0,1,.18-.7,1.66,1.66,0,0,1,.48-.51,2.42,2.42,0,0,1,.69-.31,3,3,0,0,1,.8-.1,3.17,3.17,0,0,1,1.3.25v.91a2.54,2.54,0,0,0-1.42-.41,1.65,1.65,0,0,0-.46.06,1.25,1.25,0,0,0-.35.16.86.86,0,0,0-.22.25.72.72,0,0,0-.08.32.81.81,0,0,0,.08.37.71.71,0,0,0,.23.26,1.63,1.63,0,0,0,.37.21l.5.2c.25.1.47.2.67.3a2.09,2.09,0,0,1,.5.34,1.21,1.21,0,0,1,.32.43,1.35,1.35,0,0,1,.12.59,1.31,1.31,0,0,1-.19.72,1.59,1.59,0,0,1-.49.51,2.47,2.47,0,0,1-.7.3,3.33,3.33,0,0,1-.84.1A3.08,3.08,0,0,1,275.24,172.44Z"/></g></g><g class="f"><g class="f"><path class="h" d="M24.94,250v3H24v-7.85h2.16a2.88,2.88,0,0,1,1.95.61,2.2,2.2,0,0,1,.69,1.73,2.38,2.38,0,0,1-.77,1.83A2.91,2.91,0,0,1,26,250Zm0-4.06v3.22h1a2.18,2.18,0,0,0,1.46-.43,1.55,1.55,0,0,0,.5-1.23c0-1-.62-1.56-1.84-1.56Z"/><path class="h" d="M34.27,250.36h-4a2.13,2.13,0,0,0,.5,1.45,1.76,1.76,0,0,0,1.33.51,2.74,2.74,0,0,0,1.74-.63v.85a3.22,3.22,0,0,1-2,.53,2.36,2.36,0,0,1-1.87-.76,3.13,3.13,0,0,1-.68-2.15,3.08,3.08,0,0,1,.74-2.13,2.39,2.39,0,0,1,1.85-.82,2.09,2.09,0,0,1,1.7.71,3,3,0,0,1,.6,2Zm-.92-.76a1.84,1.84,0,0,0-.37-1.21,1.28,1.28,0,0,0-1-.43,1.46,1.46,0,0,0-1.08.45,2.07,2.07,0,0,0-.55,1.19Z"/><path class="h" d="M40.28,252.94h-.9v-3.19c0-1.19-.43-1.79-1.3-1.79a1.39,1.39,0,0,0-1.11.51,1.83,1.83,0,0,0-.44,1.28v3.19h-.9v-5.6h.9v.93h0a2,2,0,0,1,1.84-1.06,1.72,1.72,0,0,1,1.41.59,2.67,2.67,0,0,1,.48,1.72Z"/><path class="h" d="M41.64,252.74v-1a2.62,2.62,0,0,0,1.61.54c.79,0,1.18-.26,1.18-.79a.65.65,0,0,0-.1-.38,1,1,0,0,0-.27-.28,2,2,0,0,0-.41-.21l-.5-.2a6.78,6.78,0,0,1-.65-.3,1.72,1.72,0,0,1-.47-.34,1.36,1.36,0,0,1-.29-.43,1.6,1.6,0,0,1-.09-.56,1.33,1.33,0,0,1,.18-.7,1.56,1.56,0,0,1,.48-.51,2.17,2.17,0,0,1,.69-.31,3,3,0,0,1,.79-.1,3.22,3.22,0,0,1,1.31.25v.91a2.57,2.57,0,0,0-1.43-.41,1.53,1.53,0,0,0-.45.06,1.13,1.13,0,0,0-.35.16.65.65,0,0,0-.22.25.59.59,0,0,0-.08.32.72.72,0,0,0,.08.37.92.92,0,0,0,.23.26,1.81,1.81,0,0,0,.37.21l.5.2a6.11,6.11,0,0,1,.67.29,2.73,2.73,0,0,1,.5.34,1.25,1.25,0,0,1,.32.44,1.31,1.31,0,0,1,.11.58,1.44,1.44,0,0,1-.18.73,1.56,1.56,0,0,1-.49.5A2.19,2.19,0,0,1,44,253a3.7,3.7,0,0,1-.83.09A3.19,3.19,0,0,1,41.64,252.74Z"/><path class="h" d="M50.75,252.94h-.9v-.87h0a1.88,1.88,0,0,1-1.73,1,1.82,1.82,0,0,1-1.31-.44,1.52,1.52,0,0,1-.47-1.18c0-1,.61-1.65,1.85-1.82l1.68-.24c0-.95-.39-1.43-1.16-1.43a2.78,2.78,0,0,0-1.83.69v-.92a3.51,3.51,0,0,1,1.91-.52c1.32,0,2,.69,2,2.09Zm-.9-2.83-1.35.18a2.25,2.25,0,0,0-1,.31.9.9,0,0,0-.31.79.84.84,0,0,0,.29.67,1.17,1.17,0,0,0,.78.26,1.44,1.44,0,0,0,1.1-.47,1.67,1.67,0,0,0,.44-1.18Z"/><path class="h" d="M60.4,252.94h-.9v-3.22a2.32,2.32,0,0,0-.29-1.34,1.08,1.08,0,0,0-1-.42,1.21,1.21,0,0,0-1,.53,2,2,0,0,0-.4,1.26v3.19H56v-3.33c0-1.1-.42-1.65-1.28-1.65a1.19,1.19,0,0,0-1,.5,2,2,0,0,0-.38,1.29v3.19h-.9v-5.6h.9v.88h0a1.9,1.9,0,0,1,1.74-1,1.63,1.63,0,0,1,1,.31,1.65,1.65,0,0,1,.59.85,2,2,0,0,1,1.86-1.16c1.23,0,1.85.76,1.85,2.28Z"/><path class="h" d="M62.56,245.91a.56.56,0,0,1-.41-.16.6.6,0,0,1,0-.84.56.56,0,0,1,.41-.16.6.6,0,0,1,.42.16.57.57,0,0,1,.17.42.58.58,0,0,1-.59.58Zm.44,7h-.9v-5.6H63Z"/><path class="h" d="M69.32,250.36h-4a2.13,2.13,0,0,0,.5,1.45,1.76,1.76,0,0,0,1.33.51,2.74,2.74,0,0,0,1.74-.63v.85a3.22,3.22,0,0,1-2,.53,2.36,2.36,0,0,1-1.87-.76,3.13,3.13,0,0,1-.68-2.15,3.08,3.08,0,0,1,.74-2.13,2.38,2.38,0,0,1,1.84-.82,2.09,2.09,0,0,1,1.71.71,3,3,0,0,1,.6,2Zm-.92-.76a1.84,1.84,0,0,0-.37-1.21,1.28,1.28,0,0,0-1-.43,1.46,1.46,0,0,0-1.08.45,2.07,2.07,0,0,0-.55,1.19Z"/><path class="h" d="M75.33,252.94h-.9v-3.19c0-1.19-.43-1.79-1.3-1.79a1.39,1.39,0,0,0-1.11.51,1.83,1.83,0,0,0-.44,1.28v3.19h-.9v-5.6h.9v.93h0a2,2,0,0,1,1.84-1.06,1.72,1.72,0,0,1,1.41.59,2.67,2.67,0,0,1,.48,1.72Z"/><path class="h" d="M79.63,252.89a1.75,1.75,0,0,1-.84.17c-1,0-1.48-.54-1.48-1.64V248.1h-1v-.76h1V246l.9-.29v1.66h1.42v.76H78.21v3.16a1.38,1.38,0,0,0,.19.81.77.77,0,0,0,.64.24.93.93,0,0,0,.59-.19Z"/><path class="h" d="M83.17,253.07a2.63,2.63,0,0,1-2-.78,2.92,2.92,0,0,1-.74-2.08,3,3,0,0,1,.77-2.21,2.78,2.78,0,0,1,2.09-.79,2.5,2.5,0,0,1,2,.77,3,3,0,0,1,.7,2.14,3,3,0,0,1-.76,2.15A2.63,2.63,0,0,1,83.17,253.07Zm.06-5.11a1.7,1.7,0,0,0-1.36.59,2.38,2.38,0,0,0-.51,1.62,2.26,2.26,0,0,0,.51,1.57,1.71,1.71,0,0,0,1.36.58,1.63,1.63,0,0,0,1.34-.57,2.39,2.39,0,0,0,.47-1.6,2.45,2.45,0,0,0-.47-1.62A1.63,1.63,0,0,0,83.23,248Z"/></g><g class="f"><path class="h" d="M61.57,266.14a2.9,2.9,0,0,1-1.53.39,2.55,2.55,0,0,1-1.94-.78,2.82,2.82,0,0,1-.73-2,3.1,3.1,0,0,1,.79-2.23,2.79,2.79,0,0,1,2.12-.84,2.83,2.83,0,0,1,1.3.28v.92a2.21,2.21,0,0,0-1.33-.44,1.78,1.78,0,0,0-1.41.61,2.32,2.32,0,0,0-.55,1.62,2.26,2.26,0,0,0,.51,1.56,1.79,1.79,0,0,0,1.39.57,2.28,2.28,0,0,0,1.38-.49Z"/><path class="h" d="M65.85,261.7a1.07,1.07,0,0,0-.67-.18,1.16,1.16,0,0,0-1,.54,2.6,2.6,0,0,0-.38,1.48v2.86h-.9v-5.61h.9V262h0a1.89,1.89,0,0,1,.59-.92,1.33,1.33,0,0,1,.88-.34,1.44,1.44,0,0,1,.53.08Z"/><path class="h" d="M68.53,257.93l-1.43,1.8h-.7l1.22-1.8Zm-.8,8.47h-.9v-5.61h.9Z"/><path class="h" d="M72.15,266.35a1.87,1.87,0,0,1-.84.17c-1,0-1.48-.55-1.48-1.64v-3.32h-1v-.77h1v-1.37l.9-.29v1.66h1.42v.77H70.73v3.16a1.34,1.34,0,0,0,.19.8.75.75,0,0,0,.64.25,1,1,0,0,0,.59-.19Z"/><path class="h" d="M73.8,259.37a.57.57,0,0,1-.41-.16.63.63,0,0,1,0-.84.58.58,0,0,1,.41-.17.57.57,0,0,1,.42.17.54.54,0,0,1,.18.42.54.54,0,0,1-.18.41A.57.57,0,0,1,73.8,259.37Zm.44,7h-.89v-5.61h.89Z"/><path class="h" d="M79.88,266.14a2.9,2.9,0,0,1-1.53.39,2.55,2.55,0,0,1-1.94-.78,2.82,2.82,0,0,1-.73-2,3.1,3.1,0,0,1,.79-2.23,2.79,2.79,0,0,1,2.12-.84,2.83,2.83,0,0,1,1.3.28v.92a2.21,2.21,0,0,0-1.33-.44,1.78,1.78,0,0,0-1.41.61,2.32,2.32,0,0,0-.55,1.62,2.26,2.26,0,0,0,.51,1.56,1.79,1.79,0,0,0,1.39.57,2.28,2.28,0,0,0,1.38-.49Z"/><path class="h" d="M83.58,266.53a2.61,2.61,0,0,1-2-.78,3,3,0,0,1-.74-2.09,3,3,0,0,1,.77-2.2,2.77,2.77,0,0,1,2.09-.8,2.51,2.51,0,0,1,2,.77,3.08,3.08,0,0,1,.71,2.15,3,3,0,0,1-.76,2.14A2.66,2.66,0,0,1,83.58,266.53Zm.07-5.11a1.69,1.69,0,0,0-1.37.59,2.43,2.43,0,0,0-.5,1.62,2.28,2.28,0,0,0,.51,1.57,1.74,1.74,0,0,0,1.36.58,1.63,1.63,0,0,0,1.34-.57,2.44,2.44,0,0,0,.47-1.6A2.5,2.5,0,0,0,85,262,1.63,1.63,0,0,0,83.65,261.42Z"/></g></g><g class="f"><g class="f"><path class="h" d="M10,154.73a4.56,4.56,0,0,1-2.17.46,3.5,3.5,0,0,1-2.68-1.08,4,4,0,0,1-1-2.83,4.15,4.15,0,0,1,1.14-3,3.81,3.81,0,0,1,2.87-1.16,4.52,4.52,0,0,1,1.85.32v1a3.68,3.68,0,0,0-1.86-.47,2.86,2.86,0,0,0-2.19.9,3.41,3.41,0,0,0-.84,2.42,3.25,3.25,0,0,0,.78,2.28,2.68,2.68,0,0,0,2.07.85,3.85,3.85,0,0,0,2-.52Z"/><path class="h" d="M14.44,150.36a1.2,1.2,0,0,0-1.64.36,2.5,2.5,0,0,0-.39,1.48v2.86h-.9v-5.61h.9v1.16h0a2,2,0,0,1,.59-.93,1.32,1.32,0,0,1,.88-.33,1.54,1.54,0,0,1,.54.08Z"/><path class="h" d="M19.92,152.48H16a2.1,2.1,0,0,0,.5,1.45,1.73,1.73,0,0,0,1.33.5,2.73,2.73,0,0,0,1.74-.62v.84a3.27,3.27,0,0,1-2,.54,2.38,2.38,0,0,1-1.87-.76,3.15,3.15,0,0,1-.67-2.15,3,3,0,0,1,.74-2.14,2.4,2.4,0,0,1,1.84-.82,2.12,2.12,0,0,1,1.7.71,3,3,0,0,1,.61,2Zm-.92-.76a1.84,1.84,0,0,0-.38-1.21,1.28,1.28,0,0,0-1-.43,1.44,1.44,0,0,0-1.07.45,2,2,0,0,0-.55,1.19Z"/><path class="h" d="M25.29,155.06h-.9v-.88h0a1.89,1.89,0,0,1-1.73,1,1.87,1.87,0,0,1-1.31-.44,1.57,1.57,0,0,1-.47-1.18c0-1,.61-1.66,1.85-1.83l1.68-.23c0-1-.39-1.43-1.16-1.43a2.74,2.74,0,0,0-1.82.69v-.92a3.46,3.46,0,0,1,1.9-.53c1.32,0,2,.7,2,2.09Zm-.9-2.84-1.35.19a2.25,2.25,0,0,0-.95.31,1,1,0,0,0,0,1.46,1.16,1.16,0,0,0,.78.25A1.43,1.43,0,0,0,24,154a1.7,1.7,0,0,0,.44-1.19Z"/><path class="h" d="M29.58,155a1.69,1.69,0,0,1-.84.18c-1,0-1.47-.55-1.47-1.64v-3.32h-1v-.77h1v-1.37l.9-.29v1.66h1.41v.77H28.17v3.16a1.29,1.29,0,0,0,.19.8.77.77,0,0,0,.63.24,1,1,0,0,0,.59-.18Z"/><path class="h" d="M31.24,148a.57.57,0,0,1-.41-.17.55.55,0,0,1-.17-.41.57.57,0,0,1,.17-.42.57.57,0,0,1,.41-.17.61.61,0,0,1,.42.17.57.57,0,0,1,.17.42.57.57,0,0,1-.17.41A.61.61,0,0,1,31.24,148Zm.44,7h-.9v-5.61h.9Z"/><path class="h" d="M37.9,149.45l-2.23,5.61h-.88l-2.13-5.61h1l1.42,4.08a3.73,3.73,0,0,1,.2.78h0a3.86,3.86,0,0,1,.18-.76l1.49-4.1Z"/><path class="h" d="M39.33,148a.57.57,0,0,1-.41-.17.52.52,0,0,1-.17-.41.54.54,0,0,1,.17-.42.57.57,0,0,1,.41-.17.61.61,0,0,1,.42.17.57.57,0,0,1,.17.42.57.57,0,0,1-.17.41A.61.61,0,0,1,39.33,148Zm.44,7h-.9v-5.61h.9Z"/><path class="h" d="M46.37,155.06h-.9v-.95h0a2.08,2.08,0,0,1-1.93,1.08,2.1,2.1,0,0,1-1.69-.75,3.1,3.1,0,0,1-.63-2.05,3.35,3.35,0,0,1,.7-2.23,2.32,2.32,0,0,1,1.87-.84,1.79,1.79,0,0,1,1.68.91h0v-3.47h.9Zm-.9-2.54v-.82a1.58,1.58,0,0,0-.45-1.15,1.49,1.49,0,0,0-1.14-.47,1.55,1.55,0,0,0-1.29.6,2.64,2.64,0,0,0-.47,1.66,2.36,2.36,0,0,0,.45,1.53,1.46,1.46,0,0,0,1.21.56,1.54,1.54,0,0,0,1.22-.54A2,2,0,0,0,45.47,152.52Z"/><path class="h" d="M52.2,155.06h-.9v-.88h0a2.05,2.05,0,0,1-3,.57,1.57,1.57,0,0,1-.47-1.18c0-1,.62-1.66,1.85-1.83l1.68-.23c0-1-.38-1.43-1.15-1.43a2.75,2.75,0,0,0-1.83.69v-.92a3.46,3.46,0,0,1,1.9-.53c1.32,0,2,.7,2,2.09Zm-.9-2.84-1.35.19a2.15,2.15,0,0,0-.94.31,1,1,0,0,0,0,1.46,1.16,1.16,0,0,0,.78.25,1.45,1.45,0,0,0,1.11-.46,1.69,1.69,0,0,0,.43-1.19Z"/><path class="h" d="M58.68,155.06h-.9v-.95h0a2.08,2.08,0,0,1-1.93,1.08,2.1,2.1,0,0,1-1.69-.75,3.1,3.1,0,0,1-.63-2.05,3.35,3.35,0,0,1,.7-2.23,2.32,2.32,0,0,1,1.87-.84,1.79,1.79,0,0,1,1.68.91h0v-3.47h.9Zm-.9-2.54v-.82a1.58,1.58,0,0,0-.45-1.15,1.49,1.49,0,0,0-1.14-.47,1.54,1.54,0,0,0-1.29.6,2.64,2.64,0,0,0-.47,1.66,2.36,2.36,0,0,0,.45,1.53,1.46,1.46,0,0,0,1.21.56,1.54,1.54,0,0,0,1.22-.54A2,2,0,0,0,57.78,152.52Z"/></g></g><g class="f"><g class="f"><path class="h" d="M29.75,45.1h-1.1l-1.31-2.2a5.42,5.42,0,0,0-.35-.53,1.93,1.93,0,0,0-.35-.35,1.27,1.27,0,0,0-.38-.2,1.68,1.68,0,0,0-.47-.06H25V45.1h-.92V37.25h2.34a3.53,3.53,0,0,1,.95.12,2.12,2.12,0,0,1,.76.4,1.8,1.8,0,0,1,.5.65,2.19,2.19,0,0,1,.18.92,2.27,2.27,0,0,1-.12.75,2.16,2.16,0,0,1-.35.61,2.45,2.45,0,0,1-.55.46,2.93,2.93,0,0,1-.72.29v0a2.18,2.18,0,0,1,.34.2,2.37,2.37,0,0,1,.28.27,3.54,3.54,0,0,1,.26.35l.28.45Zm-4.71-7v2.85h1.25a1.81,1.81,0,0,0,.63-.11,1.44,1.44,0,0,0,.51-.3,1.41,1.41,0,0,0,.46-1.11,1.24,1.24,0,0,0-.41-1,1.79,1.79,0,0,0-1.18-.35Z"/><path class="h" d="M34.88,42.52h-4A2.13,2.13,0,0,0,31.43,44a1.73,1.73,0,0,0,1.32.51,2.71,2.71,0,0,0,1.74-.62v.84a3.22,3.22,0,0,1-2,.54,2.42,2.42,0,0,1-1.87-.76A3.15,3.15,0,0,1,30,42.32a3.05,3.05,0,0,1,.75-2.14,2.35,2.35,0,0,1,1.84-.82,2.12,2.12,0,0,1,1.7.71,3,3,0,0,1,.6,2ZM34,41.76a1.84,1.84,0,0,0-.37-1.21,1.29,1.29,0,0,0-1-.44,1.48,1.48,0,0,0-1.08.46,2.09,2.09,0,0,0-.54,1.19Z"/><path class="h" d="M35.9,44.9v-1a2.67,2.67,0,0,0,1.62.54c.79,0,1.18-.26,1.18-.78a.71.71,0,0,0-.1-.39,1.15,1.15,0,0,0-.27-.27,2.6,2.6,0,0,0-.41-.22l-.5-.2a7,7,0,0,1-.66-.3,2.1,2.1,0,0,1-.47-.34,1.23,1.23,0,0,1-.28-.43,1.37,1.37,0,0,1-.1-.56,1.35,1.35,0,0,1,.18-.7,1.59,1.59,0,0,1,.49-.51,2.48,2.48,0,0,1,.68-.31,3.08,3.08,0,0,1,.8-.1,3.17,3.17,0,0,1,1.3.25v.91a2.52,2.52,0,0,0-1.42-.41,1.65,1.65,0,0,0-.46.06,1.07,1.07,0,0,0-.34.16.9.9,0,0,0-.23.25.72.72,0,0,0-.08.32.72.72,0,0,0,.31.63,1.71,1.71,0,0,0,.38.21l.5.2c.24.1.47.2.66.3a2.16,2.16,0,0,1,.51.34,1.34,1.34,0,0,1,.32.43,1.51,1.51,0,0,1,.11.59,1.4,1.4,0,0,1-.18.72,1.59,1.59,0,0,1-.49.51,2.27,2.27,0,0,1-.71.3,3.33,3.33,0,0,1-.84.1A3.25,3.25,0,0,1,35.9,44.9Z"/><path class="h" d="M43.34,45.23a2.58,2.58,0,0,1-2-.79,2.86,2.86,0,0,1-.74-2.08,3,3,0,0,1,.77-2.21,2.77,2.77,0,0,1,2.09-.79,2.52,2.52,0,0,1,2,.77,3.07,3.07,0,0,1,.71,2.14,3,3,0,0,1-.76,2.15A2.67,2.67,0,0,1,43.34,45.23Zm.07-5.12A1.72,1.72,0,0,0,42,40.7a2.43,2.43,0,0,0-.5,1.63,2.28,2.28,0,0,0,.51,1.57,1.73,1.73,0,0,0,1.36.57,1.63,1.63,0,0,0,1.34-.56,2.46,2.46,0,0,0,.47-1.6,2.51,2.51,0,0,0-.47-1.63A1.63,1.63,0,0,0,43.41,40.11Z"/><path class="h" d="M48.47,45.1h-.9V36.8h.9Z"/><path class="h" d="M54.82,45.1h-.9v-.89h0a1.84,1.84,0,0,1-1.73,1c-1.34,0-2-.8-2-2.39V39.49h.89V42.7c0,1.18.45,1.77,1.36,1.77A1.37,1.37,0,0,0,53.5,44a1.87,1.87,0,0,0,.42-1.27V39.49h.9Z"/><path class="h" d="M60.45,44.84a2.9,2.9,0,0,1-1.53.39A2.52,2.52,0,0,1,57,44.45a2.84,2.84,0,0,1-.74-2A3.1,3.1,0,0,1,57,40.2a2.79,2.79,0,0,1,2.12-.84,3,3,0,0,1,1.31.27v.92a2.33,2.33,0,0,0-1.34-.44,1.82,1.82,0,0,0-1.41.62,2.32,2.32,0,0,0-.55,1.62,2.19,2.19,0,0,0,.52,1.55,1.77,1.77,0,0,0,1.39.57A2.26,2.26,0,0,0,60.45,44Z"/><path class="h" d="M62.27,38.07a.58.58,0,0,1-.41-.17.57.57,0,0,1-.17-.41.57.57,0,0,1,.17-.42.58.58,0,0,1,.41-.17.57.57,0,0,1,.42.17.54.54,0,0,1,.17.42.54.54,0,0,1-.17.41A.57.57,0,0,1,62.27,38.07Zm.44,7h-.9V39.49h.9Z"/><path class="h" d="M66.87,45.23a2.56,2.56,0,0,1-2-.79,2.86,2.86,0,0,1-.74-2.08,3,3,0,0,1,.77-2.21A2.76,2.76,0,0,1,67,39.36a2.53,2.53,0,0,1,2,.77,3.07,3.07,0,0,1,.71,2.14,3,3,0,0,1-.76,2.15A2.67,2.67,0,0,1,66.87,45.23Zm.07-5.12a1.72,1.72,0,0,0-1.37.59,2.43,2.43,0,0,0-.5,1.63,2.28,2.28,0,0,0,.51,1.57,1.73,1.73,0,0,0,1.36.57,1.63,1.63,0,0,0,1.34-.56,2.46,2.46,0,0,0,.47-1.6,2.51,2.51,0,0,0-.47-1.63A1.63,1.63,0,0,0,66.94,40.11Zm1.31-3.48-1.43,1.8h-.7l1.22-1.8Z"/><path class="h" d="M75.75,45.1h-.89V41.9c0-1.19-.44-1.79-1.31-1.79a1.39,1.39,0,0,0-1.11.51A1.91,1.91,0,0,0,72,41.9v3.2h-.9V39.49H72v.93h0a2,2,0,0,1,1.84-1.06,1.75,1.75,0,0,1,1.41.59,2.69,2.69,0,0,1,.48,1.72Z"/><path class="h" d="M85.3,45.1h-.89v-1h0a2.06,2.06,0,0,1-1.92,1.08,2.09,2.09,0,0,1-1.69-.75,3.12,3.12,0,0,1-.64-2,3.35,3.35,0,0,1,.71-2.23,2.3,2.3,0,0,1,1.86-.84,1.79,1.79,0,0,1,1.68.91h0V36.8h.89Zm-.89-2.54v-.82A1.58,1.58,0,0,0,84,40.59a1.5,1.5,0,0,0-1.14-.48,1.55,1.55,0,0,0-1.29.61,2.58,2.58,0,0,0-.47,1.66,2.36,2.36,0,0,0,.45,1.53,1.45,1.45,0,0,0,1.21.56,1.54,1.54,0,0,0,1.22-.54A2,2,0,0,0,84.41,42.56Z"/><path class="h" d="M91.63,42.52h-4a2.07,2.07,0,0,0,.5,1.44,1.75,1.75,0,0,0,1.33.51,2.73,2.73,0,0,0,1.74-.62v.84a3.22,3.22,0,0,1-1.95.54,2.39,2.39,0,0,1-1.87-.76,3.15,3.15,0,0,1-.68-2.15,3.09,3.09,0,0,1,.74-2.14,2.38,2.38,0,0,1,1.84-.82,2.12,2.12,0,0,1,1.71.71,3,3,0,0,1,.6,2Zm-.92-.76a1.84,1.84,0,0,0-.38-1.21,1.25,1.25,0,0,0-1-.44,1.45,1.45,0,0,0-1.08.46,2,2,0,0,0-.55,1.19Z"/></g><g class="f"><path class="h" d="M41.88,57.74h0v3.39H41V53h.89v1h0a2.11,2.11,0,0,1,1.93-1.11,2.07,2.07,0,0,1,1.7.75,3.14,3.14,0,0,1,.6,2,3.45,3.45,0,0,1-.68,2.25,2.3,2.3,0,0,1-1.87.85A1.87,1.87,0,0,1,41.88,57.74Zm0-2.26v.79a1.65,1.65,0,0,0,.46,1.18,1.5,1.5,0,0,0,1.14.48,1.51,1.51,0,0,0,1.28-.62,2.88,2.88,0,0,0,.46-1.74,2.28,2.28,0,0,0-.43-1.47,1.44,1.44,0,0,0-1.17-.53,1.58,1.58,0,0,0-1.26.55A2,2,0,0,0,41.85,55.48Z"/><path class="h" d="M50.47,53.86a1.08,1.08,0,0,0-.68-.18,1.15,1.15,0,0,0-1,.54,2.55,2.55,0,0,0-.38,1.48v2.85h-.9V53h.9V54.1h0a2,2,0,0,1,.58-.92,1.36,1.36,0,0,1,.89-.33,1.25,1.25,0,0,1,.53.08Z"/><path class="h" d="M53.79,58.69a2.6,2.6,0,0,1-2-.79,2.89,2.89,0,0,1-.75-2.08,3,3,0,0,1,.78-2.21,2.76,2.76,0,0,1,2.08-.79,2.5,2.5,0,0,1,2,.77,3.54,3.54,0,0,1-.05,4.29A2.67,2.67,0,0,1,53.79,58.69Zm.07-5.12a1.71,1.71,0,0,0-1.37.59A2.38,2.38,0,0,0,52,55.78a2.31,2.31,0,0,0,.51,1.58,1.75,1.75,0,0,0,1.37.57,1.67,1.67,0,0,0,1.34-.56,2.47,2.47,0,0,0,.46-1.61,2.5,2.5,0,0,0-.46-1.62A1.65,1.65,0,0,0,53.86,53.57Z"/><path class="h" d="M58.94,57.74h0v.81H58v-8.3h.9v3.68h0a2.13,2.13,0,0,1,1.94-1.11,2.06,2.06,0,0,1,1.69.75,3.14,3.14,0,0,1,.61,2,3.45,3.45,0,0,1-.69,2.25,2.3,2.3,0,0,1-1.87.85A1.85,1.85,0,0,1,58.94,57.74Zm0-2.26v.79a1.69,1.69,0,0,0,.45,1.18,1.61,1.61,0,0,0,2.42-.14,2.88,2.88,0,0,0,.47-1.74,2.28,2.28,0,0,0-.44-1.47,1.44,1.44,0,0,0-1.17-.53,1.58,1.58,0,0,0-1.26.55A2,2,0,0,0,58.92,55.48Z"/><path class="h" d="M65.51,58.55h-.9v-8.3h.9Z"/><path class="h" d="M71.83,56h-4a2.13,2.13,0,0,0,.51,1.44,1.73,1.73,0,0,0,1.32.51,2.77,2.77,0,0,0,1.74-.62v.84a3.22,3.22,0,0,1-2,.54,2.39,2.39,0,0,1-1.87-.77,3.13,3.13,0,0,1-.68-2.15,3,3,0,0,1,.75-2.13,2.35,2.35,0,0,1,1.84-.82,2.09,2.09,0,0,1,1.7.71,3,3,0,0,1,.6,2Zm-.92-.77A1.86,1.86,0,0,0,70.54,54a1.31,1.31,0,0,0-1-.43,1.44,1.44,0,0,0-1.08.46,2.09,2.09,0,0,0-.54,1.18Z"/><path class="h" d="M81.15,58.55h-.89V55.33A2.42,2.42,0,0,0,80,54a1.09,1.09,0,0,0-1-.42,1.21,1.21,0,0,0-1,.53,2.06,2.06,0,0,0-.4,1.26v3.19h-.9V55.23c0-1.11-.42-1.66-1.27-1.66a1.2,1.2,0,0,0-1,.5,2.08,2.08,0,0,0-.38,1.29v3.19h-.9V53h.9v.88h0a1.92,1.92,0,0,1,1.74-1,1.56,1.56,0,0,1,1,.32,1.58,1.58,0,0,1,.59.84,2,2,0,0,1,1.86-1.16c1.24,0,1.85.76,1.85,2.28Z"/><path class="h" d="M86.86,58.55H86v-.87h0a1.89,1.89,0,0,1-1.73,1,1.81,1.81,0,0,1-1.31-.45,1.51,1.51,0,0,1-.47-1.17c0-1,.61-1.66,1.85-1.83L86,55c0-1-.39-1.43-1.16-1.43a2.78,2.78,0,0,0-1.83.69v-.92a3.49,3.49,0,0,1,1.91-.52c1.32,0,2,.69,2,2.09ZM86,55.72l-1.36.18a2.35,2.35,0,0,0-.94.31.9.9,0,0,0-.32.79.85.85,0,0,0,.3.67,1.13,1.13,0,0,0,.78.26,1.45,1.45,0,0,0,1.1-.47A1.66,1.66,0,0,0,86,56.28Z"/><path class="h" d="M88.22,58.35v-1a2.67,2.67,0,0,0,1.61.54c.79,0,1.19-.26,1.19-.79a.68.68,0,0,0-.11-.38.87.87,0,0,0-.27-.27,1.6,1.6,0,0,0-.41-.22l-.5-.2c-.24-.1-.46-.2-.65-.3a1.72,1.72,0,0,1-.47-.34,1.36,1.36,0,0,1-.29-.43,1.6,1.6,0,0,1-.09-.56,1.33,1.33,0,0,1,.18-.7,1.66,1.66,0,0,1,.48-.51,2.17,2.17,0,0,1,.69-.31,3,3,0,0,1,.79-.1,3.19,3.19,0,0,1,1.31.25V54a2.55,2.55,0,0,0-1.43-.41,1.58,1.58,0,0,0-.45.06,1.13,1.13,0,0,0-.35.16.65.65,0,0,0-.22.25.59.59,0,0,0-.08.32.7.7,0,0,0,.08.37.8.8,0,0,0,.23.26,1.63,1.63,0,0,0,.37.21l.5.2c.25.1.47.19.67.29a2.43,2.43,0,0,1,.5.34,1.25,1.25,0,0,1,.32.44,1.31,1.31,0,0,1,.11.58,1.44,1.44,0,0,1-.18.73,1.59,1.59,0,0,1-.49.51,2.47,2.47,0,0,1-.7.3,3.86,3.86,0,0,1-.84.1A3.19,3.19,0,0,1,88.22,58.35Z"/></g></g><g class="f"><g class="f"><path class="h" d="M416.2,52a3.48,3.48,0,0,1-2.68-1.1,4.1,4.1,0,0,1-1-2.87,4.33,4.33,0,0,1,1-3,3.59,3.59,0,0,1,2.79-1.13,3.38,3.38,0,0,1,2.62,1.1,4.1,4.1,0,0,1,1,2.86,4.37,4.37,0,0,1-1,3A3.5,3.5,0,0,1,416.2,52Zm.06-7.28a2.5,2.5,0,0,0-2,.89,3.41,3.41,0,0,0-.78,2.34,3.45,3.45,0,0,0,.76,2.34,2.44,2.44,0,0,0,2,.88,2.56,2.56,0,0,0,2-.84,3.43,3.43,0,0,0,.75-2.36,3.63,3.63,0,0,0-.72-2.41A2.5,2.5,0,0,0,416.26,44.68Z"/><path class="h" d="M424.29,47.13a1.1,1.1,0,0,0-.68-.18,1.15,1.15,0,0,0-1,.54,2.48,2.48,0,0,0-.38,1.48v2.86h-.9V46.22h.9v1.15h0a1.92,1.92,0,0,1,.58-.92,1.36,1.36,0,0,1,.88-.33,1.46,1.46,0,0,1,.54.08Z"/><path class="h" d="M430.05,51.38q0,3.09-2.95,3.09a4,4,0,0,1-1.82-.4v-.9a3.73,3.73,0,0,0,1.8.53c1.38,0,2.07-.73,2.07-2.2v-.62h0a2.26,2.26,0,0,1-3.61.33,3,3,0,0,1-.64-2,3.48,3.48,0,0,1,.69-2.27,2.31,2.31,0,0,1,1.88-.84,1.81,1.81,0,0,1,1.68.91h0v-.78h.9Zm-.9-2.09v-.83a1.61,1.61,0,0,0-.45-1.14,1.47,1.47,0,0,0-1.12-.48,1.59,1.59,0,0,0-1.31.61,2.72,2.72,0,0,0-.47,1.69,2.31,2.31,0,0,0,.45,1.5,1.46,1.46,0,0,0,1.2.56,1.6,1.6,0,0,0,1.23-.53A2,2,0,0,0,429.15,49.29Z"/><path class="h" d="M435.88,51.83H435V51h0a1.88,1.88,0,0,1-1.72,1,1.81,1.81,0,0,1-1.31-.45,1.5,1.5,0,0,1-.48-1.17c0-1.05.62-1.66,1.85-1.83l1.69-.24c0-1-.39-1.43-1.16-1.43a2.78,2.78,0,0,0-1.83.69v-.92a3.49,3.49,0,0,1,1.91-.52c1.32,0,2,.7,2,2.09ZM435,49l-1.36.19a2.07,2.07,0,0,0-.94.31.88.88,0,0,0-.32.78.83.83,0,0,0,.3.67,1.08,1.08,0,0,0,.78.26,1.42,1.42,0,0,0,1.1-.47,1.66,1.66,0,0,0,.44-1.18Z"/><path class="h" d="M442.23,51.83h-.9v-3.2c0-1.19-.43-1.79-1.3-1.79a1.43,1.43,0,0,0-1.12.51,1.89,1.89,0,0,0-.44,1.28v3.2h-.89V46.22h.89v.93h0a2,2,0,0,1,1.84-1.06,1.71,1.71,0,0,1,1.4.59,2.63,2.63,0,0,1,.49,1.72Z"/><path class="h" d="M444.38,44.8a.58.58,0,0,1-.58-.58.57.57,0,0,1,.17-.42.53.53,0,0,1,.41-.17.58.58,0,0,1,.59.59.54.54,0,0,1-.17.41A.57.57,0,0,1,444.38,44.8Zm.44,7h-.9V46.22h.9Z"/><path class="h" d="M450.55,46.48l-3.32,4.58h3.29v.77h-4.61v-.28L449.23,47h-3v-.77h4.33Z"/><path class="h" d="M455.72,51.83h-.9V51h0a1.88,1.88,0,0,1-1.72,1,1.81,1.81,0,0,1-1.31-.45,1.5,1.5,0,0,1-.48-1.17c0-1.05.62-1.66,1.85-1.83l1.68-.24c0-1-.38-1.43-1.15-1.43a2.75,2.75,0,0,0-1.83.69v-.92a3.49,3.49,0,0,1,1.91-.52c1.31,0,2,.7,2,2.09Zm-.9-2.84-1.35.19a2.07,2.07,0,0,0-.94.31.88.88,0,0,0-.32.78.83.83,0,0,0,.3.67,1.07,1.07,0,0,0,.77.26,1.42,1.42,0,0,0,1.11-.47,1.65,1.65,0,0,0,.43-1.18Z"/><path class="h" d="M461.24,51.57a3,3,0,0,1-1.54.39,2.52,2.52,0,0,1-1.93-.78,2.85,2.85,0,0,1-.74-2,3.09,3.09,0,0,1,.79-2.22,2.79,2.79,0,0,1,2.12-.84,3,3,0,0,1,1.31.27v.92a2.31,2.31,0,0,0-1.34-.44,1.82,1.82,0,0,0-1.41.62,2.32,2.32,0,0,0-.55,1.62,2.2,2.2,0,0,0,.52,1.55,1.78,1.78,0,0,0,1.39.57,2.26,2.26,0,0,0,1.38-.49Z"/><path class="h" d="M463.05,44.8a.58.58,0,0,1-.41-.17.57.57,0,0,1-.17-.41.57.57,0,0,1,.17-.42.54.54,0,0,1,.41-.17.58.58,0,0,1,.59.59.54.54,0,0,1-.17.41A.57.57,0,0,1,463.05,44.8Zm.44,7h-.9V46.22h.9Z"/><path class="h" d="M467.65,52a2.58,2.58,0,0,1-2-.79,2.88,2.88,0,0,1-.74-2.08,3,3,0,0,1,.77-2.21,2.77,2.77,0,0,1,2.09-.79,2.52,2.52,0,0,1,1.95.77,3.5,3.5,0,0,1-.05,4.29A2.67,2.67,0,0,1,467.65,52Zm.07-5.12a1.72,1.72,0,0,0-1.37.59,2.41,2.41,0,0,0-.5,1.63,2.3,2.3,0,0,0,.51,1.57,1.73,1.73,0,0,0,1.36.57,1.66,1.66,0,0,0,1.34-.56,2.47,2.47,0,0,0,.47-1.61,2.5,2.5,0,0,0-.47-1.62A1.63,1.63,0,0,0,467.72,46.84ZM469,43.36l-1.43,1.8h-.7l1.22-1.8Z"/><path class="h" d="M476.53,51.83h-.89v-3.2c0-1.19-.44-1.79-1.31-1.79a1.39,1.39,0,0,0-1.11.51,1.89,1.89,0,0,0-.44,1.28v3.2h-.9V46.22h.9v.93h0a2,2,0,0,1,1.84-1.06,1.75,1.75,0,0,1,1.41.59,2.69,2.69,0,0,1,.48,1.72Z"/></g></g><g class="f"><g class="f"><path class="h" d="M417.12,254.82a5.16,5.16,0,0,1-2.62.67,3.56,3.56,0,0,1-2.72-1.09,3.92,3.92,0,0,1-1-2.86,4.09,4.09,0,0,1,1.15-3,3.93,3.93,0,0,1,2.92-1.17,4.9,4.9,0,0,1,2.15.42v1a4.11,4.11,0,0,0-2.25-.6,2.8,2.8,0,0,0-2.16.91,3.76,3.76,0,0,0-.06,4.69,2.73,2.73,0,0,0,2.12.85,3.3,3.3,0,0,0,1.59-.36v-2.21h-1.72v-.83h2.64Z"/><path class="h" d="M423.33,252.78h-4a2.13,2.13,0,0,0,.51,1.44,1.73,1.73,0,0,0,1.32.51,2.73,2.73,0,0,0,1.74-.62V255a3.22,3.22,0,0,1-1.95.54,2.4,2.4,0,0,1-1.87-.76,3.15,3.15,0,0,1-.68-2.15,3.05,3.05,0,0,1,.75-2.14,2.35,2.35,0,0,1,1.84-.82,2.12,2.12,0,0,1,1.7.71,3,3,0,0,1,.6,2Zm-.92-.76a1.84,1.84,0,0,0-.37-1.21,1.29,1.29,0,0,0-1-.44,1.48,1.48,0,0,0-1.08.46,2,2,0,0,0-.54,1.19Z"/><path class="h" d="M424.35,255.15v-1a2.67,2.67,0,0,0,1.62.54c.78,0,1.18-.26,1.18-.78a.71.71,0,0,0-.1-.39,1,1,0,0,0-.28-.27,2.11,2.11,0,0,0-.4-.22l-.5-.2a7,7,0,0,1-.66-.3,2.1,2.1,0,0,1-.47-.34,1.23,1.23,0,0,1-.28-.43,1.37,1.37,0,0,1-.1-.56,1.35,1.35,0,0,1,.18-.7A1.66,1.66,0,0,1,425,250a2.55,2.55,0,0,1,.69-.31,3.08,3.08,0,0,1,.8-.1,3.17,3.17,0,0,1,1.3.25v.91a2.54,2.54,0,0,0-1.42-.41,1.65,1.65,0,0,0-.46.06,1.07,1.07,0,0,0-.34.16.9.9,0,0,0-.23.25.72.72,0,0,0-.08.32.72.72,0,0,0,.31.63,1.71,1.71,0,0,0,.38.21l.5.2c.24.1.47.2.66.3a2.16,2.16,0,0,1,.51.34,1.34,1.34,0,0,1,.32.43,1.51,1.51,0,0,1,.11.59,1.4,1.4,0,0,1-.18.72,1.83,1.83,0,0,1-.49.51,2.53,2.53,0,0,1-.71.3,3.33,3.33,0,0,1-.84.1A3.13,3.13,0,0,1,424.35,255.15Z"/><path class="h" d="M432.05,255.3a1.69,1.69,0,0,1-.84.18c-1,0-1.47-.55-1.47-1.64v-3.32h-1v-.77h1v-1.37l.9-.29v1.66h1.41v.77h-1.41v3.16a1.29,1.29,0,0,0,.19.8.77.77,0,0,0,.63.24,1,1,0,0,0,.59-.18Z"/><path class="h" d="M433.71,248.33a.58.58,0,0,1-.58-.58.57.57,0,0,1,.17-.42.57.57,0,0,1,.41-.17.61.61,0,0,1,.42.17.57.57,0,0,1,.17.42.58.58,0,0,1-.17.41A.61.61,0,0,1,433.71,248.33Zm.44,7h-.9v-5.61h.9Z"/><path class="h" d="M438.31,255.49a2.6,2.6,0,0,1-2-.79,2.92,2.92,0,0,1-.74-2.08,3.06,3.06,0,0,1,.77-2.21,2.78,2.78,0,0,1,2.09-.79,2.53,2.53,0,0,1,2,.77,3.07,3.07,0,0,1,.7,2.14,3,3,0,0,1-.76,2.15A2.64,2.64,0,0,1,438.31,255.49Zm.06-5.12A1.7,1.7,0,0,0,437,251a2.43,2.43,0,0,0-.51,1.63,2.28,2.28,0,0,0,.51,1.57,1.74,1.74,0,0,0,1.36.57,1.61,1.61,0,0,0,1.34-.56,2.41,2.41,0,0,0,.47-1.6,2.46,2.46,0,0,0-.47-1.63A1.62,1.62,0,0,0,438.37,250.37Zm1.32-3.48-1.44,1.8h-.69l1.22-1.8Z"/><path class="h" d="M447.19,255.36h-.9v-3.2c0-1.19-.43-1.79-1.3-1.79a1.43,1.43,0,0,0-1.12.51,1.91,1.91,0,0,0-.44,1.28v3.2h-.89v-5.61h.89v.93h0a2,2,0,0,1,1.84-1.06,1.71,1.71,0,0,1,1.4.59,2.63,2.63,0,0,1,.49,1.72Z"/></g></g><g class="f"><g class="f"><path class="h" d="M452.63,152.52h-1l-.83-2.2h-3.33l-.78,2.2h-1l3-7.85h1Zm-2.15-3-1.24-3.34a3.33,3.33,0,0,1-.12-.53h0a3.28,3.28,0,0,1-.12.53l-1.22,3.34Z"/><path class="h" d="M458.32,152.52h-.9v-3.2c0-1.19-.43-1.78-1.3-1.78a1.45,1.45,0,0,0-1.12.5,1.91,1.91,0,0,0-.44,1.28v3.2h-.9v-5.61h.9v.93h0a2,2,0,0,1,1.84-1.06,1.72,1.72,0,0,1,1.41.59,2.63,2.63,0,0,1,.49,1.72Z"/><path class="h" d="M464,152.52h-.89v-.88h0a1.88,1.88,0,0,1-1.72,1,1.85,1.85,0,0,1-1.31-.44,1.54,1.54,0,0,1-.48-1.18c0-1.05.62-1.66,1.85-1.83l1.69-.23c0-1-.39-1.43-1.16-1.43a2.78,2.78,0,0,0-1.83.69v-.92a3.49,3.49,0,0,1,1.91-.53c1.32,0,2,.7,2,2.09Zm-.89-2.84-1.36.19a2.2,2.2,0,0,0-.94.31.9.9,0,0,0-.32.78.83.83,0,0,0,.3.67,1.08,1.08,0,0,0,.78.26,1.44,1.44,0,0,0,1.1-.46,1.7,1.7,0,0,0,.44-1.19Zm.12-5.63-1.44,1.8h-.69l1.22-1.8Z"/><path class="h" d="M466.61,152.52h-.89v-8.3h.89Z"/><path class="h" d="M468.89,145.49a.57.57,0,0,1-.41-.17.55.55,0,0,1-.17-.41.57.57,0,0,1,.17-.42.57.57,0,0,1,.41-.17.57.57,0,0,1,.42.17.54.54,0,0,1,.17.42.53.53,0,0,1-.17.41A.57.57,0,0,1,468.89,145.49Zm.44,7h-.9v-5.61h.9Z"/><path class="h" d="M470.81,152.32v-1a2.67,2.67,0,0,0,1.61.54c.79,0,1.19-.26,1.19-.78a.74.74,0,0,0-.1-.38.93.93,0,0,0-.28-.28,2.48,2.48,0,0,0-.4-.22l-.5-.2a7,7,0,0,1-.66-.3,1.89,1.89,0,0,1-.47-.34,1.07,1.07,0,0,1-.28-.42,1.45,1.45,0,0,1-.1-.57,1.38,1.38,0,0,1,.18-.7,1.66,1.66,0,0,1,.48-.51,2.42,2.42,0,0,1,.69-.31,3.5,3.5,0,0,1,.8-.1,3.17,3.17,0,0,1,1.3.25v.91a2.53,2.53,0,0,0-1.42-.4,2.16,2.16,0,0,0-.46.05,1.61,1.61,0,0,0-.35.16.86.86,0,0,0-.22.25.72.72,0,0,0-.08.32.81.81,0,0,0,.08.37.71.71,0,0,0,.23.26,1.63,1.63,0,0,0,.37.21l.5.2c.25.1.47.2.67.3a1.91,1.91,0,0,1,.5.34,1.21,1.21,0,0,1,.32.43,1.35,1.35,0,0,1,.12.59,1.29,1.29,0,0,1-.19.72,1.41,1.41,0,0,1-.49.51,2,2,0,0,1-.7.3,3.33,3.33,0,0,1-.84.1A3.19,3.19,0,0,1,470.81,152.32Z"/><path class="h" d="M476.37,145.49a.57.57,0,0,1-.41-.17.52.52,0,0,1-.17-.41.54.54,0,0,1,.17-.42.57.57,0,0,1,.41-.17.61.61,0,0,1,.42.17.57.57,0,0,1,.17.42.57.57,0,0,1-.17.41A.61.61,0,0,1,476.37,145.49Zm.44,7h-.9v-5.61h.9Z"/><path class="h" d="M478.28,152.32v-1a2.67,2.67,0,0,0,1.62.54c.79,0,1.18-.26,1.18-.78a.65.65,0,0,0-.1-.38,1,1,0,0,0-.27-.28,2.6,2.6,0,0,0-.41-.22l-.5-.2a5.8,5.8,0,0,1-.65-.3,2,2,0,0,1-.48-.34,1.19,1.19,0,0,1-.28-.42,1.66,1.66,0,0,1-.1-.57,1.38,1.38,0,0,1,.18-.7,1.59,1.59,0,0,1,.49-.51,2.48,2.48,0,0,1,.68-.31,3.58,3.58,0,0,1,.8-.1,3.17,3.17,0,0,1,1.3.25v.91a2.51,2.51,0,0,0-1.42-.4,2.16,2.16,0,0,0-.46.05,1.34,1.34,0,0,0-.34.16.9.9,0,0,0-.23.25.72.72,0,0,0-.08.32.72.72,0,0,0,.31.63,1.71,1.71,0,0,0,.38.21l.5.2c.24.1.47.2.66.3a2.16,2.16,0,0,1,.51.34,1.34,1.34,0,0,1,.32.43,1.51,1.51,0,0,1,.11.59,1.37,1.37,0,0,1-.18.72,1.5,1.5,0,0,1-.49.51,2.06,2.06,0,0,1-.71.3,3.33,3.33,0,0,1-.84.1A3.25,3.25,0,0,1,478.28,152.32Z"/></g></g></svg>