<svg xmlns="http://www.w3.org/2000/svg" width="102" height="102" viewBox="0 0 102 102"><g transform="translate(-374 -4444)"><g transform="translate(374 4444)" fill="#f8f8f8" stroke="#ffa900" stroke-width="5"><circle cx="51" cy="51" r="51" stroke="none"/><circle cx="51" cy="51" r="48.5" fill="none"/></g><g transform="translate(-1983.045 4036.254)"><g transform="translate(2379.686 438.39)"><rect width="56.359" height="37.304" rx="10.181" fill="#f24844"/></g><g transform="translate(2417.233 470.107)"><path d="M2455.666,492.109l-3.385,12.772a1.645,1.645,0,0,1-3.065.305l-5.936-12.055Z" transform="translate(-2443.28 -492.109)" fill="#f24844"/></g><g transform="translate(2395.289 447.545)"><path d="M2431.17,460.636c-1.008,6.377-12.908,14.355-12.908,14.355s-11.455-7.994-12.105-14.373c-.707-6.914,7.48-9.029,12.614-3.814C2424.194,451.6,2432.264,453.723,2431.17,460.636Z" transform="translate(-2406.114 -453.896)" fill="#fff"/></g></g></g></svg>