<svg xmlns="http://www.w3.org/2000/svg" width="102" height="102" viewBox="0 0 102 102"><g transform="translate(-1145 -4444)"><g transform="translate(1145 4444)" fill="#f8f8f8" stroke="#ffa900" stroke-width="5"><circle cx="51" cy="51" r="51" stroke="none"/><circle cx="51" cy="51" r="48.5" fill="none"/></g><g transform="translate(-1493.609 3998.447)"><path d="M2703.385,523.8c.774,1.565,1.641,3.14,2.318,4.793.211.515-.093,1.241-.161,1.871-.538-.338-1.287-.55-1.574-1.036-.907-1.536-1.641-3.175-2.5-4.9a29.673,29.673,0,0,1-25.191-.006c-.864,1.721-1.7,3.352-2.5,5-.348.712-.844,1.368-1.611.845-.317-.217-.381-1.223-.177-1.708.714-1.692,1.6-3.313,2.267-4.665-2.637-2.4-5.461-4.39-7.562-6.971-7.944-9.763-9.149-20.512-3.9-31.945a2.2,2.2,0,0,0-.13-2.579c-2.918-4.193-2.509-9,.6-13.494v-1.952l1.92.219a11.52,11.52,0,0,1,14.7,2.363,1.312,1.312,0,0,0,1.035.391c2.263-.386,4.514-.844,6.845-1.294v-3.138a10.393,10.393,0,0,1-2.131-.161c-.372-.1-.631-.612-.941-.938.327-.306.646-.863.985-.876,2.1-.083,4.213-.083,6.317-.005.358.013.7.535,1.045.821-.341.348-.629.885-1.036,1a7.861,7.861,0,0,1-2.025.044v3.254c2.325.448,4.619.916,6.926,1.305a1.325,1.325,0,0,0,1.005-.474,10.83,10.83,0,0,1,14.241-2.157l2.273-.4v1.94c3.371,5.161,3.512,8.96.3,14.169a2.173,2.173,0,0,0,.177,1.725,29.278,29.278,0,0,1-5.556,34.078C2707.562,520.664,2705.478,522.1,2703.385,523.8Zm-41.426-25.65a26.92,26.92,0,1,0,53.839-.02,26.92,26.92,0,1,0-53.839.02Zm51.047-16.751c2.93-3.058,2.257-8.658-1.267-11.578-3.608-2.989-9.306-2.523-11.848,1.094A30.409,30.409,0,0,1,2713.006,481.4Zm-48.325.1a30.238,30.238,0,0,1,13.186-10.6,8.329,8.329,0,0,0-11.662-1.244A8.427,8.427,0,0,0,2664.681,481.5Z" transform="translate(0 0)" fill="#8ddaf2"/><path d="M2667.223,515.121a26.92,26.92,0,1,1,26.916,26.934A26.689,26.689,0,0,1,2667.223,515.121Zm52.412.089a25.366,25.366,0,0,0-25.443-25.682c-14.015-.171-25.389,11.368-25.611,25.249a25.528,25.528,0,1,0,51.053.433Z" transform="translate(-5.264 -16.971)" fill="#50bfa5"/><path d="M2803.34,491.047a30.412,30.412,0,0,0-13.115-10.484c2.542-3.618,8.24-4.084,11.848-1.094C2805.6,482.388,2806.27,487.988,2803.34,491.047Z" transform="translate(-90.334 -9.648)" fill="#466eb6"/><path d="M2672.085,491.118a8.427,8.427,0,0,1,1.524-11.845,8.329,8.329,0,0,1,11.662,1.243A30.237,30.237,0,0,0,2672.085,491.118Z" transform="translate(-7.404 -9.617)" fill="#466eb6"/><path d="M2705.694,548.691a21.752,21.752,0,1,1,21.748-21.771A21.792,21.792,0,0,1,2705.694,548.691Zm.336-19.707c.329-.146,1.263-.257,1.564-.753,1.023-1.686,2.574-1.323,4.059-1.343.616-.009,1.233,0,1.85,0,.821-.007,1.86.108,1.822-1.071-.037-1.161-1.09-.993-1.9-1-1.079-.012-2.16-.041-3.237.008a2.367,2.367,0,0,1-2.214-.965,3.1,3.1,0,0,0-2.248-1.057,2.281,2.281,0,0,1-2.13-1.119c-2.1-2.6-4.184-5.206-6.368-7.729-.4-.464-1.506-.952-1.827-.738-.975.649-.209,1.406.279,2.054.217.286.458.554.686.832,1.952,2.385,3.94,4.742,5.825,7.178a2.717,2.717,0,0,1,.453,1.89A3.267,3.267,0,0,0,2706.03,528.983Zm.566-15.15v-4.059h-1.855v4.059Zm-14.056,11.093h-4.028v1.847h4.028Zm26.332-.055v1.911h4v-1.911ZM2704.706,544.1h1.914V540.08h-1.914Z" transform="translate(-16.816 -28.794)" fill="#8ddaf2"/></g></g></svg>