<svg xmlns="http://www.w3.org/2000/svg" xmlns:xlink="http://www.w3.org/1999/xlink" viewBox="0 0 500 250"><defs><style>.a{fill:none;}.b{opacity:0.15;}.c{opacity:0.8;}.d{opacity:0.5;}.e{fill:#00d1e3;}.f{fill:#ccd3e6;}.g{fill:#fff;}.h{fill:#575759;}.i{fill:#363638;}.j{fill:#fd615b;}.k{fill:#0592f5;}.l{fill:#cedcec;}.m{clip-path:url(#a);}.n{fill:#ffc49c;}.o{fill:#ff9b79;}.p{fill:#ffd24f;}.q{fill:#dc7f21;}.r{fill:#ffb028;}.s{fill:#0076fa;}.t{fill:#004ecb;}.u{fill:#f56c63;}.v{fill:#c1c765;}.w{fill:#a1a654;}.x{fill:#00b570;}.y{fill:#007d55;}.z{fill:#ce101d;}.aa{fill:#f37168;}.ab{fill:#75a1de;}.ac{fill:#296eb2;}.ad{fill:#ffa900;}.ae{isolation:isolate;}.af{fill:#f4f4f4;}.ag{fill:#707070;}</style><clipPath id="a"><path class="a" d="M220.18,93c-.54,1.66-.54,2-.54,1.66V47.25c0-.29,0-.25,0-34.57H326.22l0,80.3Z"/></clipPath></defs><g class="b"><g class="c"><g class="d"><path class="e" d="M237.75,54.26a60,60,0,0,1-27.31-11.57c-12.06-9.1-37.3-24.59-61.37-16.88C115.86,36.45,115.71,67.24,124.36,84s70,65.69,149.51,57.9c71.17-7,85-86.79,47.08-101.23C288,28.11,276.8,60,237.75,54.26Z"/></g><g class="d"><ellipse class="e" cx="340.19" cy="42.45" rx="3.09" ry="3.32"/></g><path class="e" d="M138.74,20.57A2,2,0,0,1,141,21.82a2.07,2.07,0,0,1-2.92,2.49h0A2,2,0,0,1,138.74,20.57Z"/><circle class="e" cx="331.77" cy="12.76" r="4.02"/><g class="c"><path class="e" d="M150.93,17.4a4.06,4.06,0,1,1-5-2.81h0A4.06,4.06,0,0,1,150.93,17.4Z"/></g><path class="e" d="M311.58,138.37a2,2,0,0,1,2.43.82,2.07,2.07,0,0,1-2.41,3h0A2,2,0,0,1,311.58,138.37Z"/><path class="e" d="M323,133a4.06,4.06,0,1,1-5.44-1.83A4.05,4.05,0,0,1,323,133Z"/><circle class="e" cx="324.2" cy="6.61" r="2.47"/></g><g class="c"><path class="e" d="M333.25,51.41c0-22.09-18.39-46.3-41.28-47.76l-1.22-.07c-32.82-1.53-35.32,38.5-65,43s-52.36-18.27-87.89-3.4c-31.91,13.35-40.55,88.39,53.2,91.4C266.06,137,333.27,117.31,333.25,51.41Z"/></g></g><ellipse class="f" cx="274.44" cy="157.62" rx="72.34" ry="3.73"/><path class="f" d="M323.44,147.17h-10V157.6h11.73v-8.73a1.7,1.7,0,0,0-1.7-1.7Z"/><rect class="f" x="259.78" y="124.83" width="34.8" height="22.34"/><path class="g" d="M231.74,147.17h82.9a6.56,6.56,0,0,1,6.55,6.56v3.87h-96v-3.87A6.56,6.56,0,0,1,231.74,147.17Z"/><rect class="g" x="255.52" y="124.83" width="34.8" height="22.34"/><path class="f" d="M255.52,131.69l34.8-2.78v-4.08H255.57Z"/><rect class="f" x="194.2" y="27.93" width="157.89" height="96.91" rx="4.65"/><path class="h" d="M352.08,32.58v81.13H337.71V27.93h9.73A4.65,4.65,0,0,1,352.08,32.58Z"/><path class="g" d="M346.17,32.58v87.61a4.65,4.65,0,0,1-4.65,4.65H198.85a4.65,4.65,0,0,1-4.65-4.65V32.58a4.65,4.65,0,0,1,4.65-4.65H342l.18,0,.12,0h.06l.11,0A4.66,4.66,0,0,1,346.17,32.58Z"/><path class="i" d="M342.46,28l-.11,0h-.06l-.12,0L342,28H198.85a4.65,4.65,0,0,0-4.65,4.65v81.13h152V32.58A4.66,4.66,0,0,0,342.46,28Zm-2.32,77.59a1.25,1.25,0,0,1-1.26,1.26H201.49a1.25,1.25,0,0,1-1.26-1.26h0V35.22A1.25,1.25,0,0,1,201.49,34H338.88a1.25,1.25,0,0,1,1.26,1.26h0Z"/><rect class="f" x="200.23" y="33.96" width="139.92" height="72.91" rx="1.26"/><path class="g" d="M340.14,35.22v6.64H200.23V35.22A1.25,1.25,0,0,1,201.49,34H338.88a1.25,1.25,0,0,1,1.26,1.26Z"/><path class="j" d="M329.31,37.8a1.08,1.08,0,1,1-1.08-1.07A1.08,1.08,0,0,1,329.31,37.8Z"/><circle class="k" cx="331.72" cy="37.8" r="1.07"/><path class="l" d="M213.45,36.67h109.3a1,1,0,0,1,1,1v.27a1,1,0,0,1-1,1H213.45a1,1,0,0,1-1-1h0v-.27a1,1,0,0,1,1-1Z"/><path d="M205.28,37.8v1.06a.2.2,0,0,1-.19.19.17.17,0,0,1-.1,0l-.91-.52-.91-.53a.18.18,0,0,1-.07-.26.12.12,0,0,1,.07-.07l.91-.53.91-.53a.19.19,0,0,1,.26.08.16.16,0,0,1,0,.09Z"/><path d="M206.88,37.8v1.06a.2.2,0,0,0,.19.19.17.17,0,0,0,.1,0l.91-.52L209,38a.19.19,0,0,0,.07-.26.16.16,0,0,0-.07-.07l-.91-.53-.91-.53a.19.19,0,0,0-.26.08.16.16,0,0,0,0,.09Z"/><rect class="i" x="333.84" y="37.46" width="2.58" height="0.61" rx="0.27" transform="translate(71.45 248.03) rotate(-45)"/><rect class="i" x="334.82" y="36.48" width="0.61" height="2.58" rx="0.27" transform="translate(71.45 248.03) rotate(-45)"/><rect class="g" x="216.04" y="43.47" width="107.91" height="60.57" rx="2.64"/><path class="f" d="M247.28,74.46H223.62a.66.66,0,0,1-.66-.66h0a.66.66,0,0,1,.66-.66h23.66a.67.67,0,0,1,.66.66h0A.67.67,0,0,1,247.28,74.46Z"/><path class="f" d="M247.28,68.9H223.62a.66.66,0,0,1-.66-.66h0a.66.66,0,0,1,.66-.66h23.66a.67.67,0,0,1,.66.66h0A.67.67,0,0,1,247.28,68.9Z"/><path class="f" d="M247.28,80H223.62a.65.65,0,0,1-.66-.66h0a.66.66,0,0,1,.66-.66h23.66a.67.67,0,0,1,.66.66h0A.66.66,0,0,1,247.28,80Z"/><path class="f" d="M320,74.46H296.32a.66.66,0,0,1-.66-.66h0a.66.66,0,0,1,.66-.66H320a.66.66,0,0,1,.66.66h0A.66.66,0,0,1,320,74.46Z"/><path class="f" d="M320,68.9H296.32a.66.66,0,0,1-.66-.66h0a.66.66,0,0,1,.66-.66H320a.66.66,0,0,1,.66.66h0A.66.66,0,0,1,320,68.9Z"/><path class="f" d="M320,80H296.32a.65.65,0,0,1-.66-.66h0a.66.66,0,0,1,.66-.66H320a.66.66,0,0,1,.66.66h0A.65.65,0,0,1,320,80Z"/><path class="i" d="M216,94.63H324v8.85a.56.56,0,0,1-.56.56H216.6a.56.56,0,0,1-.56-.56Z"/><path class="g" d="M313.35,98.12v-.8h1v-.71H313a.36.36,0,0,0-.36.36h0v1.15Z"/><path class="g" d="M313.35,99.54h-.71v1.21a.36.36,0,0,0,.36.36h1.35v-.71h-1Z"/><path class="g" d="M316.43,98.12h.71V97a.36.36,0,0,0-.36-.36h-1.3v.71h.95Z"/><path class="g" d="M316.43,99.54v.86h-.95v.71h1.3a.36.36,0,0,0,.36-.36h0V99.54Z"/><path class="g" d="M222.33,99V96.77l1.94,1.12L226.21,99l-1.94,1.12-1.94,1.12Z"/><path class="g" d="M232.58,97h.51a.35.35,0,0,1,.35.34h0v3.39a.35.35,0,0,1-.35.35h-.51a.35.35,0,0,1-.35-.35V97.34A.35.35,0,0,1,232.58,97Z"/><rect class="g" x="234.75" y="97" width="1.2" height="4.08" rx="0.35"/><rect class="f" x="216.04" y="92.86" width="107.91" height="1.77"/><rect class="j" x="216.04" y="92.86" width="55.37" height="1.77"/><path class="i" d="M306.7,86h1.22v2.67h1.63v.94H306.7Z"/><path class="i" d="M309.88,86h1.22v3.61h-1.22Z"/><path class="i" d="M315.54,86,314,89.59h-1.2L311.29,86h1.31l.87,2.11.88-2.11Z"/><path class="i" d="M318.67,88.67v.92h-3V86h2.94v.92h-1.74v.42h1.53v.88h-1.53v.48Z"/><path class="j" d="M304.69,87.76a1.49,1.49,0,0,1-3,0,1.49,1.49,0,0,1,1.49-1.49h0a1.49,1.49,0,0,1,1.48,1.49Z"/><path class="i" d="M229.22,88.76c0,.83-.78,1.36-1.9,1.36s-1.9-.53-1.9-1.36a1.09,1.09,0,0,1,.57-1,1,1,0,0,1-.42-.84c0-.77.72-1.27,1.75-1.27s1.75.5,1.75,1.27a1,1,0,0,1-.42.84A1.07,1.07,0,0,1,229.22,88.76Zm-1.43-.05a.47.47,0,1,0-.49.45h0a.44.44,0,0,0,.47-.39ZM227,87a.34.34,0,0,0,.36.32.35.35,0,0,0,.32-.37.34.34,0,0,0-.34-.31A.32.32,0,0,0,227,87V87Z"/><path class="i" d="M229.49,87.9c0-1.41.8-2.22,1.92-2.22s1.92.81,1.92,2.22-.8,2.22-1.92,2.22S229.49,89.31,229.49,87.9Zm2.41,0c0-.82-.21-1.07-.49-1.07s-.48.25-.48,1.07.2,1.07.48,1.07S231.9,88.72,231.9,87.9Z"/><path class="j" d="M222.93,86.71a1.31,1.31,0,1,1-1.3-1.3h0A1.3,1.3,0,0,1,222.93,86.71Z"/><path class="j" d="M224.07,90h-4.88a2.53,2.53,0,0,1,2.4-1.55h.07A2.54,2.54,0,0,1,224.07,90Z"/><g class="m"><path class="n" d="M236.61,57.27S236,61.25,233,62c-2.37.57-4.6-1.7-5.37-2.6-.18-.21-.28-.35-.28-.35a3.31,3.31,0,0,1-.44,0c-.62,0-1.72-.13-2.14-.89-.62-1.08,1.61-1.82,1.61-1.82s-1.14-1-.85-1.76,1.81-.88,1.81-.88-1.65-1.07-1.1-2c.83-1.4,2.54.14,2.67.23-.11-.13-2.24-2.34-1.07-2.74,1-.34,2.7.81,3.8,1.94.18.18.27.29.27.29l.19-.13c.55-.37,2.24-1.36,3.32-.46C236.76,51.89,236.61,57.27,236.61,57.27Z"/><path class="o" d="M233.55,59.71a.23.23,0,0,1-.31-.11.24.24,0,0,1,0-.23,2.08,2.08,0,0,0,.35-1.74c-.38-1.49-2.38-2.52-2.4-2.53a.24.24,0,0,1,.21-.42c.09,0,2.2,1.14,2.64,2.83a2.54,2.54,0,0,1-.42,2.12A.24.24,0,0,1,233.55,59.71Z"/><path class="o" d="M231.52,54a.74.74,0,0,1-.33.64l-.15.07a2.13,2.13,0,0,1-.42.1,1.76,1.76,0,0,1,.3.24.8.8,0,0,1,.18.27.6.6,0,0,1-.11.59,3,3,0,0,1-1.93.78,2.45,2.45,0,0,1,1.08,1.1.7.7,0,0,1-.09.71,1.31,1.31,0,0,1-.5.37,7.26,7.26,0,0,1-1.89.52c-.18-.21-.28-.35-.28-.35a3.31,3.31,0,0,1-.44,0,.17.17,0,0,1,.12-.05,5.64,5.64,0,0,0,2.62-.79.26.26,0,0,0,0-.27A2.79,2.79,0,0,0,228,56.71a.24.24,0,0,1-.18-.26.25.25,0,0,1,.24-.2c.57,0,2.15-.09,2.57-.65.06-.08,0-.12,0-.15a.78.78,0,0,0-.35-.32,6.22,6.22,0,0,0-1.38-.52.19.19,0,0,1-.12-.07.23.23,0,0,1-.05-.21.23.23,0,0,1,.28-.17h0c.08,0,.25.06.45.13a5.27,5.27,0,0,0,1,0,1.08,1.08,0,0,0,.4-.11.27.27,0,0,0,.11-.25,1.38,1.38,0,0,0-.25-.7.22.22,0,0,1,0-.26h0a.22.22,0,0,1,.32,0l0,.06A1.92,1.92,0,0,1,231.52,54Z"/><path class="i" d="M229.81,49.62a6.25,6.25,0,0,1,1.09.8c.33.32.54.48.77.68,0,0,0,0,0,0l-4.47-19a.24.24,0,0,0-.28-.17.23.23,0,0,0-.17.26Z"/><path class="i" d="M233.7,60.15c-1.55,1-2,.26-2,.26L230.93,56l.07-.08a.6.6,0,0,0,.1-.58.75.75,0,0,0-.18-.28l-.18-.16,0-.09a1.68,1.68,0,0,0,.32-.09l.15-.07a.69.69,0,0,0,.29-.38,1.15,1.15,0,0,0,.7.31h.22Z"/><path class="o" d="M235.05,53.2a7.84,7.84,0,0,1-1.53,1,2.64,2.64,0,0,1-1.34.33,1.2,1.2,0,0,1-.85-.48c-.73-1-.1-2.28.34-3l.27.28.19-.13c-.38.56-1,1.73-.42,2.53a.68.68,0,0,0,.51.29,4.55,4.55,0,0,0,2.52-1.23.24.24,0,0,1,.33,0,.22.22,0,0,1,0,.32Z"/><path class="p" d="M259,48.6h0v.08l0,.14-.06.3c0,.1,0,.21-.07.32s-.05.21-.07.32c-.1.43-.21.87-.33,1.31-.24.88-.49,1.77-.79,2.64s-.61,1.73-1,2.58c-.18.42-.36.84-.55,1.26s-.39.82-.58,1.23c-.41.81-.83,1.61-1.29,2.38-.11.2-.24.38-.35.58s-.23.38-.36.56c-.24.37-.49.75-.75,1.11-.5.73-1.05,1.41-1.6,2.09s-1.16,1.32-1.78,1.92l-.47.46-.48.44-.24.21-.06.06,0,0,0,0,.18-.13a2.76,2.76,0,0,1,.87-.4l.2,0,.11,0h.08l.17,0h.44c.06,0-.07,0-.27-.09a5.8,5.8,0,0,1-.78-.41c-.29-.17-.62-.39-1-.62-.66-.47-1.35-1-2-1.63s-1.39-1.24-2.09-1.9-1.39-1.36-2.07-2.06-1.38-1.43-2.05-2.16c-.34-.36-.68-.72-1-1.09l-1-1.06-7.51,5.62.25.38.24.35.47.69,1,1.35c.66.88,1.34,1.76,2,2.62s1.43,1.72,2.19,2.56c.38.42.77.84,1.17,1.25s.81.83,1.23,1.24a35,35,0,0,0,2.76,2.41c.51.4,1,.79,1.64,1.17a16.57,16.57,0,0,0,2,1.11,11.33,11.33,0,0,0,2.7.92l.21,0,.22,0,.44.06.49,0h1l.56-.06.28,0,.3-.05.59-.14a8.34,8.34,0,0,0,2.28-1.07L255,77l.12-.09.11-.09.09-.08.34-.3.69-.62.66-.64a35,35,0,0,0,2.49-2.68c.78-1,1.52-1.91,2.2-2.91s1.31-2,1.91-3.07l.43-.78.4-.8c.14-.27.27-.53.4-.8l.38-.81a43.63,43.63,0,0,0,2.38-6.66c.3-1.14.57-2.28.78-3.45.1-.59.2-1.17.28-1.77,0-.15,0-.3.05-.45l.06-.47c0-.15,0-.31,0-.47l.05-.57Z"/><path class="q" d="M235.42,61.38a.65.65,0,1,0,.59-.7.64.64,0,0,0-.59.7Z"/><path class="q" d="M248.87,72.5a.28.28,0,0,0,.27-.21,21.43,21.43,0,0,0,.45-4.79.27.27,0,0,0-.29-.27.28.28,0,0,0-.27.28h0a20.05,20.05,0,0,1-.43,4.64.28.28,0,0,0,.2.34h.07Z"/><path class="q" d="M250.64,70.5a.28.28,0,0,0,.27-.28.24.24,0,0,0,0-.12,21.7,21.7,0,0,0-1.35-2.4.27.27,0,0,0-.39,0,.26.26,0,0,0,0,.38,24.62,24.62,0,0,1,1.29,2.3A.27.27,0,0,0,250.64,70.5Z"/><path class="q" d="M233.43,66.75a.3.3,0,0,0,.2-.08,77.09,77.09,0,0,1,7.59-6.2.28.28,0,0,0,.07-.38.28.28,0,0,0-.39-.07h0a77.52,77.52,0,0,0-7.67,6.26.28.28,0,0,0,.2.47Z"/><path class="q" d="M235.67,64.71a.27.27,0,0,0,.27-.28.25.25,0,0,0-.06-.17l-2.8-3.36a.27.27,0,0,0-.38,0,.27.27,0,0,0,0,.39l2.79,3.35A.3.3,0,0,0,235.67,64.71Z"/><path class="i" d="M265.81,129.93l3.74-22.1.31-1.8-10.78-3.81-.62-.22-2.56-.9s-.21.94-.53,2.57c0,.19-.08.4-.12.62a203.69,203.69,0,0,0-3.42,25.65Z"/><path class="h" d="M263.89,129.93c1.63-8.81,3.71-21.69,3.83-22.44a.29.29,0,0,0-.24-.33.29.29,0,0,0-.34.24c0,.18-2.19,13.55-3.84,22.53Z"/><path class="i" d="M287.62,94s.81,7.7-.94,12-24.42,2.08-30.2-1.77c-2.37-1.59,2.68-16.19,2.68-16.19Z"/><path class="h" d="M255.25,104.29a6.73,6.73,0,0,0,2.49-1,7.79,7.79,0,0,0,1.34-1.09,14,14,0,0,0,3.27-6.52.29.29,0,0,0-.24-.34.3.3,0,0,0-.34.24h0a13.34,13.34,0,0,1-3.31,6.4,6.74,6.74,0,0,1-1,.82,6.26,6.26,0,0,1-1.43.68,6.48,6.48,0,0,1-.63.17C255.33,103.86,255.29,104.07,255.25,104.29Z"/><path class="h" d="M269.24,106.44a.28.28,0,0,0,.27.29h0a.28.28,0,0,0,.3-.26c.05-1,.11-2.13.18-3.21,0-.19,0-.38,0-.57.23-3.52.52-7,.74-9.41,0-.19,0-.39.05-.57.05-.53.09-1,.13-1.41l-.58-.09c0,.4-.08.88-.13,1.42,0,.18,0,.37-.05.57-.22,2.42-.51,5.84-.74,9.34l0,.58C269.36,104.23,269.29,105.35,269.24,106.44Z"/><path class="h" d="M268.41,102.73a8.94,8.94,0,0,0,1,.39l.57.14a3.45,3.45,0,0,0,.55.07,2,2,0,0,0,1-.15,1.19,1.19,0,0,0,.66-.89c.21-1.08.66-5.57,1-8.74,0-.19,0-.38.05-.56.05-.51.09-1,.13-1.36l-.58-.08c0,.4-.08.86-.13,1.38,0,.18,0,.37-.05.57-.3,3.16-.74,7.63-.95,8.69a.64.64,0,0,1-.35.49,2.06,2.06,0,0,1-1.23,0,4.74,4.74,0,0,1-.57-.15,7.85,7.85,0,0,1-.8-.32.3.3,0,0,0-.39.13.27.27,0,0,0,.12.37Z"/><path class="i" d="M284.8,129.93c.9-8.2,1.94-19.18,2.52-25.54l.06-.58c.25-2.8.41-4.57.41-4.57-1.39-.58-3.91-.18-6.6.58l-.58.17a78.65,78.65,0,0,0-9.82,3.84v26.1Z"/><path class="h" d="M283.43,129.93c.78-9.11,1.69-22.29,1.71-22.46a.29.29,0,0,0-.26-.32.29.29,0,0,0-.32.26h0c0,.18-.94,13.4-1.71,22.51Z"/><path class="h" d="M279,95.7a15.34,15.34,0,0,0,1.61,4.29,9.44,9.44,0,0,0,3,3.32,6.81,6.81,0,0,0,3.72,1.08c0-.19,0-.39.05-.58a6.21,6.21,0,0,1-3.45-1,8.73,8.73,0,0,1-2.73-3,15.24,15.24,0,0,1-1.62-4.22.29.29,0,1,0-.57.1Z"/><path class="p" d="M255.68,93.56c6.28,5.85,21.12,9,32.56,3.4,1.26-3.43,2.64-15.67,3-19.33.07-.73.13-1.46.18-2.18a96.38,96.38,0,0,0,0-10.75l0-.6c-.15-3-.37-6.2-.58-9.55-.42-6.63-2.63-10.72-6.48-11.33a15.28,15.28,0,0,1-4.24-1.28l-.37-.18a11.8,11.8,0,0,1-1.94-1.2h-8.58a6.51,6.51,0,0,1-2.67,2.23l-.33.16c-3.05,1.31-6.6,1-7.33,4.72-.46,2.31,1.31,7,1.12,16.66,0,.71,0,1.44-.07,2.2s-.08,1.44-.14,2.2-.11,1.43-.19,2.18-.14,1.33-.22,2-.18,1.43-.29,2.18C258.53,79.11,257,88.42,255.68,93.56Z"/><path class="q" d="M285.08,95.56H285a.26.26,0,0,1-.18-.32h0c4.76-17.46,3.8-35.21,3.79-35.39a.26.26,0,0,1,.24-.27.26.26,0,0,1,.28.24h0c0,.18,1,18-3.81,35.56A.27.27,0,0,1,285.08,95.56Z"/><path class="q" d="M259.23,72.87a.28.28,0,0,0,.28-.24c.57-5,.57-15.1.57-15.2a.28.28,0,1,0-.55,0c0,.1,0,10.11-.57,15.14a.27.27,0,0,0,.24.3Z"/><path class="q" d="M271,91.9a.65.65,0,0,0,1.29-.11.65.65,0,0,0-1.29.11Z"/><path class="q" d="M270.88,95a.65.65,0,1,0,.59-.7A.64.64,0,0,0,270.88,95Z"/><path class="q" d="M263.33,60.62c-1.69-2-1.06-6.31-1-6.5a.28.28,0,0,1,.28-.23h5.71a.28.28,0,0,1,.27.23c0,.19.66,4.54-1,6.5a2.84,2.84,0,0,1-4,.2l-.2-.2Zm-.51-6.18c-.11.92-.39,4.29.93,5.82a2.28,2.28,0,0,0,3.22.14l.15-.14c1.31-1.53,1-4.9.92-5.82Z"/><path class="i" d="M278.57,19.42c-1.6-1-6.63-1.56-6.63-1.56a7.72,7.72,0,0,0-1.76-2.8c-2.12-1.41-2.38,1.46-2.38,1.46s-2.07-2.91-3.94-2.08.52,3.53.52,3.53-2.8-.52-2.49,1.86,3,3.42,3,3.42a5.23,5.23,0,0,0-.42,3.52c.42,2.18,1.35,2.28,1.35,2.28l11.6,1s2.39,0,3-3A3.9,3.9,0,0,0,279,22.83S280.34,20.56,278.57,19.42Z"/><path class="n" d="M269.09,39.1v2.18a6.78,6.78,0,0,0,.78.54c3.78,2.28,7.87-.54,7.87-.54V33.72l-7.62,4.74Z"/><path class="i" d="M269.09,39v2.24a6.78,6.78,0,0,0,.78.54,14.52,14.52,0,0,0,5.57-4.65l-5.32,1.29Z"/><path class="r" d="M277.72,39.07A4.3,4.3,0,0,1,281,42.41c-2.48,2.6-4.67,4.85-8.22,5.51V42.7A9.23,9.23,0,0,0,277.72,39.07Z"/><path class="r" d="M269,39.82a4.69,4.69,0,0,0-3.15,3.4c2.29,2.79,3.51,3.84,6.88,4.7V42.7S270.86,42.67,269,39.82Z"/><path class="i" d="M267.73,80.36l1.48,3.56h0l.66,1.6L271.74,90l.9-1.74.33-.62.72-1.4.32-.62.73-1.4.31-.62.73-1.4h0l.32-.61.68-1.32v-.14l-.11-1-.24-2.36-.11-1.05-.24-2.36-.1-1-.24-2.37-.11-1-.24-2.37-.11-1L275,63.12l-.1-1-.25-2.37-.1-1-.24-2.37-.11-1L274,52.89l-.11-1-.24-2.45-1.81-.07-.05.41-.11.83-.25,1.88-.11.82-.25,1.88L271,56l-.24,1.88-.11.82-.25,1.88-.11.83L270,63.27l-.11.83L269.64,66l-.11.83-.25,1.88-.11.83-.25,1.87-.11.83-.24,1.88-.11.83-.25,1.88-.11.82-.25,1.88-.11.83Z"/><path class="h" d="M271.66,50.56,274,52.89l-.11-1-2.11-2.11Z"/><path class="h" d="M271.31,53.27l3,3-.11-1-2.81-2.82Z"/><path class="h" d="M271,56l3.73,3.73-.1-1.05-3.52-3.51Z"/><path class="h" d="M270.59,58.68,275,63.12l-.11-1-4.22-4.22Z"/><path class="h" d="M270.24,61.38l5.14,5.15-.11-1-4.92-4.92Z"/><path class="h" d="M269.88,64.09l5.85,5.85-.11-1L270,63.27Z"/><path class="h" d="M269.52,66.8l6.55,6.55-.1-1L269.63,66Z"/><path class="h" d="M269.17,69.5l7.25,7.26-.11-1.05-7-7Z"/><path class="h" d="M268.81,72.21l8,8-.11-1-7.74-7.74Z"/><path class="h" d="M268.45,74.91l7.33,7.33.32-.62-7.54-7.54Z"/><path class="h" d="M268.09,77.62l6.64,6.64.32-.62-6.85-6.85Z"/><path class="h" d="M267.74,80.32l5.95,6,.32-.62-6.16-6.16Z"/><path class="h" d="M269.21,83.92l.66,1.6,2.77,2.77.32-.61Z"/><path class="h" d="M273.64,49.4l-.9,1.34-.91-1.41-.16,1.21,1.05,1.07,1-1.28Z"/><path class="i" d="M275.15,47.15l-2.42,3.59-2.31-3.59,2.31-3Z"/><path class="q" d="M276.55,49.61a.27.27,0,0,0,.17-.06c2.39-1.91,4.42-6.83,4.5-7a.28.28,0,0,0-.14-.37.28.28,0,0,0-.36.15h0s-1.93,4.68-4.11,6.62L273,44a.27.27,0,0,0-.22-.12.3.3,0,0,0-.22.12l-3.39,4.81c-.52-.93-1.88-3.41-3-5.71a.27.27,0,0,0-.37-.13.26.26,0,0,0-.13.36v0c1.44,2.9,3.22,6.08,3.24,6.12a.28.28,0,0,0,.38.1l.09-.08,3.42-4.86,3.58,4.86a.27.27,0,0,0,.18.11Z"/><path class="q" d="M272.74,44.44a.29.29,0,0,0,.28-.28h0V42.93a.28.28,0,0,0-.56,0h0v1.23a.29.29,0,0,0,.28.28Z"/><path class="o" d="M266.37,29.44s-1.24-1.46-1.94,0-.16,4.43,1.72,3.94Z"/><path class="n" d="M265.05,34.57a4.45,4.45,0,0,0,4.68,4.5c4.66,0,7.84-3.67,8-3.84h0l.05-.95.26-4.92.14-2.62s.6-4.74-3.9-5.6c-3.28-.63-6.37-.08-7.92,1.63l-.15.17a4.13,4.13,0,0,0-.88,2.2l-.15,4.72,0,1.16Z"/><path class="i" d="M266.22,22.76c.76-.26,1.3,0,2.47.5,1.7.75,3.6.07,5.27-.78s2.68.33,2.11,1.12-.51,1.41.12,2.41S275,27.47,276,28.25a1,1,0,0,1,.23,1.28.68.68,0,0,0,.41.88.56.56,0,0,0,.36,0h0c.55-.14,1.32-1.1,1.32-1.1l.14-2.69s.61-4.84-4-5.73c-3.36-.64-6.52-.08-8.11,1.67Z"/><path class="i" d="M276.26,33.4a4.11,4.11,0,0,0,1.47,1.83h0l.06-.95A3.28,3.28,0,0,1,276.26,33.4Z"/><path class="n" d="M277.09,30.27s1.8-2.42,3.12-.52c1.09,1.57-1,5.66-3.12,4.26Z"/><path class="i" d="M277.33,33.28a.19.19,0,0,0,.19-.17,3.08,3.08,0,0,1,1.8-2.49.19.19,0,0,0,.1-.24.18.18,0,0,0-.24-.11,3.47,3.47,0,0,0-2,2.8.19.19,0,0,0,.16.21h0Z"/><path class="i" d="M279.06,32.15a.19.19,0,0,0,.12-.33,1.79,1.79,0,0,0-1.29-.44.19.19,0,0,0,.07.37h0c.32-.08.81.24,1,.37A.15.15,0,0,0,279.06,32.15Z"/><path class="n" d="M314.05,47.62s2.5,2.52,5,1.54c2-.8,2.43-3.57,2.53-4.6,0-.25,0-.4,0-.4a2.92,2.92,0,0,0,.32-.21c.44-.32,1.16-1,1.08-1.73-.11-1.09-2.09-.48-2.09-.48s.3-1.32-.28-1.7-1.75.29-1.75.29.64-1.61-.24-2c-1.31-.58-1.74,1.4-1.8,1.52,0-.14.64-6.2-.4-5.89s-1.75,5.34-2,6.72c0,.22-.05.34-.05.34h-.2c-.58,0-2.3.17-2.61,1.37C311.21,43.84,314.05,47.62,314.05,47.62Z"/><path class="o" d="M319.16,43.33a2.19,2.19,0,0,0-.22,1.35.64.64,0,0,0,.43.46,1.28,1.28,0,0,0,.55,0,7.14,7.14,0,0,0,1.62-.59c0-.25,0-.4,0-.4a2.2,2.2,0,0,0,.32-.21.2.2,0,0,0-.11,0,5.09,5.09,0,0,1-2.29.77.23.23,0,0,1-.15-.18,2.42,2.42,0,0,1,.61-1.75.21.21,0,0,0,0-.29.21.21,0,0,0-.24,0c-.41.3-1.59,1-2.18.85-.09,0-.1-.07-.11-.09a.75.75,0,0,1,.09-.41,4.94,4.94,0,0,1,.73-1.07.21.21,0,0,0,0-.29.21.21,0,0,0-.29,0,5.59,5.59,0,0,0-.74,1.06,2,2,0,0,0-.17.52.66.66,0,0,0,0,.28.53.53,0,0,0,.37.37A2.59,2.59,0,0,0,319.16,43.33Z"/><path class="o" d="M316,41.61a.18.18,0,0,1,.14.18,1.39,1.39,0,0,0,.18.63.25.25,0,0,0,.21.12,1,1,0,0,0,.34-.12,6.41,6.41,0,0,0,1.1-.91.22.22,0,0,1-.05.11,5.19,5.19,0,0,0-.73,1.07l-.12.08a1.73,1.73,0,0,1-.37.16l-.15,0a.65.65,0,0,1-.56-.29,1.75,1.75,0,0,1-.25-.84.2.2,0,0,1,.18-.22H316Z"/><path class="o" d="M313.1,43.9a6.76,6.76,0,0,0,1.62,0,2.27,2.27,0,0,0,1.12-.46,1,1,0,0,0,.37-.77c0-1.08-1.09-1.69-1.76-2,0,.22-.05.34-.05.34h-.2c.56.21,1.62.72,1.6,1.6a.63.63,0,0,1-.23.48,3.94,3.94,0,0,1-2.43.39.22.22,0,0,0-.2.21.19.19,0,0,0,.16.2Z"/><path class="o" d="M317.49,47.81a.2.2,0,0,0,.16-.24.19.19,0,0,0-.12-.15,1.83,1.83,0,0,1-1.14-1.07,4.45,4.45,0,0,1,.43-3,.21.21,0,1,0-.35-.23.08.08,0,0,1,0,0,4.88,4.88,0,0,0-.45,3.37,2.26,2.26,0,0,0,1.38,1.31A.21.21,0,0,0,317.49,47.81Z"/><path class="p" d="M287.11,44.68l4.27,3.7,2.05,1.9c.69.63,1.37,1.26,2.06,1.87L297.54,54c.69.6,1.38,1.19,2.06,1.75s1.35,1.12,2,1.59l.87.61.17.1.06,0,0,0,.05.06s0,.05.05.07a.31.31,0,0,0,.21,0,3.23,3.23,0,0,0,1.19-.47,9.84,9.84,0,0,0,1.64-1.22,20.85,20.85,0,0,0,1.69-1.7,40.68,40.68,0,0,0,3.18-4.09c1-1.47,1.73-2.59,2.65-4.15A6.86,6.86,0,0,0,319.58,49a56.64,56.64,0,0,1-2.4,5.55A43.24,43.24,0,0,1,314,59.94,27.16,27.16,0,0,1,312,62.56a19.65,19.65,0,0,1-2.67,2.49,13.39,13.39,0,0,1-1.75,1.13,10.49,10.49,0,0,1-2.16.9,9.55,9.55,0,0,1-2.6.42,9.25,9.25,0,0,1-2.77-.36,9.58,9.58,0,0,1-1.27-.45l-.3-.13-.25-.13-.23-.12-.23-.12c-.57-.31-1.07-.61-1.54-.91-.94-.6-1.79-1.19-2.61-1.79s-1.62-1.21-2.4-1.82-1.55-1.22-2.3-1.85l-2.24-1.88c-.74-.63-1.47-1.27-2.19-1.91l-2.16-2-1.06-1-.53-.5-.54-.52Z"/><path class="q" d="M291.19,62.18a.25.25,0,0,1-.15,0c-2.82-2-7.83-6.12-7.88-6.17a.26.26,0,0,1,.33-.39h0c.05,0,5,4.18,7.84,6.14a.26.26,0,0,1,.07.36.26.26,0,0,1-.21.11Z"/><path class="q" d="M285.36,57.69h0l-2-.29a.25.25,0,0,1,.07-.5l2,.28a.26.26,0,0,1,0,.52Z"/><path class="q" d="M318.2,52.22a.26.26,0,0,0,.11-.35.27.27,0,0,0-.29-.14c-3.74.82-5.6-2.75-5.62-2.78a.26.26,0,0,0-.35-.12h0a.25.25,0,0,0-.11.35s2.06,4,6.19,3.06Z"/><path class="q" d="M316.28,52.29a.3.3,0,0,0,.12-.13l1.23-2.87a.28.28,0,0,0-.14-.35.28.28,0,0,0-.35.14h0L315.91,52a.28.28,0,0,0,.14.35.27.27,0,0,0,.23,0Z"/><path class="q" d="M314.07,49.53a.46.46,0,0,0,.61.19.45.45,0,0,0,.2-.61.46.46,0,0,0-.61-.2.45.45,0,0,0-.2.61Z"/><path class="q" d="M302.21,61.46a.23.23,0,0,0,.14-.19,11.49,11.49,0,0,1,.77-2.61.26.26,0,0,0-.47-.23,11.54,11.54,0,0,0-.82,2.76.27.27,0,0,0,.22.3.22.22,0,0,0,.16,0Z"/><path class="q" d="M303.92,60.87l0,0a.26.26,0,0,0,0-.37h0a4.84,4.84,0,0,1-.91-1.74.28.28,0,0,0-.31-.22.27.27,0,0,0-.21.31h0a5.41,5.41,0,0,0,1,2A.27.27,0,0,0,303.92,60.87Z"/></g><ellipse class="f" cx="156.13" cy="173.56" rx="59.64" ry="3.63"/><path class="n" d="M152.41,72.54l6,22-2.15-2.47a11,11,0,0,0,2.73,1,18.4,18.4,0,0,0,3.3.42,33.43,33.43,0,0,0,3.61,0c1.23,0,2.5-.14,3.78-.25h0a3.44,3.44,0,0,1,.83,6.83c-1.32.21-2.67.41-4.05.57s-2.8.28-4.26.31a26.72,26.72,0,0,1-4.56-.25,18.44,18.44,0,0,1-4.78-1.32,3.72,3.72,0,0,1-2.07-2.24l-.08-.23-7.23-21.66a4.65,4.65,0,0,1,8.82-3C152.36,72.38,152.39,72.47,152.41,72.54Z"/><path class="q" d="M154.73,152.4a.86.86,0,0,1-.27-.05L122.91,141a.8.8,0,1,1,.54-1.5L155,150.85a.8.8,0,0,1-.27,1.55Z"/><path class="q" d="M121.86,152.4a.8.8,0,0,1-.79-.8.79.79,0,0,1,.52-.75l31.94-11.56a.78.78,0,0,1,1,.47.79.79,0,0,1-.47,1l-31.93,11.57A1.26,1.26,0,0,1,121.86,152.4Z"/><path class="r" d="M157.54,172.73a1.37,1.37,0,0,1-1.35-1.18L150.49,129H126.64L121,171.54a1.37,1.37,0,0,1-2.71-.33v0l5.76-43.74a1.37,1.37,0,0,1,1.35-1.19h26.24a1.36,1.36,0,0,1,1.35,1.18l5.86,43.75a1.37,1.37,0,0,1-1.17,1.53Z"/><path class="r" d="M144.08,127.63H127c-5.4,0-11.18-3-12-8.29A101.52,101.52,0,0,1,114,99a24.85,24.85,0,0,1,9.41-18.28h0s3.4,14.83-.88,35.31C124.13,123.76,144.08,127.63,144.08,127.63Z"/><path class="i" d="M140.53,40.62a6.79,6.79,0,0,0-7.39-4C129.4,37.3,127.8,42,128,49.18c.32,10.5-3.23,16.82-3.23,16.82l4.71,1.07S141.5,49.08,140.53,40.62Z"/><path class="i" d="M183.51,154.49H175.9s-1.77-8.45-2.36-13.18-.89-16-.89-16-6.07,2-18.77,1.22c-28.13-1.64-17.46-22.31-17.46-22.31,1,1.31,6.77.4,10.75,1,12.21,1.17,22.81,6,29.16,8.71a32.79,32.79,0,0,1,4.09,2.09c1.53,1,2.49,3.82,3.07,7.59C185.22,135,183.51,154.49,183.51,154.49Z"/><path class="h" d="M176.84,150.42a.28.28,0,0,1-.27-.22,133.26,133.26,0,0,1-1.76-17.63c-.25-4.51-.48-8.77-1.06-9.28s-2.41-.09-4.88.32c-4.9.81-12.31,2-20.48.14-4.45-1-7.73-3.2-9.73-6.42-3.45-5.57-1.88-12.47-1.86-12.54a.27.27,0,0,1,.53.12c0,.07-1.54,6.76,1.8,12.13,1.92,3.1,5.08,5.18,9.38,6.18,8.07,1.88,15.41.66,20.27-.15,2.92-.48,4.67-.77,5.33-.19s.92,3.75,1.25,9.66a130.08,130.08,0,0,0,1.75,17.55.27.27,0,0,1-.21.32Z"/><path class="h" d="M183.65,150.56h0l-8.47-.18a.26.26,0,0,1-.26-.28h0a.27.27,0,0,1,.27-.26h0l8.46.18a.27.27,0,0,1,0,.54Z"/><path class="n" d="M183.3,164.24h-5.37l-1-6.3-.57-3.45H183l.1,3.45Z"/><path class="r" d="M183.3,164.24h-5.37l-.78-4.69-.26-1.61h6.21l.06,1.67Z"/><path class="q" d="M183.16,159.61l-6-.06-.26-1.61h6.21Z"/><path class="s" d="M196.56,172.73H176.24a2.8,2.8,0,0,1-.27-1.13,32.69,32.69,0,0,1,.69-6.19c0-.2.06-.39.08-.56s0-.47.06-.71a1,1,0,0,1,1.25-1.17c2.06,2,4.38-1,5.74,0l.18.13c.12.09.29.23.53.44s.83.7,1.49,1.3c1.62,1.45,4.36,2.41,6.7,3.38.29.13.57.25.83.38l.55.28c1.91,1,2.51,2,2.65,2.73A1.59,1.59,0,0,1,196.56,172.73Z"/><path class="t" d="M194.07,168.87a5.27,5.27,0,0,1-2.62,1.25h-.13a24.9,24.9,0,0,1-5-2.33c-1.13-.62-2.16-1.23-2.9-1.72-1.22-.8-1.43-1.1-1.47-1.32-.18-.8,1.14-1.36,2.07-1.65.12.09.29.23.53.44-1.15.31-2.1.8-2.06,1.08s1.32,1.16,4.19,2.73a26.38,26.38,0,0,0,4.74,2.21,4.1,4.1,0,0,0,2.14-1Z"/><path class="t" d="M196.56,172.73H176.24a2.8,2.8,0,0,1-.27-1.13h20.75A1.59,1.59,0,0,1,196.56,172.73Z"/><path class="t" d="M178.31,172.73h-.6a4.5,4.5,0,0,0,1.09-3.25,5.75,5.75,0,0,0-2.14-4.07c0-.2.06-.39.08-.56a6.25,6.25,0,0,1,2.54,4.6A5,5,0,0,1,178.31,172.73Z"/><path class="g" d="M185.65,166a.34.34,0,0,1-.33-.35.32.32,0,0,1,.25-.31l1.27-.32a.33.33,0,0,1,.4.25.33.33,0,0,1-.24.4l-1.27.32Z"/><path class="g" d="M184.39,165a.34.34,0,0,1-.08-.66l1.27-.32a.33.33,0,0,1,.4.25.32.32,0,0,1-.24.4l-1.27.32Z"/><path class="g" d="M186.92,166.76a.34.34,0,0,1-.08-.66l1.27-.31a.33.33,0,0,1,.16.65l-1.27.31Z"/><path class="g" d="M188.19,167.47a.32.32,0,0,1-.33-.34.33.33,0,0,1,.25-.32l1.27-.31a.33.33,0,0,1,.4.25.35.35,0,0,1-.24.4l-1.27.31Z"/><path class="g" d="M189.57,168.13a.34.34,0,0,1-.33-.34.33.33,0,0,1,.25-.32l1.27-.32a.35.35,0,0,1,.41.25.34.34,0,0,1-.25.4h0l-1.27.32Z"/><path class="g" d="M191.07,168.69A.34.34,0,0,1,191,168l1.27-.32a.35.35,0,0,1,.41.25.33.33,0,0,1-.25.4l-1.27.32Z"/><path class="t" d="M122.33,97.7s-.24,1.64,2,2.1l22.92.77a2.59,2.59,0,0,0,1.27-2.7S138.8,92.43,122.33,97.7Z"/><path class="n" d="M147.52,105.28c-11.89,6.55-24.89,1.28-24.89,1.28a35.54,35.54,0,0,0,1.45-5.47c.4-2.07.62-3.9.72-4.86,5.06-.28,17.47-.81,22.33.35l0,2Z"/><path class="u" d="M138.74,102.14c-.09.62-.37,1.08-.62,1s-.39-.57-.3-1.18.36-1.08.61-1.05S138.82,101.53,138.74,102.14Z"/><path class="u" d="M147.17,98.52c-5.07-.31-15-.41-23.09,2.57.4-2.07.62-3.9.72-4.86,5.06-.28,17.47-.81,22.33.35Z"/><path class="s" d="M152.82,89.11a2.09,2.09,0,0,1-.17.41l-.07.15a11.52,11.52,0,0,1-2.45,2.93l-.49.42-.74.56-.26.18s0,0,0,0,0,.18,0,.27c0,.38-.05.83-.07,1.33s0,.86,0,1.35,0,.73,0,1.12c-6.72-3-20.57-1.11-26.15-.17.1-.48.2-1,.28-1.42a42.78,42.78,0,0,0,.7-5.75,59.83,59.83,0,0,0-.63-10.36c0-.26-.07-.52-.11-.77s0-.34-.07-.51c-.19-1.24-.42-2.49-.67-3.7-1.1-5.27-.33-10.81,5-11.47l1.14-.13c2.52-.27,4.59-.36,5.17-.38h.16l10.34,3,1,.28,1.57.53.6.22c.5.19.95.37,1.37.56a11.08,11.08,0,0,1,2,1.09c2.27,1.61,1.92,3.43,1.86,7v.25a3.23,3.23,0,0,0,0,.44c0,.47,0,.93,0,1.39,0,.68.1,1.35.18,2l.09.78.09.74C152.87,84.67,153.39,87.43,152.82,89.11Z"/><path class="t" d="M152.05,76v.64L149.88,78a.31.31,0,1,1-.32-.52h0l2.3-1.44A.34.34,0,0,1,152.05,76Z"/><path class="t" d="M137.73,87.6a.3.3,0,0,1-.31-.3.33.33,0,0,1,.1-.23l2-1.82a.31.31,0,0,1,.43,0,.3.3,0,0,1,0,.42l-2,1.82A.31.31,0,0,1,137.73,87.6Z"/><path class="t" d="M152.46,81.53l-1.39,1.24a.29.29,0,0,1-.43,0,.3.3,0,0,1,0-.43l1.69-1.53C152.39,81,152.43,81.29,152.46,81.53Z"/><path class="t" d="M133.62,80.29a.32.32,0,0,1,.08-.43.29.29,0,0,1,.24,0l2.65.62a.3.3,0,0,1-.14.59l-2.65-.62A.36.36,0,0,1,133.62,80.29Z"/><path class="t" d="M124.18,85.48a.31.31,0,0,1-.31-.3A.33.33,0,0,1,124,85l2-1.82a.3.3,0,0,1,.42,0,.29.29,0,0,1,0,.43h0l-2,1.82A.32.32,0,0,1,124.18,85.48Z"/><path class="t" d="M147.71,85.05a.3.3,0,0,1,.39-.19.28.28,0,0,1,.18.16l1.09,2.5a.31.31,0,0,1-.17.39.31.31,0,0,1-.39-.15l-1.09-2.5A.3.3,0,0,1,147.71,85.05Z"/><path class="t" d="M152.82,89.11a2.09,2.09,0,0,1-.17.41l-.07.15-1.48-.47a.3.3,0,1,1,.18-.58h0Z"/><path class="t" d="M144.47,89.33a.3.3,0,0,1,.34.27.29.29,0,0,1-.08.23l-1.83,2a.3.3,0,0,1-.46-.39v0l1.83-2A.3.3,0,0,1,144.47,89.33Z"/><path class="t" d="M143.4,84.68a.3.3,0,0,1-.25-.35.26.26,0,0,1,.14-.2l2.3-1.45a.31.31,0,0,1,.42.11.3.3,0,0,1-.09.4l-2.31,1.45A.26.26,0,0,1,143.4,84.68Z"/><path class="t" d="M144.86,75.92a.29.29,0,0,1,0,.43.28.28,0,0,1-.23.07l-2.71-.29a.3.3,0,0,1-.27-.33.3.3,0,0,1,.34-.27l2.7.29A.32.32,0,0,1,144.86,75.92Z"/><path class="t" d="M140.93,70.05a.31.31,0,0,1,.37-.22.37.37,0,0,1,.2.15l1.28,2.4a.3.3,0,0,1-.53.29h0L141,70.27A.33.33,0,0,1,140.93,70.05Z"/><path class="t" d="M150.13,92.6l-.49.42-.36-.91a.28.28,0,0,1,0-.22.32.32,0,0,1,.39-.18.35.35,0,0,1,.18.18Z"/><path class="t" d="M125.26,88a.3.3,0,0,1,.12-.41.31.31,0,0,1,.25,0l2.56.92a.3.3,0,0,1,.19.38.29.29,0,0,1-.38.19h0l-2.56-.92A.29.29,0,0,1,125.26,88Z"/><path class="t" d="M126.51,91.45a.31.31,0,0,1,.3.31.29.29,0,0,1-.1.23l-2,1.8a.29.29,0,0,1-.42-.06.32.32,0,0,1,0-.4l2-1.8A.3.3,0,0,1,126.51,91.45Z"/><path class="t" d="M130.2,94.32a.28.28,0,0,1,0,.42.24.24,0,0,1-.23.06l-2.69-.45A.3.3,0,0,1,127,94a.29.29,0,0,1,.35-.25l2.68.46A.27.27,0,0,1,130.2,94.32Z"/><path class="t" d="M132.45,68.85a.31.31,0,0,1,.21-.38.34.34,0,0,1,.24,0L135.19,70a.3.3,0,0,1-.33.51L132.57,69A.3.3,0,0,1,132.45,68.85Z"/><path class="t" d="M148.05,70.59a.3.3,0,0,1,.41.12.33.33,0,0,1,0,.24l-.91,2.57a.31.31,0,0,1-.58-.21l.91-2.56A.29.29,0,0,1,148.05,70.59Z"/><path class="t" d="M146.82,67.24l-1.4,1.8a.3.3,0,0,1-.48-.37L146.23,67Z"/><path class="t" d="M133.08,92.13a.26.26,0,0,0,.19.16.2.2,0,0,0,.13,0,14.31,14.31,0,0,1,9.07.48,15.64,15.64,0,0,0,6.14,1.32c0-.1,0-.19,0-.28v0l.26-.18a14.7,14.7,0,0,1-6.23-1.27,14.57,14.57,0,0,0-9.42-.5A.26.26,0,0,0,133.08,92.13Z"/><path class="t" d="M143.67,66.21c-.58.9-1.78,1.92-4.2,1.74-3.34-.24-5.53-3.43-6.3-4.74h.16Z"/><path class="g" d="M140.12,72.12l.29,0a2.58,2.58,0,0,0,2.23-.79c1.6-1.76.94-5.76.91-5.93a.25.25,0,0,0-.28-.2.23.23,0,0,0-.2.28s.64,3.94-.8,5.51a2.06,2.06,0,0,1-1.82.64c-3.23-.26-6.86-8.48-6.9-8.57a.24.24,0,0,0-.32-.12.24.24,0,0,0-.13.32C133.25,63.64,136.69,71.43,140.12,72.12Z"/><path class="n" d="M150.2,68.89a18,18,0,0,0,1.9,9.1c0-.61,0-1.22,0-1.83V76.1c0-.06,0-.12,0-.19C152.11,72.32,152.46,70.5,150.2,68.89Z"/><path class="n" d="M131.17,73.06c-1.18,4.58-5.52,8.26-8.49,7.11,0-.26-.07-.51-.11-.77s0-.34-.07-.5c-.19-1.25-.42-2.49-.67-3.7-1.1-5.28-.33-10.82,5-11.48l1.15-.13C130.67,64.74,132.54,67.79,131.17,73.06Z"/><path class="n" d="M131.78,69.57l7,25.42-2.48-2.85a12.59,12.59,0,0,0,3.15,1.12,23.11,23.11,0,0,0,3.8.49c1.34.07,2.74.06,4.17,0s2.89-.17,4.37-.29h0a4,4,0,0,1,1,7.88c-1.53.24-3.08.47-4.68.66s-3.23.32-4.92.36a31.88,31.88,0,0,1-5.26-.29,21.67,21.67,0,0,1-5.52-1.53A4.31,4.31,0,0,1,130,98l-.09-.26-8.34-25a5.37,5.37,0,0,1,10.18-3.4C131.73,69.38,131.76,69.48,131.78,69.57Z"/><path class="u" d="M134.89,94.18a.2.2,0,0,1-.2-.21.22.22,0,0,1,.1-.18,8.65,8.65,0,0,1,3.18-1,.2.2,0,0,1,.22.19.21.21,0,0,1-.19.22,8.58,8.58,0,0,0-3,1A.2.2,0,0,1,134.89,94.18Z"/><path class="u" d="M137.42,93.26a.23.23,0,0,1-.11,0,5.32,5.32,0,0,0-2.13-.67.21.21,0,0,1,0-.41,5.73,5.73,0,0,1,2.32.73.21.21,0,0,1,.07.28.22.22,0,0,1-.18.1Z"/><path class="t" d="M143.62,79.86c3.08.63,4.42-2.55,4.44-2.59a.25.25,0,0,0-.46-.19c0,.12-1.21,2.84-3.88,2.3s-8-6.09-8.09-6.14a.25.25,0,0,0-.35,0,.26.26,0,0,0,0,.35C135.49,73.81,140.66,79.26,143.62,79.86Z"/><path class="i" d="M138.78,59.84a8.61,8.61,0,0,1-6.33-5.91c-1.32-4.74-.3-7.2,1.08-9.77a8.31,8.31,0,0,1,8.95-3.6c4.66.95,8.14,3.34,8.66,7.17C152.1,54.9,146.31,63.66,138.78,59.84Z"/><path class="r" d="M132.69,54.7a.25.25,0,0,1-.22-.13,11.2,11.2,0,0,1-.45-8.81,8.1,8.1,0,0,1,4.79-5.06,8.72,8.72,0,0,1,3.23-.59.26.26,0,0,1,.24.27.26.26,0,0,1-.26.24h0a8.33,8.33,0,0,0-3,.57,7.47,7.47,0,0,0-4.47,4.74,10.84,10.84,0,0,0,.4,8.38.26.26,0,0,1-.09.35A.22.22,0,0,1,132.69,54.7Z"/><path class="u" d="M148.36,54.78s1.6-1.27,2,.41-.77,4.67-2.64,3.76Z"/><path class="r" d="M146.79,57.87a2.54,2.54,0,0,0-1.68,1.85A2.42,2.42,0,1,0,148,57.83h0a.39.39,0,0,0,.06.4,2,2,0,1,1-2.52,1.57,2,2,0,0,1,1.5-1.55Z"/><path class="n" d="M143.49,62l-.67,4.2s-3.15,3.22-8.9-2.55c1.54-1.15,2.13-3.82,2-5.54A7.8,7.8,0,0,1,137,59a5.25,5.25,0,0,0,.49.33A15.1,15.1,0,0,0,143.49,62Z"/><path class="i" d="M143.49,62l-.32,2c-1.72-.77-4.77-2.41-6.15-5,.15.11.31.22.49.33A15.1,15.1,0,0,0,143.49,62Z"/><path class="n" d="M149.91,53.77c-.08.44-.17.87-.25,1.27s-.18.85-.27,1.23c-.63,2.92-1.16,4.47-2,5.06-4.29,3-11.28-3-11.5-3.22h0c0-.34,0-.68,0-1a26,26,0,0,1,1.3-7.73,5.93,5.93,0,0,1,4.94-5c2.66-.4,4.66,1.14,5.91,1.82C149.91,47.19,150.65,50.05,149.91,53.77Z"/><path class="i" d="M137.32,46.72s3-5.78,9-4.17,6.31,4.4,6.42,5.79-3.11-1.07-3.11-1.07-.11,2.78-1.18,1.92a17.46,17.46,0,0,1-2.78-3.32s-3.57,3.51-7,2.56C136.78,47.89,137.32,46.72,137.32,46.72Z"/><path class="g" d="M152.15,54.68l-2.34-.39a1.67,1.67,0,0,1-.06.29s0,0,0,.05l2.35.4a.18.18,0,0,0,.2-.15.16.16,0,0,0-.13-.19Z"/><path class="g" d="M145.91,52.69a2.17,2.17,0,0,0,0-.36,3,3,0,0,0-.78-1.67,3,3,0,0,0-1.51-.85h0a3,3,0,0,0-3.27,1.66,3.24,3.24,0,0,0-.13.33c0,.1-.06.2-.08.3a2.94,2.94,0,0,0,5.76,1.19h0A2.78,2.78,0,0,0,145.91,52.69Zm-3.46,2.53h0a2.58,2.58,0,0,1-2-3.08,2,2,0,0,1,.11-.35v0a2.62,2.62,0,0,1,2.27-1.65,2.54,2.54,0,0,1,1.94.71,2.58,2.58,0,0,1,.09,3.66,2.55,2.55,0,0,1-2.4.75Z"/><path class="g" d="M151.14,51.49l-.24-.12-.31-.1a.79.79,0,0,0-.22-.06,1.84,1.84,0,0,0-.41-.05,2,2,0,0,0-.49,0,2.93,2.93,0,0,0-2.25,1.47,2.26,2.26,0,0,0-.17.35v0a3.51,3.51,0,0,0-.15.49A3,3,0,0,0,148,56.42a2.86,2.86,0,0,0,1,.49l.17,0,.08,0A2.64,2.64,0,0,0,150,57h.13l.36-.07a2.94,2.94,0,0,0,2.11-3.59,2.88,2.88,0,0,0-1.48-1.86Zm1.18,3.13a.94.94,0,0,0,0,.16l-.08.23a2.58,2.58,0,0,1-1.06,1.29,2.89,2.89,0,0,1-.94.35h-.11a2.38,2.38,0,0,1-.84,0l-.08,0h0A2.43,2.43,0,0,1,148,56a.74.74,0,0,1-.13-.12,2.57,2.57,0,0,1-.67-2.32,2.81,2.81,0,0,1,.18-.56,2.59,2.59,0,0,1,2.36-1.51H150a1.86,1.86,0,0,1,.33,0l.24.06.31.12.23.12a2.6,2.6,0,0,1,1.23,2.77Z"/><path class="g" d="M136.58,52l-.06,0a.19.19,0,0,1-.05-.25c1.17-1.82,4-.18,4-.17a.17.17,0,0,1,.07.24.16.16,0,0,1-.23.07h0s-2.55-1.48-3.54.06A.18.18,0,0,1,136.58,52Z"/><path class="g" d="M147.18,53.09a.15.15,0,0,1-.11-.08,1.08,1.08,0,0,0-1.19-.31.17.17,0,0,1-.22-.1.16.16,0,0,1,.09-.22h0a1.38,1.38,0,0,1,1.59.45.18.18,0,0,1-.05.24.16.16,0,0,1-.13,0Z"/><path class="i" d="M137.8,56.5a4.37,4.37,0,0,1-1.92,1.61h0c0-.34,0-.68,0-1A3.68,3.68,0,0,0,137.8,56.5Z"/><path class="n" d="M137.6,53.05s-1.37-2.91-3.16-1.2C133,53.26,134.25,58,136.81,57Z"/><path class="r" d="M134.22,55.57a2.54,2.54,0,0,0-1.68,1.85,2.42,2.42,0,1,0,2.85-1.89h0a.41.41,0,0,0,.07.4,2,2,0,1,1-1.76,3.61,2.08,2.08,0,0,1-.77-2,2,2,0,0,1,1.51-1.55Z"/><path class="i" d="M136.7,56.15h0a.2.2,0,0,0,.21-.18,3.7,3.7,0,0,0-1.53-3.36.2.2,0,1,0-.22.33h0a3.32,3.32,0,0,1,1.36,3A.19.19,0,0,0,136.7,56.15Z"/><path class="i" d="M135.13,54.6a.15.15,0,0,0,.13,0,1.58,1.58,0,0,1,1.09-.18.2.2,0,0,0,.27-.09.19.19,0,0,0-.09-.26,1.93,1.93,0,0,0-1.45.18.2.2,0,0,0-.09.27.21.21,0,0,0,.14.1Z"/><path class="i" d="M139.37,48.11a61.28,61.28,0,0,0-2,6c-.14,1.37-2-3.35-.13-7.39Z"/><path class="i" d="M170.26,154.52h-7.61s-1.77-8.45-2.36-13.19-.89-16-.89-16-6.07,2-18.77,1.23c-28.13-1.64-17.46-22.31-17.46-22.31,1,1.31,8.08,3.12,12.06,3.75,12.21,1.17,21.5,3.25,27.85,6a32.79,32.79,0,0,1,4.09,2.09c1.53,1,2.49,3.81,3.07,7.58C172,135,170.26,154.52,170.26,154.52Z"/><path class="h" d="M163.59,150.45a.28.28,0,0,1-.27-.22,133.41,133.41,0,0,1-1.76-17.64c-.25-4.5-.48-8.76-1.06-9.27s-2.41-.09-4.88.32c-4.9.81-12.31,2-20.48.14-4.45-1-7.73-3.2-9.73-6.43-3.45-5.57-1.88-12.47-1.86-12.54a.28.28,0,0,1,.34-.19.29.29,0,0,1,.19.32c0,.06-1.54,6.75,1.8,12.13,1.92,3.1,5.08,5.18,9.38,6.18,8.07,1.87,15.41.66,20.27-.15,2.91-.49,4.67-.78,5.33-.19s.92,3.74,1.24,9.65a131.89,131.89,0,0,0,1.76,17.56.27.27,0,0,1-.22.32h0Z"/><path class="h" d="M170.4,150.59h0l-8.47-.18a.26.26,0,0,1-.26-.28h0a.27.27,0,0,1,.27-.27h0l8.47.19a.27.27,0,0,1,.27.27.28.28,0,0,1-.28.27Z"/><path class="n" d="M170.05,164.27h-5.38l-1-6.3-.57-3.45h6.68l.1,3.45Z"/><path class="r" d="M170.05,164.27h-5.38l-.77-4.69-.26-1.61h6.21l.06,1.66Z"/><path class="q" d="M169.91,159.64l-6-.06-.26-1.61h6.21Z"/><path class="s" d="M183.3,172.75H163a2.87,2.87,0,0,1-.26-1.12,32.79,32.79,0,0,1,.69-6.2c0-.2.06-.39.08-.56s0-.47.06-.7A1,1,0,0,1,164.8,163c2.06,2,4.38-1,5.74,0l.18.14.53.43c.35.29.83.71,1.49,1.3,1.61,1.45,4.36,2.41,6.69,3.39.3.12.58.25.84.37l.55.28c1.91,1,2.51,2,2.65,2.74A1.52,1.52,0,0,1,183.3,172.75Z"/><path class="t" d="M180.82,168.89a5.19,5.19,0,0,1-2.62,1.25h-.13a26.1,26.1,0,0,1-5-2.33c-1.13-.62-2.16-1.23-2.9-1.72-1.22-.8-1.43-1.11-1.48-1.32-.17-.8,1.15-1.36,2.08-1.65l.53.43c-1.15.32-2.1.81-2.06,1.09s1.32,1.15,4.19,2.73a26.38,26.38,0,0,0,4.74,2.21,4,4,0,0,0,2.14-1Z"/><path class="t" d="M183.3,172.75H163a2.87,2.87,0,0,1-.26-1.12h20.75A1.52,1.52,0,0,1,183.3,172.75Z"/><path class="t" d="M165.06,172.75h-.61a4.44,4.44,0,0,0,1.1-3.25,5.73,5.73,0,0,0-2.14-4.06c0-.21.06-.4.08-.57a6.27,6.27,0,0,1,2.54,4.61A4.92,4.92,0,0,1,165.06,172.75Z"/><path class="g" d="M172.4,166.05a.32.32,0,0,1-.33-.34.33.33,0,0,1,.25-.32l1.27-.31a.32.32,0,0,1,.4.24.33.33,0,0,1-.24.41h0l-1.27.31Z"/><path class="g" d="M171.14,165a.32.32,0,0,1-.33-.34.31.31,0,0,1,.24-.31l1.27-.32a.35.35,0,0,1,.41.25.33.33,0,0,1-.25.4l-1.26.32Z"/><path class="g" d="M173.67,166.79a.34.34,0,0,1-.08-.66l1.27-.32a.35.35,0,0,1,.41.24.34.34,0,0,1-.24.41h0l-1.27.32Z"/><path class="g" d="M174.94,167.5a.34.34,0,0,1-.34-.34.34.34,0,0,1,.25-.32l1.27-.32a.35.35,0,0,1,.41.25.33.33,0,0,1-.25.4l-1.27.32Z"/><path class="g" d="M176.32,168.15a.33.33,0,0,1-.33-.33.31.31,0,0,1,.25-.32l1.27-.32a.33.33,0,0,1,.16.65l-1.27.32Z"/><path class="g" d="M177.82,168.71a.33.33,0,0,1-.33-.33.31.31,0,0,1,.25-.32l1.27-.32a.33.33,0,0,1,.4.25.32.32,0,0,1-.24.4l-1.27.32Z"/><path class="v" d="M198.3,104v1.69c0,1-.59,1.76-1.32,1.76H105.8c-.72,0-1.31-.79-1.31-1.76V104c0-1,.59-1.75,1.31-1.75H197C197.71,102.22,198.3,103,198.3,104Z"/><rect class="w" x="104.49" y="104.51" width="93.81" height="0.77"/><path class="w" d="M195.56,111.76H109.84a.69.69,0,0,1-.69-.7h0V107.4h87.1v3.66a.69.69,0,0,1-.69.7Z"/><rect class="w" x="115.05" y="133.27" width="76.65" height="2.99"/><path class="v" d="M109.53,173.29l14.84-61.53h-5.21l-14.84,61.53Z"/><path class="v" d="M197.13,173.29l-14.84-61.53h5.21l14.84,61.53Z"/><rect class="r" x="112.13" y="88.12" width="1.63" height="12.27" transform="translate(-12.97 18.19) rotate(-8.71)"/><path class="n" d="M112.82,88.07l-1.61.25.35-1.23.19-.64.36.55Z"/><rect class="i" x="112.99" y="99.44" width="1.63" height="0.89" transform="translate(-13.81 18.39) rotate(-8.71)"/><path class="j" d="M114.68,100.92l-1.4.22a.12.12,0,0,1-.12-.1h0l-.09-.59,1.61-.25.09.6a.1.1,0,0,1-.09.12Z"/><path class="i" d="M112.11,87l-.55.09.19-.64Z"/><rect class="q" x="112.88" y="98.81" width="1.63" height="0.64" transform="translate(-13.7 18.36) rotate(-8.71)"/><path class="q" d="M111.7,88.85l1.38,9a.12.12,0,0,0,.14.1h0a.12.12,0,0,0,.1-.14h0l-1.37-9a.13.13,0,0,0-.14-.11h0a.12.12,0,0,0-.1.14Z"/><path class="q" d="M112.33,88.76l1.38,9a.12.12,0,0,0,.14.11h0a.12.12,0,0,0,.1-.14h0l-1.37-9a.12.12,0,0,0-.14-.1h0a.12.12,0,0,0-.1.14Z"/><rect class="x" x="114.12" y="88.13" width="1.63" height="12.27" transform="translate(-0.31 0.38) rotate(-0.19)"/><path class="n" d="M115.73,88.13H114.1l.53-1.16.28-.6.28.6Z"/><rect class="i" x="114.14" y="99.51" width="1.63" height="0.89" transform="translate(-0.33 0.38) rotate(-0.19)"/><path class="j" d="M115.66,101.11h-1.41a.11.11,0,0,1-.11-.11h0v-.6h1.63v.6a.11.11,0,0,1-.11.11Z"/><path class="i" d="M115.19,87h-.56l.28-.6Z"/><rect class="y" x="114.14" y="98.87" width="1.63" height="0.64" transform="translate(-0.32 0.38) rotate(-0.19)"/><path class="y" d="M114.51,88.74l0,9.08a.12.12,0,0,0,.12.13h0a.12.12,0,0,0,.12-.13h0l0-9.08a.12.12,0,0,0-.12-.13h0a.12.12,0,0,0-.12.13Z"/><path class="y" d="M115.14,88.73l0,9.09a.13.13,0,0,0,.13.13h0a.12.12,0,0,0,.12-.13h0l0-9.09a.12.12,0,0,0-.12-.12h0A.13.13,0,0,0,115.14,88.73Z"/><rect class="s" x="110.73" y="93.45" width="12.27" height="1.63" transform="translate(7.11 196.71) rotate(-81.92)"/><path class="n" d="M118.54,88.3l-1.62-.23.7-1.07.36-.56.19.64Z"/><rect class="i" x="115.62" y="99.08" width="0.89" height="1.63" transform="translate(0.84 200.76) rotate(-81.91)"/><path class="j" d="M116.6,101.14l-1.39-.2a.12.12,0,0,1-.1-.12h0l.09-.6,1.61.23-.08.6a.11.11,0,0,1-.13.09Z"/><path class="i" d="M118.17,87.08l-.55-.08.36-.56Z"/><rect class="t" x="115.86" y="98.32" width="0.64" height="1.63" transform="translate(1.68 200.21) rotate(-81.91)"/><path class="t" d="M117.24,88.73l-1.28,9a.13.13,0,0,0,.11.14h0a.12.12,0,0,0,.14-.11h0l1.28-9a.12.12,0,0,0-.11-.14h0A.12.12,0,0,0,117.24,88.73Z"/><path class="t" d="M117.87,88.82l-1.28,9a.12.12,0,0,0,.11.14h0a.12.12,0,0,0,.14-.1h0l1.28-9a.12.12,0,0,0-.11-.14h0A.12.12,0,0,0,117.87,88.82Z"/><path class="j" d="M119.07,93l-.09.66-.08.6-.11.91-.08.59-.12.91-.07.59-.12.92-.08.58-.12.93-.07.56-.12.94-.07.56-.07.49h-6.39l-.07-.49-.07-.56-.12-.94-.07-.56-.12-.93-.08-.58-.12-.92-.07-.59-.12-.91-.08-.59-.11-.91-.08-.6-.09-.66Z"/><path class="z" d="M119,93.64l-.08.6h-8.45l-.08-.6Z"/><path class="z" d="M118.79,95.15l-.08.59h-8.07l-.08-.59Z"/><path class="z" d="M118.59,96.65l-.07.59h-7.69l-.07-.59Z"/><path class="z" d="M118.4,98.16l-.08.58H111l-.08-.58Z"/><path class="z" d="M118.2,99.66l-.07.57h-6.91l-.07-.57Z"/><path class="z" d="M118,101.17l-.07.56h-6.53l-.07-.56Z"/><path class="i" d="M197.76,69.59l-5.45,23.07-.15.61-.36,1.55A1.5,1.5,0,0,1,190.35,96H153.6a1.5,1.5,0,0,1-1.5-1.49,2.09,2.09,0,0,1,0-.35l6-25.23a1.5,1.5,0,0,1,1.45-1.15h36.75a1.49,1.49,0,0,1,1.49,1.49A1.39,1.39,0,0,1,197.76,69.59Z"/><path class="h" d="M192.31,92.66l-.15.61H154v-.61Z"/><path class="r" d="M168.41,73.46a3.76,3.76,0,0,1-3.52,3,2.39,2.39,0,0,1-2.47-2.3,2.54,2.54,0,0,1,.06-.67,3.76,3.76,0,0,1,3.52-3,2.39,2.39,0,0,1,2.48,2.3A2.9,2.9,0,0,1,168.41,73.46Z"/><path class="i" d="M165.06,72.9c-.06.32-.22.59-.37.59s-.2-.27-.14-.59.22-.59.36-.59S165.12,72.57,165.06,72.9Z"/><path class="i" d="M166.61,72.9c-.06.32-.23.59-.37.59s-.21-.27-.15-.59.23-.59.37-.59S166.67,72.57,166.61,72.9Z"/><path class="i" d="M165.2,74.91a1.33,1.33,0,0,1-1.33-1.29.17.17,0,0,1,.13-.15.09.09,0,0,1,.13.07v0a1.09,1.09,0,0,0,1.1,1.08h0a1.76,1.76,0,0,0,1.52-1.08.16.16,0,0,1,.17-.1.11.11,0,0,1,.08.13,0,0,0,0,0,0,0A2.12,2.12,0,0,1,165.2,74.91Z"/><path class="j" d="M185.4,87.29c0,1.53,2.62,3.45,2.62,3.45s3-1.92,3.38-3.45-1.5-2.17-2.9-.92C187.37,85.12,185.36,85.63,185.4,87.29Z"/><path class="h" d="M179.91,82.85a3.3,3.3,0,0,1-3.2,2.87,2.52,2.52,0,0,1-2.58-2.47c0-.13,0-.27,0-.4a3.31,3.31,0,0,1,3.2-2.88,2.53,2.53,0,0,1,2.58,2.47C179.93,82.58,179.92,82.71,179.91,82.85Z"/><path class="h" d="M161,67.75,154.67,96h-1.08a1.49,1.49,0,0,1-1.49-1.49,2.09,2.09,0,0,1,0-.35l6-25.23a1.5,1.5,0,0,1,1.45-1.15Z"/><path class="g" d="M171.66,96l-1.11,6.27h3.68L175.34,96Z"/><path class="g" d="M165,101.16l.75-1.06a1.44,1.44,0,0,1,1.17-.6h10.1a1.43,1.43,0,0,1,1.27.77l.51,1a.69.69,0,0,1-.29.92.72.72,0,0,1-.32.08H165.59a.69.69,0,0,1-.68-.69A.61.61,0,0,1,165,101.16Z"/><path class="g" d="M144,102.23h30.33l.33-1.14a1.14,1.14,0,0,0-1.08-1.44h-28a1.12,1.12,0,0,0-1.08.82Z"/><rect class="aa" x="169.42" y="50.09" width="15.3" height="10.13" rx="0.94"/><path class="aa" d="M183,58.7l-1.22,4.62L179.61,59Z"/><path class="g" d="M180.45,54.41c-.27,1.73-3.5,3.89-3.5,3.89s-3.11-2.17-3.29-3.9,2-2.45,3.43-1C178.56,52,180.75,52.53,180.45,54.41Z"/><ellipse class="f" cx="351.17" cy="173.73" rx="22.84" ry="2.26"/><rect class="i" x="335.32" y="154.97" width="30.82" height="2.44" rx="0.99"/><path class="h" d="M336.68,127.92h28.17a.85.85,0,0,1,.85.84v3.47a.85.85,0,0,1-.85.84H336.68a.85.85,0,0,1-.85-.84v-3.47A.85.85,0,0,1,336.68,127.92Z"/><path class="v" d="M343.33,106s-11.88-2.35-15.19-10.64,8.8-14.51,15.19-10.06C350.17,90,343.33,106,343.33,106Z"/><path class="i" d="M350.39,127.75a.22.22,0,0,1-.21-.19c-1.14-7.7-5.72-18.77-9.37-26.71-4-8.6-7.69-15.47-7.73-15.54a.22.22,0,0,1,.1-.29.21.21,0,0,1,.28.09c0,.06,3.78,7,7.74,15.56,3.66,8,8.26,19.08,9.41,26.83a.22.22,0,0,1-.18.25h0Z"/><path class="i" d="M342.88,105.17a.21.21,0,0,1-.19-.11,63.36,63.36,0,0,0-13.64-16.68.21.21,0,0,1-.05-.3.22.22,0,0,1,.3,0l0,0a64.21,64.21,0,0,1,13.74,16.81.21.21,0,0,1-.08.29h0Z"/><path class="i" d="M343.12,105.86a.25.25,0,0,1-.17-.08,41.18,41.18,0,0,0-10.2-8.72A25.8,25.8,0,0,0,328,94.77a.22.22,0,0,1-.15-.26.22.22,0,0,1,.27-.15h0A26,26,0,0,1,333,96.68a41.57,41.57,0,0,1,10.32,8.83.21.21,0,0,1,0,.3.24.24,0,0,1-.14,0Z"/><path class="i" d="M342.07,103.34a.21.21,0,0,1-.2-.15c-2.9-8.5-1.83-18.83-1.82-18.93a.22.22,0,0,1,.23-.2.22.22,0,0,1,.2.24h0c0,.11-1.07,10.34,1.8,18.75a.23.23,0,0,1-.14.28Z"/><path class="i" d="M342.8,105a.22.22,0,0,1-.21-.18,30,30,0,0,1,.52-12.51,20.42,20.42,0,0,1,1.82-4.71.22.22,0,0,1,.3-.07.21.21,0,0,1,.07.29,20.25,20.25,0,0,0-1.78,4.62,29.55,29.55,0,0,0-.5,12.31.22.22,0,0,1-.18.25Z"/><path class="v" d="M355.86,108.14s12-1.64,15.8-9.72-7.93-15-14.58-10.93C350,91.83,355.86,108.14,355.86,108.14Z"/><path class="i" d="M351.31,127h0a.2.2,0,0,1-.21-.21h0a44.29,44.29,0,0,1,2.57-13.43,87.24,87.24,0,0,1,5.44-12.56,114.54,114.54,0,0,1,7.85-13,.21.21,0,0,1,.3,0,.22.22,0,0,1,.05.3A114.55,114.55,0,0,0,359.49,101c-3.58,6.86-7.86,16.91-8,25.79A.22.22,0,0,1,351.31,127Z"/><path class="i" d="M356.37,107.36a.27.27,0,0,1-.12,0,.21.21,0,0,1-.07-.29h0a64,64,0,0,1,14.72-16,.21.21,0,1,1,.26.34,63.82,63.82,0,0,0-14.61,15.84A.18.18,0,0,1,356.37,107.36Z"/><path class="i" d="M356.09,108a.21.21,0,0,1-.21-.22.2.2,0,0,1,.06-.14,41.34,41.34,0,0,1,10.83-8.2,25,25,0,0,1,4.93-2,.21.21,0,0,1,.26.15.2.2,0,0,1-.15.26h0a25.14,25.14,0,0,0-4.86,2,41.11,41.11,0,0,0-10.7,8.1A.2.2,0,0,1,356.09,108Z"/><path class="i" d="M357.28,105.58h-.08a.22.22,0,0,1-.12-.28h0c3.36-8.23,2.92-18.51,2.91-18.61a.22.22,0,0,1,.21-.23.23.23,0,0,1,.22.21h0c0,.1.46,10.48-2.94,18.79A.21.21,0,0,1,357.28,105.58Z"/><path class="i" d="M356.46,107.22h0a.2.2,0,0,1-.16-.25h0a29.57,29.57,0,0,0,.22-12.32,20.59,20.59,0,0,0-1.5-4.72.2.2,0,0,1,.1-.28.21.21,0,0,1,.28.09,19.69,19.69,0,0,1,1.53,4.81,30,30,0,0,1-.21,12.51A.22.22,0,0,1,356.46,107.22Z"/><path class="v" d="M351.24,92.51S341.08,85.93,341.07,77s13.55-10.21,17.83-3.71C363.49,80.24,351.24,92.51,351.24,92.51Z"/><path class="i" d="M349.82,115.37h-.05a.22.22,0,0,1-.16-.26c1.79-7.57,1.64-19.56,1.19-28.28-.49-9.46-1.42-17.22-1.43-17.3a.22.22,0,0,1,.19-.24.22.22,0,0,1,.24.19h0c0,.08.94,7.85,1.42,17.33.46,8.75.62,20.78-1.19,28.4A.21.21,0,0,1,349.82,115.37Z"/><path class="i" d="M351.2,91.61a.21.21,0,0,1-.21-.19,63.33,63.33,0,0,0-6.5-20.54.21.21,0,0,1,.11-.28.2.2,0,0,1,.27.08,64.23,64.23,0,0,1,6.55,20.7.21.21,0,0,1-.19.23h0Z"/><path class="i" d="M351.17,92.34a.22.22,0,0,1-.21-.15,41.57,41.57,0,0,0-6.24-11.88,25.56,25.56,0,0,0-3.55-3.87.22.22,0,0,1,0-.31.22.22,0,0,1,.3,0A25,25,0,0,1,345.05,80a41.67,41.67,0,0,1,6.32,12,.21.21,0,0,1-.13.27Z"/><path class="i" d="M351.13,89.61h0a.21.21,0,0,1-.2-.23c.45-9,5.27-18.17,5.32-18.26a.22.22,0,0,1,.29-.09.23.23,0,0,1,.09.29h0c-.05.09-4.82,9.21-5.27,18.09A.22.22,0,0,1,351.13,89.61Z"/><path class="i" d="M351.18,91.44h0a.22.22,0,0,1-.17-.26h0A30.44,30.44,0,0,1,356.1,79.7,20.47,20.47,0,0,1,359.55,76a.21.21,0,0,1,.3,0,.22.22,0,0,1,0,.31h0A20.3,20.3,0,0,0,356.44,80a30.1,30.1,0,0,0-5.05,11.3A.21.21,0,0,1,351.18,91.44Z"/><path class="ab" d="M363.66,114.21l-.35.94-.23.6-.64,1.7-.22.6-.66,1.75-.23.6-2.83,7.52H343l-2.83-7.52-.23-.6-.65-1.75-.23-.6-.64-1.7-.23-.6-.35-.94a1,1,0,0,1,.57-1.27,1,1,0,0,1,.35-.06h23.95a1,1,0,0,1,1,1A1,1,0,0,1,363.66,114.21Z"/><path class="ac" d="M363.31,115.15l-.23.6H338.45l-.23-.6Z"/><path class="ac" d="M362.44,117.45l-.22.6H339.31l-.22-.6Z"/><path class="ac" d="M361.56,119.8l-.23.6H340.2l-.23-.6Z"/><path class="i" d="M346.62,133.07l-.86,2.77-11.94,38.5h-2.34l7.58-37.71.71-3.56Z"/><path class="i" d="M370.11,174.34h-2.33l-12.3-39.64-.5-1.63h6.85l.17.87h0Z"/><rect class="h" x="335.32" y="149.66" width="30.82" height="2.44" rx="0.99"/><ellipse class="f" cx="177.12" cy="23.12" rx="11.16" ry="11.03"/><ellipse class="ac" cx="177.12" cy="21.69" rx="11.16" ry="11.03"/><ellipse class="g" cx="177.12" cy="21.69" rx="9.08" ry="8.96"/><path class="f" d="M186.19,21.69c0,.23,0,.47,0,.7a9.08,9.08,0,0,0-18.09,0c0-.23,0-.47,0-.7a9.08,9.08,0,0,1,18.15,0Z"/><path class="i" d="M177.12,22.62a.26.26,0,0,1-.19-.09l-4.45-5.92a.22.22,0,0,1,.05-.31h0a.24.24,0,0,1,.32.05l4.34,5.78L182.13,20a.23.23,0,0,1,.3.11.22.22,0,0,1-.12.29h0l-5.1,2.21Z"/><path class="ad" d="M379.29,24.11V42.84a1.17,1.17,0,0,1-.34.83l-4.61,4.74a1.18,1.18,0,0,0,0,1.64L379,54.81a1.15,1.15,0,0,1,.34.82V73.92a1.18,1.18,0,0,0,1.18,1.18H498.82A1.18,1.18,0,0,0,500,73.92h0V24.11a1.18,1.18,0,0,0-1.18-1.18H380.46A1.18,1.18,0,0,0,379.29,24.11Z"/><g class="ae"><g class="ae"><path class="g" d="M400,46h-1.34l-.81-1.34a3.18,3.18,0,0,0-.17-.27,1.2,1.2,0,0,0-.17-.21.7.7,0,0,0-.17-.13.49.49,0,0,0-.21,0h-.31v2H395.6V40.76h1.85q1.89,0,1.89,1.41a1.59,1.59,0,0,1-.08.5,1.52,1.52,0,0,1-.24.41,1.38,1.38,0,0,1-.36.32,2.06,2.06,0,0,1-.48.21v0a.76.76,0,0,1,.22.11l.21.19a2.23,2.23,0,0,1,.19.24,1.77,1.77,0,0,1,.17.24Zm-3.18-4.32v1.45h.51a.85.85,0,0,0,.6-.22.75.75,0,0,0,.23-.55c0-.45-.27-.68-.81-.68Z"/><path class="g" d="M403.47,44.42h-2.42q.06.81,1,.81a2,2,0,0,0,1.08-.29v.82a2.9,2.9,0,0,1-1.34.28,1.73,1.73,0,0,1-1.89-1.89,2,2,0,0,1,.54-1.46,1.76,1.76,0,0,1,1.31-.54,1.64,1.64,0,0,1,1.26.48,1.89,1.89,0,0,1,.44,1.31Zm-1.06-.7c0-.53-.21-.8-.64-.8a.62.62,0,0,0-.48.23,1.06,1.06,0,0,0-.24.57Z"/><path class="g" d="M407,45.81a2.26,2.26,0,0,1-1.12.23,1.9,1.9,0,0,1-1.38-.52,1.81,1.81,0,0,1-.53-1.34,2,2,0,0,1,.57-1.49,2.08,2.08,0,0,1,1.51-.54,2,2,0,0,1,.95.17v1a1.31,1.31,0,0,0-.8-.27,1.06,1.06,0,0,0-.78.29,1.09,1.09,0,0,0-.29.8,1,1,0,0,0,.28.77,1,1,0,0,0,.75.28,1.49,1.49,0,0,0,.84-.27Z"/><path class="g" d="M411.23,46h-1.14v-.57h0a1.29,1.29,0,0,1-1.13.66q-1.29,0-1.29-1.56V42.24h1.14v2.14c0,.52.21.78.62.78a.62.62,0,0,0,.5-.22.86.86,0,0,0,.18-.58V42.24h1.14Z"/><path class="g" d="M414.61,43.27a1.06,1.06,0,0,0-.48-.11.69.69,0,0,0-.58.27,1.19,1.19,0,0,0-.21.75V46h-1.15V42.24h1.15v.69h0a1,1,0,0,1,1-.76.7.7,0,0,1,.28,0Z"/><path class="g" d="M414.94,45.85v-.93a2.36,2.36,0,0,0,.57.25,1.69,1.69,0,0,0,.53.09,1.08,1.08,0,0,0,.48-.09.27.27,0,0,0,.17-.25.25.25,0,0,0-.08-.18.77.77,0,0,0-.2-.13,2.29,2.29,0,0,0-.28-.09l-.28-.1-.39-.18a1.05,1.05,0,0,1-.28-.22.92.92,0,0,1-.18-.3,1.14,1.14,0,0,1-.06-.39,1,1,0,0,1,.5-.9,1.42,1.42,0,0,1,.52-.21,2.35,2.35,0,0,1,.6-.07,3.71,3.71,0,0,1,1,.15v.88a1.86,1.86,0,0,0-.46-.19,2.12,2.12,0,0,0-.49-.06.75.75,0,0,0-.21,0l-.18,0a.4.4,0,0,0-.12.1.33.33,0,0,0,0,.14.22.22,0,0,0,.07.17.59.59,0,0,0,.17.13l.23.09.26.09a3.89,3.89,0,0,1,.41.17,1.23,1.23,0,0,1,.31.22.9.9,0,0,1,.21.3,1.19,1.19,0,0,1,.07.4,1.05,1.05,0,0,1-.15.57,1.15,1.15,0,0,1-.38.38,2,2,0,0,1-.54.21,3.39,3.39,0,0,1-.64.07A3.49,3.49,0,0,1,414.94,45.85Z"/><path class="g" d="M420.21,46a2,2,0,0,1-1.46-.52,2.15,2.15,0,0,1,0-2.85,2.08,2.08,0,0,1,1.49-.52,2,2,0,0,1,1.45.52,1.82,1.82,0,0,1,.52,1.37,2,2,0,0,1-.54,1.46A2,2,0,0,1,420.21,46Zm0-3a.78.78,0,0,0-.63.28,1.24,1.24,0,0,0-.22.79c0,.71.28,1.07.86,1.07s.82-.37.82-1.1S420.79,43,420.24,43Z"/><path class="g" d="M422.73,45.85v-.93a2.36,2.36,0,0,0,.57.25,1.69,1.69,0,0,0,.53.09,1.08,1.08,0,0,0,.48-.09.27.27,0,0,0,.17-.25.22.22,0,0,0-.08-.18.77.77,0,0,0-.2-.13,2.29,2.29,0,0,0-.28-.09l-.28-.1-.39-.18A1.05,1.05,0,0,1,423,44a.92.92,0,0,1-.18-.3,1.14,1.14,0,0,1-.06-.39,1,1,0,0,1,.5-.9,1.42,1.42,0,0,1,.52-.21,2.43,2.43,0,0,1,.61-.07,2.7,2.7,0,0,1,.49,0,2.78,2.78,0,0,1,.5.11v.88a1.86,1.86,0,0,0-.46-.19,2.12,2.12,0,0,0-.49-.06.75.75,0,0,0-.21,0L424,43a.27.27,0,0,0-.11.1.24.24,0,0,0,0,.14.22.22,0,0,0,.07.17.59.59,0,0,0,.17.13l.23.09.26.09a3.17,3.17,0,0,1,.41.17,1.23,1.23,0,0,1,.31.22.9.9,0,0,1,.21.3,1.19,1.19,0,0,1,.07.4,1.15,1.15,0,0,1-.14.57,1.37,1.37,0,0,1-.38.38,2.25,2.25,0,0,1-.55.21,3.39,3.39,0,0,1-.64.07A3.49,3.49,0,0,1,422.73,45.85Z"/><path class="g" d="M431.91,46h-1.15v-.51h0a1.28,1.28,0,0,1-1.15.6,1.45,1.45,0,0,1-1.12-.49,2.06,2.06,0,0,1-.42-1.37,2.23,2.23,0,0,1,.47-1.48,1.51,1.51,0,0,1,1.22-.55,1,1,0,0,1,1,.51h0v-2.2h1.15Zm-1.12-1.81v-.28a.93.93,0,0,0-.21-.6A.71.71,0,0,0,430,43a.68.68,0,0,0-.59.3,1.35,1.35,0,0,0-.22.82,1.21,1.21,0,0,0,.21.76.7.7,0,0,0,.57.26.69.69,0,0,0,.57-.28A1.18,1.18,0,0,0,430.79,44.14Z"/><path class="g" d="M436.2,44.42h-2.42q.06.81,1,.81a2,2,0,0,0,1.07-.29v.82a2.82,2.82,0,0,1-1.33.28,1.92,1.92,0,0,1-1.4-.5,1.89,1.89,0,0,1-.49-1.39,2,2,0,0,1,.53-1.46,1.8,1.8,0,0,1,1.32-.54,1.64,1.64,0,0,1,1.26.48,1.89,1.89,0,0,1,.44,1.31Zm-1.06-.7c0-.53-.22-.8-.64-.8a.62.62,0,0,0-.48.23,1,1,0,0,0-.25.57Z"/><path class="g" d="M442,46h-1.09v-.54h0a1.21,1.21,0,0,1-1.1.63,1.16,1.16,0,0,1-.85-.31,1.09,1.09,0,0,1-.31-.82c0-.71.42-1.13,1.28-1.24l1-.13c0-.41-.22-.61-.66-.61a2.28,2.28,0,0,0-1.26.39v-.86a3.36,3.36,0,0,1,.66-.22,3.55,3.55,0,0,1,.75-.09A1.4,1.4,0,0,1,442,43.73Zm-1.08-1.51v-.25l-.67.09c-.37,0-.56.21-.56.5a.42.42,0,0,0,.14.32.54.54,0,0,0,.37.13.68.68,0,0,0,.52-.23A.82.82,0,0,0,440.93,44.44Z"/><path class="g" d="M444.07,45.51h0v2.14h-1.15V42.24h1.15v.56h0a1.35,1.35,0,0,1,1.19-.65,1.33,1.33,0,0,1,1.11.49,2.13,2.13,0,0,1,.4,1.35,2.32,2.32,0,0,1-.46,1.49,1.51,1.51,0,0,1-1.22.56A1.15,1.15,0,0,1,444.07,45.51ZM444,44v.3a.92.92,0,0,0,.2.63.66.66,0,0,0,.53.24.72.72,0,0,0,.61-.3,1.5,1.5,0,0,0,.21-.86c0-.65-.25-1-.76-1a.71.71,0,0,0-.57.27A1,1,0,0,0,444,44Z"/><path class="g" d="M449.27,46a2,2,0,0,1-1.45-.52,2.15,2.15,0,0,1,0-2.85,2,2,0,0,1,1.48-.52,2,2,0,0,1,1.45.52A1.83,1.83,0,0,1,451.3,44a2,2,0,0,1-.54,1.46A2,2,0,0,1,449.27,46Zm0-3a.78.78,0,0,0-.63.28,1.24,1.24,0,0,0-.22.79c0,.71.29,1.07.86,1.07s.82-.37.82-1.1S449.86,43,449.3,43Z"/><path class="g" d="M455.57,42.24l-1.51,4c-.36,1-.91,1.45-1.64,1.45a2.17,2.17,0,0,1-.68-.1v-.91a1,1,0,0,0,.5.13.6.6,0,0,0,.61-.41l.2-.46-1.51-3.7h1.27l.69,2.25a2.94,2.94,0,0,1,.1.5h0a3.13,3.13,0,0,1,.12-.49l.69-2.26Z"/><path class="g" d="M457.72,46a2,2,0,0,1-1.46-.52,2.15,2.15,0,0,1,0-2.85,2.08,2.08,0,0,1,1.49-.52,2,2,0,0,1,1.45.52,1.82,1.82,0,0,1,.52,1.37,2,2,0,0,1-.54,1.46A2,2,0,0,1,457.72,46Zm0-3a.78.78,0,0,0-.63.28,1.24,1.24,0,0,0-.23.79c0,.71.29,1.07.87,1.07s.82-.37.82-1.1S458.3,43,457.75,43Z"/></g><g class="ae"><path class="g" d="M463.24,45.41h0v2.24h-.6V42.24h.6v.65h0a1.41,1.41,0,0,1,1.28-.74,1.37,1.37,0,0,1,1.12.5A2,2,0,0,1,466,44a2.3,2.3,0,0,1-.45,1.49,1.48,1.48,0,0,1-1.24.56A1.25,1.25,0,0,1,463.24,45.41Zm0-1.49v.51a1.09,1.09,0,0,0,.3.78,1,1,0,0,0,.75.32,1,1,0,0,0,.85-.41,1.92,1.92,0,0,0,.3-1.15,1.51,1.51,0,0,0-.28-1,1,1,0,0,0-.77-.35,1.06,1.06,0,0,0-.84.36A1.32,1.32,0,0,0,463.23,43.92Z"/><path class="g" d="M469.64,46h-.59v-.58h0a1.36,1.36,0,0,1-2,.37,1,1,0,0,1-.31-.78c0-.69.4-1.09,1.22-1.21l1.11-.15c0-.63-.26-1-.76-1a1.8,1.8,0,0,0-1.21.46V42.5a2.29,2.29,0,0,1,1.26-.35c.87,0,1.3.46,1.3,1.39Zm-.59-1.88-.89.12a1.45,1.45,0,0,0-.63.21.59.59,0,0,0-.21.52.56.56,0,0,0,.2.44.72.72,0,0,0,.51.17.93.93,0,0,0,.73-.31,1.09,1.09,0,0,0,.29-.78Z"/><path class="g" d="M472.69,42.84a.7.7,0,0,0-.44-.12.76.76,0,0,0-.64.36,1.65,1.65,0,0,0-.25,1V46h-.6V42.24h.6V43h0a1.24,1.24,0,0,1,.39-.61.89.89,0,0,1,.58-.22.82.82,0,0,1,.35.06Z"/><path class="g" d="M476,46h-.59v-.58h0a1.25,1.25,0,0,1-1.14.66,1.21,1.21,0,0,1-.86-.29,1,1,0,0,1-.32-.78c0-.69.41-1.09,1.23-1.21l1.11-.15c0-.63-.26-1-.77-1a1.81,1.81,0,0,0-1.21.46V42.5a2.34,2.34,0,0,1,1.26-.35c.87,0,1.31.46,1.31,1.39Zm-.59-1.88-.9.12a1.45,1.45,0,0,0-.62.21.59.59,0,0,0-.21.52.58.58,0,0,0,.19.44.74.74,0,0,0,.52.17,1,1,0,0,0,.73-.31,1.09,1.09,0,0,0,.29-.78Z"/><path class="g" d="M479.73,46h-.59V40.46h.59Z"/><path class="g" d="M482.48,46a1.7,1.7,0,0,1-1.31-.52,1.89,1.89,0,0,1-.49-1.37,2,2,0,0,1,.51-1.46,1.84,1.84,0,0,1,1.38-.53,1.66,1.66,0,0,1,1.29.51,2,2,0,0,1,.47,1.42,2,2,0,0,1-.5,1.42A1.8,1.8,0,0,1,482.48,46Zm0-3.38a1.12,1.12,0,0,0-.91.39,1.61,1.61,0,0,0-.33,1.07,1.53,1.53,0,0,0,.33,1,1.14,1.14,0,0,0,.91.38,1.08,1.08,0,0,0,.88-.37,1.6,1.6,0,0,0,.31-1.06,1.63,1.63,0,0,0-.31-1.07A1.09,1.09,0,0,0,482.53,42.65Z"/><path class="g" d="M485.05,45.81v-.64a1.77,1.77,0,0,0,1.07.36c.52,0,.78-.17.78-.52a.41.41,0,0,0-.07-.25.52.52,0,0,0-.18-.18,1.27,1.27,0,0,0-.26-.15l-.34-.13c-.16-.06-.3-.13-.43-.19a1.56,1.56,0,0,1-.31-.23,1.07,1.07,0,0,1-.19-.28,1.08,1.08,0,0,1-.06-.38.9.9,0,0,1,.12-.46,1,1,0,0,1,.32-.33,1.55,1.55,0,0,1,.45-.21,2.33,2.33,0,0,1,.53-.07,2.13,2.13,0,0,1,.86.17v.6a1.67,1.67,0,0,0-.94-.27,1.36,1.36,0,0,0-.3,0,.7.7,0,0,0-.23.11.38.38,0,0,0-.15.16.41.41,0,0,0-.05.21.49.49,0,0,0,.05.25.59.59,0,0,0,.15.17,1.17,1.17,0,0,0,.25.14l.33.13.44.19a1.74,1.74,0,0,1,.33.23.77.77,0,0,1,.22.29,1.07,1.07,0,0,1,.07.38.9.9,0,0,1-.12.48,1,1,0,0,1-.33.34,1.6,1.6,0,0,1-.46.2A2.53,2.53,0,0,1,486,46,2.07,2.07,0,0,1,485.05,45.81Z"/></g><g class="ae"><path class="g" d="M398.77,55.83h-.59V55.2h0a1.35,1.35,0,0,1-1.27.71,1.39,1.39,0,0,1-1.12-.49,2,2,0,0,1-.42-1.36,2.22,2.22,0,0,1,.47-1.47,1.53,1.53,0,0,1,1.23-.56,1.17,1.17,0,0,1,1.11.61h0v-2.3h.59Zm-.59-1.68v-.54a1,1,0,0,0-.3-.76,1,1,0,0,0-.75-.32,1.06,1.06,0,0,0-.86.4A1.8,1.8,0,0,0,396,54a1.54,1.54,0,0,0,.3,1,1,1,0,0,0,.8.37,1,1,0,0,0,.81-.35A1.37,1.37,0,0,0,398.18,54.15Z"/><path class="g" d="M401.52,55.91a1.7,1.7,0,0,1-1.31-.52,1.89,1.89,0,0,1-.49-1.37,2,2,0,0,1,.51-1.46,1.84,1.84,0,0,1,1.38-.53,1.66,1.66,0,0,1,1.29.51,2.06,2.06,0,0,1,.47,1.42,2,2,0,0,1-.5,1.42A1.76,1.76,0,0,1,401.52,55.91Zm0-3.38a1.12,1.12,0,0,0-.9.39,1.62,1.62,0,0,0-.33,1.08,1.5,1.5,0,0,0,.33,1,1.14,1.14,0,0,0,.9.38,1.09,1.09,0,0,0,.89-.37,1.6,1.6,0,0,0,.31-1.06,1.63,1.63,0,0,0-.31-1.07A1.09,1.09,0,0,0,401.56,52.53Z"/><path class="g" d="M406.84,55.66a1.92,1.92,0,0,1-1,.25,1.68,1.68,0,0,1-1.28-.51,1.86,1.86,0,0,1-.49-1.34,2.05,2.05,0,0,1,.53-1.47A1.83,1.83,0,0,1,406,52a2,2,0,0,1,.86.19v.6a1.55,1.55,0,0,0-.89-.29,1.22,1.22,0,0,0-.93.41,1.56,1.56,0,0,0-.36,1.07,1.47,1.47,0,0,0,.34,1,1.18,1.18,0,0,0,.92.37,1.45,1.45,0,0,0,.91-.32Z"/><path class="g" d="M410.72,54.12H408.1a1.41,1.41,0,0,0,.33,1,1.17,1.17,0,0,0,.88.33,1.78,1.78,0,0,0,1.15-.41v.56a2.14,2.14,0,0,1-1.29.35,1.56,1.56,0,0,1-1.24-.5,2.37,2.37,0,0,1,0-2.83,1.6,1.6,0,0,1,1.22-.55,1.39,1.39,0,0,1,1.13.48,2,2,0,0,1,.4,1.3Zm-.61-.5a1.21,1.21,0,0,0-.25-.8.85.85,0,0,0-.68-.29.94.94,0,0,0-.71.3,1.32,1.32,0,0,0-.36.79Z"/><path class="g" d="M414.69,55.83h-.59V53.71c0-.78-.29-1.18-.87-1.18a.94.94,0,0,0-.73.34,1.19,1.19,0,0,0-.29.84v2.12h-.6V52.12h.6v.62h0a1.35,1.35,0,0,1,1.22-.71,1.16,1.16,0,0,1,.93.4,1.77,1.77,0,0,1,.32,1.13Z"/><path class="g" d="M417.53,55.79a1.13,1.13,0,0,1-.56.12c-.65,0-1-.37-1-1.09V52.63h-.64v-.51H416v-.9l.59-.2v1.1h.94v.51h-.94v2.09a.84.84,0,0,0,.13.53.51.51,0,0,0,.42.16.59.59,0,0,0,.39-.13Z"/><path class="g" d="M421.3,54.12h-2.62a1.41,1.41,0,0,0,.33,1,1.18,1.18,0,0,0,.88.33A1.78,1.78,0,0,0,421,55v.56a2.14,2.14,0,0,1-1.29.35,1.56,1.56,0,0,1-1.24-.5,2.07,2.07,0,0,1-.44-1.42,2,2,0,0,1,.49-1.41,1.57,1.57,0,0,1,1.21-.55,1.39,1.39,0,0,1,1.13.48,2,2,0,0,1,.4,1.3Zm-.61-.5a1.21,1.21,0,0,0-.25-.8.85.85,0,0,0-.68-.29,1,1,0,0,0-.71.3,1.32,1.32,0,0,0-.36.79Z"/><path class="g" d="M422,55.69v-.63a1.74,1.74,0,0,0,1.07.35c.52,0,.78-.17.78-.52a.41.41,0,0,0-.07-.25.52.52,0,0,0-.18-.18,1.13,1.13,0,0,0-.27-.14l-.33-.14a4.54,4.54,0,0,1-.43-.19,1.25,1.25,0,0,1-.31-.23.77.77,0,0,1-.19-.28,1.06,1.06,0,0,1-.06-.37.91.91,0,0,1,.12-.47,1,1,0,0,1,.32-.33,1.55,1.55,0,0,1,.45-.21,2.26,2.26,0,0,1,.53-.07,2.16,2.16,0,0,1,.86.17v.6a1.69,1.69,0,0,0-.94-.27,1.36,1.36,0,0,0-.3,0,.7.7,0,0,0-.23.11.38.38,0,0,0-.15.16.43.43,0,0,0-.06.22.5.5,0,0,0,.21.41,1.17,1.17,0,0,0,.25.14l.33.13c.16.07.31.13.44.2a1.36,1.36,0,0,1,.33.22.86.86,0,0,1,.21.29.93.93,0,0,1,.08.39.89.89,0,0,1-.12.47,1,1,0,0,1-.33.34,1.37,1.37,0,0,1-.46.2,2.6,2.6,0,0,1-.56.06A2.07,2.07,0,0,1,422,55.69Z"/><path class="g" d="M425.88,55l-.58,1.78h-.42L425.3,55Z"/><path class="g" d="M434.24,55.83h-.6V53.7a1.57,1.57,0,0,0-.19-.89.72.72,0,0,0-.63-.28.8.8,0,0,0-.65.35,1.31,1.31,0,0,0-.27.83v2.12h-.59v-2.2c0-.73-.28-1.1-.84-1.1a.79.79,0,0,0-.65.33,1.34,1.34,0,0,0-.25.85v2.12H429V52.12h.59v.59h0a1.27,1.27,0,0,1,1.15-.68,1.1,1.1,0,0,1,.67.22,1.08,1.08,0,0,1,.38.55A1.34,1.34,0,0,1,433,52c.82,0,1.23.51,1.23,1.51Z"/><path class="g" d="M438.34,54.12h-2.62a1.41,1.41,0,0,0,.33,1,1.18,1.18,0,0,0,.88.33,1.78,1.78,0,0,0,1.15-.41v.56a2.14,2.14,0,0,1-1.29.35,1.57,1.57,0,0,1-1.24-.5,2.12,2.12,0,0,1-.44-1.42,2,2,0,0,1,.49-1.41,1.57,1.57,0,0,1,1.21-.55,1.39,1.39,0,0,1,1.13.48,1.91,1.91,0,0,1,.4,1.3Zm-.61-.5a1.21,1.21,0,0,0-.25-.8.85.85,0,0,0-.68-.29,1,1,0,0,0-.71.3,1.38,1.38,0,0,0-.36.79Z"/><path class="g" d="M439.83,55.67a2.3,2.3,0,0,1-.37,1.41,1.3,1.3,0,0,1-1.54.38V56.9a1,1,0,0,0,.5.16c.54,0,.82-.43.82-1.29V52.12h.59Zm-.29-4.49a.37.37,0,0,1-.27-.11.33.33,0,0,1-.11-.27.36.36,0,0,1,.11-.28.37.37,0,0,1,.27-.11.41.41,0,0,1,.28.11.39.39,0,0,1,.11.28.4.4,0,0,1-.11.27A.41.41,0,0,1,439.54,51.18Z"/><path class="g" d="M442.58,55.91a1.69,1.69,0,0,1-1.31-.52,1.89,1.89,0,0,1-.49-1.37,2,2,0,0,1,.51-1.46,1.84,1.84,0,0,1,1.38-.53,1.66,1.66,0,0,1,1.29.51,2.06,2.06,0,0,1,.46,1.42,2,2,0,0,1-.5,1.42A1.73,1.73,0,0,1,442.58,55.91Zm0-3.38a1.12,1.12,0,0,0-.9.39,1.62,1.62,0,0,0-.34,1.08,1.5,1.5,0,0,0,.34,1,1.14,1.14,0,0,0,.9.38,1.09,1.09,0,0,0,.89-.37,1.65,1.65,0,0,0,.31-1.06,1.68,1.68,0,0,0-.31-1.07A1.09,1.09,0,0,0,442.62,52.53Z"/><path class="g" d="M447.3,52.72a.7.7,0,0,0-.44-.12.76.76,0,0,0-.64.36,1.67,1.67,0,0,0-.25,1v1.89h-.6V52.12h.6v.77h0a1.16,1.16,0,0,1,.39-.61.86.86,0,0,1,.58-.22.84.84,0,0,1,.35,0Z"/><path class="g" d="M450.6,55.83H450v-.58h0a1.23,1.23,0,0,1-1.14.66,1.2,1.2,0,0,1-.86-.29,1,1,0,0,1-.32-.78c0-.69.41-1.09,1.23-1.21l1.11-.15c0-.63-.26-.95-.76-.95A1.85,1.85,0,0,0,448,53v-.61A2.29,2.29,0,0,1,449.3,52c.87,0,1.3.47,1.3,1.39ZM450,54l-.9.13a1.33,1.33,0,0,0-.62.2.59.59,0,0,0-.21.52.56.56,0,0,0,.2.44.7.7,0,0,0,.51.17,1,1,0,0,0,.73-.3,1.13,1.13,0,0,0,.29-.79Z"/><path class="g" d="M454.8,55.83h-.6V53.71c0-.78-.28-1.18-.86-1.18a1,1,0,0,0-.74.34,1.24,1.24,0,0,0-.29.84v2.12h-.59V52.12h.59v.62h0a1.33,1.33,0,0,1,1.21-.71,1.13,1.13,0,0,1,.93.4,1.71,1.71,0,0,1,.33,1.13Z"/><path class="g" d="M459.08,55.83h-.6V55.2h0a1.36,1.36,0,0,1-1.27.71,1.39,1.39,0,0,1-1.12-.49,2,2,0,0,1-.42-1.36,2.27,2.27,0,0,1,.46-1.47,1.54,1.54,0,0,1,1.24-.56,1.17,1.17,0,0,1,1.11.61h0v-2.3h.6Zm-.6-1.68v-.54a1.07,1.07,0,0,0-.29-.76,1,1,0,0,0-.76-.32,1,1,0,0,0-.85.4,1.73,1.73,0,0,0-.31,1.1,1.54,1.54,0,0,0,.3,1,1,1,0,0,0,.8.37,1,1,0,0,0,.8-.35A1.32,1.32,0,0,0,458.48,54.15Z"/><path class="g" d="M461.83,55.91a1.69,1.69,0,0,1-1.31-.52A1.89,1.89,0,0,1,460,54a2,2,0,0,1,.51-1.46,1.81,1.81,0,0,1,1.37-.53,1.67,1.67,0,0,1,1.3.51,2.06,2.06,0,0,1,.46,1.42,2,2,0,0,1-.5,1.42A1.73,1.73,0,0,1,461.83,55.91Zm0-3.38a1.12,1.12,0,0,0-.9.39,1.57,1.57,0,0,0-.34,1.08,1.5,1.5,0,0,0,.34,1,1.26,1.26,0,0,0,1.79,0,1.65,1.65,0,0,0,.3-1.06,1.68,1.68,0,0,0-.3-1.07A1.11,1.11,0,0,0,461.87,52.53Z"/><path class="g" d="M467.24,55.83h-.59V50.34h.59Z"/><path class="g" d="M470,55.91a1.72,1.72,0,0,1-1.31-.52,1.93,1.93,0,0,1-.49-1.37,2,2,0,0,1,.51-1.46,1.84,1.84,0,0,1,1.38-.53,1.69,1.69,0,0,1,1.3.51,2.11,2.11,0,0,1,.46,1.42,2,2,0,0,1-.5,1.42A1.75,1.75,0,0,1,470,55.91Zm.05-3.38a1.14,1.14,0,0,0-.91.39A1.62,1.62,0,0,0,468.8,54a1.46,1.46,0,0,0,.34,1,1.11,1.11,0,0,0,.9.38,1.07,1.07,0,0,0,.88-.37,1.6,1.6,0,0,0,.31-1.06,1.63,1.63,0,0,0-.31-1.07A1.07,1.07,0,0,0,470,52.53Z"/><path class="g" d="M472.56,55.69v-.63a1.76,1.76,0,0,0,1.07.35c.52,0,.78-.17.78-.52a.49.49,0,0,0-.06-.25.77.77,0,0,0-.18-.18,1.71,1.71,0,0,0-.27-.14l-.33-.14c-.17-.06-.31-.13-.44-.19a1.47,1.47,0,0,1-.31-.23.92.92,0,0,1-.19-.28,1.06,1.06,0,0,1-.06-.37.91.91,0,0,1,.12-.47,1.12,1.12,0,0,1,.32-.33,1.55,1.55,0,0,1,.45-.21A2.33,2.33,0,0,1,474,52a2.13,2.13,0,0,1,.86.17v.6a1.67,1.67,0,0,0-.94-.27,1.36,1.36,0,0,0-.3,0,.7.7,0,0,0-.23.11.57.57,0,0,0-.15.16.54.54,0,0,0-.05.22.6.6,0,0,0,.05.24.64.64,0,0,0,.16.17,1.08,1.08,0,0,0,.24.14l.33.13c.16.07.31.13.44.2a1.66,1.66,0,0,1,.34.22.86.86,0,0,1,.21.29.94.94,0,0,1,.07.39.89.89,0,0,1-.12.47,1,1,0,0,1-.32.34,1.42,1.42,0,0,1-.47.2,2.51,2.51,0,0,1-.55.06A2.08,2.08,0,0,1,472.56,55.69Z"/></g></g><path class="ad" d="M92.16,109.92v10.54a.94.94,0,0,0,.27.67L96.22,125a1,1,0,0,1,0,1.35l-3.79,3.91a1,1,0,0,0-.28.68v9.25a1,1,0,0,1-1,1L1,141.05a1,1,0,0,1-1-1V109.77a1,1,0,0,1,1-1l90.22.15A1,1,0,0,1,92.16,109.92Z"/><g class="ae"><g class="ae"><path class="g" d="M17.59,122.75H16.42v-2.11H14.27v2.11H13.1v-5.19h1.17v2.07h2.15v-2.07h1.17Z"/><path class="g" d="M22,121.22H19.57q.06.81,1,.81a2,2,0,0,0,1.08-.29v.82a2.78,2.78,0,0,1-1.34.28A1.73,1.73,0,0,1,18.44,121a2,2,0,0,1,.54-1.46,1.76,1.76,0,0,1,1.31-.54,1.64,1.64,0,0,1,1.26.48,1.9,1.9,0,0,1,.44,1.31Zm-1.06-.7c0-.53-.21-.8-.64-.8a.62.62,0,0,0-.48.23,1.06,1.06,0,0,0-.24.57Z"/><path class="g" d="M25.09,120.08a1,1,0,0,0-.48-.12.67.67,0,0,0-.58.28,1.12,1.12,0,0,0-.21.74v1.77H22.67V119h1.15v.69h0a1,1,0,0,1,1-.75.72.72,0,0,1,.28,0Z"/><path class="g" d="M28,120.08a1,1,0,0,0-.48-.12.69.69,0,0,0-.59.28,1.18,1.18,0,0,0-.21.74v1.77H25.62V119h1.14v.69h0a1,1,0,0,1,1-.75.72.72,0,0,1,.28,0Z"/><path class="g" d="M31.65,122.75H30.57v-.53h0a1.22,1.22,0,0,1-1.11.62,1.14,1.14,0,0,1-.85-.31,1.1,1.1,0,0,1-.31-.81c0-.72.43-1.14,1.28-1.25l1-.13c0-.41-.22-.61-.66-.61a2.21,2.21,0,0,0-1.26.4v-.87a2.92,2.92,0,0,1,.65-.21,3.12,3.12,0,0,1,.76-.1,1.4,1.4,0,0,1,1.58,1.58Zm-1.07-1.51V121l-.67.09c-.38,0-.56.22-.56.5a.41.41,0,0,0,.13.32.51.51,0,0,0,.37.13.68.68,0,0,0,.53-.22A.84.84,0,0,0,30.58,121.24Z"/><path class="g" d="M38.44,122.75H37.3v-2.11c0-.54-.2-.81-.59-.81a.55.55,0,0,0-.46.24,1,1,0,0,0-.18.61v2.07H34.93v-2.14c0-.52-.2-.78-.58-.78a.56.56,0,0,0-.47.23,1,1,0,0,0-.18.63v2.06H32.56V119H33.7v.58h0a1.33,1.33,0,0,1,.49-.48,1.44,1.44,0,0,1,.7-.19,1.07,1.07,0,0,1,1.08.69,1.37,1.37,0,0,1,1.24-.69c.81,0,1.21.5,1.21,1.49Z"/><path class="g" d="M39.93,118.46a.69.69,0,0,1-.48-.17.58.58,0,0,1-.18-.43.54.54,0,0,1,.18-.42.73.73,0,0,1,.48-.16.72.72,0,0,1,.47.16.54.54,0,0,1,.18.42.55.55,0,0,1-.18.43A.68.68,0,0,1,39.93,118.46Zm.56,4.29H39.35V119h1.14Z"/><path class="g" d="M44.78,121.22H42.37c0,.54.37.81,1,.81a2,2,0,0,0,1.08-.29v.82a2.78,2.78,0,0,1-1.34.28A1.73,1.73,0,0,1,41.23,121a2,2,0,0,1,.54-1.46,1.76,1.76,0,0,1,1.31-.54,1.64,1.64,0,0,1,1.26.48,1.9,1.9,0,0,1,.44,1.31Zm-1.06-.7c0-.53-.21-.8-.64-.8a.63.63,0,0,0-.48.23,1.06,1.06,0,0,0-.24.57Z"/><path class="g" d="M49,122.75H47.9v-2.06c0-.57-.2-.86-.61-.86a.62.62,0,0,0-.49.23.85.85,0,0,0-.19.58v2.11H45.46V119h1.15v.59h0a1.31,1.31,0,0,1,1.19-.68Q49,119,49,120.48Z"/><path class="g" d="M52.19,122.71a1.72,1.72,0,0,1-.77.13c-.8,0-1.21-.42-1.21-1.26v-1.69h-.6V119h.6v-.8l1.14-.32V119h.84v.85h-.84v1.5c0,.38.16.57.46.57a.8.8,0,0,0,.38-.1Z"/><path class="g" d="M55.91,122.75H54.83v-.53h0a1.22,1.22,0,0,1-1.11.62,1.14,1.14,0,0,1-.85-.31,1.1,1.1,0,0,1-.31-.81c0-.72.43-1.14,1.28-1.25l1-.13c0-.41-.22-.61-.66-.61a2.21,2.21,0,0,0-1.26.4v-.87a2.92,2.92,0,0,1,.65-.21,3.12,3.12,0,0,1,.76-.1,1.4,1.4,0,0,1,1.58,1.58Zm-1.07-1.51V121l-.67.09c-.38,0-.56.22-.56.5a.41.41,0,0,0,.13.32.51.51,0,0,0,.37.13.68.68,0,0,0,.53-.22A.84.84,0,0,0,54.84,121.24Z"/><path class="g" d="M56.58,122.65v-.92a2.53,2.53,0,0,0,.56.25,2.07,2.07,0,0,0,.53.08,1.26,1.26,0,0,0,.48-.08.28.28,0,0,0,.17-.25.22.22,0,0,0-.08-.19.76.76,0,0,0-.2-.12,1.69,1.69,0,0,0-.27-.1l-.29-.1a1.76,1.76,0,0,1-.39-.18.88.88,0,0,1-.28-.22.66.66,0,0,1-.17-.29,1.16,1.16,0,0,1-.06-.4,1,1,0,0,1,.13-.53,1.16,1.16,0,0,1,.36-.37,1.5,1.5,0,0,1,.52-.21,3.08,3.08,0,0,1,.61-.07,4.38,4.38,0,0,1,.5,0,4.48,4.48,0,0,1,.5.11V120a2.43,2.43,0,0,0-.47-.19,2.05,2.05,0,0,0-.49-.06l-.21,0a.49.49,0,0,0-.17.06.29.29,0,0,0-.12.1.21.21,0,0,0-.05.13.29.29,0,0,0,.07.18.57.57,0,0,0,.17.12l.23.1.26.08a3.17,3.17,0,0,1,.41.17,1.54,1.54,0,0,1,.32.23.84.84,0,0,1,.2.29,1,1,0,0,1,.07.41,1.11,1.11,0,0,1-.14.56,1.37,1.37,0,0,1-.38.38,1.58,1.58,0,0,1-.55.21,2.73,2.73,0,0,1-.64.07A3.15,3.15,0,0,1,56.58,122.65Z"/></g><g class="ae"><path class="g" d="M62.84,122.21h0v2.24h-.59V119h.59v.66h0a1.39,1.39,0,0,1,1.28-.74,1.36,1.36,0,0,1,1.12.49,2.14,2.14,0,0,1,.4,1.34,2.32,2.32,0,0,1-.45,1.49,1.54,1.54,0,0,1-1.24.56A1.23,1.23,0,0,1,62.84,122.21Zm0-1.49v.52a1.12,1.12,0,0,0,.3.78,1,1,0,0,0,.76.32,1,1,0,0,0,.84-.42,1.82,1.82,0,0,0,.31-1.14,1.48,1.48,0,0,0-.28-1,1,1,0,0,0-.78-.35,1,1,0,0,0-.83.36A1.32,1.32,0,0,0,62.82,120.72Z"/><path class="g" d="M69.24,122.75h-.59v-.58h0a1.26,1.26,0,0,1-1.14.67,1.21,1.21,0,0,1-.87-.3,1,1,0,0,1-.31-.77c0-.7.41-1.1,1.22-1.21l1.12-.16c0-.63-.26-.94-.77-.94a1.85,1.85,0,0,0-1.21.45v-.61a2.33,2.33,0,0,1,1.26-.34c.87,0,1.31.46,1.31,1.38Zm-.59-1.87-.9.12a1.46,1.46,0,0,0-.62.2.59.59,0,0,0-.21.52.58.58,0,0,0,.19.45.77.77,0,0,0,.52.17,1,1,0,0,0,.73-.31,1.13,1.13,0,0,0,.29-.79Z"/><path class="g" d="M72.29,119.64a.71.71,0,0,0-.45-.11.74.74,0,0,0-.63.35,1.67,1.67,0,0,0-.26,1v1.89h-.59V119H71v.77h0a1.25,1.25,0,0,1,.38-.61.88.88,0,0,1,.59-.22,1,1,0,0,1,.35,0Z"/><path class="g" d="M75.59,122.75H75v-.58h0a1.26,1.26,0,0,1-1.14.67,1.21,1.21,0,0,1-.87-.3,1,1,0,0,1-.31-.77c0-.7.41-1.1,1.22-1.21L75,120.4c0-.63-.25-.94-.76-.94a1.84,1.84,0,0,0-1.21.45v-.61a2.29,2.29,0,0,1,1.26-.34c.87,0,1.31.46,1.31,1.38Zm-.6-1.87-.89.12a1.41,1.41,0,0,0-.62.2.59.59,0,0,0-.21.52.58.58,0,0,0,.19.45.77.77,0,0,0,.52.17,1,1,0,0,0,.73-.31,1.12,1.12,0,0,0,.28-.79Z"/></g><g class="ae"><path class="g" d="M13.7,132.63h-.6v-5.48h.6Z"/><path class="g" d="M16.45,132.72a1.72,1.72,0,0,1-1.31-.52,1.93,1.93,0,0,1-.49-1.38,2,2,0,0,1,.51-1.46,1.82,1.82,0,0,1,1.37-.52,1.67,1.67,0,0,1,1.3.51,2,2,0,0,1,.46,1.41,2,2,0,0,1-.5,1.42A1.73,1.73,0,0,1,16.45,132.72Zm0-3.38a1.12,1.12,0,0,0-.9.39,1.81,1.81,0,0,0,0,2.11,1.26,1.26,0,0,0,1.79,0,1.67,1.67,0,0,0,.3-1.06,1.71,1.71,0,0,0-.3-1.08A1.1,1.1,0,0,0,16.49,129.34Z"/><path class="g" d="M19,132.5v-.64a1.74,1.74,0,0,0,1.06.36c.53,0,.79-.18.79-.52a.49.49,0,0,0-.07-.25,1.07,1.07,0,0,0-.18-.19,1.71,1.71,0,0,0-.27-.14L20,131a4.43,4.43,0,0,1-.43-.2,1.07,1.07,0,0,1-.31-.22.77.77,0,0,1-.19-.29.84.84,0,0,1-.07-.37.88.88,0,0,1,.12-.46,1,1,0,0,1,.32-.34,1.37,1.37,0,0,1,.46-.2,1.81,1.81,0,0,1,.52-.07,2,2,0,0,1,.86.17v.6a1.65,1.65,0,0,0-.94-.27,1,1,0,0,0-.3,0,.8.8,0,0,0-.23.1.61.61,0,0,0-.15.17.46.46,0,0,0-.05.21.54.54,0,0,0,.05.24.55.55,0,0,0,.16.18,1.36,1.36,0,0,0,.24.13l.33.14a3.81,3.81,0,0,1,.45.19,1.72,1.72,0,0,1,.33.22,1,1,0,0,1,.21.29.94.94,0,0,1,.07.39,1,1,0,0,1-.12.48,1.12,1.12,0,0,1-.32.33,1.42,1.42,0,0,1-.47.2,2,2,0,0,1-.55.07A2.19,2.19,0,0,1,19,132.5Z"/><path class="g" d="M27.07,132.63h-.59v-.58h0a1.36,1.36,0,0,1-2,.38,1.06,1.06,0,0,1-.31-.78c0-.7.41-1.1,1.22-1.21l1.12-.16c0-.63-.26-.94-.77-.94a1.85,1.85,0,0,0-1.21.45v-.6a2.26,2.26,0,0,1,1.26-.35c.87,0,1.31.46,1.31,1.38Zm-.59-1.87-.9.12a1.61,1.61,0,0,0-.62.2.59.59,0,0,0-.21.52.58.58,0,0,0,.19.45.77.77,0,0,0,.52.17,1,1,0,0,0,.73-.31,1.12,1.12,0,0,0,.29-.78Z"/><path class="g" d="M28.78,132.63h-.59v-5.48h.59Z"/><path class="g" d="M33,132.63h-.6V132h0a1.23,1.23,0,0,1-1.14.68c-.89,0-1.33-.53-1.33-1.58v-2.21h.59v2.12q0,1.17.9,1.17a.9.9,0,0,0,.71-.32,1.2,1.2,0,0,0,.28-.84v-2.13H33Z"/><path class="g" d="M39.44,132.63h-.6V130.5a1.59,1.59,0,0,0-.19-.89.71.71,0,0,0-.63-.27.77.77,0,0,0-.65.35,1.29,1.29,0,0,0-.27.83v2.11h-.59v-2.2c0-.73-.28-1.09-.84-1.09a.79.79,0,0,0-.65.33,1.32,1.32,0,0,0-.25.85v2.11h-.59v-3.7h.59v.58h0a1.26,1.26,0,0,1,1.15-.67,1.09,1.09,0,0,1,.67.21,1,1,0,0,1,.38.56,1.32,1.32,0,0,1,1.23-.77c.82,0,1.23.5,1.23,1.51Z"/><path class="g" d="M43.63,132.63H43v-2.11c0-.79-.29-1.18-.86-1.18a1,1,0,0,0-.74.33,1.29,1.29,0,0,0-.29.85v2.11h-.59v-3.7h.59v.61h0a1.32,1.32,0,0,1,1.21-.7,1.12,1.12,0,0,1,.93.39,1.72,1.72,0,0,1,.32,1.14Z"/><path class="g" d="M46.3,132.72A1.74,1.74,0,0,1,45,132.2a1.93,1.93,0,0,1-.49-1.38,2,2,0,0,1,.51-1.46,1.83,1.83,0,0,1,1.38-.52,1.66,1.66,0,0,1,1.29.51,2.31,2.31,0,0,1,0,2.83A1.77,1.77,0,0,1,46.3,132.72Zm.05-3.38a1.12,1.12,0,0,0-.91.39,1.59,1.59,0,0,0-.33,1.07,1.53,1.53,0,0,0,.33,1,1.18,1.18,0,0,0,.91.38,1.11,1.11,0,0,0,.88-.37,1.61,1.61,0,0,0,.31-1.06,1.65,1.65,0,0,0-.31-1.08A1.08,1.08,0,0,0,46.35,129.34Z"/><path class="g" d="M48.87,132.5v-.64a1.75,1.75,0,0,0,1.07.36c.52,0,.78-.18.78-.52a.41.41,0,0,0-.07-.25.64.64,0,0,0-.18-.19,1.26,1.26,0,0,0-.26-.14l-.34-.13-.43-.2a1.23,1.23,0,0,1-.31-.22.91.91,0,0,1-.19-.29,1,1,0,0,1-.06-.37.88.88,0,0,1,.12-.46,1,1,0,0,1,.32-.34,1.32,1.32,0,0,1,.45-.2,1.88,1.88,0,0,1,.53-.07,2,2,0,0,1,.86.17v.6a1.67,1.67,0,0,0-.94-.27,1,1,0,0,0-.3,0,.7.7,0,0,0-.23.1.4.4,0,0,0-.15.17.36.36,0,0,0,0,.21.49.49,0,0,0,.2.42,1.17,1.17,0,0,0,.25.13l.33.14a3.63,3.63,0,0,1,.44.19A1.72,1.72,0,0,1,51,131a.83.83,0,0,1,.21.29.93.93,0,0,1,.08.39,1,1,0,0,1-.12.48,1,1,0,0,1-.33.33,1.37,1.37,0,0,1-.46.2,2,2,0,0,1-.56.07A2.19,2.19,0,0,1,48.87,132.5Z"/><path class="g" d="M52.45,132.71a.4.4,0,0,1-.29-.12.38.38,0,0,1-.12-.28.38.38,0,0,1,.12-.29.41.41,0,0,1,.58,0,.38.38,0,0,1,.12.29.38.38,0,0,1-.12.28A.4.4,0,0,1,52.45,132.71Z"/></g></g><path class="e" d="M204,190.2h27.8a.63.63,0,0,0,.42-.17l2.41-2.35a.62.62,0,0,1,.84,0l2.42,2.36a.65.65,0,0,0,.42.16h27.9a.6.6,0,0,1,.6.6h0V206a.6.6,0,0,1-.6.6H204a.6.6,0,0,1-.6-.6h0V190.8a.6.6,0,0,1,.6-.6Z"/><g class="ae"><g class="ae"><path class="g" d="M216.49,196.76h-1.83V198h1.68V199h-1.68v2h-1.17V195.8h3Z"/><path class="g" d="M219,201.08a2,2,0,0,1-1.46-.52,1.87,1.87,0,0,1-.53-1.4,1.89,1.89,0,0,1,.55-1.44,2.07,2.07,0,0,1,1.49-.52,2,2,0,0,1,1.45.52,1.82,1.82,0,0,1,.52,1.37,2,2,0,0,1-.54,1.46A2,2,0,0,1,219,201.08Zm0-3a.78.78,0,0,0-.63.28,1.24,1.24,0,0,0-.23.79c0,.71.29,1.07.87,1.07s.82-.37.82-1.1S219.58,198.07,219,198.07Z"/><path class="g" d="M227.65,201h-1.14v-2.11q0-.81-.6-.81a.52.52,0,0,0-.45.25,1,1,0,0,0-.18.6V201h-1.15v-2.13c0-.53-.19-.79-.58-.79a.58.58,0,0,0-.47.23,1.09,1.09,0,0,0-.17.63V201h-1.15v-3.7h1.15v.58h0a1.47,1.47,0,0,1,.5-.49,1.4,1.4,0,0,1,.7-.18,1.08,1.08,0,0,1,1.08.69,1.36,1.36,0,0,1,1.24-.69c.81,0,1.21.49,1.21,1.49Z"/><path class="g" d="M231.88,199.47h-2.41c0,.53.37.8,1,.8a1.94,1.94,0,0,0,1.08-.29v.83a2.9,2.9,0,0,1-1.34.27,1.87,1.87,0,0,1-1.39-.49,1.91,1.91,0,0,1-.5-1.39,2,2,0,0,1,.54-1.46,1.78,1.78,0,0,1,1.32-.54,1.62,1.62,0,0,1,1.25.48,1.81,1.81,0,0,1,.44,1.3Zm-1.06-.71c0-.53-.21-.79-.64-.79a.6.6,0,0,0-.48.23,1.06,1.06,0,0,0-.24.56Z"/><path class="g" d="M236.14,201H235v-2.06c0-.57-.2-.86-.61-.86a.62.62,0,0,0-.49.23.86.86,0,0,0-.19.58V201h-1.15v-3.7h1.15v.58h0a1.3,1.3,0,0,1,1.19-.67c.82,0,1.23.51,1.23,1.52Z"/><path class="g" d="M239.29,201a1.72,1.72,0,0,1-.77.13,1.09,1.09,0,0,1-1.21-1.25v-1.7h-.6v-.84h.6v-.8l1.14-.33v1.13h.84v.84h-.84v1.5c0,.38.16.58.46.58a.82.82,0,0,0,.38-.11Z"/><path class="g" d="M243,201h-1.08v-.53h0a1.2,1.2,0,0,1-1.11.62,1.18,1.18,0,0,1-.85-.3,1.13,1.13,0,0,1-.3-.82c0-.72.42-1.13,1.27-1.24l1-.14q0-.6-.66-.6a2.28,2.28,0,0,0-1.26.39v-.86a2.87,2.87,0,0,1,.65-.22,3.63,3.63,0,0,1,.76-.09,1.39,1.39,0,0,1,1.58,1.58Zm-1.07-1.5v-.25l-.67.09c-.38,0-.56.21-.56.5a.41.41,0,0,0,.13.32.55.55,0,0,0,.37.12.68.68,0,0,0,.53-.22A.83.83,0,0,0,241.94,199.49Z"/><path class="g" d="M247.5,201h-1.14v-2.06c0-.57-.21-.86-.62-.86a.62.62,0,0,0-.49.23.92.92,0,0,0-.19.58V201h-1.14v-3.7h1.14v.58h0a1.3,1.3,0,0,1,1.19-.67c.82,0,1.23.51,1.23,1.52Z"/><path class="g" d="M252,201h-1.15v-.51h0a1.28,1.28,0,0,1-1.15.6,1.41,1.41,0,0,1-1.12-.49,2,2,0,0,1-.42-1.37,2.22,2.22,0,0,1,.47-1.47,1.51,1.51,0,0,1,1.22-.55,1,1,0,0,1,1,.51h0v-2.2H252Zm-1.12-1.8v-.28a.88.88,0,0,0-.21-.6.71.71,0,0,0-.55-.24.68.68,0,0,0-.59.3,1.33,1.33,0,0,0-.22.82,1.16,1.16,0,0,0,.21.75.68.68,0,0,0,.57.27.69.69,0,0,0,.57-.28A1.21,1.21,0,0,0,250.91,199.19Z"/><path class="g" d="M254.76,201.08a2,2,0,0,1-1.46-.52,2.14,2.14,0,0,1,0-2.84,2.07,2.07,0,0,1,1.49-.52,1.93,1.93,0,0,1,1.44.52,1.83,1.83,0,0,1,.53,1.37,2,2,0,0,1-.54,1.46A2,2,0,0,1,254.76,201.08Zm0-3a.78.78,0,0,0-.63.28,1.24,1.24,0,0,0-.23.79c0,.71.29,1.07.86,1.07s.82-.37.82-1.1S255.34,198.07,254.79,198.07Z"/></g></g><path class="af" d="M244.35,219.23h15.87a.94.94,0,0,0,.69-.29l4-3.9a1,1,0,0,1,1.39,0l4,3.91a1,1,0,0,0,.69.28l101.19-.29a1,1,0,0,1,1,1h0v25.24a1,1,0,0,1-1,1h0l-127.88.28a1,1,0,0,1-1-1h0V220.23a1,1,0,0,1,1-1Z"/><path class="af" d="M224.08,219.23H208.22a1,1,0,0,1-.7-.29l-4-3.9a1,1,0,0,0-1.39,0l-4,3.91a1,1,0,0,1-.69.28H110a1,1,0,0,0-1,1h0v25.23a1,1,0,0,0,1,1H224.08a1,1,0,0,0,1-1h0V220.23a1,1,0,0,0-1-1Z"/><g class="ae"><g class="ae"><path class="ag" d="M125.55,235.93H122.8v-5.19h2.63v.55h-2V233h1.88v.55H123.4v1.81h2.15Z"/><path class="ag" d="M127.06,235.93h-.59v-5.48h.59Z"/><path class="ag" d="M132.94,235.93h-.59v-.58h0a1.36,1.36,0,0,1-2,.38A1,1,0,0,1,130,235c0-.69.4-1.1,1.22-1.21l1.11-.16c0-.63-.25-.94-.76-.94a1.8,1.8,0,0,0-1.21.46v-.61a2.29,2.29,0,0,1,1.26-.35c.87,0,1.3.46,1.3,1.38Zm-.59-1.87-.89.12a1.45,1.45,0,0,0-.63.21.58.58,0,0,0-.21.52.57.57,0,0,0,.2.44.77.77,0,0,0,.51.17.93.93,0,0,0,.73-.31,1.12,1.12,0,0,0,.29-.78Z"/><path class="ag" d="M134.67,235.4h0v2.24h-.6v-5.41h.6v.65h0a1.41,1.41,0,0,1,1.28-.74,1.37,1.37,0,0,1,1.12.5,2,2,0,0,1,.4,1.33,2.3,2.3,0,0,1-.45,1.49,1.52,1.52,0,0,1-1.24.56A1.25,1.25,0,0,1,134.67,235.4Zm0-1.5v.52a1.12,1.12,0,0,0,.29.78,1.08,1.08,0,0,0,1.61-.09,1.94,1.94,0,0,0,.3-1.15,1.49,1.49,0,0,0-.28-1,1,1,0,0,0-.78-.35,1.05,1.05,0,0,0-.83.36A1.31,1.31,0,0,0,134.66,233.9Z"/><path class="ag" d="M140.35,232.83a.71.71,0,0,0-.45-.12.75.75,0,0,0-.63.36,1.64,1.64,0,0,0-.26,1v1.89h-.59v-3.7H139V233h0a1.3,1.3,0,0,1,.38-.61.94.94,0,0,1,.59-.22,1,1,0,0,1,.35.05Z"/><path class="ag" d="M144,234.23h-2.61a1.38,1.38,0,0,0,.33,1,1.12,1.12,0,0,0,.88.34,1.86,1.86,0,0,0,1.15-.41v.56a2.21,2.21,0,0,1-1.29.35,1.56,1.56,0,0,1-1.24-.51,2,2,0,0,1-.45-1.42,2.08,2.08,0,0,1,.49-1.41,1.59,1.59,0,0,1,1.22-.54,1.43,1.43,0,0,1,1.13.47,2,2,0,0,1,.39,1.31Zm-.6-.5a1.25,1.25,0,0,0-.25-.8.85.85,0,0,0-.68-.29.94.94,0,0,0-.71.3,1.36,1.36,0,0,0-.37.79Z"/><path class="ag" d="M148,235.93h-.6v-2.11c0-.79-.28-1.18-.86-1.18a.93.93,0,0,0-.73.33,1.24,1.24,0,0,0-.29.85v2.11h-.6v-3.7h.6v.61h0a1.33,1.33,0,0,1,1.22-.7,1.15,1.15,0,0,1,.93.39,1.78,1.78,0,0,1,.32,1.14Z"/><path class="ag" d="M152.23,235.93h-.6v-.63h0a1.37,1.37,0,0,1-1.27.72,1.39,1.39,0,0,1-1.12-.5,2,2,0,0,1-.42-1.35,2.28,2.28,0,0,1,.46-1.48,1.56,1.56,0,0,1,1.24-.55,1.18,1.18,0,0,1,1.11.6h0v-2.29h.6Zm-.6-1.67v-.55a1,1,0,0,0-.29-.76,1,1,0,0,0-.76-.31,1,1,0,0,0-.85.4,1.71,1.71,0,0,0-.31,1.1,1.58,1.58,0,0,0,.3,1,1,1,0,0,0,.8.37,1,1,0,0,0,.8-.36A1.31,1.31,0,0,0,151.63,234.26Z"/><path class="ag" d="M153.73,231.29a.4.4,0,0,1-.27-.11.39.39,0,0,1-.11-.28.37.37,0,0,1,.11-.27.36.36,0,0,1,.27-.11.37.37,0,0,1,.28.11.39.39,0,0,1,0,.54A.38.38,0,0,1,153.73,231.29Zm.29,4.64h-.59v-3.7H154Z"/><path class="ag" d="M157.81,232.4l-2.2,3h2.18v.5h-3v-.18l2.2-3h-2v-.5h2.86Z"/><path class="ag" d="M161.23,235.93h-.59v-.58h0a1.36,1.36,0,0,1-2,.38,1,1,0,0,1-.31-.78c0-.69.41-1.1,1.22-1.21l1.12-.16c0-.63-.26-.94-.77-.94a1.81,1.81,0,0,0-1.21.46v-.61a2.34,2.34,0,0,1,1.26-.35c.87,0,1.31.46,1.31,1.38Zm-.59-1.87-.9.12a1.45,1.45,0,0,0-.62.21.58.58,0,0,0-.21.52.56.56,0,0,0,.19.44.77.77,0,0,0,.52.17,1,1,0,0,0,.73-.31,1.12,1.12,0,0,0,.29-.78Z"/><path class="ag" d="M162.94,235.78a2.29,2.29,0,0,1-.37,1.4,1.22,1.22,0,0,1-1,.5,1.07,1.07,0,0,1-.49-.12V237a1,1,0,0,0,.51.16q.81,0,.81-1.29v-3.65h.59Zm-.29-4.49a.37.37,0,0,1-.27-.11.36.36,0,0,1-.11-.28.38.38,0,0,1,.38-.38.38.38,0,0,1,.28.65A.38.38,0,0,1,162.65,231.29Z"/><path class="ag" d="M167.12,234.23H164.5a1.34,1.34,0,0,0,.34,1,1.12,1.12,0,0,0,.87.34,1.84,1.84,0,0,0,1.15-.41v.56a2.17,2.17,0,0,1-1.29.35,1.56,1.56,0,0,1-1.23-.51,2.37,2.37,0,0,1,0-2.83,1.58,1.58,0,0,1,1.22-.54,1.39,1.39,0,0,1,1.12.47,1.94,1.94,0,0,1,.4,1.31Zm-.61-.5a1.15,1.15,0,0,0-.25-.8.84.84,0,0,0-.67-.29,1,1,0,0,0-.72.3,1.42,1.42,0,0,0-.36.79Z"/><path class="ag" d="M172.57,235.76a1.92,1.92,0,0,1-1,.26,1.65,1.65,0,0,1-1.28-.52,1.88,1.88,0,0,1-.49-1.33,2.05,2.05,0,0,1,.53-1.47,1.84,1.84,0,0,1,1.4-.56,1.94,1.94,0,0,1,.86.18v.61a1.54,1.54,0,0,0-.88-.29,1.19,1.19,0,0,0-.93.41,1.72,1.72,0,0,0,0,2.09,1.2,1.2,0,0,0,.92.38,1.51,1.51,0,0,0,.91-.32Z"/><path class="ag" d="M175,236a1.69,1.69,0,0,1-1.31-.52,1.91,1.91,0,0,1-.49-1.38,2,2,0,0,1,.51-1.45,1.84,1.84,0,0,1,1.38-.53,1.66,1.66,0,0,1,1.29.51,2,2,0,0,1,.46,1.42,2,2,0,0,1-.5,1.42A1.76,1.76,0,0,1,175,236Zm0-3.38a1.12,1.12,0,0,0-.9.39,1.61,1.61,0,0,0-.34,1.07,1.53,1.53,0,0,0,.34,1,1.17,1.17,0,0,0,.9.38,1.09,1.09,0,0,0,.89-.37,2,2,0,0,0,0-2.13A1.06,1.06,0,0,0,175.06,232.64Z"/><path class="ag" d="M178.41,235.93h-.6v-5.48h.6Z"/><path class="ag" d="M182.26,235.93h-.59v-.58h0a1.24,1.24,0,0,1-1.14.67,1.21,1.21,0,0,1-.86-.29,1,1,0,0,1-.32-.78c0-.69.41-1.1,1.23-1.21l1.11-.16c0-.63-.26-.94-.77-.94a1.81,1.81,0,0,0-1.21.46v-.61a2.34,2.34,0,0,1,1.26-.35c.87,0,1.31.46,1.31,1.38Zm-.59-1.87-.9.12a1.45,1.45,0,0,0-.62.21.58.58,0,0,0-.21.52.6.6,0,0,0,.19.44.77.77,0,0,0,.52.17,1,1,0,0,0,.73-.31,1.12,1.12,0,0,0,.29-.78Z"/><path class="ag" d="M184,235.4h0v.53h-.59v-5.48H184v2.43h0a1.41,1.41,0,0,1,1.28-.74,1.36,1.36,0,0,1,1.11.5,2,2,0,0,1,.41,1.33,2.3,2.3,0,0,1-.45,1.49,1.54,1.54,0,0,1-1.24.56A1.22,1.22,0,0,1,184,235.4Zm0-1.5v.52a1.09,1.09,0,0,0,.3.78,1,1,0,0,0,.76.32,1,1,0,0,0,.84-.41,1.87,1.87,0,0,0,.31-1.15,1.5,1.5,0,0,0-.29-1,1,1,0,0,0-.77-.35,1,1,0,0,0-.83.36A1.32,1.32,0,0,0,184,233.9Z"/><path class="ag" d="M189.28,236a1.72,1.72,0,0,1-1.31-.52,2.25,2.25,0,0,1,0-2.83,1.84,1.84,0,0,1,1.38-.53,1.69,1.69,0,0,1,1.3.51,2.07,2.07,0,0,1,.46,1.42,2,2,0,0,1-.5,1.42A1.77,1.77,0,0,1,189.28,236Zm.05-3.38a1.14,1.14,0,0,0-.91.39,1.61,1.61,0,0,0-.33,1.07,1.48,1.48,0,0,0,.34,1,1.14,1.14,0,0,0,.9.38,1.07,1.07,0,0,0,.88-.37,2,2,0,0,0,0-2.13A1,1,0,0,0,189.33,232.64Z"/><path class="ag" d="M194,232.83a.71.71,0,0,0-.45-.12.75.75,0,0,0-.63.36,1.64,1.64,0,0,0-.26,1v1.89h-.59v-3.7h.59V233h0a1.3,1.3,0,0,1,.38-.61.94.94,0,0,1,.59-.22,1,1,0,0,1,.35.05Z"/><path class="ag" d="M197.31,235.93h-.6v-.58h0a1.36,1.36,0,0,1-2,.38,1,1,0,0,1-.31-.78c0-.69.41-1.1,1.22-1.21l1.11-.16c0-.63-.25-.94-.76-.94a1.8,1.8,0,0,0-1.21.46v-.61a2.34,2.34,0,0,1,1.26-.35c.87,0,1.31.46,1.31,1.38Zm-.6-1.87-.89.12a1.45,1.45,0,0,0-.62.21.58.58,0,0,0-.21.52.56.56,0,0,0,.19.44.77.77,0,0,0,.52.17,1,1,0,0,0,.73-.31,1.12,1.12,0,0,0,.28-.78Z"/><path class="ag" d="M200.14,235.9a1.22,1.22,0,0,1-.55.11c-.65,0-1-.36-1-1.08v-2.2H198v-.5h.64v-.91l.59-.19v1.1h.93v.5h-.93v2.09a.81.81,0,0,0,.13.53.48.48,0,0,0,.42.16.6.6,0,0,0,.38-.12Z"/><path class="ag" d="M201.24,231.29a.39.39,0,0,1-.27-.11.36.36,0,0,1-.11-.28.33.33,0,0,1,.11-.27.35.35,0,0,1,.27-.11.38.38,0,0,1,.28.65A.38.38,0,0,1,201.24,231.29Zm.29,4.64h-.59v-3.7h.59Z"/><path class="ag" d="M205.64,232.23l-1.47,3.7h-.58l-1.41-3.7h.65l.94,2.69a2.07,2.07,0,0,1,.13.52h0a2.4,2.4,0,0,1,.11-.51l1-2.7Z"/><path class="ag" d="M207.83,236a1.7,1.7,0,0,1-1.31-.52,1.91,1.91,0,0,1-.49-1.38,2,2,0,0,1,.51-1.45,1.84,1.84,0,0,1,1.38-.53,1.66,1.66,0,0,1,1.29.51,2.32,2.32,0,0,1,0,2.84A1.8,1.8,0,0,1,207.83,236Zm0-3.38a1.12,1.12,0,0,0-.9.39,1.61,1.61,0,0,0-.33,1.07,1.53,1.53,0,0,0,.33,1,1.17,1.17,0,0,0,.9.38,1.09,1.09,0,0,0,.89-.37,2,2,0,0,0,0-2.13A1.06,1.06,0,0,0,207.87,232.64Z"/><path class="ag" d="M210.83,236a.36.36,0,0,1-.28-.12.38.38,0,0,1-.12-.28.4.4,0,0,1,.12-.29.36.36,0,0,1,.28-.12.41.41,0,0,1,.41.41.38.38,0,0,1-.12.28A.4.4,0,0,1,210.83,236Z"/></g></g><g class="ae"><g class="ae"><path class="ag" d="M257.35,235.93h-2.69v-5.19h.6v4.64h2.09Z"/><path class="ag" d="M260.72,235.93h-.59v-.58h0a1.36,1.36,0,0,1-2,.38,1,1,0,0,1-.31-.78c0-.69.41-1.1,1.22-1.21l1.12-.16c0-.63-.26-.94-.77-.94a1.81,1.81,0,0,0-1.21.46v-.61a2.34,2.34,0,0,1,1.26-.35c.87,0,1.31.46,1.31,1.38Zm-.59-1.87-.9.12a1.45,1.45,0,0,0-.62.21.58.58,0,0,0-.21.52.56.56,0,0,0,.19.44.77.77,0,0,0,.52.17,1,1,0,0,0,.73-.31,1.12,1.12,0,0,0,.29-.78Z"/><path class="ag" d="M266.52,235.93h-.59v-.58h0a1.36,1.36,0,0,1-2,.38,1.06,1.06,0,0,1-.31-.78c0-.69.41-1.1,1.22-1.21l1.12-.16c0-.63-.26-.94-.77-.94a1.81,1.81,0,0,0-1.21.46v-.61a2.34,2.34,0,0,1,1.26-.35c.87,0,1.31.46,1.31,1.38Zm-.59-1.87-.9.12a1.45,1.45,0,0,0-.62.21.58.58,0,0,0-.21.52.56.56,0,0,0,.19.44.77.77,0,0,0,.52.17,1,1,0,0,0,.73-.31,1.12,1.12,0,0,0,.29-.78Z"/><path class="ag" d="M268.25,235.4h0v2.24h-.59v-5.41h.59v.65h0a1.41,1.41,0,0,1,1.28-.74,1.33,1.33,0,0,1,1.11.5,2,2,0,0,1,.41,1.33,2.3,2.3,0,0,1-.45,1.49,1.54,1.54,0,0,1-1.24.56A1.25,1.25,0,0,1,268.25,235.4Zm0-1.5v.52a1.09,1.09,0,0,0,.3.78,1,1,0,0,0,.76.32,1,1,0,0,0,.84-.41,1.87,1.87,0,0,0,.31-1.15,1.5,1.5,0,0,0-.29-1,1,1,0,0,0-.77-.35,1,1,0,0,0-.83.36A1.32,1.32,0,0,0,268.23,233.9Z"/><path class="ag" d="M273.93,232.83a.8.8,0,0,0-1.09.24,1.64,1.64,0,0,0-.25,1v1.89H272v-3.7h.6V233h0a1.4,1.4,0,0,1,.39-.61.91.91,0,0,1,.58-.22,1.06,1.06,0,0,1,.36.05Z"/><path class="ag" d="M276.12,236a1.7,1.7,0,0,1-1.31-.52,1.91,1.91,0,0,1-.49-1.38,2,2,0,0,1,.51-1.45,1.84,1.84,0,0,1,1.38-.53,1.66,1.66,0,0,1,1.29.51,2,2,0,0,1,.47,1.42,2,2,0,0,1-.51,1.42A1.76,1.76,0,0,1,276.12,236Zm0-3.38a1.12,1.12,0,0,0-.9.39,1.61,1.61,0,0,0-.33,1.07,1.53,1.53,0,0,0,.33,1,1.17,1.17,0,0,0,.9.38,1.09,1.09,0,0,0,.89-.37,2,2,0,0,0,0-2.13A1.06,1.06,0,0,0,276.16,232.64Z"/><path class="ag" d="M279.52,235.4h0v2.24h-.6v-5.41h.6v.65h0a1.41,1.41,0,0,1,1.28-.74,1.37,1.37,0,0,1,1.12.5,2,2,0,0,1,.4,1.33,2.3,2.3,0,0,1-.45,1.49,1.51,1.51,0,0,1-1.24.56A1.25,1.25,0,0,1,279.52,235.4Zm0-1.5v.52a1.09,1.09,0,0,0,.3.78,1,1,0,0,0,.75.32,1,1,0,0,0,.85-.41,1.94,1.94,0,0,0,.3-1.15,1.49,1.49,0,0,0-.28-1,1,1,0,0,0-.78-.35,1.05,1.05,0,0,0-.83.36A1.31,1.31,0,0,0,279.51,233.9Z"/><path class="ag" d="M283.57,231.29a.4.4,0,0,1-.27-.11.39.39,0,0,1-.11-.28.37.37,0,0,1,.11-.27.36.36,0,0,1,.27-.11.36.36,0,0,1,.28.11.36.36,0,0,1,0,.54A.36.36,0,0,1,283.57,231.29Zm.29,4.64h-.59v-3.7h.59Z"/><path class="ag" d="M287.72,235.93h-.59v-.58h0a1.36,1.36,0,0,1-2,.38,1,1,0,0,1-.31-.78c0-.69.41-1.1,1.22-1.21l1.12-.16c0-.63-.26-.94-.77-.94a1.81,1.81,0,0,0-1.21.46v-.61a2.34,2.34,0,0,1,1.26-.35c.87,0,1.31.46,1.31,1.38Zm-.59-1.87-.9.12a1.45,1.45,0,0,0-.62.21.58.58,0,0,0-.21.52.56.56,0,0,0,.19.44.77.77,0,0,0,.52.17,1,1,0,0,0,.73-.31,1.12,1.12,0,0,0,.29-.78Z"/><path class="ag" d="M291.36,235.76a1.92,1.92,0,0,1-1,.26,1.65,1.65,0,0,1-1.28-.52,1.88,1.88,0,0,1-.49-1.33,2.05,2.05,0,0,1,.53-1.47,1.83,1.83,0,0,1,1.4-.56,2,2,0,0,1,.86.18v.61a1.54,1.54,0,0,0-.88-.29,1.23,1.23,0,0,0-.94.41,1.54,1.54,0,0,0-.36,1.07,1.45,1.45,0,0,0,.34,1,1.2,1.2,0,0,0,.92.38,1.51,1.51,0,0,0,.91-.32Z"/><path class="ag" d="M292.56,231.29a.4.4,0,0,1-.27-.11.39.39,0,0,1-.11-.28.37.37,0,0,1,.11-.27.36.36,0,0,1,.27-.11.37.37,0,0,1,.28.11.39.39,0,0,1,0,.54A.38.38,0,0,1,292.56,231.29Zm.29,4.64h-.59v-3.7h.59Z"/><path class="ag" d="M295.6,236a1.7,1.7,0,0,1-1.31-.52,1.91,1.91,0,0,1-.49-1.38,2,2,0,0,1,.51-1.45,1.84,1.84,0,0,1,1.38-.53,1.66,1.66,0,0,1,1.29.51,2.32,2.32,0,0,1,0,2.84A1.78,1.78,0,0,1,295.6,236Zm0-3.38a1.12,1.12,0,0,0-.91.39,1.61,1.61,0,0,0-.33,1.07,1.48,1.48,0,0,0,.34,1,1.14,1.14,0,0,0,.9.38,1.08,1.08,0,0,0,.88-.37,2,2,0,0,0,0-2.13A1.06,1.06,0,0,0,295.65,232.64Zm.86-2.3-.94,1.19h-.46l.8-1.19Z"/><path class="ag" d="M301.47,235.93h-.59v-2.11c0-.79-.29-1.18-.86-1.18a1,1,0,0,0-.74.33,1.29,1.29,0,0,0-.29.85v2.11h-.59v-3.7H299v.61h0a1.31,1.31,0,0,1,1.21-.7,1.12,1.12,0,0,1,.93.39,1.72,1.72,0,0,1,.32,1.14Z"/><path class="ag" d="M307.78,235.93h-.59v-.63h0a1.49,1.49,0,0,1-2.39.22,2,2,0,0,1-.42-1.35,2.22,2.22,0,0,1,.46-1.48,1.56,1.56,0,0,1,1.24-.55,1.2,1.2,0,0,1,1.11.6h0v-2.29h.59Zm-.59-1.67v-.55a1.06,1.06,0,0,0-.3-.76,1,1,0,0,0-.75-.31,1,1,0,0,0-.85.4,1.71,1.71,0,0,0-.31,1.1,1.64,1.64,0,0,0,.29,1,1,1,0,0,0,.81.37,1,1,0,0,0,.8-.36A1.31,1.31,0,0,0,307.19,234.26Z"/><path class="ag" d="M312,234.23h-2.61a1.38,1.38,0,0,0,.33,1,1.12,1.12,0,0,0,.88.34,1.86,1.86,0,0,0,1.15-.41v.56a2.21,2.21,0,0,1-1.29.35,1.56,1.56,0,0,1-1.24-.51,2,2,0,0,1-.45-1.42,2.08,2.08,0,0,1,.49-1.41,1.59,1.59,0,0,1,1.22-.54,1.41,1.41,0,0,1,1.13.47,2,2,0,0,1,.39,1.31Zm-.6-.5a1.25,1.25,0,0,0-.25-.8.85.85,0,0,0-.68-.29.94.94,0,0,0-.71.3,1.36,1.36,0,0,0-.37.79Z"/><path class="ag" d="M313.45,235.93h-.59v-5.48h.59Z"/><path class="ag" d="M319.21,235.76a1.92,1.92,0,0,1-1,.26,1.65,1.65,0,0,1-1.28-.52,1.88,1.88,0,0,1-.49-1.33,2.05,2.05,0,0,1,.53-1.47,1.83,1.83,0,0,1,1.4-.56,2,2,0,0,1,.86.18v.61a1.54,1.54,0,0,0-.88-.29,1.23,1.23,0,0,0-.94.41,1.54,1.54,0,0,0-.36,1.07,1.45,1.45,0,0,0,.34,1,1.2,1.2,0,0,0,.92.38,1.51,1.51,0,0,0,.91-.32Z"/><path class="ag" d="M321.66,236a1.69,1.69,0,0,1-1.31-.52,1.91,1.91,0,0,1-.49-1.38,2,2,0,0,1,.51-1.45,1.84,1.84,0,0,1,1.38-.53,1.66,1.66,0,0,1,1.29.51,2,2,0,0,1,.46,1.42,2,2,0,0,1-.5,1.42A1.76,1.76,0,0,1,321.66,236Zm0-3.38a1.12,1.12,0,0,0-.9.39,1.61,1.61,0,0,0-.34,1.07,1.53,1.53,0,0,0,.34,1,1.17,1.17,0,0,0,.9.38,1.09,1.09,0,0,0,.89-.37,2,2,0,0,0,0-2.13A1.06,1.06,0,0,0,321.7,232.64Z"/><path class="ag" d="M327.53,235.93h-.6v-2.11c0-.79-.28-1.18-.86-1.18a.93.93,0,0,0-.73.33,1.24,1.24,0,0,0-.29.85v2.11h-.6v-3.7h.6v.61h0a1.33,1.33,0,0,1,1.22-.7,1.15,1.15,0,0,1,.93.39,1.78,1.78,0,0,1,.32,1.14Z"/><path class="ag" d="M330.19,236a1.72,1.72,0,0,1-1.31-.52,2.25,2.25,0,0,1,0-2.83,1.84,1.84,0,0,1,1.38-.53,1.69,1.69,0,0,1,1.3.51,2.34,2.34,0,0,1,0,2.84A1.77,1.77,0,0,1,330.19,236Zm.05-3.38a1.14,1.14,0,0,0-.91.39,1.61,1.61,0,0,0-.33,1.07,1.48,1.48,0,0,0,.34,1,1.14,1.14,0,0,0,.9.38,1.07,1.07,0,0,0,.88-.37,2,2,0,0,0,0-2.13A1,1,0,0,0,330.24,232.64Z"/><path class="ag" d="M335.51,235.76a1.92,1.92,0,0,1-1,.26,1.67,1.67,0,0,1-1.28-.52,1.87,1.87,0,0,1-.48-1.33,2,2,0,0,1,.52-1.47,1.84,1.84,0,0,1,1.4-.56,1.94,1.94,0,0,1,.86.18v.61a1.52,1.52,0,0,0-.88-.29,1.19,1.19,0,0,0-.93.41,1.72,1.72,0,0,0,0,2.09,1.2,1.2,0,0,0,.92.38,1.48,1.48,0,0,0,.91-.32Z"/><path class="ag" d="M336.72,231.29a.41.41,0,0,1-.28-.11.39.39,0,0,1-.11-.28.38.38,0,0,1,.39-.38.33.33,0,0,1,.27.11.39.39,0,0,1-.27.66Zm.29,4.64h-.6v-3.7h.6Z"/><path class="ag" d="M343.47,235.93h-.6V233.8a1.53,1.53,0,0,0-.19-.88.68.68,0,0,0-.63-.28.77.77,0,0,0-.65.35,1.31,1.31,0,0,0-.27.83v2.11h-.59v-2.2c0-.73-.28-1.09-.84-1.09a.79.79,0,0,0-.65.33,1.34,1.34,0,0,0-.25.85v2.11h-.59v-3.7h.59v.58h0a1.27,1.27,0,0,1,1.16-.67,1.08,1.08,0,0,1,.66.21,1,1,0,0,1,.38.56,1.34,1.34,0,0,1,1.24-.77c.81,0,1.22.5,1.22,1.51Z"/><path class="ag" d="M344.89,231.29a.4.4,0,0,1-.27-.11.39.39,0,0,1-.11-.28.37.37,0,0,1,.11-.27.36.36,0,0,1,.27-.11.36.36,0,0,1,.28.11.36.36,0,0,1,0,.54A.36.36,0,0,1,344.89,231.29Zm.29,4.64h-.59v-3.7h.59Z"/><path class="ag" d="M349.36,234.23h-2.61a1.38,1.38,0,0,0,.33,1,1.12,1.12,0,0,0,.88.34,1.86,1.86,0,0,0,1.15-.41v.56a2.22,2.22,0,0,1-1.3.35,1.56,1.56,0,0,1-1.23-.51,2,2,0,0,1-.45-1.42,2.08,2.08,0,0,1,.49-1.41,1.58,1.58,0,0,1,1.22-.54,1.43,1.43,0,0,1,1.13.47,2,2,0,0,1,.39,1.31Zm-.6-.5a1.25,1.25,0,0,0-.25-.8.85.85,0,0,0-.68-.29.94.94,0,0,0-.71.3,1.36,1.36,0,0,0-.37.79Z"/><path class="ag" d="M353.34,235.93h-.6v-2.11c0-.79-.28-1.18-.86-1.18a.93.93,0,0,0-.73.33,1.24,1.24,0,0,0-.3.85v2.11h-.59v-3.7h.59v.61h0a1.33,1.33,0,0,1,1.22-.7,1.12,1.12,0,0,1,.92.39,1.72,1.72,0,0,1,.33,1.14Z"/><path class="ag" d="M356.17,235.9a1.22,1.22,0,0,1-.55.11c-.65,0-1-.36-1-1.08v-2.2H354v-.5h.64v-.91l.59-.19v1.1h.93v.5h-.93v2.09a.81.81,0,0,0,.13.53.48.48,0,0,0,.42.16.6.6,0,0,0,.38-.12Z"/><path class="ag" d="M358.51,236a1.72,1.72,0,0,1-1.31-.52,2.25,2.25,0,0,1,0-2.83,1.84,1.84,0,0,1,1.38-.53,1.68,1.68,0,0,1,1.3.51,2.34,2.34,0,0,1,0,2.84A1.77,1.77,0,0,1,358.51,236Zm.05-3.38a1.15,1.15,0,0,0-.91.39,1.61,1.61,0,0,0-.33,1.07,1.48,1.48,0,0,0,.34,1,1.14,1.14,0,0,0,.9.38,1.07,1.07,0,0,0,.88-.37,2,2,0,0,0,0-2.13A1,1,0,0,0,358.56,232.64Z"/><path class="ag" d="M361.51,236a.41.41,0,0,1-.4-.4.4.4,0,0,1,.12-.29.38.38,0,0,1,.28-.12.38.38,0,0,1,.29.12.4.4,0,0,1,.12.29.38.38,0,0,1-.12.28A.38.38,0,0,1,361.51,236Z"/></g></g></svg>