<svg xmlns="http://www.w3.org/2000/svg" xmlns:xlink="http://www.w3.org/1999/xlink" viewBox="0 0 250 200"><defs><style>.a{fill:#f8f8f8;}.b{fill:none;stroke:#ffa900;stroke-width:5.32px;}.c{isolation:isolate;}.d{fill:#707070;}.e{fill:#466eb6;}.f{fill:#fff;}.g{fill:url(#a);}.h{fill:url(#b);}.i{fill:url(#c);}.j{fill:#7d97f4;}.k{fill:url(#d);}.l{fill:#00d1e3;}</style><linearGradient id="a" x1="-52.4" y1="1058.53" x2="-42.37" y2="1071" gradientTransform="matrix(4.71, 0, 0, -4.71, 375.45, 5070.79)" gradientUnits="userSpaceOnUse"><stop offset="0" stop-color="#fe7062"/><stop offset="1" stop-color="#ff928e"/></linearGradient><linearGradient id="b" x1="-51.28" y1="1059.79" x2="-41.25" y2="1072.25" gradientTransform="matrix(4.71, 0, 0, -4.71, 375.45, 5080.88)" gradientUnits="userSpaceOnUse"><stop offset="0" stop-color="#4042e2"/><stop offset="1" stop-color="#4f52ff"/></linearGradient><linearGradient id="c" x1="-21.67" y1="1154.04" x2="-22.27" y2="1151.87" gradientTransform="matrix(4.7, -0.29, -0.29, -4.7, 680.41, 5066.97)" gradientUnits="userSpaceOnUse"><stop offset="0" stop-color="#e1473d"/><stop offset="1" stop-color="#e9605a"/></linearGradient><linearGradient id="d" x1="-17.46" y1="1038.27" x2="-18.58" y2="1036.42" gradientTransform="matrix(12.56, 0, 0, -13.3, 323.64, 13879.08)" gradientUnits="userSpaceOnUse"><stop offset="0" stop-color="#09005d"/><stop offset="1" stop-color="#1a0f91"/></linearGradient></defs><rect class="a" y="85.11" width="250" height="114.89" rx="12.77"/><circle class="a" cx="124.47" cy="76.6" r="54.26"/><circle class="b" cx="124.47" cy="76.6" r="51.6"/><g class="c"><g class="c"><path class="d" d="M82,156.87l-4.62,13.41H73.92l-4.56-13.41h3.25l2.8,9.33a6.48,6.48,0,0,1,.27,1.34h0a8.13,8.13,0,0,1,.29-1.38l2.78-9.29Z"/><path class="d" d="M84.78,159.19a1.73,1.73,0,0,1-1.23-.45,1.42,1.42,0,0,1-.48-1.09,1.37,1.37,0,0,1,.48-1.08,2,2,0,0,1,2.46,0,1.39,1.39,0,0,1,.47,1.08,1.46,1.46,0,0,1-.47,1.11A1.81,1.81,0,0,1,84.78,159.19Zm1.45,11.09h-3V160.7h3Z"/><path class="d" d="M98.09,170.28h-3V169h0a3.33,3.33,0,0,1-3,1.55,3.63,3.63,0,0,1-2.89-1.27,5.28,5.28,0,0,1-1.09-3.54,5.66,5.66,0,0,1,1.21-3.8,3.9,3.9,0,0,1,3.16-1.43,2.69,2.69,0,0,1,2.58,1.33h0v-5.7h3Zm-2.9-4.66v-.72a2.27,2.27,0,0,0-.54-1.55,1.92,1.92,0,0,0-3,.15,3.65,3.65,0,0,0-.55,2.12,3,3,0,0,0,.54,1.94,1.74,1.74,0,0,0,1.47.69,1.79,1.79,0,0,0,1.47-.72A3.05,3.05,0,0,0,95.19,165.62Z"/><path class="d" d="M109.18,166.33h-6.25c.1,1.39,1,2.08,2.63,2.08a5.14,5.14,0,0,0,2.78-.74v2.13a7.37,7.37,0,0,1-3.45.71,4.46,4.46,0,0,1-4.88-4.87,5.14,5.14,0,0,1,1.38-3.78,4.6,4.6,0,0,1,3.4-1.39,4.17,4.17,0,0,1,3.24,1.24,4.78,4.78,0,0,1,1.15,3.38Zm-2.74-1.81c0-1.38-.56-2.06-1.66-2.06a1.58,1.58,0,0,0-1.23.59,2.68,2.68,0,0,0-.64,1.47Z"/><path class="d" d="M115.5,170.51a5.14,5.14,0,0,1-3.76-1.34,5.55,5.55,0,0,1,.05-7.36,5.39,5.39,0,0,1,3.84-1.34,5.1,5.1,0,0,1,3.74,1.34,4.79,4.79,0,0,1,1.36,3.55,5.09,5.09,0,0,1-1.4,3.77A5.21,5.21,0,0,1,115.5,170.51Zm.07-7.78a2,2,0,0,0-1.62.72,3.16,3.16,0,0,0-.58,2q0,2.76,2.22,2.76c1.42,0,2.13-.95,2.13-2.84S117,162.73,115.57,162.73Z"/><path class="d" d="M125.56,170.11a5.22,5.22,0,0,1-1,3.39,3.63,3.63,0,0,1-3,1.27,4.05,4.05,0,0,1-1.41-.28v-2.32a2.29,2.29,0,0,0,1.09.35c.93,0,1.4-.73,1.4-2.19V160.7h3Zm-1.46-10.92a1.69,1.69,0,0,1-1.22-.45,1.42,1.42,0,0,1-.48-1.09,1.37,1.37,0,0,1,.48-1.08,2,2,0,0,1,2.45,0,1.36,1.36,0,0,1,.47,1.08,1.42,1.42,0,0,1-.47,1.11A1.77,1.77,0,0,1,124.1,159.19Z"/><path class="d" d="M137.15,170.28h-3v-1.46h0a3.33,3.33,0,0,1-2.92,1.69q-3.33,0-3.33-4V160.7h2.94v5.52c0,1.35.54,2,1.61,2a1.58,1.58,0,0,0,1.27-.56,2.22,2.22,0,0,0,.48-1.51V160.7h3Z"/><path class="d" d="M148.23,166.33H142c.1,1.39,1,2.08,2.63,2.08a5.08,5.08,0,0,0,2.77-.74v2.13a7.31,7.31,0,0,1-3.45.71,4.46,4.46,0,0,1-4.88-4.87,5.1,5.1,0,0,1,1.39-3.78,4.59,4.59,0,0,1,3.4-1.39,4.17,4.17,0,0,1,3.24,1.24,4.82,4.82,0,0,1,1.14,3.38Zm-2.74-1.81c0-1.38-.55-2.06-1.66-2.06a1.61,1.61,0,0,0-1.23.59,2.67,2.67,0,0,0-.63,1.47Z"/><path class="d" d="M159.38,169.18a5.42,5.42,0,0,1-1.54,4.13,6.28,6.28,0,0,1-4.47,1.46,7.09,7.09,0,0,1-3.07-.55v-2.49a5.82,5.82,0,0,0,3,.86,3.2,3.2,0,0,0,2.32-.79,2.82,2.82,0,0,0,.83-2.14v-.76h0a3.31,3.31,0,0,1-3,1.61,3.57,3.57,0,0,1-2.91-1.29,5.21,5.21,0,0,1-1.08-3.46,5.81,5.81,0,0,1,1.2-3.86,3.89,3.89,0,0,1,3.15-1.43,2.92,2.92,0,0,1,2.62,1.34h0V160.7h2.95Zm-2.92-3.5v-.76a2.32,2.32,0,0,0-.54-1.55,1.71,1.71,0,0,0-1.39-.64,1.83,1.83,0,0,0-1.55.77,3.63,3.63,0,0,0-.56,2.16,3,3,0,0,0,.54,1.89,1.71,1.71,0,0,0,1.45.7,1.82,1.82,0,0,0,1.49-.71A2.92,2.92,0,0,0,156.46,165.68Z"/><path class="d" d="M166.41,170.51a5.16,5.16,0,0,1-3.76-1.34,5.55,5.55,0,0,1,0-7.36,5.39,5.39,0,0,1,3.84-1.34,5.1,5.1,0,0,1,3.74,1.34,4.75,4.75,0,0,1,1.36,3.55,5.09,5.09,0,0,1-1.4,3.77A5.21,5.21,0,0,1,166.41,170.51Zm.08-7.78a2,2,0,0,0-1.63.72,3.16,3.16,0,0,0-.58,2q0,2.76,2.22,2.76c1.42,0,2.13-.95,2.13-2.84S167.91,162.73,166.49,162.73Z"/><path class="d" d="M172.93,170v-2.39a6.17,6.17,0,0,0,1.45.65,4.65,4.65,0,0,0,1.37.22,2.81,2.81,0,0,0,1.24-.22.69.69,0,0,0,.45-.65.6.6,0,0,0-.2-.47,2.19,2.19,0,0,0-.53-.33,7.24,7.24,0,0,0-.71-.25c-.25-.07-.5-.16-.73-.25a7.39,7.39,0,0,1-1-.46,3.06,3.06,0,0,1-.73-.58,2.32,2.32,0,0,1-.45-.76,3,3,0,0,1-.15-1,2.59,2.59,0,0,1,.35-1.39,2.91,2.91,0,0,1,.93-.95,4.59,4.59,0,0,1,1.34-.54,7.26,7.26,0,0,1,1.57-.17,8.19,8.19,0,0,1,1.29.1,9.92,9.92,0,0,1,1.29.28v2.28a4.81,4.81,0,0,0-1.2-.49,5.06,5.06,0,0,0-1.26-.16,3.21,3.21,0,0,0-.55.05,1.49,1.49,0,0,0-.45.15.78.78,0,0,0-.31.25.54.54,0,0,0-.11.35.6.6,0,0,0,.17.45,1.31,1.31,0,0,0,.43.32,4.85,4.85,0,0,0,.61.25l.66.22a7.52,7.52,0,0,1,1.06.44,3.64,3.64,0,0,1,.82.58,2.1,2.1,0,0,1,.52.76,2.56,2.56,0,0,1,.19,1,2.76,2.76,0,0,1-.37,1.45,3.09,3.09,0,0,1-1,1,4.62,4.62,0,0,1-1.42.55,8.12,8.12,0,0,1-1.66.17A8.4,8.4,0,0,1,172.93,170Z"/></g></g><path class="e" d="M164.94,92.46l-2.83-25h0a16.56,16.56,0,0,0-16.53-15.35,16.22,16.22,0,0,0-13,6.28H117.41a16.2,16.2,0,0,0-13-6.28A16.57,16.57,0,0,0,87.9,67.49h0l-2.82,25a6.65,6.65,0,0,0,4,6.87l2.8,1.2a6.66,6.66,0,0,0,7.58-1.69l13.4-15h24.33l13.4,15a6.63,6.63,0,0,0,7.57,1.68l2.81-1.2A6.65,6.65,0,0,0,164.94,92.46Z"/><circle class="f" cx="104.56" cy="68.81" r="10.83"/><circle class="f" cx="146.26" cy="68.8" r="10.82"/><circle class="g" cx="146.29" cy="63.18" r="2.51"/><path class="h" d="M148.8,74a2.51,2.51,0,1,1-2.51-2.5h0A2.5,2.5,0,0,1,148.8,74Z"/><circle class="i" cx="151.68" cy="68.57" r="2.51"/><circle class="j" cx="140.9" cy="68.57" r="2.51"/><path class="k" d="M109.59,67.53H106l-.49-4.8a1,1,0,0,0-1-.86h-1.19a.93.93,0,0,0-.71.25,1,1,0,0,0-.25.74l.27,4.67H98.18c-.53,0-1.16.34-1.16.87v.91a1.24,1.24,0,0,0,1.16,1h4.66l.29,4.76a1,1,0,0,0,1,.9h1.72a1,1,0,0,0,.71-.35.92.92,0,0,0,.24-.72l-.47-4.59h3.31c.53,0,.79-.52.79-1V68.4C110.38,67.87,110.12,67.53,109.59,67.53Z"/><path class="l" d="M123.11,65.25a.55.55,0,0,1-.55.55h-3.14a.55.55,0,0,1-.55-.55h0a.54.54,0,0,1,.55-.55h3.14a.54.54,0,0,1,.55.55Z"/><path class="l" d="M130.5,65.25a.55.55,0,0,1-.55.55h-3.14a.55.55,0,0,1-.55-.55h0a.54.54,0,0,1,.55-.55H130A.55.55,0,0,1,130.5,65.25Z"/></svg>